G04 #@! TF.GenerationSoftware,KiCad,Pcbnew,6.0.1-79c1e3a40b~116~ubuntu20.04.1*
G04 #@! TF.CreationDate,2022-01-30T08:46:23-05:00*
G04 #@! TF.ProjectId,opamptest,6f70616d-7074-4657-9374-2e6b69636164,rev?*
G04 #@! TF.SameCoordinates,Original*
G04 #@! TF.FileFunction,Copper,L1,Top*
G04 #@! TF.FilePolarity,Positive*
%FSLAX46Y46*%
G04 Gerber Fmt 4.6, Leading zero omitted, Abs format (unit mm)*
G04 Created by KiCad (PCBNEW 6.0.1-79c1e3a40b~116~ubuntu20.04.1) date 2022-01-30 08:46:23*
%MOMM*%
%LPD*%
G01*
G04 APERTURE LIST*
G04 #@! TA.AperFunction,ComponentPad*
%ADD10C,1.600000*%
G04 #@! TD*
G04 #@! TA.AperFunction,ComponentPad*
%ADD11O,1.600000X1.600000*%
G04 #@! TD*
G04 #@! TA.AperFunction,ComponentPad*
%ADD12R,1.600000X2.400000*%
G04 #@! TD*
G04 #@! TA.AperFunction,ComponentPad*
%ADD13O,1.600000X2.400000*%
G04 #@! TD*
G04 #@! TA.AperFunction,ComponentPad*
%ADD14R,1.800000X1.800000*%
G04 #@! TD*
G04 #@! TA.AperFunction,ComponentPad*
%ADD15C,1.800000*%
G04 #@! TD*
G04 #@! TA.AperFunction,ComponentPad*
%ADD16R,3.000000X3.000000*%
G04 #@! TD*
G04 #@! TA.AperFunction,ComponentPad*
%ADD17C,3.000000*%
G04 #@! TD*
G04 #@! TA.AperFunction,ComponentPad*
%ADD18C,2.000000*%
G04 #@! TD*
G04 #@! TA.AperFunction,Conductor*
%ADD19C,0.250000*%
G04 #@! TD*
G04 #@! TA.AperFunction,Conductor*
%ADD20C,0.750000*%
G04 #@! TD*
G04 APERTURE END LIST*
D10*
G04 #@! TO.P,R8,1*
G04 #@! TO.N,Net-(R7-Pad2)*
X137160000Y-55880000D03*
D11*
G04 #@! TO.P,R8,2*
G04 #@! TO.N,Net-(D2-Pad2)*
X137160000Y-45720000D03*
G04 #@! TD*
D10*
G04 #@! TO.P,R5,1*
G04 #@! TO.N,TL074_1*
X152400000Y-55880000D03*
D11*
G04 #@! TO.P,R5,2*
G04 #@! TO.N,Net-(D1-Pad2)*
X152400000Y-45720000D03*
G04 #@! TD*
D12*
G04 #@! TO.P,U2,1*
G04 #@! TO.N,TL074_1*
X152405000Y-60960000D03*
D13*
G04 #@! TO.P,U2,2,-*
G04 #@! TO.N,TL074_2*
X149865000Y-60960000D03*
G04 #@! TO.P,U2,3,+*
G04 #@! TO.N,INPUT*
X147325000Y-60960000D03*
G04 #@! TO.P,U2,4,V+*
G04 #@! TO.N,+12V*
X144785000Y-60960000D03*
G04 #@! TO.P,U2,5,+*
G04 #@! TO.N,INPUT*
X142245000Y-60960000D03*
G04 #@! TO.P,U2,6,-*
G04 #@! TO.N,Net-(R6-Pad1)*
X139705000Y-60960000D03*
G04 #@! TO.P,U2,7*
G04 #@! TO.N,Net-(R7-Pad2)*
X137165000Y-60960000D03*
G04 #@! TO.P,U2,8*
G04 #@! TO.N,Net-(R10-Pad2)*
X137165000Y-68580000D03*
G04 #@! TO.P,U2,9,-*
G04 #@! TO.N,Net-(R10-Pad1)*
X139705000Y-68580000D03*
G04 #@! TO.P,U2,10,+*
G04 #@! TO.N,INPUT*
X142245000Y-68580000D03*
G04 #@! TO.P,U2,11,V-*
G04 #@! TO.N,-12V*
X144785000Y-68580000D03*
G04 #@! TO.P,U2,12,+*
G04 #@! TO.N,INPUT*
X147325000Y-68580000D03*
G04 #@! TO.P,U2,13,-*
G04 #@! TO.N,TL074_13*
X149865000Y-68580000D03*
G04 #@! TO.P,U2,14*
G04 #@! TO.N,TL074_14*
X152405000Y-68580000D03*
G04 #@! TD*
D10*
G04 #@! TO.P,R10,1*
G04 #@! TO.N,Net-(R10-Pad1)*
X132080000Y-83820000D03*
D11*
G04 #@! TO.P,R10,2*
G04 #@! TO.N,Net-(R10-Pad2)*
X132080000Y-73660000D03*
G04 #@! TD*
D10*
G04 #@! TO.P,R12,1*
G04 #@! TO.N,TL074_13*
X147320000Y-73660000D03*
D11*
G04 #@! TO.P,R12,2*
G04 #@! TO.N,GND*
X147320000Y-83820000D03*
G04 #@! TD*
D12*
G04 #@! TO.P,U1,1,NULL*
G04 #@! TO.N,unconnected-(U1-Pad1)*
X172720000Y-48260000D03*
D13*
G04 #@! TO.P,U1,2,-*
G04 #@! TO.N,TL074_2*
X170180000Y-48260000D03*
G04 #@! TO.P,U1,3,+*
G04 #@! TO.N,INPUT*
X167640000Y-48260000D03*
G04 #@! TO.P,U1,4,V-*
G04 #@! TO.N,-12V*
X165100000Y-48260000D03*
G04 #@! TO.P,U1,5,NULL*
G04 #@! TO.N,unconnected-(U1-Pad5)*
X165100000Y-55880000D03*
G04 #@! TO.P,U1,6*
G04 #@! TO.N,TL074_1*
X167640000Y-55880000D03*
G04 #@! TO.P,U1,7,V+*
G04 #@! TO.N,+12V*
X170180000Y-55880000D03*
G04 #@! TO.P,U1,8,NC*
G04 #@! TO.N,unconnected-(U1-Pad8)*
X172720000Y-55880000D03*
G04 #@! TD*
D10*
G04 #@! TO.P,R2,1*
G04 #@! TO.N,Net-(R1-Pad2)*
X186690000Y-38100000D03*
D11*
G04 #@! TO.P,R2,2*
G04 #@! TO.N,-12V*
X186690000Y-48260000D03*
G04 #@! TD*
D10*
G04 #@! TO.P,R13,1*
G04 #@! TO.N,TL074_13*
X157480000Y-83820000D03*
D11*
G04 #@! TO.P,R13,2*
G04 #@! TO.N,TL074_14*
X157480000Y-73660000D03*
G04 #@! TD*
D10*
G04 #@! TO.P,R11,1*
G04 #@! TO.N,Net-(R10-Pad2)*
X137160000Y-73660000D03*
D11*
G04 #@! TO.P,R11,2*
G04 #@! TO.N,Net-(D3-Pad2)*
X137160000Y-83820000D03*
G04 #@! TD*
D14*
G04 #@! TO.P,D3,1,K*
G04 #@! TO.N,GND*
X137160000Y-91440000D03*
D15*
G04 #@! TO.P,D3,2,A*
G04 #@! TO.N,Net-(D3-Pad2)*
X137160000Y-88900000D03*
G04 #@! TD*
D10*
G04 #@! TO.P,R6,1*
G04 #@! TO.N,Net-(R6-Pad1)*
X142240000Y-55880000D03*
D11*
G04 #@! TO.P,R6,2*
G04 #@! TO.N,GND*
X142240000Y-45720000D03*
G04 #@! TD*
D10*
G04 #@! TO.P,R1,1*
G04 #@! TO.N,+12V*
X181610000Y-48260000D03*
D11*
G04 #@! TO.P,R1,2*
G04 #@! TO.N,Net-(R1-Pad2)*
X181610000Y-38100000D03*
G04 #@! TD*
D12*
G04 #@! TO.P,U3,1*
G04 #@! TO.N,TL074_1*
X172720000Y-73660000D03*
D13*
G04 #@! TO.P,U3,2,-*
G04 #@! TO.N,TL074_2*
X170180000Y-73660000D03*
G04 #@! TO.P,U3,3,+*
G04 #@! TO.N,INPUT*
X167640000Y-73660000D03*
G04 #@! TO.P,U3,4,V-*
G04 #@! TO.N,-12V*
X165100000Y-73660000D03*
G04 #@! TO.P,U3,5,+*
G04 #@! TO.N,INPUT*
X165100000Y-81280000D03*
G04 #@! TO.P,U3,6,-*
G04 #@! TO.N,TL074_13*
X167640000Y-81280000D03*
G04 #@! TO.P,U3,7*
G04 #@! TO.N,TL074_14*
X170180000Y-81280000D03*
G04 #@! TO.P,U3,8,V+*
G04 #@! TO.N,+12V*
X172720000Y-81280000D03*
G04 #@! TD*
D10*
G04 #@! TO.P,R14,1*
G04 #@! TO.N,TL074_14*
X152400000Y-73660000D03*
D11*
G04 #@! TO.P,R14,2*
G04 #@! TO.N,Net-(D4-Pad2)*
X152400000Y-83820000D03*
G04 #@! TD*
D10*
G04 #@! TO.P,R3,1*
G04 #@! TO.N,TL074_2*
X147320000Y-55880000D03*
D11*
G04 #@! TO.P,R3,2*
G04 #@! TO.N,GND*
X147320000Y-45720000D03*
G04 #@! TD*
D10*
G04 #@! TO.P,R4,1*
G04 #@! TO.N,TL074_2*
X157480000Y-45720000D03*
D11*
G04 #@! TO.P,R4,2*
G04 #@! TO.N,TL074_1*
X157480000Y-55880000D03*
G04 #@! TD*
D10*
G04 #@! TO.P,R15,1*
G04 #@! TO.N,INPUT*
X176530000Y-48260000D03*
D11*
G04 #@! TO.P,R15,2*
G04 #@! TO.N,GND*
X176530000Y-38100000D03*
G04 #@! TD*
D10*
G04 #@! TO.P,R9,1*
G04 #@! TO.N,Net-(R10-Pad1)*
X142240000Y-73660000D03*
D11*
G04 #@! TO.P,R9,2*
G04 #@! TO.N,GND*
X142240000Y-83820000D03*
G04 #@! TD*
D14*
G04 #@! TO.P,D1,1,K*
G04 #@! TO.N,GND*
X152400000Y-38100000D03*
D15*
G04 #@! TO.P,D1,2,A*
G04 #@! TO.N,Net-(D1-Pad2)*
X152400000Y-40640000D03*
G04 #@! TD*
D10*
G04 #@! TO.P,R7,1*
G04 #@! TO.N,Net-(R6-Pad1)*
X132080000Y-45720000D03*
D11*
G04 #@! TO.P,R7,2*
G04 #@! TO.N,Net-(R7-Pad2)*
X132080000Y-55880000D03*
G04 #@! TD*
D16*
G04 #@! TO.P,J1,1,Pin_1*
G04 #@! TO.N,-12V*
X182880000Y-59690000D03*
D17*
G04 #@! TO.P,J1,2,Pin_2*
G04 #@! TO.N,GND*
X182880000Y-64690000D03*
G04 #@! TO.P,J1,3,Pin_3*
G04 #@! TO.N,+12V*
X182880000Y-69690000D03*
G04 #@! TD*
D14*
G04 #@! TO.P,D4,1,K*
G04 #@! TO.N,GND*
X152400000Y-91440000D03*
D15*
G04 #@! TO.P,D4,2,A*
G04 #@! TO.N,Net-(D4-Pad2)*
X152400000Y-88900000D03*
G04 #@! TD*
D18*
G04 #@! TO.P,SW1,1,1*
G04 #@! TO.N,Net-(R1-Pad2)*
X170180000Y-44600000D03*
X170180000Y-38100000D03*
G04 #@! TO.P,SW1,2,2*
G04 #@! TO.N,INPUT*
X165680000Y-44600000D03*
X165680000Y-38100000D03*
G04 #@! TD*
D14*
G04 #@! TO.P,D2,1,K*
G04 #@! TO.N,GND*
X137160000Y-38100000D03*
D15*
G04 #@! TO.P,D2,2,A*
G04 #@! TO.N,Net-(D2-Pad2)*
X137160000Y-40640000D03*
G04 #@! TD*
D19*
G04 #@! TO.N,Net-(D1-Pad2)*
X152400000Y-40640000D02*
X152400000Y-45720000D01*
G04 #@! TO.N,Net-(D2-Pad2)*
X137160000Y-40640000D02*
X137160000Y-45720000D01*
G04 #@! TO.N,Net-(D3-Pad2)*
X137160000Y-83820000D02*
X137160000Y-88900000D01*
G04 #@! TO.N,Net-(D4-Pad2)*
X152400000Y-83820000D02*
X152400000Y-88900000D01*
D20*
G04 #@! TO.N,+12V*
X173482000Y-52578000D02*
X177292000Y-52578000D01*
X170180000Y-55880000D02*
X173482000Y-52578000D01*
X182880000Y-69690000D02*
X182880000Y-68580000D01*
X177292000Y-52578000D02*
X181610000Y-48260000D01*
X182880000Y-68580000D02*
X170180000Y-55880000D01*
G04 #@! TO.N,-12V*
X186690000Y-55880000D02*
X186690000Y-48260000D01*
X163725480Y-72285480D02*
X163725480Y-49634520D01*
X182880000Y-59690000D02*
X186690000Y-55880000D01*
X163725480Y-49634520D02*
X165100000Y-48260000D01*
X165100000Y-73660000D02*
X163725480Y-72285480D01*
D19*
G04 #@! TO.N,INPUT*
X165100000Y-81280000D02*
X165100000Y-76200000D01*
X167640000Y-46560000D02*
X165680000Y-44600000D01*
X147325000Y-60960000D02*
X147325000Y-68580000D01*
X165100000Y-76200000D02*
X167640000Y-73660000D01*
X176530000Y-48260000D02*
X175005480Y-49784520D01*
X169164520Y-49784520D02*
X167640000Y-48260000D01*
X165680000Y-38100000D02*
X165680000Y-44600000D01*
X166515480Y-72535480D02*
X167640000Y-73660000D01*
X175005480Y-49784520D02*
X169164520Y-49784520D01*
X167640000Y-48260000D02*
X166515480Y-49384520D01*
X166515480Y-49384520D02*
X166515480Y-72535480D01*
X167640000Y-48260000D02*
X167640000Y-46560000D01*
G04 #@! TO.N,TL074_2*
X149865000Y-60960000D02*
X149865000Y-58425000D01*
X147320000Y-55880000D02*
X157480000Y-45720000D01*
X149865000Y-58425000D02*
X147320000Y-55880000D01*
G04 #@! TO.N,TL074_1*
X152405000Y-55885000D02*
X152400000Y-55880000D01*
X152405000Y-60960000D02*
X152405000Y-55885000D01*
X167640000Y-55880000D02*
X167640000Y-68580000D01*
X167640000Y-68580000D02*
X172720000Y-73660000D01*
G04 #@! TO.N,TL074_13*
X149865000Y-71115000D02*
X147320000Y-73660000D01*
X157480000Y-83820000D02*
X147320000Y-73660000D01*
X149865000Y-68580000D02*
X149865000Y-71115000D01*
G04 #@! TO.N,TL074_14*
X152405000Y-73655000D02*
X152400000Y-73660000D01*
X152405000Y-68580000D02*
X152405000Y-73655000D01*
G04 #@! TO.N,Net-(R1-Pad2)*
X170180000Y-38100000D02*
X170180000Y-44600000D01*
G04 #@! TO.N,Net-(R10-Pad1)*
X139705000Y-68580000D02*
X139705000Y-71125000D01*
X132080000Y-83820000D02*
X142240000Y-73660000D01*
X139705000Y-71125000D02*
X142240000Y-73660000D01*
G04 #@! TO.N,Net-(R7-Pad2)*
X137160000Y-60955000D02*
X137165000Y-60960000D01*
X137160000Y-55880000D02*
X137160000Y-60955000D01*
G04 #@! TO.N,Net-(R6-Pad1)*
X139705000Y-58415000D02*
X142240000Y-55880000D01*
X139705000Y-60960000D02*
X139705000Y-58415000D01*
X142240000Y-55880000D02*
X132080000Y-45720000D01*
G04 #@! TO.N,Net-(R10-Pad2)*
X137165000Y-73655000D02*
X137160000Y-73660000D01*
X137165000Y-68580000D02*
X137165000Y-73655000D01*
G04 #@! TD*
G04 #@! TA.AperFunction,Conductor*
G04 #@! TO.N,GND*
G36*
X189434121Y-35528002D02*
G01*
X189480614Y-35581658D01*
X189492000Y-35634000D01*
X189492000Y-94366000D01*
X189471998Y-94434121D01*
X189418342Y-94480614D01*
X189366000Y-94492000D01*
X129634000Y-94492000D01*
X129565879Y-94471998D01*
X129519386Y-94418342D01*
X129508000Y-94366000D01*
X129508000Y-92384669D01*
X135752001Y-92384669D01*
X135752371Y-92391490D01*
X135757895Y-92442352D01*
X135761521Y-92457604D01*
X135806676Y-92578054D01*
X135815214Y-92593649D01*
X135891715Y-92695724D01*
X135904276Y-92708285D01*
X136006351Y-92784786D01*
X136021946Y-92793324D01*
X136142394Y-92838478D01*
X136157649Y-92842105D01*
X136208514Y-92847631D01*
X136215328Y-92848000D01*
X136887885Y-92848000D01*
X136903124Y-92843525D01*
X136904329Y-92842135D01*
X136906000Y-92834452D01*
X136906000Y-92829884D01*
X137414000Y-92829884D01*
X137418475Y-92845123D01*
X137419865Y-92846328D01*
X137427548Y-92847999D01*
X138104669Y-92847999D01*
X138111490Y-92847629D01*
X138162352Y-92842105D01*
X138177604Y-92838479D01*
X138298054Y-92793324D01*
X138313649Y-92784786D01*
X138415724Y-92708285D01*
X138428285Y-92695724D01*
X138504786Y-92593649D01*
X138513324Y-92578054D01*
X138558478Y-92457606D01*
X138562105Y-92442351D01*
X138567631Y-92391486D01*
X138568000Y-92384672D01*
X138568000Y-92384669D01*
X150992001Y-92384669D01*
X150992371Y-92391490D01*
X150997895Y-92442352D01*
X151001521Y-92457604D01*
X151046676Y-92578054D01*
X151055214Y-92593649D01*
X151131715Y-92695724D01*
X151144276Y-92708285D01*
X151246351Y-92784786D01*
X151261946Y-92793324D01*
X151382394Y-92838478D01*
X151397649Y-92842105D01*
X151448514Y-92847631D01*
X151455328Y-92848000D01*
X152127885Y-92848000D01*
X152143124Y-92843525D01*
X152144329Y-92842135D01*
X152146000Y-92834452D01*
X152146000Y-92829884D01*
X152654000Y-92829884D01*
X152658475Y-92845123D01*
X152659865Y-92846328D01*
X152667548Y-92847999D01*
X153344669Y-92847999D01*
X153351490Y-92847629D01*
X153402352Y-92842105D01*
X153417604Y-92838479D01*
X153538054Y-92793324D01*
X153553649Y-92784786D01*
X153655724Y-92708285D01*
X153668285Y-92695724D01*
X153744786Y-92593649D01*
X153753324Y-92578054D01*
X153798478Y-92457606D01*
X153802105Y-92442351D01*
X153807631Y-92391486D01*
X153808000Y-92384672D01*
X153808000Y-91712115D01*
X153803525Y-91696876D01*
X153802135Y-91695671D01*
X153794452Y-91694000D01*
X152672115Y-91694000D01*
X152656876Y-91698475D01*
X152655671Y-91699865D01*
X152654000Y-91707548D01*
X152654000Y-92829884D01*
X152146000Y-92829884D01*
X152146000Y-91712115D01*
X152141525Y-91696876D01*
X152140135Y-91695671D01*
X152132452Y-91694000D01*
X151010116Y-91694000D01*
X150994877Y-91698475D01*
X150993672Y-91699865D01*
X150992001Y-91707548D01*
X150992001Y-92384669D01*
X138568000Y-92384669D01*
X138568000Y-91712115D01*
X138563525Y-91696876D01*
X138562135Y-91695671D01*
X138554452Y-91694000D01*
X137432115Y-91694000D01*
X137416876Y-91698475D01*
X137415671Y-91699865D01*
X137414000Y-91707548D01*
X137414000Y-92829884D01*
X136906000Y-92829884D01*
X136906000Y-91712115D01*
X136901525Y-91696876D01*
X136900135Y-91695671D01*
X136892452Y-91694000D01*
X135770116Y-91694000D01*
X135754877Y-91698475D01*
X135753672Y-91699865D01*
X135752001Y-91707548D01*
X135752001Y-92384669D01*
X129508000Y-92384669D01*
X129508000Y-88865469D01*
X135747095Y-88865469D01*
X135747392Y-88870622D01*
X135747392Y-88870625D01*
X135753067Y-88969041D01*
X135760427Y-89096697D01*
X135761564Y-89101743D01*
X135761565Y-89101749D01*
X135793741Y-89244523D01*
X135811346Y-89322642D01*
X135813288Y-89327424D01*
X135813289Y-89327428D01*
X135896540Y-89532450D01*
X135898484Y-89537237D01*
X136019501Y-89734719D01*
X136022882Y-89738622D01*
X136131653Y-89864191D01*
X136161135Y-89928776D01*
X136151020Y-89999049D01*
X136104519Y-90052697D01*
X136080646Y-90064670D01*
X136021944Y-90086677D01*
X136006351Y-90095214D01*
X135904276Y-90171715D01*
X135891715Y-90184276D01*
X135815214Y-90286351D01*
X135806676Y-90301946D01*
X135761522Y-90422394D01*
X135757895Y-90437649D01*
X135752369Y-90488514D01*
X135752000Y-90495328D01*
X135752000Y-91167885D01*
X135756475Y-91183124D01*
X135757865Y-91184329D01*
X135765548Y-91186000D01*
X138549884Y-91186000D01*
X138565123Y-91181525D01*
X138566328Y-91180135D01*
X138567999Y-91172452D01*
X138567999Y-90495331D01*
X138567629Y-90488510D01*
X138562105Y-90437648D01*
X138558479Y-90422396D01*
X138513324Y-90301946D01*
X138504786Y-90286351D01*
X138428285Y-90184276D01*
X138415724Y-90171715D01*
X138313649Y-90095214D01*
X138298052Y-90086675D01*
X138239415Y-90064693D01*
X138182650Y-90022052D01*
X138157950Y-89955490D01*
X138173157Y-89886141D01*
X138194703Y-89857461D01*
X138232641Y-89819654D01*
X138236303Y-89816005D01*
X138371458Y-89627917D01*
X138418641Y-89532450D01*
X138471784Y-89424922D01*
X138471785Y-89424920D01*
X138474078Y-89420280D01*
X138541408Y-89198671D01*
X138571640Y-88969041D01*
X138573327Y-88900000D01*
X138570488Y-88865469D01*
X150987095Y-88865469D01*
X150987392Y-88870622D01*
X150987392Y-88870625D01*
X150993067Y-88969041D01*
X151000427Y-89096697D01*
X151001564Y-89101743D01*
X151001565Y-89101749D01*
X151033741Y-89244523D01*
X151051346Y-89322642D01*
X151053288Y-89327424D01*
X151053289Y-89327428D01*
X151136540Y-89532450D01*
X151138484Y-89537237D01*
X151259501Y-89734719D01*
X151262882Y-89738622D01*
X151371653Y-89864191D01*
X151401135Y-89928776D01*
X151391020Y-89999049D01*
X151344519Y-90052697D01*
X151320646Y-90064670D01*
X151261944Y-90086677D01*
X151246351Y-90095214D01*
X151144276Y-90171715D01*
X151131715Y-90184276D01*
X151055214Y-90286351D01*
X151046676Y-90301946D01*
X151001522Y-90422394D01*
X150997895Y-90437649D01*
X150992369Y-90488514D01*
X150992000Y-90495328D01*
X150992000Y-91167885D01*
X150996475Y-91183124D01*
X150997865Y-91184329D01*
X151005548Y-91186000D01*
X153789884Y-91186000D01*
X153805123Y-91181525D01*
X153806328Y-91180135D01*
X153807999Y-91172452D01*
X153807999Y-90495331D01*
X153807629Y-90488510D01*
X153802105Y-90437648D01*
X153798479Y-90422396D01*
X153753324Y-90301946D01*
X153744786Y-90286351D01*
X153668285Y-90184276D01*
X153655724Y-90171715D01*
X153553649Y-90095214D01*
X153538052Y-90086675D01*
X153479415Y-90064693D01*
X153422650Y-90022052D01*
X153397950Y-89955490D01*
X153413157Y-89886141D01*
X153434703Y-89857461D01*
X153472641Y-89819654D01*
X153476303Y-89816005D01*
X153611458Y-89627917D01*
X153658641Y-89532450D01*
X153711784Y-89424922D01*
X153711785Y-89424920D01*
X153714078Y-89420280D01*
X153781408Y-89198671D01*
X153811640Y-88969041D01*
X153813327Y-88900000D01*
X153807032Y-88823434D01*
X153794773Y-88674318D01*
X153794772Y-88674312D01*
X153794349Y-88669167D01*
X153737925Y-88444533D01*
X153735866Y-88439797D01*
X153647630Y-88236868D01*
X153647628Y-88236865D01*
X153645570Y-88232131D01*
X153519764Y-88037665D01*
X153363887Y-87866358D01*
X153359836Y-87863159D01*
X153359832Y-87863155D01*
X153186178Y-87726012D01*
X153186175Y-87726010D01*
X153182123Y-87722810D01*
X153098607Y-87676707D01*
X153048636Y-87626274D01*
X153033500Y-87566398D01*
X153033500Y-85039394D01*
X153053502Y-84971273D01*
X153087229Y-84936181D01*
X153239789Y-84829357D01*
X153239792Y-84829355D01*
X153244300Y-84826198D01*
X153406198Y-84664300D01*
X153537523Y-84476749D01*
X153539846Y-84471767D01*
X153539849Y-84471762D01*
X153631961Y-84274225D01*
X153631961Y-84274224D01*
X153634284Y-84269243D01*
X153682970Y-84087548D01*
X153692119Y-84053402D01*
X153692119Y-84053400D01*
X153693543Y-84048087D01*
X153713498Y-83820000D01*
X153693543Y-83591913D01*
X153683244Y-83553478D01*
X153635707Y-83376067D01*
X153635706Y-83376065D01*
X153634284Y-83370757D01*
X153539966Y-83168489D01*
X153539849Y-83168238D01*
X153539846Y-83168233D01*
X153537523Y-83163251D01*
X153464098Y-83058389D01*
X153409357Y-82980211D01*
X153409355Y-82980208D01*
X153406198Y-82975700D01*
X153244300Y-82813802D01*
X153239792Y-82810645D01*
X153239789Y-82810643D01*
X153161611Y-82755902D01*
X153056749Y-82682477D01*
X153051767Y-82680154D01*
X153051762Y-82680151D01*
X152854225Y-82588039D01*
X152854224Y-82588039D01*
X152849243Y-82585716D01*
X152843935Y-82584294D01*
X152843933Y-82584293D01*
X152633402Y-82527881D01*
X152633400Y-82527881D01*
X152628087Y-82526457D01*
X152400000Y-82506502D01*
X152171913Y-82526457D01*
X152166600Y-82527881D01*
X152166598Y-82527881D01*
X151956067Y-82584293D01*
X151956065Y-82584294D01*
X151950757Y-82585716D01*
X151945776Y-82588039D01*
X151945775Y-82588039D01*
X151748238Y-82680151D01*
X151748233Y-82680154D01*
X151743251Y-82682477D01*
X151638389Y-82755902D01*
X151560211Y-82810643D01*
X151560208Y-82810645D01*
X151555700Y-82813802D01*
X151393802Y-82975700D01*
X151390645Y-82980208D01*
X151390643Y-82980211D01*
X151335902Y-83058389D01*
X151262477Y-83163251D01*
X151260154Y-83168233D01*
X151260151Y-83168238D01*
X151260034Y-83168489D01*
X151165716Y-83370757D01*
X151164294Y-83376065D01*
X151164293Y-83376067D01*
X151116756Y-83553478D01*
X151106457Y-83591913D01*
X151086502Y-83820000D01*
X151106457Y-84048087D01*
X151107881Y-84053400D01*
X151107881Y-84053402D01*
X151117031Y-84087548D01*
X151165716Y-84269243D01*
X151168039Y-84274224D01*
X151168039Y-84274225D01*
X151260151Y-84471762D01*
X151260154Y-84471767D01*
X151262477Y-84476749D01*
X151393802Y-84664300D01*
X151555700Y-84826198D01*
X151560208Y-84829355D01*
X151560211Y-84829357D01*
X151712771Y-84936181D01*
X151757099Y-84991638D01*
X151766500Y-85039394D01*
X151766500Y-87565319D01*
X151746498Y-87633440D01*
X151698679Y-87677083D01*
X151646872Y-87704052D01*
X151461655Y-87843117D01*
X151301639Y-88010564D01*
X151298725Y-88014836D01*
X151298724Y-88014837D01*
X151283152Y-88037665D01*
X151171119Y-88201899D01*
X151073602Y-88411981D01*
X151011707Y-88635169D01*
X150987095Y-88865469D01*
X138570488Y-88865469D01*
X138567032Y-88823434D01*
X138554773Y-88674318D01*
X138554772Y-88674312D01*
X138554349Y-88669167D01*
X138497925Y-88444533D01*
X138495866Y-88439797D01*
X138407630Y-88236868D01*
X138407628Y-88236865D01*
X138405570Y-88232131D01*
X138279764Y-88037665D01*
X138123887Y-87866358D01*
X138119836Y-87863159D01*
X138119832Y-87863155D01*
X137946178Y-87726012D01*
X137946175Y-87726010D01*
X137942123Y-87722810D01*
X137858607Y-87676707D01*
X137808636Y-87626274D01*
X137793500Y-87566398D01*
X137793500Y-85039394D01*
X137813502Y-84971273D01*
X137847229Y-84936181D01*
X137999789Y-84829357D01*
X137999792Y-84829355D01*
X138004300Y-84826198D01*
X138166198Y-84664300D01*
X138297523Y-84476749D01*
X138299846Y-84471767D01*
X138299849Y-84471762D01*
X138391961Y-84274225D01*
X138391961Y-84274224D01*
X138394284Y-84269243D01*
X138442970Y-84087548D01*
X138443245Y-84086522D01*
X140957273Y-84086522D01*
X141004764Y-84263761D01*
X141008510Y-84274053D01*
X141100586Y-84471511D01*
X141106069Y-84481007D01*
X141231028Y-84659467D01*
X141238084Y-84667875D01*
X141392125Y-84821916D01*
X141400533Y-84828972D01*
X141578993Y-84953931D01*
X141588489Y-84959414D01*
X141785947Y-85051490D01*
X141796239Y-85055236D01*
X141968503Y-85101394D01*
X141982599Y-85101058D01*
X141986000Y-85093116D01*
X141986000Y-85087967D01*
X142494000Y-85087967D01*
X142497973Y-85101498D01*
X142506522Y-85102727D01*
X142683761Y-85055236D01*
X142694053Y-85051490D01*
X142891511Y-84959414D01*
X142901007Y-84953931D01*
X143079467Y-84828972D01*
X143087875Y-84821916D01*
X143241916Y-84667875D01*
X143248972Y-84659467D01*
X143373931Y-84481007D01*
X143379414Y-84471511D01*
X143471490Y-84274053D01*
X143475236Y-84263761D01*
X143521394Y-84091497D01*
X143521275Y-84086522D01*
X146037273Y-84086522D01*
X146084764Y-84263761D01*
X146088510Y-84274053D01*
X146180586Y-84471511D01*
X146186069Y-84481007D01*
X146311028Y-84659467D01*
X146318084Y-84667875D01*
X146472125Y-84821916D01*
X146480533Y-84828972D01*
X146658993Y-84953931D01*
X146668489Y-84959414D01*
X146865947Y-85051490D01*
X146876239Y-85055236D01*
X147048503Y-85101394D01*
X147062599Y-85101058D01*
X147066000Y-85093116D01*
X147066000Y-85087967D01*
X147574000Y-85087967D01*
X147577973Y-85101498D01*
X147586522Y-85102727D01*
X147763761Y-85055236D01*
X147774053Y-85051490D01*
X147971511Y-84959414D01*
X147981007Y-84953931D01*
X148159467Y-84828972D01*
X148167875Y-84821916D01*
X148321916Y-84667875D01*
X148328972Y-84659467D01*
X148453931Y-84481007D01*
X148459414Y-84471511D01*
X148551490Y-84274053D01*
X148555236Y-84263761D01*
X148601394Y-84091497D01*
X148601058Y-84077401D01*
X148593116Y-84074000D01*
X147592115Y-84074000D01*
X147576876Y-84078475D01*
X147575671Y-84079865D01*
X147574000Y-84087548D01*
X147574000Y-85087967D01*
X147066000Y-85087967D01*
X147066000Y-84092115D01*
X147061525Y-84076876D01*
X147060135Y-84075671D01*
X147052452Y-84074000D01*
X146052033Y-84074000D01*
X146038502Y-84077973D01*
X146037273Y-84086522D01*
X143521275Y-84086522D01*
X143521058Y-84077401D01*
X143513116Y-84074000D01*
X142512115Y-84074000D01*
X142496876Y-84078475D01*
X142495671Y-84079865D01*
X142494000Y-84087548D01*
X142494000Y-85087967D01*
X141986000Y-85087967D01*
X141986000Y-84092115D01*
X141981525Y-84076876D01*
X141980135Y-84075671D01*
X141972452Y-84074000D01*
X140972033Y-84074000D01*
X140958502Y-84077973D01*
X140957273Y-84086522D01*
X138443245Y-84086522D01*
X138452119Y-84053402D01*
X138452119Y-84053400D01*
X138453543Y-84048087D01*
X138473498Y-83820000D01*
X138453543Y-83591913D01*
X138443244Y-83553478D01*
X138441911Y-83548503D01*
X140958606Y-83548503D01*
X140958942Y-83562599D01*
X140966884Y-83566000D01*
X141967885Y-83566000D01*
X141983124Y-83561525D01*
X141984329Y-83560135D01*
X141986000Y-83552452D01*
X141986000Y-83547885D01*
X142494000Y-83547885D01*
X142498475Y-83563124D01*
X142499865Y-83564329D01*
X142507548Y-83566000D01*
X143507967Y-83566000D01*
X143521498Y-83562027D01*
X143522727Y-83553478D01*
X143521394Y-83548503D01*
X146038606Y-83548503D01*
X146038942Y-83562599D01*
X146046884Y-83566000D01*
X147047885Y-83566000D01*
X147063124Y-83561525D01*
X147064329Y-83560135D01*
X147066000Y-83552452D01*
X147066000Y-83547885D01*
X147574000Y-83547885D01*
X147578475Y-83563124D01*
X147579865Y-83564329D01*
X147587548Y-83566000D01*
X148587967Y-83566000D01*
X148601498Y-83562027D01*
X148602727Y-83553478D01*
X148555236Y-83376239D01*
X148551490Y-83365947D01*
X148459414Y-83168489D01*
X148453931Y-83158993D01*
X148328972Y-82980533D01*
X148321916Y-82972125D01*
X148167875Y-82818084D01*
X148159467Y-82811028D01*
X147981007Y-82686069D01*
X147971511Y-82680586D01*
X147774053Y-82588510D01*
X147763761Y-82584764D01*
X147591497Y-82538606D01*
X147577401Y-82538942D01*
X147574000Y-82546884D01*
X147574000Y-83547885D01*
X147066000Y-83547885D01*
X147066000Y-82552033D01*
X147062027Y-82538502D01*
X147053478Y-82537273D01*
X146876239Y-82584764D01*
X146865947Y-82588510D01*
X146668489Y-82680586D01*
X146658993Y-82686069D01*
X146480533Y-82811028D01*
X146472125Y-82818084D01*
X146318084Y-82972125D01*
X146311028Y-82980533D01*
X146186069Y-83158993D01*
X146180586Y-83168489D01*
X146088510Y-83365947D01*
X146084764Y-83376239D01*
X146038606Y-83548503D01*
X143521394Y-83548503D01*
X143475236Y-83376239D01*
X143471490Y-83365947D01*
X143379414Y-83168489D01*
X143373931Y-83158993D01*
X143248972Y-82980533D01*
X143241916Y-82972125D01*
X143087875Y-82818084D01*
X143079467Y-82811028D01*
X142901007Y-82686069D01*
X142891511Y-82680586D01*
X142694053Y-82588510D01*
X142683761Y-82584764D01*
X142511497Y-82538606D01*
X142497401Y-82538942D01*
X142494000Y-82546884D01*
X142494000Y-83547885D01*
X141986000Y-83547885D01*
X141986000Y-82552033D01*
X141982027Y-82538502D01*
X141973478Y-82537273D01*
X141796239Y-82584764D01*
X141785947Y-82588510D01*
X141588489Y-82680586D01*
X141578993Y-82686069D01*
X141400533Y-82811028D01*
X141392125Y-82818084D01*
X141238084Y-82972125D01*
X141231028Y-82980533D01*
X141106069Y-83158993D01*
X141100586Y-83168489D01*
X141008510Y-83365947D01*
X141004764Y-83376239D01*
X140958606Y-83548503D01*
X138441911Y-83548503D01*
X138395707Y-83376067D01*
X138395706Y-83376065D01*
X138394284Y-83370757D01*
X138299966Y-83168489D01*
X138299849Y-83168238D01*
X138299846Y-83168233D01*
X138297523Y-83163251D01*
X138224098Y-83058389D01*
X138169357Y-82980211D01*
X138169355Y-82980208D01*
X138166198Y-82975700D01*
X138004300Y-82813802D01*
X137999792Y-82810645D01*
X137999789Y-82810643D01*
X137921611Y-82755902D01*
X137816749Y-82682477D01*
X137811767Y-82680154D01*
X137811762Y-82680151D01*
X137614225Y-82588039D01*
X137614224Y-82588039D01*
X137609243Y-82585716D01*
X137603935Y-82584294D01*
X137603933Y-82584293D01*
X137393402Y-82527881D01*
X137393400Y-82527881D01*
X137388087Y-82526457D01*
X137160000Y-82506502D01*
X136931913Y-82526457D01*
X136926600Y-82527881D01*
X136926598Y-82527881D01*
X136716067Y-82584293D01*
X136716065Y-82584294D01*
X136710757Y-82585716D01*
X136705776Y-82588039D01*
X136705775Y-82588039D01*
X136508238Y-82680151D01*
X136508233Y-82680154D01*
X136503251Y-82682477D01*
X136398389Y-82755902D01*
X136320211Y-82810643D01*
X136320208Y-82810645D01*
X136315700Y-82813802D01*
X136153802Y-82975700D01*
X136150645Y-82980208D01*
X136150643Y-82980211D01*
X136095902Y-83058389D01*
X136022477Y-83163251D01*
X136020154Y-83168233D01*
X136020151Y-83168238D01*
X136020034Y-83168489D01*
X135925716Y-83370757D01*
X135924294Y-83376065D01*
X135924293Y-83376067D01*
X135876756Y-83553478D01*
X135866457Y-83591913D01*
X135846502Y-83820000D01*
X135866457Y-84048087D01*
X135867881Y-84053400D01*
X135867881Y-84053402D01*
X135877031Y-84087548D01*
X135925716Y-84269243D01*
X135928039Y-84274224D01*
X135928039Y-84274225D01*
X136020151Y-84471762D01*
X136020154Y-84471767D01*
X136022477Y-84476749D01*
X136153802Y-84664300D01*
X136315700Y-84826198D01*
X136320208Y-84829355D01*
X136320211Y-84829357D01*
X136472771Y-84936181D01*
X136517099Y-84991638D01*
X136526500Y-85039394D01*
X136526500Y-87565319D01*
X136506498Y-87633440D01*
X136458679Y-87677083D01*
X136406872Y-87704052D01*
X136221655Y-87843117D01*
X136061639Y-88010564D01*
X136058725Y-88014836D01*
X136058724Y-88014837D01*
X136043152Y-88037665D01*
X135931119Y-88201899D01*
X135833602Y-88411981D01*
X135771707Y-88635169D01*
X135747095Y-88865469D01*
X129508000Y-88865469D01*
X129508000Y-83820000D01*
X130766502Y-83820000D01*
X130786457Y-84048087D01*
X130787881Y-84053400D01*
X130787881Y-84053402D01*
X130797031Y-84087548D01*
X130845716Y-84269243D01*
X130848039Y-84274224D01*
X130848039Y-84274225D01*
X130940151Y-84471762D01*
X130940154Y-84471767D01*
X130942477Y-84476749D01*
X131073802Y-84664300D01*
X131235700Y-84826198D01*
X131240208Y-84829355D01*
X131240211Y-84829357D01*
X131318389Y-84884098D01*
X131423251Y-84957523D01*
X131428233Y-84959846D01*
X131428238Y-84959849D01*
X131598825Y-85039394D01*
X131630757Y-85054284D01*
X131636065Y-85055706D01*
X131636067Y-85055707D01*
X131846598Y-85112119D01*
X131846600Y-85112119D01*
X131851913Y-85113543D01*
X132080000Y-85133498D01*
X132308087Y-85113543D01*
X132313400Y-85112119D01*
X132313402Y-85112119D01*
X132523933Y-85055707D01*
X132523935Y-85055706D01*
X132529243Y-85054284D01*
X132561175Y-85039394D01*
X132731762Y-84959849D01*
X132731767Y-84959846D01*
X132736749Y-84957523D01*
X132841611Y-84884098D01*
X132919789Y-84829357D01*
X132919792Y-84829355D01*
X132924300Y-84826198D01*
X133086198Y-84664300D01*
X133217523Y-84476749D01*
X133219846Y-84471767D01*
X133219849Y-84471762D01*
X133311961Y-84274225D01*
X133311961Y-84274224D01*
X133314284Y-84269243D01*
X133362970Y-84087548D01*
X133372119Y-84053402D01*
X133372119Y-84053400D01*
X133373543Y-84048087D01*
X133393498Y-83820000D01*
X133373543Y-83591913D01*
X133372119Y-83586598D01*
X133372118Y-83586591D01*
X133356541Y-83528459D01*
X133358230Y-83457483D01*
X133389152Y-83406752D01*
X141826752Y-74969152D01*
X141889064Y-74935126D01*
X141948459Y-74936541D01*
X142006591Y-74952118D01*
X142006602Y-74952120D01*
X142011913Y-74953543D01*
X142240000Y-74973498D01*
X142468087Y-74953543D01*
X142473400Y-74952119D01*
X142473402Y-74952119D01*
X142683933Y-74895707D01*
X142683935Y-74895706D01*
X142689243Y-74894284D01*
X142717178Y-74881258D01*
X142891762Y-74799849D01*
X142891767Y-74799846D01*
X142896749Y-74797523D01*
X143068098Y-74677543D01*
X143079789Y-74669357D01*
X143079792Y-74669355D01*
X143084300Y-74666198D01*
X143246198Y-74504300D01*
X143377523Y-74316749D01*
X143379846Y-74311767D01*
X143379849Y-74311762D01*
X143471961Y-74114225D01*
X143471961Y-74114224D01*
X143474284Y-74109243D01*
X143497523Y-74022517D01*
X143532119Y-73893402D01*
X143532119Y-73893400D01*
X143533543Y-73888087D01*
X143553498Y-73660000D01*
X143533543Y-73431913D01*
X143532117Y-73426591D01*
X143475707Y-73216067D01*
X143475706Y-73216065D01*
X143474284Y-73210757D01*
X143471961Y-73205775D01*
X143379849Y-73008238D01*
X143379846Y-73008233D01*
X143377523Y-73003251D01*
X143246198Y-72815700D01*
X143084300Y-72653802D01*
X143079792Y-72650645D01*
X143079789Y-72650643D01*
X142932228Y-72547320D01*
X142896749Y-72522477D01*
X142891767Y-72520154D01*
X142891762Y-72520151D01*
X142694225Y-72428039D01*
X142694224Y-72428039D01*
X142689243Y-72425716D01*
X142683935Y-72424294D01*
X142683933Y-72424293D01*
X142473402Y-72367881D01*
X142473400Y-72367881D01*
X142468087Y-72366457D01*
X142240000Y-72346502D01*
X142011913Y-72366457D01*
X141948458Y-72383460D01*
X141877482Y-72381770D01*
X141826753Y-72350848D01*
X140375405Y-70899500D01*
X140341379Y-70837188D01*
X140338500Y-70810405D01*
X140338500Y-70199394D01*
X140358502Y-70131273D01*
X140392229Y-70096181D01*
X140544789Y-69989357D01*
X140544792Y-69989355D01*
X140549300Y-69986198D01*
X140711198Y-69824300D01*
X140842523Y-69636749D01*
X140844846Y-69631767D01*
X140844849Y-69631762D01*
X140860805Y-69597543D01*
X140907722Y-69544258D01*
X140975999Y-69524797D01*
X141043959Y-69545339D01*
X141089195Y-69597543D01*
X141105151Y-69631762D01*
X141105154Y-69631767D01*
X141107477Y-69636749D01*
X141238802Y-69824300D01*
X141400700Y-69986198D01*
X141405208Y-69989355D01*
X141405211Y-69989357D01*
X141483389Y-70044098D01*
X141588251Y-70117523D01*
X141593233Y-70119846D01*
X141593238Y-70119849D01*
X141763825Y-70199394D01*
X141795757Y-70214284D01*
X141801065Y-70215706D01*
X141801067Y-70215707D01*
X142011598Y-70272119D01*
X142011600Y-70272119D01*
X142016913Y-70273543D01*
X142245000Y-70293498D01*
X142473087Y-70273543D01*
X142478400Y-70272119D01*
X142478402Y-70272119D01*
X142688933Y-70215707D01*
X142688935Y-70215706D01*
X142694243Y-70214284D01*
X142726175Y-70199394D01*
X142896762Y-70119849D01*
X142896767Y-70119846D01*
X142901749Y-70117523D01*
X143006611Y-70044098D01*
X143084789Y-69989357D01*
X143084792Y-69989355D01*
X143089300Y-69986198D01*
X143251198Y-69824300D01*
X143382523Y-69636749D01*
X143384846Y-69631767D01*
X143384849Y-69631762D01*
X143400805Y-69597543D01*
X143447722Y-69544258D01*
X143515999Y-69524797D01*
X143583959Y-69545339D01*
X143629195Y-69597543D01*
X143645151Y-69631762D01*
X143645154Y-69631767D01*
X143647477Y-69636749D01*
X143778802Y-69824300D01*
X143940700Y-69986198D01*
X143945208Y-69989355D01*
X143945211Y-69989357D01*
X144023389Y-70044098D01*
X144128251Y-70117523D01*
X144133233Y-70119846D01*
X144133238Y-70119849D01*
X144303825Y-70199394D01*
X144335757Y-70214284D01*
X144341065Y-70215706D01*
X144341067Y-70215707D01*
X144551598Y-70272119D01*
X144551600Y-70272119D01*
X144556913Y-70273543D01*
X144785000Y-70293498D01*
X145013087Y-70273543D01*
X145018400Y-70272119D01*
X145018402Y-70272119D01*
X145228933Y-70215707D01*
X145228935Y-70215706D01*
X145234243Y-70214284D01*
X145266175Y-70199394D01*
X145436762Y-70119849D01*
X145436767Y-70119846D01*
X145441749Y-70117523D01*
X145546611Y-70044098D01*
X145624789Y-69989357D01*
X145624792Y-69989355D01*
X145629300Y-69986198D01*
X145791198Y-69824300D01*
X145922523Y-69636749D01*
X145924846Y-69631767D01*
X145924849Y-69631762D01*
X145940805Y-69597543D01*
X145987722Y-69544258D01*
X146055999Y-69524797D01*
X146123959Y-69545339D01*
X146169195Y-69597543D01*
X146185151Y-69631762D01*
X146185154Y-69631767D01*
X146187477Y-69636749D01*
X146318802Y-69824300D01*
X146480700Y-69986198D01*
X146485208Y-69989355D01*
X146485211Y-69989357D01*
X146563389Y-70044098D01*
X146668251Y-70117523D01*
X146673233Y-70119846D01*
X146673238Y-70119849D01*
X146843825Y-70199394D01*
X146875757Y-70214284D01*
X146881065Y-70215706D01*
X146881067Y-70215707D01*
X147091598Y-70272119D01*
X147091600Y-70272119D01*
X147096913Y-70273543D01*
X147325000Y-70293498D01*
X147553087Y-70273543D01*
X147558400Y-70272119D01*
X147558402Y-70272119D01*
X147768933Y-70215707D01*
X147768935Y-70215706D01*
X147774243Y-70214284D01*
X147806175Y-70199394D01*
X147976762Y-70119849D01*
X147976767Y-70119846D01*
X147981749Y-70117523D01*
X148086611Y-70044098D01*
X148164789Y-69989357D01*
X148164792Y-69989355D01*
X148169300Y-69986198D01*
X148331198Y-69824300D01*
X148462523Y-69636749D01*
X148464846Y-69631767D01*
X148464849Y-69631762D01*
X148480805Y-69597543D01*
X148527722Y-69544258D01*
X148595999Y-69524797D01*
X148663959Y-69545339D01*
X148709195Y-69597543D01*
X148725151Y-69631762D01*
X148725154Y-69631767D01*
X148727477Y-69636749D01*
X148858802Y-69824300D01*
X149020700Y-69986198D01*
X149025208Y-69989355D01*
X149025211Y-69989357D01*
X149177771Y-70096181D01*
X149222099Y-70151638D01*
X149231500Y-70199394D01*
X149231500Y-70800406D01*
X149211498Y-70868527D01*
X149194595Y-70889501D01*
X147733248Y-72350848D01*
X147670936Y-72384874D01*
X147611541Y-72383459D01*
X147553409Y-72367882D01*
X147553398Y-72367880D01*
X147548087Y-72366457D01*
X147320000Y-72346502D01*
X147091913Y-72366457D01*
X147086600Y-72367881D01*
X147086598Y-72367881D01*
X146876067Y-72424293D01*
X146876065Y-72424294D01*
X146870757Y-72425716D01*
X146865776Y-72428039D01*
X146865775Y-72428039D01*
X146668238Y-72520151D01*
X146668233Y-72520154D01*
X146663251Y-72522477D01*
X146627772Y-72547320D01*
X146480211Y-72650643D01*
X146480208Y-72650645D01*
X146475700Y-72653802D01*
X146313802Y-72815700D01*
X146182477Y-73003251D01*
X146180154Y-73008233D01*
X146180151Y-73008238D01*
X146088039Y-73205775D01*
X146085716Y-73210757D01*
X146084294Y-73216065D01*
X146084293Y-73216067D01*
X146027883Y-73426591D01*
X146026457Y-73431913D01*
X146006502Y-73660000D01*
X146026457Y-73888087D01*
X146027881Y-73893400D01*
X146027881Y-73893402D01*
X146062478Y-74022517D01*
X146085716Y-74109243D01*
X146088039Y-74114224D01*
X146088039Y-74114225D01*
X146180151Y-74311762D01*
X146180154Y-74311767D01*
X146182477Y-74316749D01*
X146313802Y-74504300D01*
X146475700Y-74666198D01*
X146480208Y-74669355D01*
X146480211Y-74669357D01*
X146491902Y-74677543D01*
X146663251Y-74797523D01*
X146668233Y-74799846D01*
X146668238Y-74799849D01*
X146842822Y-74881258D01*
X146870757Y-74894284D01*
X146876065Y-74895706D01*
X146876067Y-74895707D01*
X147086598Y-74952119D01*
X147086600Y-74952119D01*
X147091913Y-74953543D01*
X147320000Y-74973498D01*
X147548087Y-74953543D01*
X147553398Y-74952120D01*
X147553409Y-74952118D01*
X147611541Y-74936541D01*
X147682517Y-74938230D01*
X147733248Y-74969152D01*
X156170848Y-83406752D01*
X156204874Y-83469064D01*
X156203459Y-83528459D01*
X156187882Y-83586591D01*
X156187881Y-83586598D01*
X156186457Y-83591913D01*
X156166502Y-83820000D01*
X156186457Y-84048087D01*
X156187881Y-84053400D01*
X156187881Y-84053402D01*
X156197031Y-84087548D01*
X156245716Y-84269243D01*
X156248039Y-84274224D01*
X156248039Y-84274225D01*
X156340151Y-84471762D01*
X156340154Y-84471767D01*
X156342477Y-84476749D01*
X156473802Y-84664300D01*
X156635700Y-84826198D01*
X156640208Y-84829355D01*
X156640211Y-84829357D01*
X156718389Y-84884098D01*
X156823251Y-84957523D01*
X156828233Y-84959846D01*
X156828238Y-84959849D01*
X156998825Y-85039394D01*
X157030757Y-85054284D01*
X157036065Y-85055706D01*
X157036067Y-85055707D01*
X157246598Y-85112119D01*
X157246600Y-85112119D01*
X157251913Y-85113543D01*
X157480000Y-85133498D01*
X157708087Y-85113543D01*
X157713400Y-85112119D01*
X157713402Y-85112119D01*
X157923933Y-85055707D01*
X157923935Y-85055706D01*
X157929243Y-85054284D01*
X157961175Y-85039394D01*
X158131762Y-84959849D01*
X158131767Y-84959846D01*
X158136749Y-84957523D01*
X158241611Y-84884098D01*
X158319789Y-84829357D01*
X158319792Y-84829355D01*
X158324300Y-84826198D01*
X158486198Y-84664300D01*
X158617523Y-84476749D01*
X158619846Y-84471767D01*
X158619849Y-84471762D01*
X158711961Y-84274225D01*
X158711961Y-84274224D01*
X158714284Y-84269243D01*
X158762970Y-84087548D01*
X158772119Y-84053402D01*
X158772119Y-84053400D01*
X158773543Y-84048087D01*
X158793498Y-83820000D01*
X158773543Y-83591913D01*
X158763244Y-83553478D01*
X158715707Y-83376067D01*
X158715706Y-83376065D01*
X158714284Y-83370757D01*
X158619966Y-83168489D01*
X158619849Y-83168238D01*
X158619846Y-83168233D01*
X158617523Y-83163251D01*
X158544098Y-83058389D01*
X158489357Y-82980211D01*
X158489355Y-82980208D01*
X158486198Y-82975700D01*
X158324300Y-82813802D01*
X158319792Y-82810645D01*
X158319789Y-82810643D01*
X158241611Y-82755902D01*
X158136749Y-82682477D01*
X158131767Y-82680154D01*
X158131762Y-82680151D01*
X157934225Y-82588039D01*
X157934224Y-82588039D01*
X157929243Y-82585716D01*
X157923935Y-82584294D01*
X157923933Y-82584293D01*
X157713402Y-82527881D01*
X157713400Y-82527881D01*
X157708087Y-82526457D01*
X157480000Y-82506502D01*
X157251913Y-82526457D01*
X157246602Y-82527880D01*
X157246591Y-82527882D01*
X157188459Y-82543459D01*
X157117483Y-82541770D01*
X157066752Y-82510848D01*
X148629152Y-74073248D01*
X148595126Y-74010936D01*
X148596541Y-73951541D01*
X148612118Y-73893409D01*
X148612120Y-73893398D01*
X148613543Y-73888087D01*
X148633498Y-73660000D01*
X148613543Y-73431913D01*
X148612119Y-73426598D01*
X148612118Y-73426591D01*
X148596541Y-73368459D01*
X148598230Y-73297483D01*
X148629152Y-73246752D01*
X150257247Y-71618657D01*
X150265537Y-71611113D01*
X150272018Y-71607000D01*
X150318659Y-71557332D01*
X150321413Y-71554491D01*
X150341135Y-71534769D01*
X150343612Y-71531576D01*
X150351317Y-71522555D01*
X150351864Y-71521973D01*
X150381586Y-71490321D01*
X150385407Y-71483371D01*
X150391346Y-71472568D01*
X150402202Y-71456041D01*
X150409757Y-71446302D01*
X150409758Y-71446300D01*
X150414614Y-71440040D01*
X150432174Y-71399460D01*
X150437391Y-71388812D01*
X150454875Y-71357009D01*
X150454876Y-71357007D01*
X150458695Y-71350060D01*
X150463735Y-71330431D01*
X150470137Y-71311734D01*
X150475033Y-71300420D01*
X150475033Y-71300419D01*
X150478181Y-71293145D01*
X150479420Y-71285322D01*
X150479423Y-71285312D01*
X150485099Y-71249476D01*
X150487505Y-71237856D01*
X150496528Y-71202711D01*
X150496528Y-71202710D01*
X150498500Y-71195030D01*
X150498500Y-71174776D01*
X150500051Y-71155064D01*
X150500058Y-71155022D01*
X150503220Y-71135057D01*
X150499059Y-71091038D01*
X150498500Y-71079181D01*
X150498500Y-70199394D01*
X150518502Y-70131273D01*
X150552229Y-70096181D01*
X150704789Y-69989357D01*
X150704792Y-69989355D01*
X150709300Y-69986198D01*
X150871198Y-69824300D01*
X151002523Y-69636749D01*
X151004846Y-69631767D01*
X151004849Y-69631762D01*
X151020805Y-69597543D01*
X151067722Y-69544258D01*
X151135999Y-69524797D01*
X151203959Y-69545339D01*
X151249195Y-69597543D01*
X151265151Y-69631762D01*
X151265154Y-69631767D01*
X151267477Y-69636749D01*
X151398802Y-69824300D01*
X151560700Y-69986198D01*
X151565208Y-69989355D01*
X151565211Y-69989357D01*
X151717771Y-70096181D01*
X151762099Y-70151638D01*
X151771500Y-70199394D01*
X151771500Y-72437105D01*
X151751498Y-72505226D01*
X151717771Y-72540318D01*
X151560211Y-72650643D01*
X151560208Y-72650645D01*
X151555700Y-72653802D01*
X151393802Y-72815700D01*
X151262477Y-73003251D01*
X151260154Y-73008233D01*
X151260151Y-73008238D01*
X151168039Y-73205775D01*
X151165716Y-73210757D01*
X151164294Y-73216065D01*
X151164293Y-73216067D01*
X151107883Y-73426591D01*
X151106457Y-73431913D01*
X151086502Y-73660000D01*
X151106457Y-73888087D01*
X151107881Y-73893400D01*
X151107881Y-73893402D01*
X151142478Y-74022517D01*
X151165716Y-74109243D01*
X151168039Y-74114224D01*
X151168039Y-74114225D01*
X151260151Y-74311762D01*
X151260154Y-74311767D01*
X151262477Y-74316749D01*
X151393802Y-74504300D01*
X151555700Y-74666198D01*
X151560208Y-74669355D01*
X151560211Y-74669357D01*
X151571902Y-74677543D01*
X151743251Y-74797523D01*
X151748233Y-74799846D01*
X151748238Y-74799849D01*
X151922822Y-74881258D01*
X151950757Y-74894284D01*
X151956065Y-74895706D01*
X151956067Y-74895707D01*
X152166598Y-74952119D01*
X152166600Y-74952119D01*
X152171913Y-74953543D01*
X152400000Y-74973498D01*
X152628087Y-74953543D01*
X152633400Y-74952119D01*
X152633402Y-74952119D01*
X152843933Y-74895707D01*
X152843935Y-74895706D01*
X152849243Y-74894284D01*
X152877178Y-74881258D01*
X153051762Y-74799849D01*
X153051767Y-74799846D01*
X153056749Y-74797523D01*
X153228098Y-74677543D01*
X153239789Y-74669357D01*
X153239792Y-74669355D01*
X153244300Y-74666198D01*
X153406198Y-74504300D01*
X153537523Y-74316749D01*
X153539846Y-74311767D01*
X153539849Y-74311762D01*
X153631961Y-74114225D01*
X153631961Y-74114224D01*
X153634284Y-74109243D01*
X153657523Y-74022517D01*
X153692119Y-73893402D01*
X153692119Y-73893400D01*
X153693543Y-73888087D01*
X153713498Y-73660000D01*
X156166502Y-73660000D01*
X156186457Y-73888087D01*
X156187881Y-73893400D01*
X156187881Y-73893402D01*
X156222478Y-74022517D01*
X156245716Y-74109243D01*
X156248039Y-74114224D01*
X156248039Y-74114225D01*
X156340151Y-74311762D01*
X156340154Y-74311767D01*
X156342477Y-74316749D01*
X156473802Y-74504300D01*
X156635700Y-74666198D01*
X156640208Y-74669355D01*
X156640211Y-74669357D01*
X156651902Y-74677543D01*
X156823251Y-74797523D01*
X156828233Y-74799846D01*
X156828238Y-74799849D01*
X157002822Y-74881258D01*
X157030757Y-74894284D01*
X157036065Y-74895706D01*
X157036067Y-74895707D01*
X157246598Y-74952119D01*
X157246600Y-74952119D01*
X157251913Y-74953543D01*
X157480000Y-74973498D01*
X157708087Y-74953543D01*
X157713400Y-74952119D01*
X157713402Y-74952119D01*
X157923933Y-74895707D01*
X157923935Y-74895706D01*
X157929243Y-74894284D01*
X157957178Y-74881258D01*
X158131762Y-74799849D01*
X158131767Y-74799846D01*
X158136749Y-74797523D01*
X158308098Y-74677543D01*
X158319789Y-74669357D01*
X158319792Y-74669355D01*
X158324300Y-74666198D01*
X158486198Y-74504300D01*
X158617523Y-74316749D01*
X158619846Y-74311767D01*
X158619849Y-74311762D01*
X158711961Y-74114225D01*
X158711961Y-74114224D01*
X158714284Y-74109243D01*
X158737523Y-74022517D01*
X158772119Y-73893402D01*
X158772119Y-73893400D01*
X158773543Y-73888087D01*
X158793498Y-73660000D01*
X158773543Y-73431913D01*
X158772117Y-73426591D01*
X158715707Y-73216067D01*
X158715706Y-73216065D01*
X158714284Y-73210757D01*
X158711961Y-73205775D01*
X158619849Y-73008238D01*
X158619846Y-73008233D01*
X158617523Y-73003251D01*
X158486198Y-72815700D01*
X158324300Y-72653802D01*
X158319792Y-72650645D01*
X158319789Y-72650643D01*
X158172228Y-72547320D01*
X158136749Y-72522477D01*
X158131767Y-72520154D01*
X158131762Y-72520151D01*
X157934225Y-72428039D01*
X157934224Y-72428039D01*
X157929243Y-72425716D01*
X157923935Y-72424294D01*
X157923933Y-72424293D01*
X157713402Y-72367881D01*
X157713400Y-72367881D01*
X157708087Y-72366457D01*
X157480000Y-72346502D01*
X157251913Y-72366457D01*
X157246600Y-72367881D01*
X157246598Y-72367881D01*
X157036067Y-72424293D01*
X157036065Y-72424294D01*
X157030757Y-72425716D01*
X157025776Y-72428039D01*
X157025775Y-72428039D01*
X156828238Y-72520151D01*
X156828233Y-72520154D01*
X156823251Y-72522477D01*
X156787772Y-72547320D01*
X156640211Y-72650643D01*
X156640208Y-72650645D01*
X156635700Y-72653802D01*
X156473802Y-72815700D01*
X156342477Y-73003251D01*
X156340154Y-73008233D01*
X156340151Y-73008238D01*
X156248039Y-73205775D01*
X156245716Y-73210757D01*
X156244294Y-73216065D01*
X156244293Y-73216067D01*
X156187883Y-73426591D01*
X156186457Y-73431913D01*
X156166502Y-73660000D01*
X153713498Y-73660000D01*
X153693543Y-73431913D01*
X153692117Y-73426591D01*
X153635707Y-73216067D01*
X153635706Y-73216065D01*
X153634284Y-73210757D01*
X153631961Y-73205775D01*
X153539849Y-73008238D01*
X153539846Y-73008233D01*
X153537523Y-73003251D01*
X153406198Y-72815700D01*
X153244300Y-72653802D01*
X153239792Y-72650645D01*
X153239789Y-72650643D01*
X153092229Y-72547320D01*
X153047901Y-72491863D01*
X153038500Y-72444107D01*
X153038500Y-72238987D01*
X162838330Y-72238987D01*
X162838675Y-72245574D01*
X162838675Y-72245578D01*
X162841807Y-72305330D01*
X162841980Y-72311925D01*
X162841980Y-72331786D01*
X162843577Y-72346981D01*
X162844056Y-72351539D01*
X162844573Y-72358113D01*
X162845976Y-72384874D01*
X162848050Y-72424451D01*
X162851522Y-72437409D01*
X162855125Y-72456852D01*
X162856526Y-72470182D01*
X162877058Y-72533374D01*
X162878924Y-72539676D01*
X162896118Y-72603843D01*
X162899114Y-72609722D01*
X162899117Y-72609731D01*
X162902208Y-72615797D01*
X162909772Y-72634059D01*
X162911872Y-72640523D01*
X162911875Y-72640531D01*
X162913916Y-72646811D01*
X162917218Y-72652530D01*
X162917220Y-72652535D01*
X162947134Y-72704347D01*
X162950267Y-72710117D01*
X162980433Y-72769319D01*
X162984589Y-72774451D01*
X162988871Y-72779739D01*
X163000069Y-72796032D01*
X163006776Y-72807649D01*
X163011193Y-72812555D01*
X163011197Y-72812560D01*
X163051227Y-72857018D01*
X163055511Y-72862034D01*
X163065921Y-72874889D01*
X163068008Y-72877466D01*
X163082053Y-72891511D01*
X163086594Y-72896296D01*
X163131046Y-72945665D01*
X163136388Y-72949546D01*
X163136390Y-72949548D01*
X163141896Y-72953548D01*
X163156930Y-72966388D01*
X163754595Y-73564052D01*
X163788620Y-73626365D01*
X163791500Y-73653148D01*
X163791500Y-74117127D01*
X163806457Y-74288087D01*
X163865716Y-74509243D01*
X163868039Y-74514224D01*
X163868039Y-74514225D01*
X163960151Y-74711762D01*
X163960154Y-74711767D01*
X163962477Y-74716749D01*
X164035902Y-74821611D01*
X164086789Y-74894284D01*
X164093802Y-74904300D01*
X164255700Y-75066198D01*
X164260208Y-75069355D01*
X164260211Y-75069357D01*
X164301542Y-75098297D01*
X164443251Y-75197523D01*
X164448233Y-75199846D01*
X164448238Y-75199849D01*
X164587356Y-75264720D01*
X164650757Y-75294284D01*
X164656064Y-75295706D01*
X164656075Y-75295710D01*
X164802000Y-75334811D01*
X164862622Y-75371762D01*
X164893644Y-75435623D01*
X164885215Y-75506118D01*
X164858483Y-75545612D01*
X164707747Y-75696348D01*
X164699461Y-75703888D01*
X164692982Y-75708000D01*
X164687557Y-75713777D01*
X164646357Y-75757651D01*
X164643602Y-75760493D01*
X164623865Y-75780230D01*
X164621385Y-75783427D01*
X164613682Y-75792447D01*
X164583414Y-75824679D01*
X164579595Y-75831625D01*
X164579593Y-75831628D01*
X164573652Y-75842434D01*
X164562801Y-75858953D01*
X164550386Y-75874959D01*
X164547241Y-75882228D01*
X164547238Y-75882232D01*
X164532826Y-75915537D01*
X164527609Y-75926187D01*
X164506305Y-75964940D01*
X164504334Y-75972615D01*
X164504334Y-75972616D01*
X164501267Y-75984562D01*
X164494863Y-76003266D01*
X164486819Y-76021855D01*
X164485580Y-76029678D01*
X164485577Y-76029688D01*
X164479901Y-76065524D01*
X164477495Y-76077144D01*
X164466500Y-76119970D01*
X164466500Y-76140224D01*
X164464949Y-76159934D01*
X164461780Y-76179943D01*
X164462526Y-76187835D01*
X164465941Y-76223961D01*
X164466500Y-76235819D01*
X164466500Y-79660606D01*
X164446498Y-79728727D01*
X164412771Y-79763819D01*
X164260211Y-79870643D01*
X164260208Y-79870645D01*
X164255700Y-79873802D01*
X164093802Y-80035700D01*
X163962477Y-80223251D01*
X163960154Y-80228233D01*
X163960151Y-80228238D01*
X163944195Y-80262457D01*
X163865716Y-80430757D01*
X163806457Y-80651913D01*
X163791500Y-80822873D01*
X163791500Y-81737127D01*
X163806457Y-81908087D01*
X163865716Y-82129243D01*
X163868039Y-82134224D01*
X163868039Y-82134225D01*
X163960151Y-82331762D01*
X163960154Y-82331767D01*
X163962477Y-82336749D01*
X163965634Y-82341257D01*
X164084383Y-82510848D01*
X164093802Y-82524300D01*
X164255700Y-82686198D01*
X164260208Y-82689355D01*
X164260211Y-82689357D01*
X164338389Y-82744098D01*
X164443251Y-82817523D01*
X164448233Y-82819846D01*
X164448238Y-82819849D01*
X164645775Y-82911961D01*
X164650757Y-82914284D01*
X164656065Y-82915706D01*
X164656067Y-82915707D01*
X164866598Y-82972119D01*
X164866600Y-82972119D01*
X164871913Y-82973543D01*
X165100000Y-82993498D01*
X165328087Y-82973543D01*
X165333400Y-82972119D01*
X165333402Y-82972119D01*
X165543933Y-82915707D01*
X165543935Y-82915706D01*
X165549243Y-82914284D01*
X165554225Y-82911961D01*
X165751762Y-82819849D01*
X165751767Y-82819846D01*
X165756749Y-82817523D01*
X165861611Y-82744098D01*
X165939789Y-82689357D01*
X165939792Y-82689355D01*
X165944300Y-82686198D01*
X166106198Y-82524300D01*
X166115618Y-82510848D01*
X166234366Y-82341257D01*
X166237523Y-82336749D01*
X166239846Y-82331767D01*
X166239849Y-82331762D01*
X166255805Y-82297543D01*
X166302722Y-82244258D01*
X166370999Y-82224797D01*
X166438959Y-82245339D01*
X166484195Y-82297543D01*
X166500151Y-82331762D01*
X166500154Y-82331767D01*
X166502477Y-82336749D01*
X166505634Y-82341257D01*
X166624383Y-82510848D01*
X166633802Y-82524300D01*
X166795700Y-82686198D01*
X166800208Y-82689355D01*
X166800211Y-82689357D01*
X166878389Y-82744098D01*
X166983251Y-82817523D01*
X166988233Y-82819846D01*
X166988238Y-82819849D01*
X167185775Y-82911961D01*
X167190757Y-82914284D01*
X167196065Y-82915706D01*
X167196067Y-82915707D01*
X167406598Y-82972119D01*
X167406600Y-82972119D01*
X167411913Y-82973543D01*
X167640000Y-82993498D01*
X167868087Y-82973543D01*
X167873400Y-82972119D01*
X167873402Y-82972119D01*
X168083933Y-82915707D01*
X168083935Y-82915706D01*
X168089243Y-82914284D01*
X168094225Y-82911961D01*
X168291762Y-82819849D01*
X168291767Y-82819846D01*
X168296749Y-82817523D01*
X168401611Y-82744098D01*
X168479789Y-82689357D01*
X168479792Y-82689355D01*
X168484300Y-82686198D01*
X168646198Y-82524300D01*
X168655618Y-82510848D01*
X168774366Y-82341257D01*
X168777523Y-82336749D01*
X168779846Y-82331767D01*
X168779849Y-82331762D01*
X168795805Y-82297543D01*
X168842722Y-82244258D01*
X168910999Y-82224797D01*
X168978959Y-82245339D01*
X169024195Y-82297543D01*
X169040151Y-82331762D01*
X169040154Y-82331767D01*
X169042477Y-82336749D01*
X169045634Y-82341257D01*
X169164383Y-82510848D01*
X169173802Y-82524300D01*
X169335700Y-82686198D01*
X169340208Y-82689355D01*
X169340211Y-82689357D01*
X169418389Y-82744098D01*
X169523251Y-82817523D01*
X169528233Y-82819846D01*
X169528238Y-82819849D01*
X169725775Y-82911961D01*
X169730757Y-82914284D01*
X169736065Y-82915706D01*
X169736067Y-82915707D01*
X169946598Y-82972119D01*
X169946600Y-82972119D01*
X169951913Y-82973543D01*
X170180000Y-82993498D01*
X170408087Y-82973543D01*
X170413400Y-82972119D01*
X170413402Y-82972119D01*
X170623933Y-82915707D01*
X170623935Y-82915706D01*
X170629243Y-82914284D01*
X170634225Y-82911961D01*
X170831762Y-82819849D01*
X170831767Y-82819846D01*
X170836749Y-82817523D01*
X170941611Y-82744098D01*
X171019789Y-82689357D01*
X171019792Y-82689355D01*
X171024300Y-82686198D01*
X171186198Y-82524300D01*
X171195618Y-82510848D01*
X171314366Y-82341257D01*
X171317523Y-82336749D01*
X171319846Y-82331767D01*
X171319849Y-82331762D01*
X171335805Y-82297543D01*
X171382722Y-82244258D01*
X171450999Y-82224797D01*
X171518959Y-82245339D01*
X171564195Y-82297543D01*
X171580151Y-82331762D01*
X171580154Y-82331767D01*
X171582477Y-82336749D01*
X171585634Y-82341257D01*
X171704383Y-82510848D01*
X171713802Y-82524300D01*
X171875700Y-82686198D01*
X171880208Y-82689355D01*
X171880211Y-82689357D01*
X171958389Y-82744098D01*
X172063251Y-82817523D01*
X172068233Y-82819846D01*
X172068238Y-82819849D01*
X172265775Y-82911961D01*
X172270757Y-82914284D01*
X172276065Y-82915706D01*
X172276067Y-82915707D01*
X172486598Y-82972119D01*
X172486600Y-82972119D01*
X172491913Y-82973543D01*
X172720000Y-82993498D01*
X172948087Y-82973543D01*
X172953400Y-82972119D01*
X172953402Y-82972119D01*
X173163933Y-82915707D01*
X173163935Y-82915706D01*
X173169243Y-82914284D01*
X173174225Y-82911961D01*
X173371762Y-82819849D01*
X173371767Y-82819846D01*
X173376749Y-82817523D01*
X173481611Y-82744098D01*
X173559789Y-82689357D01*
X173559792Y-82689355D01*
X173564300Y-82686198D01*
X173726198Y-82524300D01*
X173735618Y-82510848D01*
X173854366Y-82341257D01*
X173857523Y-82336749D01*
X173859846Y-82331767D01*
X173859849Y-82331762D01*
X173951961Y-82134225D01*
X173951961Y-82134224D01*
X173954284Y-82129243D01*
X174013543Y-81908087D01*
X174028500Y-81737127D01*
X174028500Y-80822873D01*
X174013543Y-80651913D01*
X173954284Y-80430757D01*
X173875805Y-80262457D01*
X173859849Y-80228238D01*
X173859846Y-80228233D01*
X173857523Y-80223251D01*
X173726198Y-80035700D01*
X173564300Y-79873802D01*
X173559792Y-79870645D01*
X173559789Y-79870643D01*
X173407228Y-79763819D01*
X173376749Y-79742477D01*
X173371767Y-79740154D01*
X173371762Y-79740151D01*
X173174225Y-79648039D01*
X173174224Y-79648039D01*
X173169243Y-79645716D01*
X173163935Y-79644294D01*
X173163933Y-79644293D01*
X172953402Y-79587881D01*
X172953400Y-79587881D01*
X172948087Y-79586457D01*
X172720000Y-79566502D01*
X172491913Y-79586457D01*
X172486600Y-79587881D01*
X172486598Y-79587881D01*
X172276067Y-79644293D01*
X172276065Y-79644294D01*
X172270757Y-79645716D01*
X172265776Y-79648039D01*
X172265775Y-79648039D01*
X172068238Y-79740151D01*
X172068233Y-79740154D01*
X172063251Y-79742477D01*
X172032772Y-79763819D01*
X171880211Y-79870643D01*
X171880208Y-79870645D01*
X171875700Y-79873802D01*
X171713802Y-80035700D01*
X171582477Y-80223251D01*
X171580154Y-80228233D01*
X171580151Y-80228238D01*
X171564195Y-80262457D01*
X171517278Y-80315742D01*
X171449001Y-80335203D01*
X171381041Y-80314661D01*
X171335805Y-80262457D01*
X171319849Y-80228238D01*
X171319846Y-80228233D01*
X171317523Y-80223251D01*
X171186198Y-80035700D01*
X171024300Y-79873802D01*
X171019792Y-79870645D01*
X171019789Y-79870643D01*
X170867228Y-79763819D01*
X170836749Y-79742477D01*
X170831767Y-79740154D01*
X170831762Y-79740151D01*
X170634225Y-79648039D01*
X170634224Y-79648039D01*
X170629243Y-79645716D01*
X170623935Y-79644294D01*
X170623933Y-79644293D01*
X170413402Y-79587881D01*
X170413400Y-79587881D01*
X170408087Y-79586457D01*
X170180000Y-79566502D01*
X169951913Y-79586457D01*
X169946600Y-79587881D01*
X169946598Y-79587881D01*
X169736067Y-79644293D01*
X169736065Y-79644294D01*
X169730757Y-79645716D01*
X169725776Y-79648039D01*
X169725775Y-79648039D01*
X169528238Y-79740151D01*
X169528233Y-79740154D01*
X169523251Y-79742477D01*
X169492772Y-79763819D01*
X169340211Y-79870643D01*
X169340208Y-79870645D01*
X169335700Y-79873802D01*
X169173802Y-80035700D01*
X169042477Y-80223251D01*
X169040154Y-80228233D01*
X169040151Y-80228238D01*
X169024195Y-80262457D01*
X168977278Y-80315742D01*
X168909001Y-80335203D01*
X168841041Y-80314661D01*
X168795805Y-80262457D01*
X168779849Y-80228238D01*
X168779846Y-80228233D01*
X168777523Y-80223251D01*
X168646198Y-80035700D01*
X168484300Y-79873802D01*
X168479792Y-79870645D01*
X168479789Y-79870643D01*
X168327228Y-79763819D01*
X168296749Y-79742477D01*
X168291767Y-79740154D01*
X168291762Y-79740151D01*
X168094225Y-79648039D01*
X168094224Y-79648039D01*
X168089243Y-79645716D01*
X168083935Y-79644294D01*
X168083933Y-79644293D01*
X167873402Y-79587881D01*
X167873400Y-79587881D01*
X167868087Y-79586457D01*
X167640000Y-79566502D01*
X167411913Y-79586457D01*
X167406600Y-79587881D01*
X167406598Y-79587881D01*
X167196067Y-79644293D01*
X167196065Y-79644294D01*
X167190757Y-79645716D01*
X167185776Y-79648039D01*
X167185775Y-79648039D01*
X166988238Y-79740151D01*
X166988233Y-79740154D01*
X166983251Y-79742477D01*
X166952772Y-79763819D01*
X166800211Y-79870643D01*
X166800208Y-79870645D01*
X166795700Y-79873802D01*
X166633802Y-80035700D01*
X166502477Y-80223251D01*
X166500154Y-80228233D01*
X166500151Y-80228238D01*
X166484195Y-80262457D01*
X166437278Y-80315742D01*
X166369001Y-80335203D01*
X166301041Y-80314661D01*
X166255805Y-80262457D01*
X166239849Y-80228238D01*
X166239846Y-80228233D01*
X166237523Y-80223251D01*
X166106198Y-80035700D01*
X165944300Y-79873802D01*
X165939792Y-79870645D01*
X165939789Y-79870643D01*
X165787229Y-79763819D01*
X165742901Y-79708362D01*
X165733500Y-79660606D01*
X165733500Y-76514594D01*
X165753502Y-76446473D01*
X165770405Y-76425499D01*
X166931184Y-75264720D01*
X166993496Y-75230694D01*
X167064311Y-75235759D01*
X167073528Y-75239620D01*
X167185768Y-75291958D01*
X167185772Y-75291959D01*
X167190757Y-75294284D01*
X167196079Y-75295710D01*
X167406598Y-75352119D01*
X167406600Y-75352119D01*
X167411913Y-75353543D01*
X167640000Y-75373498D01*
X167868087Y-75353543D01*
X167873400Y-75352119D01*
X167873402Y-75352119D01*
X168083933Y-75295707D01*
X168083935Y-75295706D01*
X168089243Y-75294284D01*
X168152644Y-75264720D01*
X168291762Y-75199849D01*
X168291767Y-75199846D01*
X168296749Y-75197523D01*
X168438458Y-75098297D01*
X168479789Y-75069357D01*
X168479792Y-75069355D01*
X168484300Y-75066198D01*
X168646198Y-74904300D01*
X168653212Y-74894284D01*
X168704098Y-74821611D01*
X168777523Y-74716749D01*
X168779846Y-74711767D01*
X168779849Y-74711762D01*
X168795805Y-74677543D01*
X168842722Y-74624258D01*
X168910999Y-74604797D01*
X168978959Y-74625339D01*
X169024195Y-74677543D01*
X169040151Y-74711762D01*
X169040154Y-74711767D01*
X169042477Y-74716749D01*
X169115902Y-74821611D01*
X169166789Y-74894284D01*
X169173802Y-74904300D01*
X169335700Y-75066198D01*
X169340208Y-75069355D01*
X169340211Y-75069357D01*
X169381542Y-75098297D01*
X169523251Y-75197523D01*
X169528233Y-75199846D01*
X169528238Y-75199849D01*
X169667356Y-75264720D01*
X169730757Y-75294284D01*
X169736065Y-75295706D01*
X169736067Y-75295707D01*
X169946598Y-75352119D01*
X169946600Y-75352119D01*
X169951913Y-75353543D01*
X170180000Y-75373498D01*
X170408087Y-75353543D01*
X170413400Y-75352119D01*
X170413402Y-75352119D01*
X170623933Y-75295707D01*
X170623935Y-75295706D01*
X170629243Y-75294284D01*
X170692644Y-75264720D01*
X170831762Y-75199849D01*
X170831767Y-75199846D01*
X170836749Y-75197523D01*
X170978458Y-75098297D01*
X171019789Y-75069357D01*
X171019792Y-75069355D01*
X171024300Y-75066198D01*
X171186198Y-74904300D01*
X171189357Y-74899789D01*
X171192892Y-74895576D01*
X171194026Y-74896527D01*
X171244071Y-74856529D01*
X171314690Y-74849224D01*
X171378049Y-74881258D01*
X171414030Y-74942462D01*
X171417082Y-74959517D01*
X171418255Y-74970316D01*
X171469385Y-75106705D01*
X171556739Y-75223261D01*
X171673295Y-75310615D01*
X171809684Y-75361745D01*
X171871866Y-75368500D01*
X173568134Y-75368500D01*
X173630316Y-75361745D01*
X173766705Y-75310615D01*
X173883261Y-75223261D01*
X173970615Y-75106705D01*
X174021745Y-74970316D01*
X174028500Y-74908134D01*
X174028500Y-72411866D01*
X174021745Y-72349684D01*
X173970615Y-72213295D01*
X173883261Y-72096739D01*
X173766705Y-72009385D01*
X173630316Y-71958255D01*
X173568134Y-71951500D01*
X171959594Y-71951500D01*
X171891473Y-71931498D01*
X171870499Y-71914595D01*
X168310405Y-68354500D01*
X168276379Y-68292188D01*
X168273500Y-68265405D01*
X168273500Y-57499394D01*
X168293502Y-57431273D01*
X168327229Y-57396181D01*
X168479789Y-57289357D01*
X168479792Y-57289355D01*
X168484300Y-57286198D01*
X168646198Y-57124300D01*
X168653212Y-57114284D01*
X168715005Y-57026033D01*
X168777523Y-56936749D01*
X168779846Y-56931767D01*
X168779849Y-56931762D01*
X168795805Y-56897543D01*
X168842722Y-56844258D01*
X168910999Y-56824797D01*
X168978959Y-56845339D01*
X169024195Y-56897543D01*
X169040151Y-56931762D01*
X169040154Y-56931767D01*
X169042477Y-56936749D01*
X169104995Y-57026033D01*
X169166789Y-57114284D01*
X169173802Y-57124300D01*
X169335700Y-57286198D01*
X169340208Y-57289355D01*
X169340211Y-57289357D01*
X169398020Y-57329835D01*
X169523251Y-57417523D01*
X169528233Y-57419846D01*
X169528238Y-57419849D01*
X169698825Y-57499394D01*
X169730757Y-57514284D01*
X169736065Y-57515706D01*
X169736067Y-57515707D01*
X169946598Y-57572119D01*
X169946600Y-57572119D01*
X169951913Y-57573543D01*
X170180000Y-57593498D01*
X170408087Y-57573543D01*
X170413400Y-57572119D01*
X170413402Y-57572119D01*
X170508173Y-57546725D01*
X170579149Y-57548415D01*
X170629879Y-57579337D01*
X181306834Y-68256292D01*
X181340860Y-68318604D01*
X181335795Y-68389419D01*
X181320062Y-68418913D01*
X181314566Y-68426562D01*
X181169002Y-68629136D01*
X181040857Y-68871161D01*
X181039385Y-68875184D01*
X181039383Y-68875188D01*
X180975748Y-69049077D01*
X180946743Y-69128337D01*
X180888404Y-69395907D01*
X180866917Y-69668918D01*
X180882682Y-69942320D01*
X180883507Y-69946525D01*
X180883508Y-69946533D01*
X180891290Y-69986198D01*
X180935405Y-70211053D01*
X180936792Y-70215103D01*
X180936793Y-70215108D01*
X180956800Y-70273543D01*
X181024112Y-70470144D01*
X181147160Y-70714799D01*
X181149586Y-70718328D01*
X181149589Y-70718334D01*
X181231276Y-70837188D01*
X181302274Y-70940490D01*
X181486582Y-71143043D01*
X181489877Y-71145798D01*
X181489878Y-71145799D01*
X181574998Y-71216970D01*
X181696675Y-71318707D01*
X181700316Y-71320991D01*
X181925024Y-71461951D01*
X181925028Y-71461953D01*
X181928664Y-71464234D01*
X181996544Y-71494883D01*
X182174345Y-71575164D01*
X182174349Y-71575166D01*
X182178257Y-71576930D01*
X182182377Y-71578150D01*
X182182376Y-71578150D01*
X182436723Y-71653491D01*
X182436727Y-71653492D01*
X182440836Y-71654709D01*
X182445070Y-71655357D01*
X182445075Y-71655358D01*
X182707298Y-71695483D01*
X182707300Y-71695483D01*
X182711540Y-71696132D01*
X182850912Y-71698322D01*
X182981071Y-71700367D01*
X182981077Y-71700367D01*
X182985362Y-71700434D01*
X183257235Y-71667534D01*
X183522127Y-71598041D01*
X183526087Y-71596401D01*
X183526092Y-71596399D01*
X183719317Y-71516362D01*
X183775136Y-71493241D01*
X183959655Y-71385417D01*
X184007879Y-71357237D01*
X184007880Y-71357236D01*
X184011582Y-71355073D01*
X184227089Y-71186094D01*
X184232318Y-71180699D01*
X184414686Y-70992509D01*
X184417669Y-70989431D01*
X184420202Y-70985983D01*
X184420206Y-70985978D01*
X184577257Y-70772178D01*
X184579795Y-70768723D01*
X184607154Y-70718334D01*
X184708418Y-70531830D01*
X184708419Y-70531828D01*
X184710468Y-70528054D01*
X184807269Y-70271877D01*
X184868407Y-70004933D01*
X184884931Y-69819789D01*
X184892531Y-69734627D01*
X184892531Y-69734625D01*
X184892751Y-69732161D01*
X184893193Y-69690000D01*
X184886890Y-69597543D01*
X184874859Y-69421055D01*
X184874858Y-69421049D01*
X184874567Y-69416778D01*
X184819032Y-69148612D01*
X184727617Y-68890465D01*
X184602013Y-68647112D01*
X184592040Y-68632921D01*
X184447008Y-68426562D01*
X184444545Y-68423057D01*
X184258125Y-68222445D01*
X184254810Y-68219731D01*
X184254806Y-68219728D01*
X184049523Y-68051706D01*
X184046205Y-68048990D01*
X183812704Y-67905901D01*
X183808768Y-67904173D01*
X183565873Y-67797549D01*
X183565869Y-67797548D01*
X183561945Y-67795825D01*
X183333521Y-67730757D01*
X183302692Y-67721975D01*
X183302688Y-67721974D01*
X183298566Y-67720800D01*
X183298569Y-67720791D01*
X183236604Y-67687146D01*
X182432595Y-66883137D01*
X182398569Y-66820825D01*
X182403634Y-66750010D01*
X182446181Y-66693174D01*
X182512701Y-66668363D01*
X182540749Y-66669492D01*
X182707340Y-66694984D01*
X182715874Y-66695700D01*
X182981045Y-66699867D01*
X182989596Y-66699418D01*
X183252883Y-66667557D01*
X183261284Y-66665955D01*
X183517824Y-66598653D01*
X183525926Y-66595926D01*
X183770949Y-66494434D01*
X183778617Y-66490628D01*
X184007598Y-66356822D01*
X184014679Y-66352009D01*
X184094655Y-66289301D01*
X184103125Y-66277442D01*
X184096608Y-66265818D01*
X182521922Y-64691132D01*
X183244408Y-64691132D01*
X183244539Y-64692965D01*
X183248790Y-64699580D01*
X184455730Y-65906520D01*
X184467939Y-65913187D01*
X184479439Y-65904497D01*
X184576831Y-65771913D01*
X184581418Y-65764685D01*
X184707962Y-65531621D01*
X184711530Y-65523827D01*
X184805271Y-65275750D01*
X184807748Y-65267544D01*
X184866954Y-65009038D01*
X184868294Y-65000577D01*
X184892031Y-64734616D01*
X184892277Y-64729677D01*
X184892666Y-64692485D01*
X184892523Y-64687519D01*
X184874362Y-64421123D01*
X184873201Y-64412649D01*
X184819419Y-64152944D01*
X184817120Y-64144709D01*
X184728588Y-63894705D01*
X184725191Y-63886854D01*
X184603550Y-63651178D01*
X184599122Y-63643866D01*
X184480031Y-63474417D01*
X184469509Y-63466037D01*
X184456121Y-63473089D01*
X183252022Y-64677188D01*
X183244408Y-64691132D01*
X182521922Y-64691132D01*
X181303814Y-63473024D01*
X181291804Y-63466466D01*
X181280064Y-63475434D01*
X181171935Y-63625911D01*
X181167418Y-63633196D01*
X181043325Y-63867567D01*
X181039839Y-63875395D01*
X180948700Y-64124446D01*
X180946311Y-64132670D01*
X180889812Y-64391795D01*
X180888563Y-64400250D01*
X180867754Y-64664653D01*
X180867665Y-64673204D01*
X180882932Y-64937969D01*
X180884005Y-64946470D01*
X180899135Y-65023586D01*
X180892622Y-65094284D01*
X180848921Y-65150237D01*
X180781906Y-65173681D01*
X180712856Y-65157172D01*
X180686397Y-65136939D01*
X178651958Y-63102500D01*
X181656584Y-63102500D01*
X181662980Y-63113770D01*
X182867188Y-64317978D01*
X182881132Y-64325592D01*
X182882965Y-64325461D01*
X182889580Y-64321210D01*
X184096604Y-63114186D01*
X184103795Y-63101017D01*
X184096473Y-63090780D01*
X184049233Y-63052115D01*
X184042261Y-63047160D01*
X183816122Y-62908582D01*
X183808552Y-62904624D01*
X183565704Y-62798022D01*
X183557644Y-62795120D01*
X183302592Y-62722467D01*
X183294214Y-62720685D01*
X183031656Y-62683318D01*
X183023111Y-62682691D01*
X182757908Y-62681302D01*
X182749374Y-62681839D01*
X182486433Y-62716456D01*
X182478035Y-62718149D01*
X182222238Y-62788127D01*
X182214143Y-62790946D01*
X181970199Y-62894997D01*
X181962577Y-62898881D01*
X181735013Y-63035075D01*
X181727981Y-63039962D01*
X181665053Y-63090377D01*
X181656584Y-63102500D01*
X178651958Y-63102500D01*
X176787592Y-61238134D01*
X180871500Y-61238134D01*
X180878255Y-61300316D01*
X180929385Y-61436705D01*
X181016739Y-61553261D01*
X181133295Y-61640615D01*
X181269684Y-61691745D01*
X181331866Y-61698500D01*
X184428134Y-61698500D01*
X184490316Y-61691745D01*
X184626705Y-61640615D01*
X184743261Y-61553261D01*
X184830615Y-61436705D01*
X184881745Y-61300316D01*
X184888500Y-61238134D01*
X184888500Y-58983148D01*
X184908502Y-58915027D01*
X184925405Y-58894053D01*
X187258542Y-56560915D01*
X187273577Y-56548074D01*
X187279084Y-56544073D01*
X187279090Y-56544068D01*
X187284434Y-56540185D01*
X187328895Y-56490806D01*
X187333436Y-56486021D01*
X187347472Y-56471985D01*
X187359969Y-56456553D01*
X187364253Y-56451538D01*
X187404283Y-56407080D01*
X187404287Y-56407075D01*
X187408704Y-56402169D01*
X187415412Y-56390551D01*
X187426607Y-56374263D01*
X187430890Y-56368974D01*
X187430891Y-56368973D01*
X187435048Y-56363839D01*
X187465214Y-56304634D01*
X187468337Y-56298881D01*
X187501564Y-56241331D01*
X187503606Y-56235047D01*
X187503608Y-56235042D01*
X187505708Y-56228579D01*
X187513272Y-56210317D01*
X187516363Y-56204251D01*
X187516366Y-56204242D01*
X187519362Y-56198363D01*
X187536556Y-56134196D01*
X187538422Y-56127894D01*
X187558954Y-56064702D01*
X187560355Y-56051372D01*
X187563958Y-56031929D01*
X187567430Y-56018971D01*
X187570907Y-55952628D01*
X187571424Y-55946059D01*
X187573156Y-55929577D01*
X187573500Y-55926306D01*
X187573500Y-55906445D01*
X187573673Y-55899850D01*
X187576805Y-55840098D01*
X187576805Y-55840094D01*
X187577150Y-55833507D01*
X187575051Y-55820253D01*
X187573500Y-55800544D01*
X187573500Y-49279188D01*
X187593502Y-49211067D01*
X187610405Y-49190093D01*
X187696198Y-49104300D01*
X187827523Y-48916749D01*
X187829846Y-48911767D01*
X187829849Y-48911762D01*
X187921961Y-48714225D01*
X187921961Y-48714224D01*
X187924284Y-48709243D01*
X187983543Y-48488087D01*
X188003498Y-48260000D01*
X187983543Y-48031913D01*
X187924284Y-47810757D01*
X187920608Y-47802873D01*
X187829849Y-47608238D01*
X187829846Y-47608233D01*
X187827523Y-47603251D01*
X187696198Y-47415700D01*
X187534300Y-47253802D01*
X187529792Y-47250645D01*
X187529789Y-47250643D01*
X187451611Y-47195902D01*
X187346749Y-47122477D01*
X187341767Y-47120154D01*
X187341762Y-47120151D01*
X187144225Y-47028039D01*
X187144224Y-47028039D01*
X187139243Y-47025716D01*
X187133935Y-47024294D01*
X187133933Y-47024293D01*
X186923402Y-46967881D01*
X186923400Y-46967881D01*
X186918087Y-46966457D01*
X186690000Y-46946502D01*
X186461913Y-46966457D01*
X186456600Y-46967881D01*
X186456598Y-46967881D01*
X186246067Y-47024293D01*
X186246065Y-47024294D01*
X186240757Y-47025716D01*
X186235776Y-47028039D01*
X186235775Y-47028039D01*
X186038238Y-47120151D01*
X186038233Y-47120154D01*
X186033251Y-47122477D01*
X185928389Y-47195902D01*
X185850211Y-47250643D01*
X185850208Y-47250645D01*
X185845700Y-47253802D01*
X185683802Y-47415700D01*
X185552477Y-47603251D01*
X185550154Y-47608233D01*
X185550151Y-47608238D01*
X185459392Y-47802873D01*
X185455716Y-47810757D01*
X185396457Y-48031913D01*
X185376502Y-48260000D01*
X185396457Y-48488087D01*
X185455716Y-48709243D01*
X185458039Y-48714224D01*
X185458039Y-48714225D01*
X185550151Y-48911762D01*
X185550154Y-48911767D01*
X185552477Y-48916749D01*
X185683802Y-49104300D01*
X185769595Y-49190093D01*
X185803621Y-49252405D01*
X185806500Y-49279188D01*
X185806500Y-55461853D01*
X185786498Y-55529974D01*
X185769595Y-55550948D01*
X183675947Y-57644595D01*
X183613635Y-57678621D01*
X183586852Y-57681500D01*
X181331866Y-57681500D01*
X181269684Y-57688255D01*
X181133295Y-57739385D01*
X181016739Y-57826739D01*
X180929385Y-57943295D01*
X180878255Y-58079684D01*
X180871500Y-58141866D01*
X180871500Y-61238134D01*
X176787592Y-61238134D01*
X173224535Y-57675077D01*
X173190509Y-57612765D01*
X173195574Y-57541950D01*
X173238121Y-57485114D01*
X173260380Y-57471787D01*
X173371762Y-57419849D01*
X173371767Y-57419846D01*
X173376749Y-57417523D01*
X173501980Y-57329835D01*
X173559789Y-57289357D01*
X173559792Y-57289355D01*
X173564300Y-57286198D01*
X173726198Y-57124300D01*
X173733212Y-57114284D01*
X173795005Y-57026033D01*
X173857523Y-56936749D01*
X173859846Y-56931767D01*
X173859849Y-56931762D01*
X173951961Y-56734225D01*
X173951961Y-56734224D01*
X173954284Y-56729243D01*
X174002829Y-56548074D01*
X174012119Y-56513402D01*
X174012119Y-56513400D01*
X174013543Y-56508087D01*
X174028500Y-56337127D01*
X174028500Y-55422873D01*
X174013543Y-55251913D01*
X173954284Y-55030757D01*
X173900148Y-54914661D01*
X173859849Y-54828238D01*
X173859846Y-54828233D01*
X173857523Y-54823251D01*
X173734838Y-54648039D01*
X173729357Y-54640211D01*
X173729355Y-54640208D01*
X173726198Y-54635700D01*
X173564300Y-54473802D01*
X173559792Y-54470645D01*
X173559789Y-54470643D01*
X173481611Y-54415902D01*
X173376749Y-54342477D01*
X173371767Y-54340154D01*
X173371762Y-54340151D01*
X173260380Y-54288213D01*
X173207095Y-54241296D01*
X173187634Y-54173018D01*
X173208176Y-54105058D01*
X173224535Y-54084923D01*
X173811053Y-53498405D01*
X173873365Y-53464379D01*
X173900148Y-53461500D01*
X177212543Y-53461500D01*
X177232255Y-53463051D01*
X177245507Y-53465150D01*
X177252094Y-53464805D01*
X177252098Y-53464805D01*
X177311850Y-53461673D01*
X177318445Y-53461500D01*
X177338306Y-53461500D01*
X177358069Y-53459423D01*
X177364628Y-53458907D01*
X177380427Y-53458079D01*
X177424377Y-53455776D01*
X177424381Y-53455775D01*
X177430971Y-53455430D01*
X177443929Y-53451958D01*
X177463372Y-53448355D01*
X177463795Y-53448311D01*
X177476702Y-53446954D01*
X177539894Y-53426422D01*
X177546196Y-53424556D01*
X177603985Y-53409071D01*
X177610363Y-53407362D01*
X177616242Y-53404366D01*
X177616251Y-53404363D01*
X177622317Y-53401272D01*
X177640579Y-53393708D01*
X177647043Y-53391608D01*
X177647051Y-53391605D01*
X177653331Y-53389564D01*
X177659050Y-53386262D01*
X177659055Y-53386260D01*
X177710867Y-53356346D01*
X177716637Y-53353213D01*
X177775839Y-53323047D01*
X177786259Y-53314609D01*
X177802552Y-53303411D01*
X177802903Y-53303209D01*
X177814169Y-53296704D01*
X177819075Y-53292287D01*
X177819080Y-53292283D01*
X177863538Y-53252253D01*
X177868554Y-53247969D01*
X177881409Y-53237559D01*
X177881412Y-53237556D01*
X177883986Y-53235472D01*
X177898031Y-53221427D01*
X177902816Y-53216886D01*
X177947274Y-53176856D01*
X177947275Y-53176855D01*
X177952185Y-53172434D01*
X177960075Y-53161574D01*
X177972912Y-53146546D01*
X181509565Y-49609893D01*
X181571877Y-49575867D01*
X181599018Y-49574131D01*
X181599018Y-49573019D01*
X181604525Y-49573019D01*
X181610000Y-49573498D01*
X181838087Y-49553543D01*
X181843400Y-49552119D01*
X181843402Y-49552119D01*
X182053933Y-49495707D01*
X182053935Y-49495706D01*
X182059243Y-49494284D01*
X182064225Y-49491961D01*
X182261762Y-49399849D01*
X182261767Y-49399846D01*
X182266749Y-49397523D01*
X182391360Y-49310269D01*
X182449789Y-49269357D01*
X182449792Y-49269355D01*
X182454300Y-49266198D01*
X182616198Y-49104300D01*
X182747523Y-48916749D01*
X182749846Y-48911767D01*
X182749849Y-48911762D01*
X182841961Y-48714225D01*
X182841961Y-48714224D01*
X182844284Y-48709243D01*
X182903543Y-48488087D01*
X182923498Y-48260000D01*
X182903543Y-48031913D01*
X182844284Y-47810757D01*
X182840608Y-47802873D01*
X182749849Y-47608238D01*
X182749846Y-47608233D01*
X182747523Y-47603251D01*
X182616198Y-47415700D01*
X182454300Y-47253802D01*
X182449792Y-47250645D01*
X182449789Y-47250643D01*
X182371611Y-47195902D01*
X182266749Y-47122477D01*
X182261767Y-47120154D01*
X182261762Y-47120151D01*
X182064225Y-47028039D01*
X182064224Y-47028039D01*
X182059243Y-47025716D01*
X182053935Y-47024294D01*
X182053933Y-47024293D01*
X181843402Y-46967881D01*
X181843400Y-46967881D01*
X181838087Y-46966457D01*
X181610000Y-46946502D01*
X181381913Y-46966457D01*
X181376600Y-46967881D01*
X181376598Y-46967881D01*
X181166067Y-47024293D01*
X181166065Y-47024294D01*
X181160757Y-47025716D01*
X181155776Y-47028039D01*
X181155775Y-47028039D01*
X180958238Y-47120151D01*
X180958233Y-47120154D01*
X180953251Y-47122477D01*
X180848389Y-47195902D01*
X180770211Y-47250643D01*
X180770208Y-47250645D01*
X180765700Y-47253802D01*
X180603802Y-47415700D01*
X180472477Y-47603251D01*
X180470154Y-47608233D01*
X180470151Y-47608238D01*
X180379392Y-47802873D01*
X180375716Y-47810757D01*
X180316457Y-48031913D01*
X180296502Y-48260000D01*
X180296981Y-48265475D01*
X180296981Y-48270982D01*
X180294420Y-48270982D01*
X180282492Y-48330062D01*
X180260107Y-48360435D01*
X176962947Y-51657595D01*
X176900635Y-51691621D01*
X176873852Y-51694500D01*
X173561450Y-51694500D01*
X173541739Y-51692949D01*
X173535009Y-51691883D01*
X173528493Y-51690851D01*
X173521905Y-51691196D01*
X173521901Y-51691196D01*
X173462162Y-51694327D01*
X173455568Y-51694500D01*
X173435694Y-51694500D01*
X173432421Y-51694844D01*
X173415929Y-51696577D01*
X173409354Y-51697094D01*
X173349624Y-51700224D01*
X173349620Y-51700225D01*
X173343029Y-51700570D01*
X173330071Y-51704042D01*
X173310628Y-51707645D01*
X173297298Y-51709046D01*
X173234106Y-51729578D01*
X173227804Y-51731444D01*
X173174328Y-51745773D01*
X173163637Y-51748638D01*
X173157758Y-51751634D01*
X173157749Y-51751637D01*
X173151683Y-51754728D01*
X173133421Y-51762292D01*
X173126957Y-51764392D01*
X173126949Y-51764395D01*
X173120669Y-51766436D01*
X173114950Y-51769738D01*
X173114945Y-51769740D01*
X173063133Y-51799654D01*
X173057363Y-51802787D01*
X172998161Y-51832953D01*
X172993029Y-51837109D01*
X172987741Y-51841391D01*
X172971448Y-51852589D01*
X172959831Y-51859296D01*
X172954925Y-51863713D01*
X172954920Y-51863717D01*
X172910462Y-51903747D01*
X172905446Y-51908031D01*
X172892591Y-51918441D01*
X172890014Y-51920528D01*
X172875969Y-51934573D01*
X172871184Y-51939114D01*
X172821815Y-51983566D01*
X172813925Y-51994426D01*
X172801088Y-52009454D01*
X170629879Y-54180663D01*
X170567567Y-54214689D01*
X170508173Y-54213275D01*
X170413402Y-54187881D01*
X170413400Y-54187881D01*
X170408087Y-54186457D01*
X170180000Y-54166502D01*
X169951913Y-54186457D01*
X169946600Y-54187881D01*
X169946598Y-54187881D01*
X169736067Y-54244293D01*
X169736065Y-54244294D01*
X169730757Y-54245716D01*
X169725776Y-54248039D01*
X169725775Y-54248039D01*
X169528238Y-54340151D01*
X169528233Y-54340154D01*
X169523251Y-54342477D01*
X169418389Y-54415902D01*
X169340211Y-54470643D01*
X169340208Y-54470645D01*
X169335700Y-54473802D01*
X169173802Y-54635700D01*
X169170645Y-54640208D01*
X169170643Y-54640211D01*
X169165162Y-54648039D01*
X169042477Y-54823251D01*
X169040154Y-54828233D01*
X169040151Y-54828238D01*
X169024195Y-54862457D01*
X168977278Y-54915742D01*
X168909001Y-54935203D01*
X168841041Y-54914661D01*
X168795805Y-54862457D01*
X168779849Y-54828238D01*
X168779846Y-54828233D01*
X168777523Y-54823251D01*
X168654838Y-54648039D01*
X168649357Y-54640211D01*
X168649355Y-54640208D01*
X168646198Y-54635700D01*
X168484300Y-54473802D01*
X168479792Y-54470645D01*
X168479789Y-54470643D01*
X168401611Y-54415902D01*
X168296749Y-54342477D01*
X168291767Y-54340154D01*
X168291762Y-54340151D01*
X168094225Y-54248039D01*
X168094224Y-54248039D01*
X168089243Y-54245716D01*
X168083935Y-54244294D01*
X168083933Y-54244293D01*
X167873402Y-54187881D01*
X167873400Y-54187881D01*
X167868087Y-54186457D01*
X167640000Y-54166502D01*
X167411913Y-54186457D01*
X167406600Y-54187881D01*
X167406598Y-54187881D01*
X167307591Y-54214410D01*
X167236615Y-54212720D01*
X167177819Y-54172926D01*
X167149871Y-54107662D01*
X167148980Y-54092703D01*
X167148980Y-50047297D01*
X167168982Y-49979176D01*
X167222638Y-49932683D01*
X167292912Y-49922579D01*
X167307591Y-49925590D01*
X167406598Y-49952119D01*
X167406600Y-49952119D01*
X167411913Y-49953543D01*
X167640000Y-49973498D01*
X167868087Y-49953543D01*
X167873400Y-49952119D01*
X167873402Y-49952119D01*
X168083933Y-49895707D01*
X168083935Y-49895706D01*
X168089243Y-49894284D01*
X168206472Y-49839620D01*
X168276662Y-49828959D01*
X168341474Y-49857939D01*
X168348815Y-49864720D01*
X168660868Y-50176773D01*
X168668408Y-50185059D01*
X168672520Y-50191538D01*
X168678297Y-50196963D01*
X168722171Y-50238163D01*
X168725013Y-50240918D01*
X168744750Y-50260655D01*
X168747947Y-50263135D01*
X168756967Y-50270838D01*
X168789199Y-50301106D01*
X168796145Y-50304925D01*
X168796148Y-50304927D01*
X168806954Y-50310868D01*
X168823473Y-50321719D01*
X168839479Y-50334134D01*
X168846748Y-50337279D01*
X168846752Y-50337282D01*
X168880057Y-50351694D01*
X168890707Y-50356911D01*
X168929460Y-50378215D01*
X168937135Y-50380186D01*
X168937136Y-50380186D01*
X168949082Y-50383253D01*
X168967787Y-50389657D01*
X168986375Y-50397701D01*
X168994198Y-50398940D01*
X168994208Y-50398943D01*
X169030044Y-50404619D01*
X169041664Y-50407025D01*
X169073479Y-50415193D01*
X169084490Y-50418020D01*
X169104744Y-50418020D01*
X169124454Y-50419571D01*
X169144463Y-50422740D01*
X169152355Y-50421994D01*
X169171100Y-50420222D01*
X169188482Y-50418579D01*
X169200339Y-50418020D01*
X174926713Y-50418020D01*
X174937896Y-50418547D01*
X174945389Y-50420222D01*
X174953315Y-50419973D01*
X174953316Y-50419973D01*
X175013466Y-50418082D01*
X175017425Y-50418020D01*
X175045336Y-50418020D01*
X175049271Y-50417523D01*
X175049336Y-50417515D01*
X175061173Y-50416582D01*
X175093431Y-50415568D01*
X175097450Y-50415442D01*
X175105369Y-50415193D01*
X175124823Y-50409541D01*
X175144180Y-50405533D01*
X175156410Y-50403988D01*
X175156411Y-50403988D01*
X175164277Y-50402994D01*
X175171648Y-50400075D01*
X175171650Y-50400075D01*
X175205392Y-50386716D01*
X175216622Y-50382871D01*
X175251463Y-50372749D01*
X175251464Y-50372749D01*
X175259073Y-50370538D01*
X175265892Y-50366505D01*
X175265897Y-50366503D01*
X175276508Y-50360227D01*
X175294256Y-50351532D01*
X175313097Y-50344072D01*
X175348867Y-50318084D01*
X175358787Y-50311568D01*
X175390015Y-50293100D01*
X175390018Y-50293098D01*
X175396842Y-50289062D01*
X175411163Y-50274741D01*
X175426197Y-50261900D01*
X175436174Y-50254651D01*
X175442587Y-50249992D01*
X175470778Y-50215915D01*
X175478768Y-50207136D01*
X176116752Y-49569152D01*
X176179064Y-49535126D01*
X176238459Y-49536541D01*
X176296591Y-49552118D01*
X176296602Y-49552120D01*
X176301913Y-49553543D01*
X176530000Y-49573498D01*
X176758087Y-49553543D01*
X176763400Y-49552119D01*
X176763402Y-49552119D01*
X176973933Y-49495707D01*
X176973935Y-49495706D01*
X176979243Y-49494284D01*
X176984225Y-49491961D01*
X177181762Y-49399849D01*
X177181767Y-49399846D01*
X177186749Y-49397523D01*
X177311360Y-49310269D01*
X177369789Y-49269357D01*
X177369792Y-49269355D01*
X177374300Y-49266198D01*
X177536198Y-49104300D01*
X177667523Y-48916749D01*
X177669846Y-48911767D01*
X177669849Y-48911762D01*
X177761961Y-48714225D01*
X177761961Y-48714224D01*
X177764284Y-48709243D01*
X177823543Y-48488087D01*
X177843498Y-48260000D01*
X177823543Y-48031913D01*
X177764284Y-47810757D01*
X177760608Y-47802873D01*
X177669849Y-47608238D01*
X177669846Y-47608233D01*
X177667523Y-47603251D01*
X177536198Y-47415700D01*
X177374300Y-47253802D01*
X177369792Y-47250645D01*
X177369789Y-47250643D01*
X177291611Y-47195902D01*
X177186749Y-47122477D01*
X177181767Y-47120154D01*
X177181762Y-47120151D01*
X176984225Y-47028039D01*
X176984224Y-47028039D01*
X176979243Y-47025716D01*
X176973935Y-47024294D01*
X176973933Y-47024293D01*
X176763402Y-46967881D01*
X176763400Y-46967881D01*
X176758087Y-46966457D01*
X176530000Y-46946502D01*
X176301913Y-46966457D01*
X176296600Y-46967881D01*
X176296598Y-46967881D01*
X176086067Y-47024293D01*
X176086065Y-47024294D01*
X176080757Y-47025716D01*
X176075776Y-47028039D01*
X176075775Y-47028039D01*
X175878238Y-47120151D01*
X175878233Y-47120154D01*
X175873251Y-47122477D01*
X175768389Y-47195902D01*
X175690211Y-47250643D01*
X175690208Y-47250645D01*
X175685700Y-47253802D01*
X175523802Y-47415700D01*
X175392477Y-47603251D01*
X175390154Y-47608233D01*
X175390151Y-47608238D01*
X175299392Y-47802873D01*
X175295716Y-47810757D01*
X175236457Y-48031913D01*
X175216502Y-48260000D01*
X175236457Y-48488087D01*
X175237879Y-48493392D01*
X175237881Y-48493406D01*
X175253459Y-48551539D01*
X175251771Y-48622516D01*
X175220848Y-48673248D01*
X174779979Y-49114116D01*
X174717667Y-49148141D01*
X174690884Y-49151020D01*
X174154500Y-49151020D01*
X174086379Y-49131018D01*
X174039886Y-49077362D01*
X174028500Y-49025020D01*
X174028500Y-47011866D01*
X174021745Y-46949684D01*
X173970615Y-46813295D01*
X173883261Y-46696739D01*
X173766705Y-46609385D01*
X173630316Y-46558255D01*
X173568134Y-46551500D01*
X171871866Y-46551500D01*
X171809684Y-46558255D01*
X171673295Y-46609385D01*
X171556739Y-46696739D01*
X171469385Y-46813295D01*
X171418255Y-46949684D01*
X171417083Y-46960474D01*
X171416197Y-46962606D01*
X171415575Y-46965222D01*
X171415152Y-46965121D01*
X171389845Y-47026035D01*
X171331483Y-47066463D01*
X171260529Y-47068922D01*
X171199510Y-47032629D01*
X171192511Y-47023969D01*
X171189354Y-47020207D01*
X171186198Y-47015700D01*
X171024300Y-46853802D01*
X171019792Y-46850645D01*
X171019789Y-46850643D01*
X170941611Y-46795902D01*
X170836749Y-46722477D01*
X170831767Y-46720154D01*
X170831762Y-46720151D01*
X170634225Y-46628039D01*
X170634224Y-46628039D01*
X170629243Y-46625716D01*
X170623935Y-46624294D01*
X170623933Y-46624293D01*
X170413402Y-46567881D01*
X170413400Y-46567881D01*
X170408087Y-46566457D01*
X170180000Y-46546502D01*
X169951913Y-46566457D01*
X169946600Y-46567881D01*
X169946598Y-46567881D01*
X169736067Y-46624293D01*
X169736065Y-46624294D01*
X169730757Y-46625716D01*
X169725776Y-46628039D01*
X169725775Y-46628039D01*
X169528238Y-46720151D01*
X169528233Y-46720154D01*
X169523251Y-46722477D01*
X169418389Y-46795902D01*
X169340211Y-46850643D01*
X169340208Y-46850645D01*
X169335700Y-46853802D01*
X169173802Y-47015700D01*
X169170645Y-47020208D01*
X169170643Y-47020211D01*
X169138257Y-47066463D01*
X169042477Y-47203251D01*
X169040154Y-47208233D01*
X169040151Y-47208238D01*
X169024195Y-47242457D01*
X168977278Y-47295742D01*
X168909001Y-47315203D01*
X168841041Y-47294661D01*
X168795805Y-47242457D01*
X168779849Y-47208238D01*
X168779846Y-47208233D01*
X168777523Y-47203251D01*
X168681743Y-47066463D01*
X168649357Y-47020211D01*
X168649355Y-47020208D01*
X168646198Y-47015700D01*
X168484300Y-46853802D01*
X168479792Y-46850645D01*
X168479789Y-46850643D01*
X168327229Y-46743819D01*
X168282901Y-46688362D01*
X168273500Y-46640606D01*
X168273500Y-46638768D01*
X168274027Y-46627585D01*
X168275702Y-46620092D01*
X168275366Y-46609385D01*
X168273562Y-46552002D01*
X168273500Y-46548044D01*
X168273500Y-46520144D01*
X168272996Y-46516153D01*
X168272063Y-46504311D01*
X168270923Y-46468036D01*
X168270674Y-46460111D01*
X168265021Y-46440652D01*
X168261012Y-46421293D01*
X168260846Y-46419983D01*
X168258474Y-46401203D01*
X168255558Y-46393837D01*
X168255556Y-46393831D01*
X168242200Y-46360098D01*
X168238355Y-46348868D01*
X168228230Y-46314017D01*
X168228230Y-46314016D01*
X168226019Y-46306407D01*
X168215705Y-46288966D01*
X168207008Y-46271213D01*
X168202472Y-46259758D01*
X168199552Y-46252383D01*
X168173563Y-46216612D01*
X168167047Y-46206692D01*
X168148578Y-46175463D01*
X168144542Y-46168638D01*
X168130221Y-46154317D01*
X168117380Y-46139283D01*
X168110131Y-46129306D01*
X168105472Y-46122893D01*
X168071395Y-46094702D01*
X168062616Y-46086712D01*
X167154364Y-45178460D01*
X167120338Y-45116148D01*
X167120940Y-45059951D01*
X167173380Y-44841524D01*
X167173381Y-44841518D01*
X167174535Y-44836711D01*
X167193165Y-44600000D01*
X168666835Y-44600000D01*
X168685465Y-44836711D01*
X168686619Y-44841518D01*
X168686620Y-44841524D01*
X168721640Y-44987391D01*
X168740895Y-45067594D01*
X168742788Y-45072165D01*
X168742789Y-45072167D01*
X168827247Y-45276067D01*
X168831760Y-45286963D01*
X168834346Y-45291183D01*
X168953241Y-45485202D01*
X168953245Y-45485208D01*
X168955824Y-45489416D01*
X169110031Y-45669969D01*
X169290584Y-45824176D01*
X169294792Y-45826755D01*
X169294798Y-45826759D01*
X169483845Y-45942607D01*
X169493037Y-45948240D01*
X169497607Y-45950133D01*
X169497611Y-45950135D01*
X169707833Y-46037211D01*
X169712406Y-46039105D01*
X169792609Y-46058360D01*
X169938476Y-46093380D01*
X169938482Y-46093381D01*
X169943289Y-46094535D01*
X170180000Y-46113165D01*
X170416711Y-46094535D01*
X170421518Y-46093381D01*
X170421524Y-46093380D01*
X170567391Y-46058360D01*
X170647594Y-46039105D01*
X170652167Y-46037211D01*
X170862389Y-45950135D01*
X170862393Y-45950133D01*
X170866963Y-45948240D01*
X170876155Y-45942607D01*
X171065202Y-45826759D01*
X171065208Y-45826755D01*
X171069416Y-45824176D01*
X171249969Y-45669969D01*
X171404176Y-45489416D01*
X171406755Y-45485208D01*
X171406759Y-45485202D01*
X171525654Y-45291183D01*
X171528240Y-45286963D01*
X171532754Y-45276067D01*
X171617211Y-45072167D01*
X171617212Y-45072165D01*
X171619105Y-45067594D01*
X171638360Y-44987391D01*
X171673380Y-44841524D01*
X171673381Y-44841518D01*
X171674535Y-44836711D01*
X171693165Y-44600000D01*
X171674535Y-44363289D01*
X171619105Y-44132406D01*
X171528240Y-43913037D01*
X171525654Y-43908817D01*
X171406759Y-43714798D01*
X171406755Y-43714792D01*
X171404176Y-43710584D01*
X171249969Y-43530031D01*
X171069416Y-43375824D01*
X171065208Y-43373245D01*
X171065202Y-43373241D01*
X170873665Y-43255867D01*
X170826034Y-43203219D01*
X170813500Y-43148434D01*
X170813500Y-39551566D01*
X170833502Y-39483445D01*
X170873665Y-39444133D01*
X171065202Y-39326759D01*
X171065208Y-39326755D01*
X171069416Y-39324176D01*
X171249969Y-39169969D01*
X171404176Y-38989416D01*
X171406755Y-38985208D01*
X171406759Y-38985202D01*
X171525654Y-38791183D01*
X171528240Y-38786963D01*
X171538992Y-38761007D01*
X171617211Y-38572167D01*
X171617212Y-38572165D01*
X171619105Y-38567594D01*
X171638360Y-38487391D01*
X171667378Y-38366522D01*
X175247273Y-38366522D01*
X175294764Y-38543761D01*
X175298510Y-38554053D01*
X175390586Y-38751511D01*
X175396069Y-38761007D01*
X175521028Y-38939467D01*
X175528084Y-38947875D01*
X175682125Y-39101916D01*
X175690533Y-39108972D01*
X175868993Y-39233931D01*
X175878489Y-39239414D01*
X176075947Y-39331490D01*
X176086239Y-39335236D01*
X176258503Y-39381394D01*
X176272599Y-39381058D01*
X176276000Y-39373116D01*
X176276000Y-39367967D01*
X176784000Y-39367967D01*
X176787973Y-39381498D01*
X176796522Y-39382727D01*
X176973761Y-39335236D01*
X176984053Y-39331490D01*
X177181511Y-39239414D01*
X177191007Y-39233931D01*
X177369467Y-39108972D01*
X177377875Y-39101916D01*
X177531916Y-38947875D01*
X177538972Y-38939467D01*
X177663931Y-38761007D01*
X177669414Y-38751511D01*
X177761490Y-38554053D01*
X177765236Y-38543761D01*
X177811394Y-38371497D01*
X177811058Y-38357401D01*
X177803116Y-38354000D01*
X176802115Y-38354000D01*
X176786876Y-38358475D01*
X176785671Y-38359865D01*
X176784000Y-38367548D01*
X176784000Y-39367967D01*
X176276000Y-39367967D01*
X176276000Y-38372115D01*
X176271525Y-38356876D01*
X176270135Y-38355671D01*
X176262452Y-38354000D01*
X175262033Y-38354000D01*
X175248502Y-38357973D01*
X175247273Y-38366522D01*
X171667378Y-38366522D01*
X171673380Y-38341524D01*
X171673381Y-38341518D01*
X171674535Y-38336711D01*
X171693165Y-38100000D01*
X180296502Y-38100000D01*
X180316457Y-38328087D01*
X180317881Y-38333400D01*
X180317881Y-38333402D01*
X180327031Y-38367548D01*
X180375716Y-38549243D01*
X180378039Y-38554224D01*
X180378039Y-38554225D01*
X180470151Y-38751762D01*
X180470154Y-38751767D01*
X180472477Y-38756749D01*
X180603802Y-38944300D01*
X180765700Y-39106198D01*
X180770208Y-39109355D01*
X180770211Y-39109357D01*
X180781989Y-39117604D01*
X180953251Y-39237523D01*
X180958233Y-39239846D01*
X180958238Y-39239849D01*
X181030537Y-39273562D01*
X181160757Y-39334284D01*
X181166065Y-39335706D01*
X181166067Y-39335707D01*
X181376598Y-39392119D01*
X181376600Y-39392119D01*
X181381913Y-39393543D01*
X181610000Y-39413498D01*
X181838087Y-39393543D01*
X181843400Y-39392119D01*
X181843402Y-39392119D01*
X182053933Y-39335707D01*
X182053935Y-39335706D01*
X182059243Y-39334284D01*
X182189463Y-39273562D01*
X182261762Y-39239849D01*
X182261767Y-39239846D01*
X182266749Y-39237523D01*
X182438011Y-39117604D01*
X182449789Y-39109357D01*
X182449792Y-39109355D01*
X182454300Y-39106198D01*
X182616198Y-38944300D01*
X182747523Y-38756749D01*
X182749846Y-38751767D01*
X182749849Y-38751762D01*
X182841961Y-38554225D01*
X182841961Y-38554224D01*
X182844284Y-38549243D01*
X182892970Y-38367548D01*
X182902119Y-38333402D01*
X182902119Y-38333400D01*
X182903543Y-38328087D01*
X182923498Y-38100000D01*
X185376502Y-38100000D01*
X185396457Y-38328087D01*
X185397881Y-38333400D01*
X185397881Y-38333402D01*
X185407031Y-38367548D01*
X185455716Y-38549243D01*
X185458039Y-38554224D01*
X185458039Y-38554225D01*
X185550151Y-38751762D01*
X185550154Y-38751767D01*
X185552477Y-38756749D01*
X185683802Y-38944300D01*
X185845700Y-39106198D01*
X185850208Y-39109355D01*
X185850211Y-39109357D01*
X185861989Y-39117604D01*
X186033251Y-39237523D01*
X186038233Y-39239846D01*
X186038238Y-39239849D01*
X186110537Y-39273562D01*
X186240757Y-39334284D01*
X186246065Y-39335706D01*
X186246067Y-39335707D01*
X186456598Y-39392119D01*
X186456600Y-39392119D01*
X186461913Y-39393543D01*
X186690000Y-39413498D01*
X186918087Y-39393543D01*
X186923400Y-39392119D01*
X186923402Y-39392119D01*
X187133933Y-39335707D01*
X187133935Y-39335706D01*
X187139243Y-39334284D01*
X187269463Y-39273562D01*
X187341762Y-39239849D01*
X187341767Y-39239846D01*
X187346749Y-39237523D01*
X187518011Y-39117604D01*
X187529789Y-39109357D01*
X187529792Y-39109355D01*
X187534300Y-39106198D01*
X187696198Y-38944300D01*
X187827523Y-38756749D01*
X187829846Y-38751767D01*
X187829849Y-38751762D01*
X187921961Y-38554225D01*
X187921961Y-38554224D01*
X187924284Y-38549243D01*
X187972970Y-38367548D01*
X187982119Y-38333402D01*
X187982119Y-38333400D01*
X187983543Y-38328087D01*
X188003498Y-38100000D01*
X187983543Y-37871913D01*
X187973244Y-37833478D01*
X187925707Y-37656067D01*
X187925706Y-37656065D01*
X187924284Y-37650757D01*
X187915727Y-37632406D01*
X187829849Y-37448238D01*
X187829846Y-37448233D01*
X187827523Y-37443251D01*
X187696198Y-37255700D01*
X187534300Y-37093802D01*
X187529792Y-37090645D01*
X187529789Y-37090643D01*
X187438644Y-37026823D01*
X187346749Y-36962477D01*
X187341767Y-36960154D01*
X187341762Y-36960151D01*
X187144225Y-36868039D01*
X187144224Y-36868039D01*
X187139243Y-36865716D01*
X187133935Y-36864294D01*
X187133933Y-36864293D01*
X186923402Y-36807881D01*
X186923400Y-36807881D01*
X186918087Y-36806457D01*
X186690000Y-36786502D01*
X186461913Y-36806457D01*
X186456600Y-36807881D01*
X186456598Y-36807881D01*
X186246067Y-36864293D01*
X186246065Y-36864294D01*
X186240757Y-36865716D01*
X186235776Y-36868039D01*
X186235775Y-36868039D01*
X186038238Y-36960151D01*
X186038233Y-36960154D01*
X186033251Y-36962477D01*
X185941356Y-37026823D01*
X185850211Y-37090643D01*
X185850208Y-37090645D01*
X185845700Y-37093802D01*
X185683802Y-37255700D01*
X185552477Y-37443251D01*
X185550154Y-37448233D01*
X185550151Y-37448238D01*
X185464273Y-37632406D01*
X185455716Y-37650757D01*
X185454294Y-37656065D01*
X185454293Y-37656067D01*
X185406756Y-37833478D01*
X185396457Y-37871913D01*
X185376502Y-38100000D01*
X182923498Y-38100000D01*
X182903543Y-37871913D01*
X182893244Y-37833478D01*
X182845707Y-37656067D01*
X182845706Y-37656065D01*
X182844284Y-37650757D01*
X182835727Y-37632406D01*
X182749849Y-37448238D01*
X182749846Y-37448233D01*
X182747523Y-37443251D01*
X182616198Y-37255700D01*
X182454300Y-37093802D01*
X182449792Y-37090645D01*
X182449789Y-37090643D01*
X182358644Y-37026823D01*
X182266749Y-36962477D01*
X182261767Y-36960154D01*
X182261762Y-36960151D01*
X182064225Y-36868039D01*
X182064224Y-36868039D01*
X182059243Y-36865716D01*
X182053935Y-36864294D01*
X182053933Y-36864293D01*
X181843402Y-36807881D01*
X181843400Y-36807881D01*
X181838087Y-36806457D01*
X181610000Y-36786502D01*
X181381913Y-36806457D01*
X181376600Y-36807881D01*
X181376598Y-36807881D01*
X181166067Y-36864293D01*
X181166065Y-36864294D01*
X181160757Y-36865716D01*
X181155776Y-36868039D01*
X181155775Y-36868039D01*
X180958238Y-36960151D01*
X180958233Y-36960154D01*
X180953251Y-36962477D01*
X180861356Y-37026823D01*
X180770211Y-37090643D01*
X180770208Y-37090645D01*
X180765700Y-37093802D01*
X180603802Y-37255700D01*
X180472477Y-37443251D01*
X180470154Y-37448233D01*
X180470151Y-37448238D01*
X180384273Y-37632406D01*
X180375716Y-37650757D01*
X180374294Y-37656065D01*
X180374293Y-37656067D01*
X180326756Y-37833478D01*
X180316457Y-37871913D01*
X180296502Y-38100000D01*
X171693165Y-38100000D01*
X171674535Y-37863289D01*
X171670385Y-37846000D01*
X171666184Y-37828503D01*
X175248606Y-37828503D01*
X175248942Y-37842599D01*
X175256884Y-37846000D01*
X176257885Y-37846000D01*
X176273124Y-37841525D01*
X176274329Y-37840135D01*
X176276000Y-37832452D01*
X176276000Y-37827885D01*
X176784000Y-37827885D01*
X176788475Y-37843124D01*
X176789865Y-37844329D01*
X176797548Y-37846000D01*
X177797967Y-37846000D01*
X177811498Y-37842027D01*
X177812727Y-37833478D01*
X177765236Y-37656239D01*
X177761490Y-37645947D01*
X177669414Y-37448489D01*
X177663931Y-37438993D01*
X177538972Y-37260533D01*
X177531916Y-37252125D01*
X177377875Y-37098084D01*
X177369467Y-37091028D01*
X177191007Y-36966069D01*
X177181511Y-36960586D01*
X176984053Y-36868510D01*
X176973761Y-36864764D01*
X176801497Y-36818606D01*
X176787401Y-36818942D01*
X176784000Y-36826884D01*
X176784000Y-37827885D01*
X176276000Y-37827885D01*
X176276000Y-36832033D01*
X176272027Y-36818502D01*
X176263478Y-36817273D01*
X176086239Y-36864764D01*
X176075947Y-36868510D01*
X175878489Y-36960586D01*
X175868993Y-36966069D01*
X175690533Y-37091028D01*
X175682125Y-37098084D01*
X175528084Y-37252125D01*
X175521028Y-37260533D01*
X175396069Y-37438993D01*
X175390586Y-37448489D01*
X175298510Y-37645947D01*
X175294764Y-37656239D01*
X175248606Y-37828503D01*
X171666184Y-37828503D01*
X171624785Y-37656067D01*
X171619105Y-37632406D01*
X171540755Y-37443251D01*
X171530135Y-37417611D01*
X171530133Y-37417607D01*
X171528240Y-37413037D01*
X171434588Y-37260211D01*
X171406759Y-37214798D01*
X171406755Y-37214792D01*
X171404176Y-37210584D01*
X171249969Y-37030031D01*
X171069416Y-36875824D01*
X171065208Y-36873245D01*
X171065202Y-36873241D01*
X170871183Y-36754346D01*
X170866963Y-36751760D01*
X170862393Y-36749867D01*
X170862389Y-36749865D01*
X170652167Y-36662789D01*
X170652165Y-36662788D01*
X170647594Y-36660895D01*
X170567391Y-36641640D01*
X170421524Y-36606620D01*
X170421518Y-36606619D01*
X170416711Y-36605465D01*
X170180000Y-36586835D01*
X169943289Y-36605465D01*
X169938482Y-36606619D01*
X169938476Y-36606620D01*
X169792609Y-36641640D01*
X169712406Y-36660895D01*
X169707835Y-36662788D01*
X169707833Y-36662789D01*
X169497611Y-36749865D01*
X169497607Y-36749867D01*
X169493037Y-36751760D01*
X169488817Y-36754346D01*
X169294798Y-36873241D01*
X169294792Y-36873245D01*
X169290584Y-36875824D01*
X169110031Y-37030031D01*
X168955824Y-37210584D01*
X168953245Y-37214792D01*
X168953241Y-37214798D01*
X168925412Y-37260211D01*
X168831760Y-37413037D01*
X168829867Y-37417607D01*
X168829865Y-37417611D01*
X168819245Y-37443251D01*
X168740895Y-37632406D01*
X168735215Y-37656067D01*
X168689616Y-37846000D01*
X168685465Y-37863289D01*
X168666835Y-38100000D01*
X168685465Y-38336711D01*
X168686619Y-38341518D01*
X168686620Y-38341524D01*
X168721640Y-38487391D01*
X168740895Y-38567594D01*
X168742788Y-38572165D01*
X168742789Y-38572167D01*
X168821009Y-38761007D01*
X168831760Y-38786963D01*
X168834346Y-38791183D01*
X168953241Y-38985202D01*
X168953245Y-38985208D01*
X168955824Y-38989416D01*
X169110031Y-39169969D01*
X169290584Y-39324176D01*
X169294792Y-39326755D01*
X169294798Y-39326759D01*
X169486335Y-39444133D01*
X169533966Y-39496781D01*
X169546500Y-39551566D01*
X169546500Y-43148434D01*
X169526498Y-43216555D01*
X169486335Y-43255867D01*
X169294798Y-43373241D01*
X169294792Y-43373245D01*
X169290584Y-43375824D01*
X169110031Y-43530031D01*
X168955824Y-43710584D01*
X168953245Y-43714792D01*
X168953241Y-43714798D01*
X168834346Y-43908817D01*
X168831760Y-43913037D01*
X168740895Y-44132406D01*
X168685465Y-44363289D01*
X168666835Y-44600000D01*
X167193165Y-44600000D01*
X167174535Y-44363289D01*
X167119105Y-44132406D01*
X167028240Y-43913037D01*
X167025654Y-43908817D01*
X166906759Y-43714798D01*
X166906755Y-43714792D01*
X166904176Y-43710584D01*
X166749969Y-43530031D01*
X166569416Y-43375824D01*
X166565208Y-43373245D01*
X166565202Y-43373241D01*
X166373665Y-43255867D01*
X166326034Y-43203219D01*
X166313500Y-43148434D01*
X166313500Y-39551566D01*
X166333502Y-39483445D01*
X166373665Y-39444133D01*
X166565202Y-39326759D01*
X166565208Y-39326755D01*
X166569416Y-39324176D01*
X166749969Y-39169969D01*
X166904176Y-38989416D01*
X166906755Y-38985208D01*
X166906759Y-38985202D01*
X167025654Y-38791183D01*
X167028240Y-38786963D01*
X167038992Y-38761007D01*
X167117211Y-38572167D01*
X167117212Y-38572165D01*
X167119105Y-38567594D01*
X167138360Y-38487391D01*
X167173380Y-38341524D01*
X167173381Y-38341518D01*
X167174535Y-38336711D01*
X167193165Y-38100000D01*
X167174535Y-37863289D01*
X167170385Y-37846000D01*
X167124785Y-37656067D01*
X167119105Y-37632406D01*
X167040755Y-37443251D01*
X167030135Y-37417611D01*
X167030133Y-37417607D01*
X167028240Y-37413037D01*
X166934588Y-37260211D01*
X166906759Y-37214798D01*
X166906755Y-37214792D01*
X166904176Y-37210584D01*
X166749969Y-37030031D01*
X166569416Y-36875824D01*
X166565208Y-36873245D01*
X166565202Y-36873241D01*
X166371183Y-36754346D01*
X166366963Y-36751760D01*
X166362393Y-36749867D01*
X166362389Y-36749865D01*
X166152167Y-36662789D01*
X166152165Y-36662788D01*
X166147594Y-36660895D01*
X166067391Y-36641640D01*
X165921524Y-36606620D01*
X165921518Y-36606619D01*
X165916711Y-36605465D01*
X165680000Y-36586835D01*
X165443289Y-36605465D01*
X165438482Y-36606619D01*
X165438476Y-36606620D01*
X165292609Y-36641640D01*
X165212406Y-36660895D01*
X165207835Y-36662788D01*
X165207833Y-36662789D01*
X164997611Y-36749865D01*
X164997607Y-36749867D01*
X164993037Y-36751760D01*
X164988817Y-36754346D01*
X164794798Y-36873241D01*
X164794792Y-36873245D01*
X164790584Y-36875824D01*
X164610031Y-37030031D01*
X164455824Y-37210584D01*
X164453245Y-37214792D01*
X164453241Y-37214798D01*
X164425412Y-37260211D01*
X164331760Y-37413037D01*
X164329867Y-37417607D01*
X164329865Y-37417611D01*
X164319245Y-37443251D01*
X164240895Y-37632406D01*
X164235215Y-37656067D01*
X164189616Y-37846000D01*
X164185465Y-37863289D01*
X164166835Y-38100000D01*
X164185465Y-38336711D01*
X164186619Y-38341518D01*
X164186620Y-38341524D01*
X164221640Y-38487391D01*
X164240895Y-38567594D01*
X164242788Y-38572165D01*
X164242789Y-38572167D01*
X164321009Y-38761007D01*
X164331760Y-38786963D01*
X164334346Y-38791183D01*
X164453241Y-38985202D01*
X164453245Y-38985208D01*
X164455824Y-38989416D01*
X164610031Y-39169969D01*
X164790584Y-39324176D01*
X164794792Y-39326755D01*
X164794798Y-39326759D01*
X164986335Y-39444133D01*
X165033966Y-39496781D01*
X165046500Y-39551566D01*
X165046500Y-43148434D01*
X165026498Y-43216555D01*
X164986335Y-43255867D01*
X164794798Y-43373241D01*
X164794792Y-43373245D01*
X164790584Y-43375824D01*
X164610031Y-43530031D01*
X164455824Y-43710584D01*
X164453245Y-43714792D01*
X164453241Y-43714798D01*
X164334346Y-43908817D01*
X164331760Y-43913037D01*
X164240895Y-44132406D01*
X164185465Y-44363289D01*
X164166835Y-44600000D01*
X164185465Y-44836711D01*
X164186619Y-44841518D01*
X164186620Y-44841524D01*
X164221640Y-44987391D01*
X164240895Y-45067594D01*
X164242788Y-45072165D01*
X164242789Y-45072167D01*
X164327247Y-45276067D01*
X164331760Y-45286963D01*
X164334346Y-45291183D01*
X164453241Y-45485202D01*
X164453245Y-45485208D01*
X164455824Y-45489416D01*
X164610031Y-45669969D01*
X164790584Y-45824176D01*
X164794792Y-45826755D01*
X164794798Y-45826759D01*
X164983845Y-45942607D01*
X164993037Y-45948240D01*
X164997607Y-45950133D01*
X164997611Y-45950135D01*
X165207833Y-46037211D01*
X165212406Y-46039105D01*
X165292609Y-46058360D01*
X165438476Y-46093380D01*
X165438482Y-46093381D01*
X165443289Y-46094535D01*
X165680000Y-46113165D01*
X165916711Y-46094535D01*
X165921518Y-46093381D01*
X165921524Y-46093380D01*
X166139951Y-46040940D01*
X166210859Y-46044487D01*
X166258460Y-46074364D01*
X166831972Y-46647876D01*
X166865998Y-46710188D01*
X166860933Y-46781003D01*
X166815149Y-46840183D01*
X166800214Y-46850641D01*
X166795700Y-46853802D01*
X166633802Y-47015700D01*
X166630645Y-47020208D01*
X166630643Y-47020211D01*
X166598257Y-47066463D01*
X166502477Y-47203251D01*
X166500154Y-47208233D01*
X166500151Y-47208238D01*
X166484195Y-47242457D01*
X166437278Y-47295742D01*
X166369001Y-47315203D01*
X166301041Y-47294661D01*
X166255805Y-47242457D01*
X166239849Y-47208238D01*
X166239846Y-47208233D01*
X166237523Y-47203251D01*
X166141743Y-47066463D01*
X166109357Y-47020211D01*
X166109355Y-47020208D01*
X166106198Y-47015700D01*
X165944300Y-46853802D01*
X165939792Y-46850645D01*
X165939789Y-46850643D01*
X165861611Y-46795902D01*
X165756749Y-46722477D01*
X165751767Y-46720154D01*
X165751762Y-46720151D01*
X165554225Y-46628039D01*
X165554224Y-46628039D01*
X165549243Y-46625716D01*
X165543935Y-46624294D01*
X165543933Y-46624293D01*
X165333402Y-46567881D01*
X165333400Y-46567881D01*
X165328087Y-46566457D01*
X165100000Y-46546502D01*
X164871913Y-46566457D01*
X164866600Y-46567881D01*
X164866598Y-46567881D01*
X164656067Y-46624293D01*
X164656065Y-46624294D01*
X164650757Y-46625716D01*
X164645776Y-46628039D01*
X164645775Y-46628039D01*
X164448238Y-46720151D01*
X164448233Y-46720154D01*
X164443251Y-46722477D01*
X164338389Y-46795902D01*
X164260211Y-46850643D01*
X164260208Y-46850645D01*
X164255700Y-46853802D01*
X164093802Y-47015700D01*
X164090645Y-47020208D01*
X164090643Y-47020211D01*
X164058257Y-47066463D01*
X163962477Y-47203251D01*
X163960154Y-47208233D01*
X163960151Y-47208238D01*
X163919852Y-47294661D01*
X163865716Y-47410757D01*
X163806457Y-47631913D01*
X163791500Y-47802873D01*
X163791500Y-48266852D01*
X163771498Y-48334973D01*
X163754595Y-48355948D01*
X163156930Y-48953612D01*
X163141896Y-48966452D01*
X163136390Y-48970452D01*
X163136388Y-48970454D01*
X163131046Y-48974335D01*
X163126625Y-48979245D01*
X163126624Y-48979246D01*
X163086594Y-49023704D01*
X163082053Y-49028489D01*
X163068008Y-49042534D01*
X163065924Y-49045108D01*
X163065921Y-49045111D01*
X163055511Y-49057966D01*
X163051227Y-49062982D01*
X163011197Y-49107440D01*
X163011193Y-49107445D01*
X163006776Y-49112351D01*
X163000271Y-49123617D01*
X163000069Y-49123968D01*
X162988871Y-49140261D01*
X162980433Y-49150681D01*
X162950267Y-49209883D01*
X162947134Y-49215653D01*
X162917220Y-49267465D01*
X162917218Y-49267470D01*
X162913916Y-49273189D01*
X162911875Y-49279469D01*
X162911872Y-49279477D01*
X162909772Y-49285941D01*
X162902208Y-49304203D01*
X162899117Y-49310269D01*
X162899114Y-49310278D01*
X162896118Y-49316157D01*
X162894409Y-49322535D01*
X162878924Y-49380324D01*
X162877058Y-49386626D01*
X162856526Y-49449818D01*
X162855836Y-49456386D01*
X162855125Y-49463148D01*
X162851522Y-49482591D01*
X162848050Y-49495549D01*
X162847705Y-49502139D01*
X162847704Y-49502143D01*
X162844573Y-49561887D01*
X162844057Y-49568451D01*
X162841980Y-49588214D01*
X162841980Y-49608075D01*
X162841807Y-49614670D01*
X162838330Y-49681013D01*
X162839362Y-49687527D01*
X162840429Y-49694264D01*
X162841980Y-49713976D01*
X162841980Y-72206023D01*
X162840429Y-72225735D01*
X162838330Y-72238987D01*
X153038500Y-72238987D01*
X153038500Y-70199394D01*
X153058502Y-70131273D01*
X153092229Y-70096181D01*
X153244789Y-69989357D01*
X153244792Y-69989355D01*
X153249300Y-69986198D01*
X153411198Y-69824300D01*
X153542523Y-69636749D01*
X153544846Y-69631767D01*
X153544849Y-69631762D01*
X153636961Y-69434225D01*
X153636961Y-69434224D01*
X153639284Y-69429243D01*
X153648217Y-69395907D01*
X153697119Y-69213402D01*
X153697119Y-69213400D01*
X153698543Y-69208087D01*
X153713500Y-69037127D01*
X153713500Y-68122873D01*
X153698543Y-67951913D01*
X153639284Y-67730757D01*
X153560805Y-67562457D01*
X153544849Y-67528238D01*
X153544846Y-67528233D01*
X153542523Y-67523251D01*
X153411198Y-67335700D01*
X153249300Y-67173802D01*
X153244792Y-67170645D01*
X153244789Y-67170643D01*
X153092228Y-67063819D01*
X153061749Y-67042477D01*
X153056767Y-67040154D01*
X153056762Y-67040151D01*
X152859225Y-66948039D01*
X152859224Y-66948039D01*
X152854243Y-66945716D01*
X152848935Y-66944294D01*
X152848933Y-66944293D01*
X152638402Y-66887881D01*
X152638400Y-66887881D01*
X152633087Y-66886457D01*
X152405000Y-66866502D01*
X152176913Y-66886457D01*
X152171600Y-66887881D01*
X152171598Y-66887881D01*
X151961067Y-66944293D01*
X151961065Y-66944294D01*
X151955757Y-66945716D01*
X151950776Y-66948039D01*
X151950775Y-66948039D01*
X151753238Y-67040151D01*
X151753233Y-67040154D01*
X151748251Y-67042477D01*
X151717772Y-67063819D01*
X151565211Y-67170643D01*
X151565208Y-67170645D01*
X151560700Y-67173802D01*
X151398802Y-67335700D01*
X151267477Y-67523251D01*
X151265154Y-67528233D01*
X151265151Y-67528238D01*
X151249195Y-67562457D01*
X151202278Y-67615742D01*
X151134001Y-67635203D01*
X151066041Y-67614661D01*
X151020805Y-67562457D01*
X151004849Y-67528238D01*
X151004846Y-67528233D01*
X151002523Y-67523251D01*
X150871198Y-67335700D01*
X150709300Y-67173802D01*
X150704792Y-67170645D01*
X150704789Y-67170643D01*
X150552228Y-67063819D01*
X150521749Y-67042477D01*
X150516767Y-67040154D01*
X150516762Y-67040151D01*
X150319225Y-66948039D01*
X150319224Y-66948039D01*
X150314243Y-66945716D01*
X150308935Y-66944294D01*
X150308933Y-66944293D01*
X150098402Y-66887881D01*
X150098400Y-66887881D01*
X150093087Y-66886457D01*
X149865000Y-66866502D01*
X149636913Y-66886457D01*
X149631600Y-66887881D01*
X149631598Y-66887881D01*
X149421067Y-66944293D01*
X149421065Y-66944294D01*
X149415757Y-66945716D01*
X149410776Y-66948039D01*
X149410775Y-66948039D01*
X149213238Y-67040151D01*
X149213233Y-67040154D01*
X149208251Y-67042477D01*
X149177772Y-67063819D01*
X149025211Y-67170643D01*
X149025208Y-67170645D01*
X149020700Y-67173802D01*
X148858802Y-67335700D01*
X148727477Y-67523251D01*
X148725154Y-67528233D01*
X148725151Y-67528238D01*
X148709195Y-67562457D01*
X148662278Y-67615742D01*
X148594001Y-67635203D01*
X148526041Y-67614661D01*
X148480805Y-67562457D01*
X148464849Y-67528238D01*
X148464846Y-67528233D01*
X148462523Y-67523251D01*
X148331198Y-67335700D01*
X148169300Y-67173802D01*
X148164792Y-67170645D01*
X148164789Y-67170643D01*
X148012229Y-67063819D01*
X147967901Y-67008362D01*
X147958500Y-66960606D01*
X147958500Y-62579394D01*
X147978502Y-62511273D01*
X148012229Y-62476181D01*
X148164789Y-62369357D01*
X148164792Y-62369355D01*
X148169300Y-62366198D01*
X148331198Y-62204300D01*
X148462523Y-62016749D01*
X148464846Y-62011767D01*
X148464849Y-62011762D01*
X148480805Y-61977543D01*
X148527722Y-61924258D01*
X148595999Y-61904797D01*
X148663959Y-61925339D01*
X148709195Y-61977543D01*
X148725151Y-62011762D01*
X148725154Y-62011767D01*
X148727477Y-62016749D01*
X148858802Y-62204300D01*
X149020700Y-62366198D01*
X149025208Y-62369355D01*
X149025211Y-62369357D01*
X149066542Y-62398297D01*
X149208251Y-62497523D01*
X149213233Y-62499846D01*
X149213238Y-62499849D01*
X149383825Y-62579394D01*
X149415757Y-62594284D01*
X149421065Y-62595706D01*
X149421067Y-62595707D01*
X149631598Y-62652119D01*
X149631600Y-62652119D01*
X149636913Y-62653543D01*
X149865000Y-62673498D01*
X150093087Y-62653543D01*
X150098400Y-62652119D01*
X150098402Y-62652119D01*
X150308933Y-62595707D01*
X150308935Y-62595706D01*
X150314243Y-62594284D01*
X150346175Y-62579394D01*
X150516762Y-62499849D01*
X150516767Y-62499846D01*
X150521749Y-62497523D01*
X150663458Y-62398297D01*
X150704789Y-62369357D01*
X150704792Y-62369355D01*
X150709300Y-62366198D01*
X150871198Y-62204300D01*
X150874357Y-62199789D01*
X150877892Y-62195576D01*
X150879026Y-62196527D01*
X150929071Y-62156529D01*
X150999690Y-62149224D01*
X151063049Y-62181258D01*
X151099030Y-62242462D01*
X151102082Y-62259517D01*
X151103255Y-62270316D01*
X151154385Y-62406705D01*
X151241739Y-62523261D01*
X151358295Y-62610615D01*
X151494684Y-62661745D01*
X151556866Y-62668500D01*
X153253134Y-62668500D01*
X153315316Y-62661745D01*
X153451705Y-62610615D01*
X153568261Y-62523261D01*
X153655615Y-62406705D01*
X153706745Y-62270316D01*
X153713500Y-62208134D01*
X153713500Y-59711866D01*
X153706745Y-59649684D01*
X153655615Y-59513295D01*
X153568261Y-59396739D01*
X153451705Y-59309385D01*
X153315316Y-59258255D01*
X153253134Y-59251500D01*
X153164500Y-59251500D01*
X153096379Y-59231498D01*
X153049886Y-59177842D01*
X153038500Y-59125500D01*
X153038500Y-57095893D01*
X153058502Y-57027772D01*
X153092229Y-56992680D01*
X153239789Y-56889357D01*
X153239792Y-56889355D01*
X153244300Y-56886198D01*
X153406198Y-56724300D01*
X153537523Y-56536749D01*
X153539846Y-56531767D01*
X153539849Y-56531762D01*
X153631961Y-56334225D01*
X153631961Y-56334224D01*
X153634284Y-56329243D01*
X153660626Y-56230936D01*
X153692119Y-56113402D01*
X153692120Y-56113398D01*
X153693543Y-56108087D01*
X153713498Y-55880000D01*
X156166502Y-55880000D01*
X156186457Y-56108087D01*
X156187880Y-56113398D01*
X156187881Y-56113402D01*
X156219375Y-56230936D01*
X156245716Y-56329243D01*
X156248039Y-56334224D01*
X156248039Y-56334225D01*
X156340151Y-56531762D01*
X156340154Y-56531767D01*
X156342477Y-56536749D01*
X156473802Y-56724300D01*
X156635700Y-56886198D01*
X156640208Y-56889355D01*
X156640211Y-56889357D01*
X156651902Y-56897543D01*
X156823251Y-57017523D01*
X156828233Y-57019846D01*
X156828238Y-57019849D01*
X156991317Y-57095893D01*
X157030757Y-57114284D01*
X157036065Y-57115706D01*
X157036067Y-57115707D01*
X157246598Y-57172119D01*
X157246600Y-57172119D01*
X157251913Y-57173543D01*
X157480000Y-57193498D01*
X157708087Y-57173543D01*
X157713400Y-57172119D01*
X157713402Y-57172119D01*
X157923933Y-57115707D01*
X157923935Y-57115706D01*
X157929243Y-57114284D01*
X157968683Y-57095893D01*
X158131762Y-57019849D01*
X158131767Y-57019846D01*
X158136749Y-57017523D01*
X158308098Y-56897543D01*
X158319789Y-56889357D01*
X158319792Y-56889355D01*
X158324300Y-56886198D01*
X158486198Y-56724300D01*
X158617523Y-56536749D01*
X158619846Y-56531767D01*
X158619849Y-56531762D01*
X158711961Y-56334225D01*
X158711961Y-56334224D01*
X158714284Y-56329243D01*
X158740626Y-56230936D01*
X158772119Y-56113402D01*
X158772120Y-56113398D01*
X158773543Y-56108087D01*
X158793498Y-55880000D01*
X158773543Y-55651913D01*
X158772117Y-55646591D01*
X158715707Y-55436067D01*
X158715706Y-55436065D01*
X158714284Y-55430757D01*
X158710608Y-55422873D01*
X158619849Y-55228238D01*
X158619846Y-55228233D01*
X158617523Y-55223251D01*
X158486198Y-55035700D01*
X158324300Y-54873802D01*
X158319792Y-54870645D01*
X158319789Y-54870643D01*
X158241611Y-54815902D01*
X158136749Y-54742477D01*
X158131767Y-54740154D01*
X158131762Y-54740151D01*
X157934225Y-54648039D01*
X157934224Y-54648039D01*
X157929243Y-54645716D01*
X157923935Y-54644294D01*
X157923933Y-54644293D01*
X157713402Y-54587881D01*
X157713400Y-54587881D01*
X157708087Y-54586457D01*
X157480000Y-54566502D01*
X157251913Y-54586457D01*
X157246600Y-54587881D01*
X157246598Y-54587881D01*
X157036067Y-54644293D01*
X157036065Y-54644294D01*
X157030757Y-54645716D01*
X157025776Y-54648039D01*
X157025775Y-54648039D01*
X156828238Y-54740151D01*
X156828233Y-54740154D01*
X156823251Y-54742477D01*
X156718389Y-54815902D01*
X156640211Y-54870643D01*
X156640208Y-54870645D01*
X156635700Y-54873802D01*
X156473802Y-55035700D01*
X156342477Y-55223251D01*
X156340154Y-55228233D01*
X156340151Y-55228238D01*
X156249392Y-55422873D01*
X156245716Y-55430757D01*
X156244294Y-55436065D01*
X156244293Y-55436067D01*
X156187883Y-55646591D01*
X156186457Y-55651913D01*
X156166502Y-55880000D01*
X153713498Y-55880000D01*
X153693543Y-55651913D01*
X153692117Y-55646591D01*
X153635707Y-55436067D01*
X153635706Y-55436065D01*
X153634284Y-55430757D01*
X153630608Y-55422873D01*
X153539849Y-55228238D01*
X153539846Y-55228233D01*
X153537523Y-55223251D01*
X153406198Y-55035700D01*
X153244300Y-54873802D01*
X153239792Y-54870645D01*
X153239789Y-54870643D01*
X153161611Y-54815902D01*
X153056749Y-54742477D01*
X153051767Y-54740154D01*
X153051762Y-54740151D01*
X152854225Y-54648039D01*
X152854224Y-54648039D01*
X152849243Y-54645716D01*
X152843935Y-54644294D01*
X152843933Y-54644293D01*
X152633402Y-54587881D01*
X152633400Y-54587881D01*
X152628087Y-54586457D01*
X152400000Y-54566502D01*
X152171913Y-54586457D01*
X152166600Y-54587881D01*
X152166598Y-54587881D01*
X151956067Y-54644293D01*
X151956065Y-54644294D01*
X151950757Y-54645716D01*
X151945776Y-54648039D01*
X151945775Y-54648039D01*
X151748238Y-54740151D01*
X151748233Y-54740154D01*
X151743251Y-54742477D01*
X151638389Y-54815902D01*
X151560211Y-54870643D01*
X151560208Y-54870645D01*
X151555700Y-54873802D01*
X151393802Y-55035700D01*
X151262477Y-55223251D01*
X151260154Y-55228233D01*
X151260151Y-55228238D01*
X151169392Y-55422873D01*
X151165716Y-55430757D01*
X151164294Y-55436065D01*
X151164293Y-55436067D01*
X151107883Y-55646591D01*
X151106457Y-55651913D01*
X151086502Y-55880000D01*
X151106457Y-56108087D01*
X151107880Y-56113398D01*
X151107881Y-56113402D01*
X151139375Y-56230936D01*
X151165716Y-56329243D01*
X151168039Y-56334224D01*
X151168039Y-56334225D01*
X151260151Y-56531762D01*
X151260154Y-56531767D01*
X151262477Y-56536749D01*
X151393802Y-56724300D01*
X151555700Y-56886198D01*
X151560208Y-56889355D01*
X151560211Y-56889357D01*
X151717771Y-56999682D01*
X151762099Y-57055139D01*
X151771500Y-57102895D01*
X151771500Y-59125500D01*
X151751498Y-59193621D01*
X151697842Y-59240114D01*
X151645500Y-59251500D01*
X151556866Y-59251500D01*
X151494684Y-59258255D01*
X151358295Y-59309385D01*
X151241739Y-59396739D01*
X151154385Y-59513295D01*
X151103255Y-59649684D01*
X151102083Y-59660474D01*
X151101197Y-59662606D01*
X151100575Y-59665222D01*
X151100152Y-59665121D01*
X151074845Y-59726035D01*
X151016483Y-59766463D01*
X150945529Y-59768922D01*
X150884510Y-59732629D01*
X150877511Y-59723969D01*
X150874354Y-59720207D01*
X150871198Y-59715700D01*
X150709300Y-59553802D01*
X150704792Y-59550645D01*
X150704789Y-59550643D01*
X150552229Y-59443819D01*
X150507901Y-59388362D01*
X150498500Y-59340606D01*
X150498500Y-58503768D01*
X150499027Y-58492585D01*
X150500702Y-58485092D01*
X150498562Y-58417001D01*
X150498500Y-58413044D01*
X150498500Y-58385144D01*
X150497996Y-58381153D01*
X150497063Y-58369311D01*
X150496621Y-58355224D01*
X150495674Y-58325111D01*
X150490021Y-58305652D01*
X150486012Y-58286293D01*
X150485283Y-58280524D01*
X150483474Y-58266203D01*
X150480558Y-58258837D01*
X150480556Y-58258831D01*
X150467200Y-58225098D01*
X150463355Y-58213868D01*
X150453230Y-58179017D01*
X150453230Y-58179016D01*
X150451019Y-58171407D01*
X150440705Y-58153966D01*
X150432008Y-58136213D01*
X150427472Y-58124758D01*
X150424552Y-58117383D01*
X150398563Y-58081612D01*
X150392047Y-58071692D01*
X150373578Y-58040463D01*
X150369542Y-58033638D01*
X150355221Y-58019317D01*
X150342380Y-58004283D01*
X150341535Y-58003120D01*
X150330472Y-57987893D01*
X150296395Y-57959702D01*
X150287616Y-57951712D01*
X148629152Y-56293248D01*
X148595126Y-56230936D01*
X148596541Y-56171541D01*
X148612118Y-56113409D01*
X148612120Y-56113398D01*
X148613543Y-56108087D01*
X148633498Y-55880000D01*
X148613543Y-55651913D01*
X148612119Y-55646598D01*
X148612118Y-55646591D01*
X148596541Y-55588459D01*
X148598230Y-55517483D01*
X148629152Y-55466752D01*
X157066752Y-47029152D01*
X157129064Y-46995126D01*
X157188459Y-46996541D01*
X157246591Y-47012118D01*
X157246602Y-47012120D01*
X157251913Y-47013543D01*
X157480000Y-47033498D01*
X157708087Y-47013543D01*
X157713400Y-47012119D01*
X157713402Y-47012119D01*
X157923933Y-46955707D01*
X157923935Y-46955706D01*
X157929243Y-46954284D01*
X157939108Y-46949684D01*
X158131762Y-46859849D01*
X158131767Y-46859846D01*
X158136749Y-46857523D01*
X158299135Y-46743819D01*
X158319789Y-46729357D01*
X158319792Y-46729355D01*
X158324300Y-46726198D01*
X158486198Y-46564300D01*
X158494903Y-46551869D01*
X158564486Y-46452493D01*
X158617523Y-46376749D01*
X158619846Y-46371767D01*
X158619849Y-46371762D01*
X158711961Y-46174225D01*
X158711961Y-46174224D01*
X158714284Y-46169243D01*
X158718284Y-46154317D01*
X158772119Y-45953402D01*
X158772119Y-45953400D01*
X158773543Y-45948087D01*
X158793498Y-45720000D01*
X158773543Y-45491913D01*
X158763244Y-45453478D01*
X158715707Y-45276067D01*
X158715706Y-45276065D01*
X158714284Y-45270757D01*
X158711961Y-45265775D01*
X158619849Y-45068238D01*
X158619846Y-45068233D01*
X158617523Y-45063251D01*
X158486198Y-44875700D01*
X158324300Y-44713802D01*
X158319792Y-44710645D01*
X158319789Y-44710643D01*
X158161774Y-44600000D01*
X158136749Y-44582477D01*
X158131767Y-44580154D01*
X158131762Y-44580151D01*
X157934225Y-44488039D01*
X157934224Y-44488039D01*
X157929243Y-44485716D01*
X157923935Y-44484294D01*
X157923933Y-44484293D01*
X157713402Y-44427881D01*
X157713400Y-44427881D01*
X157708087Y-44426457D01*
X157480000Y-44406502D01*
X157251913Y-44426457D01*
X157246600Y-44427881D01*
X157246598Y-44427881D01*
X157036067Y-44484293D01*
X157036065Y-44484294D01*
X157030757Y-44485716D01*
X157025776Y-44488039D01*
X157025775Y-44488039D01*
X156828238Y-44580151D01*
X156828233Y-44580154D01*
X156823251Y-44582477D01*
X156798226Y-44600000D01*
X156640211Y-44710643D01*
X156640208Y-44710645D01*
X156635700Y-44713802D01*
X156473802Y-44875700D01*
X156342477Y-45063251D01*
X156340154Y-45068233D01*
X156340151Y-45068238D01*
X156248039Y-45265775D01*
X156245716Y-45270757D01*
X156244294Y-45276065D01*
X156244293Y-45276067D01*
X156196756Y-45453478D01*
X156186457Y-45491913D01*
X156166502Y-45720000D01*
X156186457Y-45948087D01*
X156187880Y-45953398D01*
X156187882Y-45953409D01*
X156203459Y-46011541D01*
X156201770Y-46082517D01*
X156170848Y-46133248D01*
X147733248Y-54570848D01*
X147670936Y-54604874D01*
X147611541Y-54603459D01*
X147553409Y-54587882D01*
X147553398Y-54587880D01*
X147548087Y-54586457D01*
X147320000Y-54566502D01*
X147091913Y-54586457D01*
X147086600Y-54587881D01*
X147086598Y-54587881D01*
X146876067Y-54644293D01*
X146876065Y-54644294D01*
X146870757Y-54645716D01*
X146865776Y-54648039D01*
X146865775Y-54648039D01*
X146668238Y-54740151D01*
X146668233Y-54740154D01*
X146663251Y-54742477D01*
X146558389Y-54815902D01*
X146480211Y-54870643D01*
X146480208Y-54870645D01*
X146475700Y-54873802D01*
X146313802Y-55035700D01*
X146182477Y-55223251D01*
X146180154Y-55228233D01*
X146180151Y-55228238D01*
X146089392Y-55422873D01*
X146085716Y-55430757D01*
X146084294Y-55436065D01*
X146084293Y-55436067D01*
X146027883Y-55646591D01*
X146026457Y-55651913D01*
X146006502Y-55880000D01*
X146026457Y-56108087D01*
X146027880Y-56113398D01*
X146027881Y-56113402D01*
X146059375Y-56230936D01*
X146085716Y-56329243D01*
X146088039Y-56334224D01*
X146088039Y-56334225D01*
X146180151Y-56531762D01*
X146180154Y-56531767D01*
X146182477Y-56536749D01*
X146313802Y-56724300D01*
X146475700Y-56886198D01*
X146480208Y-56889355D01*
X146480211Y-56889357D01*
X146491902Y-56897543D01*
X146663251Y-57017523D01*
X146668233Y-57019846D01*
X146668238Y-57019849D01*
X146831317Y-57095893D01*
X146870757Y-57114284D01*
X146876065Y-57115706D01*
X146876067Y-57115707D01*
X147086598Y-57172119D01*
X147086600Y-57172119D01*
X147091913Y-57173543D01*
X147320000Y-57193498D01*
X147548087Y-57173543D01*
X147553398Y-57172120D01*
X147553409Y-57172118D01*
X147611541Y-57156541D01*
X147682517Y-57158230D01*
X147733248Y-57189152D01*
X149194595Y-58650499D01*
X149228621Y-58712811D01*
X149231500Y-58739594D01*
X149231500Y-59340606D01*
X149211498Y-59408727D01*
X149177771Y-59443819D01*
X149025211Y-59550643D01*
X149025208Y-59550645D01*
X149020700Y-59553802D01*
X148858802Y-59715700D01*
X148727477Y-59903251D01*
X148725154Y-59908233D01*
X148725151Y-59908238D01*
X148709195Y-59942457D01*
X148662278Y-59995742D01*
X148594001Y-60015203D01*
X148526041Y-59994661D01*
X148480805Y-59942457D01*
X148464849Y-59908238D01*
X148464846Y-59908233D01*
X148462523Y-59903251D01*
X148331198Y-59715700D01*
X148169300Y-59553802D01*
X148164792Y-59550645D01*
X148164789Y-59550643D01*
X148012228Y-59443819D01*
X147981749Y-59422477D01*
X147976767Y-59420154D01*
X147976762Y-59420151D01*
X147779225Y-59328039D01*
X147779224Y-59328039D01*
X147774243Y-59325716D01*
X147768935Y-59324294D01*
X147768933Y-59324293D01*
X147558402Y-59267881D01*
X147558400Y-59267881D01*
X147553087Y-59266457D01*
X147325000Y-59246502D01*
X147096913Y-59266457D01*
X147091600Y-59267881D01*
X147091598Y-59267881D01*
X146881067Y-59324293D01*
X146881065Y-59324294D01*
X146875757Y-59325716D01*
X146870776Y-59328039D01*
X146870775Y-59328039D01*
X146673238Y-59420151D01*
X146673233Y-59420154D01*
X146668251Y-59422477D01*
X146637772Y-59443819D01*
X146485211Y-59550643D01*
X146485208Y-59550645D01*
X146480700Y-59553802D01*
X146318802Y-59715700D01*
X146187477Y-59903251D01*
X146185154Y-59908233D01*
X146185151Y-59908238D01*
X146169195Y-59942457D01*
X146122278Y-59995742D01*
X146054001Y-60015203D01*
X145986041Y-59994661D01*
X145940805Y-59942457D01*
X145924849Y-59908238D01*
X145924846Y-59908233D01*
X145922523Y-59903251D01*
X145791198Y-59715700D01*
X145629300Y-59553802D01*
X145624792Y-59550645D01*
X145624789Y-59550643D01*
X145472228Y-59443819D01*
X145441749Y-59422477D01*
X145436767Y-59420154D01*
X145436762Y-59420151D01*
X145239225Y-59328039D01*
X145239224Y-59328039D01*
X145234243Y-59325716D01*
X145228935Y-59324294D01*
X145228933Y-59324293D01*
X145018402Y-59267881D01*
X145018400Y-59267881D01*
X145013087Y-59266457D01*
X144785000Y-59246502D01*
X144556913Y-59266457D01*
X144551600Y-59267881D01*
X144551598Y-59267881D01*
X144341067Y-59324293D01*
X144341065Y-59324294D01*
X144335757Y-59325716D01*
X144330776Y-59328039D01*
X144330775Y-59328039D01*
X144133238Y-59420151D01*
X144133233Y-59420154D01*
X144128251Y-59422477D01*
X144097772Y-59443819D01*
X143945211Y-59550643D01*
X143945208Y-59550645D01*
X143940700Y-59553802D01*
X143778802Y-59715700D01*
X143647477Y-59903251D01*
X143645154Y-59908233D01*
X143645151Y-59908238D01*
X143629195Y-59942457D01*
X143582278Y-59995742D01*
X143514001Y-60015203D01*
X143446041Y-59994661D01*
X143400805Y-59942457D01*
X143384849Y-59908238D01*
X143384846Y-59908233D01*
X143382523Y-59903251D01*
X143251198Y-59715700D01*
X143089300Y-59553802D01*
X143084792Y-59550645D01*
X143084789Y-59550643D01*
X142932228Y-59443819D01*
X142901749Y-59422477D01*
X142896767Y-59420154D01*
X142896762Y-59420151D01*
X142699225Y-59328039D01*
X142699224Y-59328039D01*
X142694243Y-59325716D01*
X142688935Y-59324294D01*
X142688933Y-59324293D01*
X142478402Y-59267881D01*
X142478400Y-59267881D01*
X142473087Y-59266457D01*
X142245000Y-59246502D01*
X142016913Y-59266457D01*
X142011600Y-59267881D01*
X142011598Y-59267881D01*
X141801067Y-59324293D01*
X141801065Y-59324294D01*
X141795757Y-59325716D01*
X141790776Y-59328039D01*
X141790775Y-59328039D01*
X141593238Y-59420151D01*
X141593233Y-59420154D01*
X141588251Y-59422477D01*
X141557772Y-59443819D01*
X141405211Y-59550643D01*
X141405208Y-59550645D01*
X141400700Y-59553802D01*
X141238802Y-59715700D01*
X141107477Y-59903251D01*
X141105154Y-59908233D01*
X141105151Y-59908238D01*
X141089195Y-59942457D01*
X141042278Y-59995742D01*
X140974001Y-60015203D01*
X140906041Y-59994661D01*
X140860805Y-59942457D01*
X140844849Y-59908238D01*
X140844846Y-59908233D01*
X140842523Y-59903251D01*
X140711198Y-59715700D01*
X140549300Y-59553802D01*
X140544792Y-59550645D01*
X140544789Y-59550643D01*
X140392229Y-59443819D01*
X140347901Y-59388362D01*
X140338500Y-59340606D01*
X140338500Y-58729594D01*
X140358502Y-58661473D01*
X140375405Y-58640499D01*
X141826752Y-57189152D01*
X141889064Y-57155126D01*
X141948459Y-57156541D01*
X142006591Y-57172118D01*
X142006602Y-57172120D01*
X142011913Y-57173543D01*
X142240000Y-57193498D01*
X142468087Y-57173543D01*
X142473400Y-57172119D01*
X142473402Y-57172119D01*
X142683933Y-57115707D01*
X142683935Y-57115706D01*
X142689243Y-57114284D01*
X142728683Y-57095893D01*
X142891762Y-57019849D01*
X142891767Y-57019846D01*
X142896749Y-57017523D01*
X143068098Y-56897543D01*
X143079789Y-56889357D01*
X143079792Y-56889355D01*
X143084300Y-56886198D01*
X143246198Y-56724300D01*
X143377523Y-56536749D01*
X143379846Y-56531767D01*
X143379849Y-56531762D01*
X143471961Y-56334225D01*
X143471961Y-56334224D01*
X143474284Y-56329243D01*
X143500626Y-56230936D01*
X143532119Y-56113402D01*
X143532120Y-56113398D01*
X143533543Y-56108087D01*
X143553498Y-55880000D01*
X143533543Y-55651913D01*
X143532117Y-55646591D01*
X143475707Y-55436067D01*
X143475706Y-55436065D01*
X143474284Y-55430757D01*
X143470608Y-55422873D01*
X143379849Y-55228238D01*
X143379846Y-55228233D01*
X143377523Y-55223251D01*
X143246198Y-55035700D01*
X143084300Y-54873802D01*
X143079792Y-54870645D01*
X143079789Y-54870643D01*
X143001611Y-54815902D01*
X142896749Y-54742477D01*
X142891767Y-54740154D01*
X142891762Y-54740151D01*
X142694225Y-54648039D01*
X142694224Y-54648039D01*
X142689243Y-54645716D01*
X142683935Y-54644294D01*
X142683933Y-54644293D01*
X142473402Y-54587881D01*
X142473400Y-54587881D01*
X142468087Y-54586457D01*
X142240000Y-54566502D01*
X142011913Y-54586457D01*
X142006602Y-54587880D01*
X142006591Y-54587882D01*
X141948459Y-54603459D01*
X141877483Y-54601770D01*
X141826752Y-54570848D01*
X133389152Y-46133248D01*
X133355126Y-46070936D01*
X133356541Y-46011541D01*
X133372118Y-45953409D01*
X133372120Y-45953398D01*
X133373543Y-45948087D01*
X133393498Y-45720000D01*
X133373543Y-45491913D01*
X133363244Y-45453478D01*
X133315707Y-45276067D01*
X133315706Y-45276065D01*
X133314284Y-45270757D01*
X133311961Y-45265775D01*
X133219849Y-45068238D01*
X133219846Y-45068233D01*
X133217523Y-45063251D01*
X133086198Y-44875700D01*
X132924300Y-44713802D01*
X132919792Y-44710645D01*
X132919789Y-44710643D01*
X132761774Y-44600000D01*
X132736749Y-44582477D01*
X132731767Y-44580154D01*
X132731762Y-44580151D01*
X132534225Y-44488039D01*
X132534224Y-44488039D01*
X132529243Y-44485716D01*
X132523935Y-44484294D01*
X132523933Y-44484293D01*
X132313402Y-44427881D01*
X132313400Y-44427881D01*
X132308087Y-44426457D01*
X132080000Y-44406502D01*
X131851913Y-44426457D01*
X131846600Y-44427881D01*
X131846598Y-44427881D01*
X131636067Y-44484293D01*
X131636065Y-44484294D01*
X131630757Y-44485716D01*
X131625776Y-44488039D01*
X131625775Y-44488039D01*
X131428238Y-44580151D01*
X131428233Y-44580154D01*
X131423251Y-44582477D01*
X131398226Y-44600000D01*
X131240211Y-44710643D01*
X131240208Y-44710645D01*
X131235700Y-44713802D01*
X131073802Y-44875700D01*
X130942477Y-45063251D01*
X130940154Y-45068233D01*
X130940151Y-45068238D01*
X130848039Y-45265775D01*
X130845716Y-45270757D01*
X130844294Y-45276065D01*
X130844293Y-45276067D01*
X130796756Y-45453478D01*
X130786457Y-45491913D01*
X130766502Y-45720000D01*
X130786457Y-45948087D01*
X130787881Y-45953400D01*
X130787881Y-45953402D01*
X130841717Y-46154317D01*
X130845716Y-46169243D01*
X130848039Y-46174224D01*
X130848039Y-46174225D01*
X130940151Y-46371762D01*
X130940154Y-46371767D01*
X130942477Y-46376749D01*
X130995514Y-46452493D01*
X131065098Y-46551869D01*
X131073802Y-46564300D01*
X131235700Y-46726198D01*
X131240208Y-46729355D01*
X131240211Y-46729357D01*
X131260865Y-46743819D01*
X131423251Y-46857523D01*
X131428233Y-46859846D01*
X131428238Y-46859849D01*
X131620892Y-46949684D01*
X131630757Y-46954284D01*
X131636065Y-46955706D01*
X131636067Y-46955707D01*
X131846598Y-47012119D01*
X131846600Y-47012119D01*
X131851913Y-47013543D01*
X132080000Y-47033498D01*
X132308087Y-47013543D01*
X132313398Y-47012120D01*
X132313409Y-47012118D01*
X132371541Y-46996541D01*
X132442517Y-46998230D01*
X132493248Y-47029152D01*
X140930848Y-55466752D01*
X140964874Y-55529064D01*
X140963459Y-55588459D01*
X140947882Y-55646591D01*
X140947881Y-55646598D01*
X140946457Y-55651913D01*
X140926502Y-55880000D01*
X140946457Y-56108087D01*
X140963460Y-56171541D01*
X140961770Y-56242518D01*
X140930848Y-56293247D01*
X139312747Y-57911348D01*
X139304461Y-57918888D01*
X139297982Y-57923000D01*
X139292557Y-57928777D01*
X139251357Y-57972651D01*
X139248602Y-57975493D01*
X139228865Y-57995230D01*
X139226385Y-57998427D01*
X139218682Y-58007447D01*
X139188414Y-58039679D01*
X139184595Y-58046625D01*
X139184593Y-58046628D01*
X139178652Y-58057434D01*
X139167801Y-58073953D01*
X139155386Y-58089959D01*
X139152241Y-58097228D01*
X139152238Y-58097232D01*
X139137826Y-58130537D01*
X139132609Y-58141187D01*
X139111305Y-58179940D01*
X139109334Y-58187615D01*
X139109334Y-58187616D01*
X139106267Y-58199562D01*
X139099863Y-58218266D01*
X139091819Y-58236855D01*
X139090580Y-58244678D01*
X139090577Y-58244688D01*
X139084901Y-58280524D01*
X139082495Y-58292144D01*
X139071500Y-58334970D01*
X139071500Y-58355224D01*
X139069949Y-58374934D01*
X139066780Y-58394943D01*
X139067526Y-58402835D01*
X139070941Y-58438961D01*
X139071500Y-58450819D01*
X139071500Y-59340606D01*
X139051498Y-59408727D01*
X139017771Y-59443819D01*
X138865211Y-59550643D01*
X138865208Y-59550645D01*
X138860700Y-59553802D01*
X138698802Y-59715700D01*
X138567477Y-59903251D01*
X138565154Y-59908233D01*
X138565151Y-59908238D01*
X138549195Y-59942457D01*
X138502278Y-59995742D01*
X138434001Y-60015203D01*
X138366041Y-59994661D01*
X138320805Y-59942457D01*
X138304849Y-59908238D01*
X138304846Y-59908233D01*
X138302523Y-59903251D01*
X138171198Y-59715700D01*
X138009300Y-59553802D01*
X138004792Y-59550645D01*
X138004789Y-59550643D01*
X137847229Y-59440318D01*
X137802901Y-59384861D01*
X137793500Y-59337105D01*
X137793500Y-57099394D01*
X137813502Y-57031273D01*
X137847229Y-56996181D01*
X137999789Y-56889357D01*
X137999792Y-56889355D01*
X138004300Y-56886198D01*
X138166198Y-56724300D01*
X138297523Y-56536749D01*
X138299846Y-56531767D01*
X138299849Y-56531762D01*
X138391961Y-56334225D01*
X138391961Y-56334224D01*
X138394284Y-56329243D01*
X138420626Y-56230936D01*
X138452119Y-56113402D01*
X138452120Y-56113398D01*
X138453543Y-56108087D01*
X138473498Y-55880000D01*
X138453543Y-55651913D01*
X138452117Y-55646591D01*
X138395707Y-55436067D01*
X138395706Y-55436065D01*
X138394284Y-55430757D01*
X138390608Y-55422873D01*
X138299849Y-55228238D01*
X138299846Y-55228233D01*
X138297523Y-55223251D01*
X138166198Y-55035700D01*
X138004300Y-54873802D01*
X137999792Y-54870645D01*
X137999789Y-54870643D01*
X137921611Y-54815902D01*
X137816749Y-54742477D01*
X137811767Y-54740154D01*
X137811762Y-54740151D01*
X137614225Y-54648039D01*
X137614224Y-54648039D01*
X137609243Y-54645716D01*
X137603935Y-54644294D01*
X137603933Y-54644293D01*
X137393402Y-54587881D01*
X137393400Y-54587881D01*
X137388087Y-54586457D01*
X137160000Y-54566502D01*
X136931913Y-54586457D01*
X136926600Y-54587881D01*
X136926598Y-54587881D01*
X136716067Y-54644293D01*
X136716065Y-54644294D01*
X136710757Y-54645716D01*
X136705776Y-54648039D01*
X136705775Y-54648039D01*
X136508238Y-54740151D01*
X136508233Y-54740154D01*
X136503251Y-54742477D01*
X136398389Y-54815902D01*
X136320211Y-54870643D01*
X136320208Y-54870645D01*
X136315700Y-54873802D01*
X136153802Y-55035700D01*
X136022477Y-55223251D01*
X136020154Y-55228233D01*
X136020151Y-55228238D01*
X135929392Y-55422873D01*
X135925716Y-55430757D01*
X135924294Y-55436065D01*
X135924293Y-55436067D01*
X135867883Y-55646591D01*
X135866457Y-55651913D01*
X135846502Y-55880000D01*
X135866457Y-56108087D01*
X135867880Y-56113398D01*
X135867881Y-56113402D01*
X135899375Y-56230936D01*
X135925716Y-56329243D01*
X135928039Y-56334224D01*
X135928039Y-56334225D01*
X136020151Y-56531762D01*
X136020154Y-56531767D01*
X136022477Y-56536749D01*
X136153802Y-56724300D01*
X136315700Y-56886198D01*
X136320208Y-56889355D01*
X136320211Y-56889357D01*
X136472771Y-56996181D01*
X136517099Y-57051638D01*
X136526500Y-57099394D01*
X136526500Y-59344107D01*
X136506498Y-59412228D01*
X136472771Y-59447320D01*
X136325211Y-59550643D01*
X136325208Y-59550645D01*
X136320700Y-59553802D01*
X136158802Y-59715700D01*
X136027477Y-59903251D01*
X136025154Y-59908233D01*
X136025151Y-59908238D01*
X136009195Y-59942457D01*
X135930716Y-60110757D01*
X135871457Y-60331913D01*
X135856500Y-60502873D01*
X135856500Y-61417127D01*
X135856738Y-61419844D01*
X135856738Y-61419851D01*
X135862746Y-61488520D01*
X135871457Y-61588087D01*
X135872881Y-61593400D01*
X135872881Y-61593402D01*
X135886377Y-61643767D01*
X135930716Y-61809243D01*
X135933039Y-61814224D01*
X135933039Y-61814225D01*
X136025151Y-62011762D01*
X136025154Y-62011767D01*
X136027477Y-62016749D01*
X136158802Y-62204300D01*
X136320700Y-62366198D01*
X136325208Y-62369355D01*
X136325211Y-62369357D01*
X136366542Y-62398297D01*
X136508251Y-62497523D01*
X136513233Y-62499846D01*
X136513238Y-62499849D01*
X136683825Y-62579394D01*
X136715757Y-62594284D01*
X136721065Y-62595706D01*
X136721067Y-62595707D01*
X136931598Y-62652119D01*
X136931600Y-62652119D01*
X136936913Y-62653543D01*
X137165000Y-62673498D01*
X137393087Y-62653543D01*
X137398400Y-62652119D01*
X137398402Y-62652119D01*
X137608933Y-62595707D01*
X137608935Y-62595706D01*
X137614243Y-62594284D01*
X137646175Y-62579394D01*
X137816762Y-62499849D01*
X137816767Y-62499846D01*
X137821749Y-62497523D01*
X137963458Y-62398297D01*
X138004789Y-62369357D01*
X138004792Y-62369355D01*
X138009300Y-62366198D01*
X138171198Y-62204300D01*
X138302523Y-62016749D01*
X138304846Y-62011767D01*
X138304849Y-62011762D01*
X138320805Y-61977543D01*
X138367722Y-61924258D01*
X138435999Y-61904797D01*
X138503959Y-61925339D01*
X138549195Y-61977543D01*
X138565151Y-62011762D01*
X138565154Y-62011767D01*
X138567477Y-62016749D01*
X138698802Y-62204300D01*
X138860700Y-62366198D01*
X138865208Y-62369355D01*
X138865211Y-62369357D01*
X138906542Y-62398297D01*
X139048251Y-62497523D01*
X139053233Y-62499846D01*
X139053238Y-62499849D01*
X139223825Y-62579394D01*
X139255757Y-62594284D01*
X139261065Y-62595706D01*
X139261067Y-62595707D01*
X139471598Y-62652119D01*
X139471600Y-62652119D01*
X139476913Y-62653543D01*
X139705000Y-62673498D01*
X139933087Y-62653543D01*
X139938400Y-62652119D01*
X139938402Y-62652119D01*
X140148933Y-62595707D01*
X140148935Y-62595706D01*
X140154243Y-62594284D01*
X140186175Y-62579394D01*
X140356762Y-62499849D01*
X140356767Y-62499846D01*
X140361749Y-62497523D01*
X140503458Y-62398297D01*
X140544789Y-62369357D01*
X140544792Y-62369355D01*
X140549300Y-62366198D01*
X140711198Y-62204300D01*
X140842523Y-62016749D01*
X140844846Y-62011767D01*
X140844849Y-62011762D01*
X140860805Y-61977543D01*
X140907722Y-61924258D01*
X140975999Y-61904797D01*
X141043959Y-61925339D01*
X141089195Y-61977543D01*
X141105151Y-62011762D01*
X141105154Y-62011767D01*
X141107477Y-62016749D01*
X141238802Y-62204300D01*
X141400700Y-62366198D01*
X141405208Y-62369355D01*
X141405211Y-62369357D01*
X141446542Y-62398297D01*
X141588251Y-62497523D01*
X141593233Y-62499846D01*
X141593238Y-62499849D01*
X141763825Y-62579394D01*
X141795757Y-62594284D01*
X141801065Y-62595706D01*
X141801067Y-62595707D01*
X142011598Y-62652119D01*
X142011600Y-62652119D01*
X142016913Y-62653543D01*
X142245000Y-62673498D01*
X142473087Y-62653543D01*
X142478400Y-62652119D01*
X142478402Y-62652119D01*
X142688933Y-62595707D01*
X142688935Y-62595706D01*
X142694243Y-62594284D01*
X142726175Y-62579394D01*
X142896762Y-62499849D01*
X142896767Y-62499846D01*
X142901749Y-62497523D01*
X143043458Y-62398297D01*
X143084789Y-62369357D01*
X143084792Y-62369355D01*
X143089300Y-62366198D01*
X143251198Y-62204300D01*
X143382523Y-62016749D01*
X143384846Y-62011767D01*
X143384849Y-62011762D01*
X143400805Y-61977543D01*
X143447722Y-61924258D01*
X143515999Y-61904797D01*
X143583959Y-61925339D01*
X143629195Y-61977543D01*
X143645151Y-62011762D01*
X143645154Y-62011767D01*
X143647477Y-62016749D01*
X143778802Y-62204300D01*
X143940700Y-62366198D01*
X143945208Y-62369355D01*
X143945211Y-62369357D01*
X143986542Y-62398297D01*
X144128251Y-62497523D01*
X144133233Y-62499846D01*
X144133238Y-62499849D01*
X144303825Y-62579394D01*
X144335757Y-62594284D01*
X144341065Y-62595706D01*
X144341067Y-62595707D01*
X144551598Y-62652119D01*
X144551600Y-62652119D01*
X144556913Y-62653543D01*
X144785000Y-62673498D01*
X145013087Y-62653543D01*
X145018400Y-62652119D01*
X145018402Y-62652119D01*
X145228933Y-62595707D01*
X145228935Y-62595706D01*
X145234243Y-62594284D01*
X145266175Y-62579394D01*
X145436762Y-62499849D01*
X145436767Y-62499846D01*
X145441749Y-62497523D01*
X145583458Y-62398297D01*
X145624789Y-62369357D01*
X145624792Y-62369355D01*
X145629300Y-62366198D01*
X145791198Y-62204300D01*
X145922523Y-62016749D01*
X145924846Y-62011767D01*
X145924849Y-62011762D01*
X145940805Y-61977543D01*
X145987722Y-61924258D01*
X146055999Y-61904797D01*
X146123959Y-61925339D01*
X146169195Y-61977543D01*
X146185151Y-62011762D01*
X146185154Y-62011767D01*
X146187477Y-62016749D01*
X146318802Y-62204300D01*
X146480700Y-62366198D01*
X146485208Y-62369355D01*
X146485211Y-62369357D01*
X146637771Y-62476181D01*
X146682099Y-62531638D01*
X146691500Y-62579394D01*
X146691500Y-66960606D01*
X146671498Y-67028727D01*
X146637771Y-67063819D01*
X146485211Y-67170643D01*
X146485208Y-67170645D01*
X146480700Y-67173802D01*
X146318802Y-67335700D01*
X146187477Y-67523251D01*
X146185154Y-67528233D01*
X146185151Y-67528238D01*
X146169195Y-67562457D01*
X146122278Y-67615742D01*
X146054001Y-67635203D01*
X145986041Y-67614661D01*
X145940805Y-67562457D01*
X145924849Y-67528238D01*
X145924846Y-67528233D01*
X145922523Y-67523251D01*
X145791198Y-67335700D01*
X145629300Y-67173802D01*
X145624792Y-67170645D01*
X145624789Y-67170643D01*
X145472228Y-67063819D01*
X145441749Y-67042477D01*
X145436767Y-67040154D01*
X145436762Y-67040151D01*
X145239225Y-66948039D01*
X145239224Y-66948039D01*
X145234243Y-66945716D01*
X145228935Y-66944294D01*
X145228933Y-66944293D01*
X145018402Y-66887881D01*
X145018400Y-66887881D01*
X145013087Y-66886457D01*
X144785000Y-66866502D01*
X144556913Y-66886457D01*
X144551600Y-66887881D01*
X144551598Y-66887881D01*
X144341067Y-66944293D01*
X144341065Y-66944294D01*
X144335757Y-66945716D01*
X144330776Y-66948039D01*
X144330775Y-66948039D01*
X144133238Y-67040151D01*
X144133233Y-67040154D01*
X144128251Y-67042477D01*
X144097772Y-67063819D01*
X143945211Y-67170643D01*
X143945208Y-67170645D01*
X143940700Y-67173802D01*
X143778802Y-67335700D01*
X143647477Y-67523251D01*
X143645154Y-67528233D01*
X143645151Y-67528238D01*
X143629195Y-67562457D01*
X143582278Y-67615742D01*
X143514001Y-67635203D01*
X143446041Y-67614661D01*
X143400805Y-67562457D01*
X143384849Y-67528238D01*
X143384846Y-67528233D01*
X143382523Y-67523251D01*
X143251198Y-67335700D01*
X143089300Y-67173802D01*
X143084792Y-67170645D01*
X143084789Y-67170643D01*
X142932228Y-67063819D01*
X142901749Y-67042477D01*
X142896767Y-67040154D01*
X142896762Y-67040151D01*
X142699225Y-66948039D01*
X142699224Y-66948039D01*
X142694243Y-66945716D01*
X142688935Y-66944294D01*
X142688933Y-66944293D01*
X142478402Y-66887881D01*
X142478400Y-66887881D01*
X142473087Y-66886457D01*
X142245000Y-66866502D01*
X142016913Y-66886457D01*
X142011600Y-66887881D01*
X142011598Y-66887881D01*
X141801067Y-66944293D01*
X141801065Y-66944294D01*
X141795757Y-66945716D01*
X141790776Y-66948039D01*
X141790775Y-66948039D01*
X141593238Y-67040151D01*
X141593233Y-67040154D01*
X141588251Y-67042477D01*
X141557772Y-67063819D01*
X141405211Y-67170643D01*
X141405208Y-67170645D01*
X141400700Y-67173802D01*
X141238802Y-67335700D01*
X141107477Y-67523251D01*
X141105154Y-67528233D01*
X141105151Y-67528238D01*
X141089195Y-67562457D01*
X141042278Y-67615742D01*
X140974001Y-67635203D01*
X140906041Y-67614661D01*
X140860805Y-67562457D01*
X140844849Y-67528238D01*
X140844846Y-67528233D01*
X140842523Y-67523251D01*
X140711198Y-67335700D01*
X140549300Y-67173802D01*
X140544792Y-67170645D01*
X140544789Y-67170643D01*
X140392228Y-67063819D01*
X140361749Y-67042477D01*
X140356767Y-67040154D01*
X140356762Y-67040151D01*
X140159225Y-66948039D01*
X140159224Y-66948039D01*
X140154243Y-66945716D01*
X140148935Y-66944294D01*
X140148933Y-66944293D01*
X139938402Y-66887881D01*
X139938400Y-66887881D01*
X139933087Y-66886457D01*
X139705000Y-66866502D01*
X139476913Y-66886457D01*
X139471600Y-66887881D01*
X139471598Y-66887881D01*
X139261067Y-66944293D01*
X139261065Y-66944294D01*
X139255757Y-66945716D01*
X139250776Y-66948039D01*
X139250775Y-66948039D01*
X139053238Y-67040151D01*
X139053233Y-67040154D01*
X139048251Y-67042477D01*
X139017772Y-67063819D01*
X138865211Y-67170643D01*
X138865208Y-67170645D01*
X138860700Y-67173802D01*
X138698802Y-67335700D01*
X138567477Y-67523251D01*
X138565154Y-67528233D01*
X138565151Y-67528238D01*
X138549195Y-67562457D01*
X138502278Y-67615742D01*
X138434001Y-67635203D01*
X138366041Y-67614661D01*
X138320805Y-67562457D01*
X138304849Y-67528238D01*
X138304846Y-67528233D01*
X138302523Y-67523251D01*
X138171198Y-67335700D01*
X138009300Y-67173802D01*
X138004792Y-67170645D01*
X138004789Y-67170643D01*
X137852228Y-67063819D01*
X137821749Y-67042477D01*
X137816767Y-67040154D01*
X137816762Y-67040151D01*
X137619225Y-66948039D01*
X137619224Y-66948039D01*
X137614243Y-66945716D01*
X137608935Y-66944294D01*
X137608933Y-66944293D01*
X137398402Y-66887881D01*
X137398400Y-66887881D01*
X137393087Y-66886457D01*
X137165000Y-66866502D01*
X136936913Y-66886457D01*
X136931600Y-66887881D01*
X136931598Y-66887881D01*
X136721067Y-66944293D01*
X136721065Y-66944294D01*
X136715757Y-66945716D01*
X136710776Y-66948039D01*
X136710775Y-66948039D01*
X136513238Y-67040151D01*
X136513233Y-67040154D01*
X136508251Y-67042477D01*
X136477772Y-67063819D01*
X136325211Y-67170643D01*
X136325208Y-67170645D01*
X136320700Y-67173802D01*
X136158802Y-67335700D01*
X136027477Y-67523251D01*
X136025154Y-67528233D01*
X136025151Y-67528238D01*
X136009195Y-67562457D01*
X135930716Y-67730757D01*
X135871457Y-67951913D01*
X135856500Y-68122873D01*
X135856500Y-69037127D01*
X135871457Y-69208087D01*
X135872881Y-69213400D01*
X135872881Y-69213402D01*
X135921784Y-69395907D01*
X135930716Y-69429243D01*
X135933039Y-69434224D01*
X135933039Y-69434225D01*
X136025151Y-69631762D01*
X136025154Y-69631767D01*
X136027477Y-69636749D01*
X136158802Y-69824300D01*
X136320700Y-69986198D01*
X136325208Y-69989355D01*
X136325211Y-69989357D01*
X136477771Y-70096181D01*
X136522099Y-70151638D01*
X136531500Y-70199394D01*
X136531500Y-72437105D01*
X136511498Y-72505226D01*
X136477771Y-72540318D01*
X136320211Y-72650643D01*
X136320208Y-72650645D01*
X136315700Y-72653802D01*
X136153802Y-72815700D01*
X136022477Y-73003251D01*
X136020154Y-73008233D01*
X136020151Y-73008238D01*
X135928039Y-73205775D01*
X135925716Y-73210757D01*
X135924294Y-73216065D01*
X135924293Y-73216067D01*
X135867883Y-73426591D01*
X135866457Y-73431913D01*
X135846502Y-73660000D01*
X135866457Y-73888087D01*
X135867881Y-73893400D01*
X135867881Y-73893402D01*
X135902478Y-74022517D01*
X135925716Y-74109243D01*
X135928039Y-74114224D01*
X135928039Y-74114225D01*
X136020151Y-74311762D01*
X136020154Y-74311767D01*
X136022477Y-74316749D01*
X136153802Y-74504300D01*
X136315700Y-74666198D01*
X136320208Y-74669355D01*
X136320211Y-74669357D01*
X136331902Y-74677543D01*
X136503251Y-74797523D01*
X136508233Y-74799846D01*
X136508238Y-74799849D01*
X136682822Y-74881258D01*
X136710757Y-74894284D01*
X136716065Y-74895706D01*
X136716067Y-74895707D01*
X136926598Y-74952119D01*
X136926600Y-74952119D01*
X136931913Y-74953543D01*
X137160000Y-74973498D01*
X137388087Y-74953543D01*
X137393400Y-74952119D01*
X137393402Y-74952119D01*
X137603933Y-74895707D01*
X137603935Y-74895706D01*
X137609243Y-74894284D01*
X137637178Y-74881258D01*
X137811762Y-74799849D01*
X137811767Y-74799846D01*
X137816749Y-74797523D01*
X137988098Y-74677543D01*
X137999789Y-74669357D01*
X137999792Y-74669355D01*
X138004300Y-74666198D01*
X138166198Y-74504300D01*
X138297523Y-74316749D01*
X138299846Y-74311767D01*
X138299849Y-74311762D01*
X138391961Y-74114225D01*
X138391961Y-74114224D01*
X138394284Y-74109243D01*
X138417523Y-74022517D01*
X138452119Y-73893402D01*
X138452119Y-73893400D01*
X138453543Y-73888087D01*
X138473498Y-73660000D01*
X138453543Y-73431913D01*
X138452117Y-73426591D01*
X138395707Y-73216067D01*
X138395706Y-73216065D01*
X138394284Y-73210757D01*
X138391961Y-73205775D01*
X138299849Y-73008238D01*
X138299846Y-73008233D01*
X138297523Y-73003251D01*
X138166198Y-72815700D01*
X138004300Y-72653802D01*
X137999792Y-72650645D01*
X137999789Y-72650643D01*
X137852229Y-72547320D01*
X137807901Y-72491863D01*
X137798500Y-72444107D01*
X137798500Y-70199394D01*
X137818502Y-70131273D01*
X137852229Y-70096181D01*
X138004789Y-69989357D01*
X138004792Y-69989355D01*
X138009300Y-69986198D01*
X138171198Y-69824300D01*
X138302523Y-69636749D01*
X138304846Y-69631767D01*
X138304849Y-69631762D01*
X138320805Y-69597543D01*
X138367722Y-69544258D01*
X138435999Y-69524797D01*
X138503959Y-69545339D01*
X138549195Y-69597543D01*
X138565151Y-69631762D01*
X138565154Y-69631767D01*
X138567477Y-69636749D01*
X138698802Y-69824300D01*
X138860700Y-69986198D01*
X138865208Y-69989355D01*
X138865211Y-69989357D01*
X139017771Y-70096181D01*
X139062099Y-70151638D01*
X139071500Y-70199394D01*
X139071500Y-71046233D01*
X139070973Y-71057416D01*
X139069298Y-71064909D01*
X139069547Y-71072835D01*
X139069547Y-71072836D01*
X139071438Y-71132986D01*
X139071500Y-71136945D01*
X139071500Y-71164856D01*
X139071997Y-71168790D01*
X139071997Y-71168791D01*
X139072005Y-71168856D01*
X139072938Y-71180693D01*
X139074327Y-71224889D01*
X139079978Y-71244339D01*
X139083987Y-71263700D01*
X139086526Y-71283797D01*
X139089445Y-71291168D01*
X139089445Y-71291170D01*
X139102804Y-71324912D01*
X139106649Y-71336142D01*
X139111379Y-71352424D01*
X139118982Y-71378593D01*
X139123015Y-71385412D01*
X139123017Y-71385417D01*
X139129293Y-71396028D01*
X139137988Y-71413776D01*
X139145448Y-71432617D01*
X139150110Y-71439033D01*
X139150110Y-71439034D01*
X139171436Y-71468387D01*
X139177952Y-71478307D01*
X139200458Y-71516362D01*
X139214779Y-71530683D01*
X139227619Y-71545716D01*
X139239528Y-71562107D01*
X139245634Y-71567158D01*
X139273605Y-71590298D01*
X139282384Y-71598288D01*
X140930848Y-73246752D01*
X140964874Y-73309064D01*
X140963459Y-73368459D01*
X140947882Y-73426591D01*
X140947881Y-73426598D01*
X140946457Y-73431913D01*
X140926502Y-73660000D01*
X140946457Y-73888087D01*
X140947880Y-73893398D01*
X140947882Y-73893409D01*
X140963459Y-73951541D01*
X140961770Y-74022517D01*
X140930848Y-74073248D01*
X132493248Y-82510848D01*
X132430936Y-82544874D01*
X132371541Y-82543459D01*
X132313409Y-82527882D01*
X132313398Y-82527880D01*
X132308087Y-82526457D01*
X132080000Y-82506502D01*
X131851913Y-82526457D01*
X131846600Y-82527881D01*
X131846598Y-82527881D01*
X131636067Y-82584293D01*
X131636065Y-82584294D01*
X131630757Y-82585716D01*
X131625776Y-82588039D01*
X131625775Y-82588039D01*
X131428238Y-82680151D01*
X131428233Y-82680154D01*
X131423251Y-82682477D01*
X131318389Y-82755902D01*
X131240211Y-82810643D01*
X131240208Y-82810645D01*
X131235700Y-82813802D01*
X131073802Y-82975700D01*
X131070645Y-82980208D01*
X131070643Y-82980211D01*
X131015902Y-83058389D01*
X130942477Y-83163251D01*
X130940154Y-83168233D01*
X130940151Y-83168238D01*
X130940034Y-83168489D01*
X130845716Y-83370757D01*
X130844294Y-83376065D01*
X130844293Y-83376067D01*
X130796756Y-83553478D01*
X130786457Y-83591913D01*
X130766502Y-83820000D01*
X129508000Y-83820000D01*
X129508000Y-73660000D01*
X130766502Y-73660000D01*
X130786457Y-73888087D01*
X130787881Y-73893400D01*
X130787881Y-73893402D01*
X130822478Y-74022517D01*
X130845716Y-74109243D01*
X130848039Y-74114224D01*
X130848039Y-74114225D01*
X130940151Y-74311762D01*
X130940154Y-74311767D01*
X130942477Y-74316749D01*
X131073802Y-74504300D01*
X131235700Y-74666198D01*
X131240208Y-74669355D01*
X131240211Y-74669357D01*
X131251902Y-74677543D01*
X131423251Y-74797523D01*
X131428233Y-74799846D01*
X131428238Y-74799849D01*
X131602822Y-74881258D01*
X131630757Y-74894284D01*
X131636065Y-74895706D01*
X131636067Y-74895707D01*
X131846598Y-74952119D01*
X131846600Y-74952119D01*
X131851913Y-74953543D01*
X132080000Y-74973498D01*
X132308087Y-74953543D01*
X132313400Y-74952119D01*
X132313402Y-74952119D01*
X132523933Y-74895707D01*
X132523935Y-74895706D01*
X132529243Y-74894284D01*
X132557178Y-74881258D01*
X132731762Y-74799849D01*
X132731767Y-74799846D01*
X132736749Y-74797523D01*
X132908098Y-74677543D01*
X132919789Y-74669357D01*
X132919792Y-74669355D01*
X132924300Y-74666198D01*
X133086198Y-74504300D01*
X133217523Y-74316749D01*
X133219846Y-74311767D01*
X133219849Y-74311762D01*
X133311961Y-74114225D01*
X133311961Y-74114224D01*
X133314284Y-74109243D01*
X133337523Y-74022517D01*
X133372119Y-73893402D01*
X133372119Y-73893400D01*
X133373543Y-73888087D01*
X133393498Y-73660000D01*
X133373543Y-73431913D01*
X133372117Y-73426591D01*
X133315707Y-73216067D01*
X133315706Y-73216065D01*
X133314284Y-73210757D01*
X133311961Y-73205775D01*
X133219849Y-73008238D01*
X133219846Y-73008233D01*
X133217523Y-73003251D01*
X133086198Y-72815700D01*
X132924300Y-72653802D01*
X132919792Y-72650645D01*
X132919789Y-72650643D01*
X132772228Y-72547320D01*
X132736749Y-72522477D01*
X132731767Y-72520154D01*
X132731762Y-72520151D01*
X132534225Y-72428039D01*
X132534224Y-72428039D01*
X132529243Y-72425716D01*
X132523935Y-72424294D01*
X132523933Y-72424293D01*
X132313402Y-72367881D01*
X132313400Y-72367881D01*
X132308087Y-72366457D01*
X132080000Y-72346502D01*
X131851913Y-72366457D01*
X131846600Y-72367881D01*
X131846598Y-72367881D01*
X131636067Y-72424293D01*
X131636065Y-72424294D01*
X131630757Y-72425716D01*
X131625776Y-72428039D01*
X131625775Y-72428039D01*
X131428238Y-72520151D01*
X131428233Y-72520154D01*
X131423251Y-72522477D01*
X131387772Y-72547320D01*
X131240211Y-72650643D01*
X131240208Y-72650645D01*
X131235700Y-72653802D01*
X131073802Y-72815700D01*
X130942477Y-73003251D01*
X130940154Y-73008233D01*
X130940151Y-73008238D01*
X130848039Y-73205775D01*
X130845716Y-73210757D01*
X130844294Y-73216065D01*
X130844293Y-73216067D01*
X130787883Y-73426591D01*
X130786457Y-73431913D01*
X130766502Y-73660000D01*
X129508000Y-73660000D01*
X129508000Y-55880000D01*
X130766502Y-55880000D01*
X130786457Y-56108087D01*
X130787880Y-56113398D01*
X130787881Y-56113402D01*
X130819375Y-56230936D01*
X130845716Y-56329243D01*
X130848039Y-56334224D01*
X130848039Y-56334225D01*
X130940151Y-56531762D01*
X130940154Y-56531767D01*
X130942477Y-56536749D01*
X131073802Y-56724300D01*
X131235700Y-56886198D01*
X131240208Y-56889355D01*
X131240211Y-56889357D01*
X131251902Y-56897543D01*
X131423251Y-57017523D01*
X131428233Y-57019846D01*
X131428238Y-57019849D01*
X131591317Y-57095893D01*
X131630757Y-57114284D01*
X131636065Y-57115706D01*
X131636067Y-57115707D01*
X131846598Y-57172119D01*
X131846600Y-57172119D01*
X131851913Y-57173543D01*
X132080000Y-57193498D01*
X132308087Y-57173543D01*
X132313400Y-57172119D01*
X132313402Y-57172119D01*
X132523933Y-57115707D01*
X132523935Y-57115706D01*
X132529243Y-57114284D01*
X132568683Y-57095893D01*
X132731762Y-57019849D01*
X132731767Y-57019846D01*
X132736749Y-57017523D01*
X132908098Y-56897543D01*
X132919789Y-56889357D01*
X132919792Y-56889355D01*
X132924300Y-56886198D01*
X133086198Y-56724300D01*
X133217523Y-56536749D01*
X133219846Y-56531767D01*
X133219849Y-56531762D01*
X133311961Y-56334225D01*
X133311961Y-56334224D01*
X133314284Y-56329243D01*
X133340626Y-56230936D01*
X133372119Y-56113402D01*
X133372120Y-56113398D01*
X133373543Y-56108087D01*
X133393498Y-55880000D01*
X133373543Y-55651913D01*
X133372117Y-55646591D01*
X133315707Y-55436067D01*
X133315706Y-55436065D01*
X133314284Y-55430757D01*
X133310608Y-55422873D01*
X133219849Y-55228238D01*
X133219846Y-55228233D01*
X133217523Y-55223251D01*
X133086198Y-55035700D01*
X132924300Y-54873802D01*
X132919792Y-54870645D01*
X132919789Y-54870643D01*
X132841611Y-54815902D01*
X132736749Y-54742477D01*
X132731767Y-54740154D01*
X132731762Y-54740151D01*
X132534225Y-54648039D01*
X132534224Y-54648039D01*
X132529243Y-54645716D01*
X132523935Y-54644294D01*
X132523933Y-54644293D01*
X132313402Y-54587881D01*
X132313400Y-54587881D01*
X132308087Y-54586457D01*
X132080000Y-54566502D01*
X131851913Y-54586457D01*
X131846600Y-54587881D01*
X131846598Y-54587881D01*
X131636067Y-54644293D01*
X131636065Y-54644294D01*
X131630757Y-54645716D01*
X131625776Y-54648039D01*
X131625775Y-54648039D01*
X131428238Y-54740151D01*
X131428233Y-54740154D01*
X131423251Y-54742477D01*
X131318389Y-54815902D01*
X131240211Y-54870643D01*
X131240208Y-54870645D01*
X131235700Y-54873802D01*
X131073802Y-55035700D01*
X130942477Y-55223251D01*
X130940154Y-55228233D01*
X130940151Y-55228238D01*
X130849392Y-55422873D01*
X130845716Y-55430757D01*
X130844294Y-55436065D01*
X130844293Y-55436067D01*
X130787883Y-55646591D01*
X130786457Y-55651913D01*
X130766502Y-55880000D01*
X129508000Y-55880000D01*
X129508000Y-40605469D01*
X135747095Y-40605469D01*
X135747392Y-40610622D01*
X135747392Y-40610625D01*
X135753067Y-40709041D01*
X135760427Y-40836697D01*
X135761564Y-40841743D01*
X135761565Y-40841749D01*
X135793741Y-40984523D01*
X135811346Y-41062642D01*
X135813288Y-41067424D01*
X135813289Y-41067428D01*
X135896540Y-41272450D01*
X135898484Y-41277237D01*
X136019501Y-41474719D01*
X136171147Y-41649784D01*
X136349349Y-41797730D01*
X136462073Y-41863600D01*
X136464070Y-41864767D01*
X136512794Y-41916405D01*
X136526500Y-41973555D01*
X136526500Y-44500606D01*
X136506498Y-44568727D01*
X136472771Y-44603819D01*
X136320211Y-44710643D01*
X136320208Y-44710645D01*
X136315700Y-44713802D01*
X136153802Y-44875700D01*
X136022477Y-45063251D01*
X136020154Y-45068233D01*
X136020151Y-45068238D01*
X135928039Y-45265775D01*
X135925716Y-45270757D01*
X135924294Y-45276065D01*
X135924293Y-45276067D01*
X135876756Y-45453478D01*
X135866457Y-45491913D01*
X135846502Y-45720000D01*
X135866457Y-45948087D01*
X135867881Y-45953400D01*
X135867881Y-45953402D01*
X135921717Y-46154317D01*
X135925716Y-46169243D01*
X135928039Y-46174224D01*
X135928039Y-46174225D01*
X136020151Y-46371762D01*
X136020154Y-46371767D01*
X136022477Y-46376749D01*
X136075514Y-46452493D01*
X136145098Y-46551869D01*
X136153802Y-46564300D01*
X136315700Y-46726198D01*
X136320208Y-46729355D01*
X136320211Y-46729357D01*
X136340865Y-46743819D01*
X136503251Y-46857523D01*
X136508233Y-46859846D01*
X136508238Y-46859849D01*
X136700892Y-46949684D01*
X136710757Y-46954284D01*
X136716065Y-46955706D01*
X136716067Y-46955707D01*
X136926598Y-47012119D01*
X136926600Y-47012119D01*
X136931913Y-47013543D01*
X137160000Y-47033498D01*
X137388087Y-47013543D01*
X137393400Y-47012119D01*
X137393402Y-47012119D01*
X137603933Y-46955707D01*
X137603935Y-46955706D01*
X137609243Y-46954284D01*
X137619108Y-46949684D01*
X137811762Y-46859849D01*
X137811767Y-46859846D01*
X137816749Y-46857523D01*
X137979135Y-46743819D01*
X137999789Y-46729357D01*
X137999792Y-46729355D01*
X138004300Y-46726198D01*
X138166198Y-46564300D01*
X138174903Y-46551869D01*
X138244486Y-46452493D01*
X138297523Y-46376749D01*
X138299846Y-46371767D01*
X138299849Y-46371762D01*
X138391961Y-46174225D01*
X138391961Y-46174224D01*
X138394284Y-46169243D01*
X138398284Y-46154317D01*
X138443245Y-45986522D01*
X140957273Y-45986522D01*
X141004764Y-46163761D01*
X141008510Y-46174053D01*
X141100586Y-46371511D01*
X141106069Y-46381007D01*
X141231028Y-46559467D01*
X141238084Y-46567875D01*
X141392125Y-46721916D01*
X141400533Y-46728972D01*
X141578993Y-46853931D01*
X141588489Y-46859414D01*
X141785947Y-46951490D01*
X141796239Y-46955236D01*
X141968503Y-47001394D01*
X141982599Y-47001058D01*
X141986000Y-46993116D01*
X141986000Y-46987967D01*
X142494000Y-46987967D01*
X142497973Y-47001498D01*
X142506522Y-47002727D01*
X142683761Y-46955236D01*
X142694053Y-46951490D01*
X142891511Y-46859414D01*
X142901007Y-46853931D01*
X143079467Y-46728972D01*
X143087875Y-46721916D01*
X143241916Y-46567875D01*
X143248972Y-46559467D01*
X143373931Y-46381007D01*
X143379414Y-46371511D01*
X143471490Y-46174053D01*
X143475236Y-46163761D01*
X143521394Y-45991497D01*
X143521275Y-45986522D01*
X146037273Y-45986522D01*
X146084764Y-46163761D01*
X146088510Y-46174053D01*
X146180586Y-46371511D01*
X146186069Y-46381007D01*
X146311028Y-46559467D01*
X146318084Y-46567875D01*
X146472125Y-46721916D01*
X146480533Y-46728972D01*
X146658993Y-46853931D01*
X146668489Y-46859414D01*
X146865947Y-46951490D01*
X146876239Y-46955236D01*
X147048503Y-47001394D01*
X147062599Y-47001058D01*
X147066000Y-46993116D01*
X147066000Y-46987967D01*
X147574000Y-46987967D01*
X147577973Y-47001498D01*
X147586522Y-47002727D01*
X147763761Y-46955236D01*
X147774053Y-46951490D01*
X147971511Y-46859414D01*
X147981007Y-46853931D01*
X148159467Y-46728972D01*
X148167875Y-46721916D01*
X148321916Y-46567875D01*
X148328972Y-46559467D01*
X148453931Y-46381007D01*
X148459414Y-46371511D01*
X148551490Y-46174053D01*
X148555236Y-46163761D01*
X148601394Y-45991497D01*
X148601058Y-45977401D01*
X148593116Y-45974000D01*
X147592115Y-45974000D01*
X147576876Y-45978475D01*
X147575671Y-45979865D01*
X147574000Y-45987548D01*
X147574000Y-46987967D01*
X147066000Y-46987967D01*
X147066000Y-45992115D01*
X147061525Y-45976876D01*
X147060135Y-45975671D01*
X147052452Y-45974000D01*
X146052033Y-45974000D01*
X146038502Y-45977973D01*
X146037273Y-45986522D01*
X143521275Y-45986522D01*
X143521058Y-45977401D01*
X143513116Y-45974000D01*
X142512115Y-45974000D01*
X142496876Y-45978475D01*
X142495671Y-45979865D01*
X142494000Y-45987548D01*
X142494000Y-46987967D01*
X141986000Y-46987967D01*
X141986000Y-45992115D01*
X141981525Y-45976876D01*
X141980135Y-45975671D01*
X141972452Y-45974000D01*
X140972033Y-45974000D01*
X140958502Y-45977973D01*
X140957273Y-45986522D01*
X138443245Y-45986522D01*
X138452119Y-45953402D01*
X138452119Y-45953400D01*
X138453543Y-45948087D01*
X138473498Y-45720000D01*
X138453543Y-45491913D01*
X138443244Y-45453478D01*
X138441911Y-45448503D01*
X140958606Y-45448503D01*
X140958942Y-45462599D01*
X140966884Y-45466000D01*
X141967885Y-45466000D01*
X141983124Y-45461525D01*
X141984329Y-45460135D01*
X141986000Y-45452452D01*
X141986000Y-45447885D01*
X142494000Y-45447885D01*
X142498475Y-45463124D01*
X142499865Y-45464329D01*
X142507548Y-45466000D01*
X143507967Y-45466000D01*
X143521498Y-45462027D01*
X143522727Y-45453478D01*
X143521394Y-45448503D01*
X146038606Y-45448503D01*
X146038942Y-45462599D01*
X146046884Y-45466000D01*
X147047885Y-45466000D01*
X147063124Y-45461525D01*
X147064329Y-45460135D01*
X147066000Y-45452452D01*
X147066000Y-45447885D01*
X147574000Y-45447885D01*
X147578475Y-45463124D01*
X147579865Y-45464329D01*
X147587548Y-45466000D01*
X148587967Y-45466000D01*
X148601498Y-45462027D01*
X148602727Y-45453478D01*
X148555236Y-45276239D01*
X148551490Y-45265947D01*
X148459414Y-45068489D01*
X148453931Y-45058993D01*
X148328972Y-44880533D01*
X148321916Y-44872125D01*
X148167875Y-44718084D01*
X148159467Y-44711028D01*
X147981007Y-44586069D01*
X147971511Y-44580586D01*
X147774053Y-44488510D01*
X147763761Y-44484764D01*
X147591497Y-44438606D01*
X147577401Y-44438942D01*
X147574000Y-44446884D01*
X147574000Y-45447885D01*
X147066000Y-45447885D01*
X147066000Y-44452033D01*
X147062027Y-44438502D01*
X147053478Y-44437273D01*
X146876239Y-44484764D01*
X146865947Y-44488510D01*
X146668489Y-44580586D01*
X146658993Y-44586069D01*
X146480533Y-44711028D01*
X146472125Y-44718084D01*
X146318084Y-44872125D01*
X146311028Y-44880533D01*
X146186069Y-45058993D01*
X146180586Y-45068489D01*
X146088510Y-45265947D01*
X146084764Y-45276239D01*
X146038606Y-45448503D01*
X143521394Y-45448503D01*
X143475236Y-45276239D01*
X143471490Y-45265947D01*
X143379414Y-45068489D01*
X143373931Y-45058993D01*
X143248972Y-44880533D01*
X143241916Y-44872125D01*
X143087875Y-44718084D01*
X143079467Y-44711028D01*
X142901007Y-44586069D01*
X142891511Y-44580586D01*
X142694053Y-44488510D01*
X142683761Y-44484764D01*
X142511497Y-44438606D01*
X142497401Y-44438942D01*
X142494000Y-44446884D01*
X142494000Y-45447885D01*
X141986000Y-45447885D01*
X141986000Y-44452033D01*
X141982027Y-44438502D01*
X141973478Y-44437273D01*
X141796239Y-44484764D01*
X141785947Y-44488510D01*
X141588489Y-44580586D01*
X141578993Y-44586069D01*
X141400533Y-44711028D01*
X141392125Y-44718084D01*
X141238084Y-44872125D01*
X141231028Y-44880533D01*
X141106069Y-45058993D01*
X141100586Y-45068489D01*
X141008510Y-45265947D01*
X141004764Y-45276239D01*
X140958606Y-45448503D01*
X138441911Y-45448503D01*
X138395707Y-45276067D01*
X138395706Y-45276065D01*
X138394284Y-45270757D01*
X138391961Y-45265775D01*
X138299849Y-45068238D01*
X138299846Y-45068233D01*
X138297523Y-45063251D01*
X138166198Y-44875700D01*
X138004300Y-44713802D01*
X137999792Y-44710645D01*
X137999789Y-44710643D01*
X137847229Y-44603819D01*
X137802901Y-44548362D01*
X137793500Y-44500606D01*
X137793500Y-41976752D01*
X137813502Y-41908631D01*
X137864068Y-41863601D01*
X137871316Y-41860050D01*
X137879043Y-41856265D01*
X137879047Y-41856263D01*
X137883684Y-41853991D01*
X137887888Y-41850993D01*
X137887892Y-41850990D01*
X137967193Y-41794425D01*
X138072243Y-41719494D01*
X138236303Y-41556005D01*
X138371458Y-41367917D01*
X138418641Y-41272450D01*
X138471784Y-41164922D01*
X138471785Y-41164920D01*
X138474078Y-41160280D01*
X138541408Y-40938671D01*
X138571640Y-40709041D01*
X138573327Y-40640000D01*
X138570488Y-40605469D01*
X150987095Y-40605469D01*
X150987392Y-40610622D01*
X150987392Y-40610625D01*
X150993067Y-40709041D01*
X151000427Y-40836697D01*
X151001564Y-40841743D01*
X151001565Y-40841749D01*
X151033741Y-40984523D01*
X151051346Y-41062642D01*
X151053288Y-41067424D01*
X151053289Y-41067428D01*
X151136540Y-41272450D01*
X151138484Y-41277237D01*
X151259501Y-41474719D01*
X151411147Y-41649784D01*
X151589349Y-41797730D01*
X151702073Y-41863600D01*
X151704070Y-41864767D01*
X151752794Y-41916405D01*
X151766500Y-41973555D01*
X151766500Y-44500606D01*
X151746498Y-44568727D01*
X151712771Y-44603819D01*
X151560211Y-44710643D01*
X151560208Y-44710645D01*
X151555700Y-44713802D01*
X151393802Y-44875700D01*
X151262477Y-45063251D01*
X151260154Y-45068233D01*
X151260151Y-45068238D01*
X151168039Y-45265775D01*
X151165716Y-45270757D01*
X151164294Y-45276065D01*
X151164293Y-45276067D01*
X151116756Y-45453478D01*
X151106457Y-45491913D01*
X151086502Y-45720000D01*
X151106457Y-45948087D01*
X151107881Y-45953400D01*
X151107881Y-45953402D01*
X151161717Y-46154317D01*
X151165716Y-46169243D01*
X151168039Y-46174224D01*
X151168039Y-46174225D01*
X151260151Y-46371762D01*
X151260154Y-46371767D01*
X151262477Y-46376749D01*
X151315514Y-46452493D01*
X151385098Y-46551869D01*
X151393802Y-46564300D01*
X151555700Y-46726198D01*
X151560208Y-46729355D01*
X151560211Y-46729357D01*
X151580865Y-46743819D01*
X151743251Y-46857523D01*
X151748233Y-46859846D01*
X151748238Y-46859849D01*
X151940892Y-46949684D01*
X151950757Y-46954284D01*
X151956065Y-46955706D01*
X151956067Y-46955707D01*
X152166598Y-47012119D01*
X152166600Y-47012119D01*
X152171913Y-47013543D01*
X152400000Y-47033498D01*
X152628087Y-47013543D01*
X152633400Y-47012119D01*
X152633402Y-47012119D01*
X152843933Y-46955707D01*
X152843935Y-46955706D01*
X152849243Y-46954284D01*
X152859108Y-46949684D01*
X153051762Y-46859849D01*
X153051767Y-46859846D01*
X153056749Y-46857523D01*
X153219135Y-46743819D01*
X153239789Y-46729357D01*
X153239792Y-46729355D01*
X153244300Y-46726198D01*
X153406198Y-46564300D01*
X153414903Y-46551869D01*
X153484486Y-46452493D01*
X153537523Y-46376749D01*
X153539846Y-46371767D01*
X153539849Y-46371762D01*
X153631961Y-46174225D01*
X153631961Y-46174224D01*
X153634284Y-46169243D01*
X153638284Y-46154317D01*
X153692119Y-45953402D01*
X153692119Y-45953400D01*
X153693543Y-45948087D01*
X153713498Y-45720000D01*
X153693543Y-45491913D01*
X153683244Y-45453478D01*
X153635707Y-45276067D01*
X153635706Y-45276065D01*
X153634284Y-45270757D01*
X153631961Y-45265775D01*
X153539849Y-45068238D01*
X153539846Y-45068233D01*
X153537523Y-45063251D01*
X153406198Y-44875700D01*
X153244300Y-44713802D01*
X153239792Y-44710645D01*
X153239789Y-44710643D01*
X153087229Y-44603819D01*
X153042901Y-44548362D01*
X153033500Y-44500606D01*
X153033500Y-41976752D01*
X153053502Y-41908631D01*
X153104068Y-41863601D01*
X153111316Y-41860050D01*
X153119043Y-41856265D01*
X153119047Y-41856263D01*
X153123684Y-41853991D01*
X153127888Y-41850993D01*
X153127892Y-41850990D01*
X153207193Y-41794425D01*
X153312243Y-41719494D01*
X153476303Y-41556005D01*
X153611458Y-41367917D01*
X153658641Y-41272450D01*
X153711784Y-41164922D01*
X153711785Y-41164920D01*
X153714078Y-41160280D01*
X153781408Y-40938671D01*
X153811640Y-40709041D01*
X153813327Y-40640000D01*
X153807032Y-40563434D01*
X153794773Y-40414318D01*
X153794772Y-40414312D01*
X153794349Y-40409167D01*
X153737925Y-40184533D01*
X153735866Y-40179797D01*
X153647630Y-39976868D01*
X153647628Y-39976865D01*
X153645570Y-39972131D01*
X153519764Y-39777665D01*
X153429486Y-39678450D01*
X153398434Y-39614605D01*
X153406829Y-39544106D01*
X153452005Y-39489338D01*
X153478449Y-39475669D01*
X153538054Y-39453324D01*
X153553649Y-39444786D01*
X153655724Y-39368285D01*
X153668285Y-39355724D01*
X153744786Y-39253649D01*
X153753324Y-39238054D01*
X153798478Y-39117606D01*
X153802105Y-39102351D01*
X153807631Y-39051486D01*
X153808000Y-39044672D01*
X153808000Y-38372115D01*
X153803525Y-38356876D01*
X153802135Y-38355671D01*
X153794452Y-38354000D01*
X151010116Y-38354000D01*
X150994877Y-38358475D01*
X150993672Y-38359865D01*
X150992001Y-38367548D01*
X150992001Y-39044669D01*
X150992371Y-39051490D01*
X150997895Y-39102352D01*
X151001521Y-39117604D01*
X151046676Y-39238054D01*
X151055214Y-39253649D01*
X151131715Y-39355724D01*
X151144276Y-39368285D01*
X151246351Y-39444786D01*
X151261946Y-39453324D01*
X151321540Y-39475665D01*
X151378304Y-39518307D01*
X151403004Y-39584868D01*
X151387796Y-39654217D01*
X151368404Y-39680698D01*
X151301639Y-39750564D01*
X151298725Y-39754836D01*
X151298724Y-39754837D01*
X151283152Y-39777665D01*
X151171119Y-39941899D01*
X151073602Y-40151981D01*
X151011707Y-40375169D01*
X150987095Y-40605469D01*
X138570488Y-40605469D01*
X138567032Y-40563434D01*
X138554773Y-40414318D01*
X138554772Y-40414312D01*
X138554349Y-40409167D01*
X138497925Y-40184533D01*
X138495866Y-40179797D01*
X138407630Y-39976868D01*
X138407628Y-39976865D01*
X138405570Y-39972131D01*
X138279764Y-39777665D01*
X138189486Y-39678450D01*
X138158434Y-39614605D01*
X138166829Y-39544106D01*
X138212005Y-39489338D01*
X138238449Y-39475669D01*
X138298054Y-39453324D01*
X138313649Y-39444786D01*
X138415724Y-39368285D01*
X138428285Y-39355724D01*
X138504786Y-39253649D01*
X138513324Y-39238054D01*
X138558478Y-39117606D01*
X138562105Y-39102351D01*
X138567631Y-39051486D01*
X138568000Y-39044672D01*
X138568000Y-38372115D01*
X138563525Y-38356876D01*
X138562135Y-38355671D01*
X138554452Y-38354000D01*
X135770116Y-38354000D01*
X135754877Y-38358475D01*
X135753672Y-38359865D01*
X135752001Y-38367548D01*
X135752001Y-39044669D01*
X135752371Y-39051490D01*
X135757895Y-39102352D01*
X135761521Y-39117604D01*
X135806676Y-39238054D01*
X135815214Y-39253649D01*
X135891715Y-39355724D01*
X135904276Y-39368285D01*
X136006351Y-39444786D01*
X136021946Y-39453324D01*
X136081540Y-39475665D01*
X136138304Y-39518307D01*
X136163004Y-39584868D01*
X136147796Y-39654217D01*
X136128404Y-39680698D01*
X136061639Y-39750564D01*
X136058725Y-39754836D01*
X136058724Y-39754837D01*
X136043152Y-39777665D01*
X135931119Y-39941899D01*
X135833602Y-40151981D01*
X135771707Y-40375169D01*
X135747095Y-40605469D01*
X129508000Y-40605469D01*
X129508000Y-37827885D01*
X135752000Y-37827885D01*
X135756475Y-37843124D01*
X135757865Y-37844329D01*
X135765548Y-37846000D01*
X136887885Y-37846000D01*
X136903124Y-37841525D01*
X136904329Y-37840135D01*
X136906000Y-37832452D01*
X136906000Y-37827885D01*
X137414000Y-37827885D01*
X137418475Y-37843124D01*
X137419865Y-37844329D01*
X137427548Y-37846000D01*
X138549884Y-37846000D01*
X138565123Y-37841525D01*
X138566328Y-37840135D01*
X138567999Y-37832452D01*
X138567999Y-37827885D01*
X150992000Y-37827885D01*
X150996475Y-37843124D01*
X150997865Y-37844329D01*
X151005548Y-37846000D01*
X152127885Y-37846000D01*
X152143124Y-37841525D01*
X152144329Y-37840135D01*
X152146000Y-37832452D01*
X152146000Y-37827885D01*
X152654000Y-37827885D01*
X152658475Y-37843124D01*
X152659865Y-37844329D01*
X152667548Y-37846000D01*
X153789884Y-37846000D01*
X153805123Y-37841525D01*
X153806328Y-37840135D01*
X153807999Y-37832452D01*
X153807999Y-37155331D01*
X153807629Y-37148510D01*
X153802105Y-37097648D01*
X153798479Y-37082396D01*
X153753324Y-36961946D01*
X153744786Y-36946351D01*
X153668285Y-36844276D01*
X153655724Y-36831715D01*
X153553649Y-36755214D01*
X153538054Y-36746676D01*
X153417606Y-36701522D01*
X153402351Y-36697895D01*
X153351486Y-36692369D01*
X153344672Y-36692000D01*
X152672115Y-36692000D01*
X152656876Y-36696475D01*
X152655671Y-36697865D01*
X152654000Y-36705548D01*
X152654000Y-37827885D01*
X152146000Y-37827885D01*
X152146000Y-36710116D01*
X152141525Y-36694877D01*
X152140135Y-36693672D01*
X152132452Y-36692001D01*
X151455331Y-36692001D01*
X151448510Y-36692371D01*
X151397648Y-36697895D01*
X151382396Y-36701521D01*
X151261946Y-36746676D01*
X151246351Y-36755214D01*
X151144276Y-36831715D01*
X151131715Y-36844276D01*
X151055214Y-36946351D01*
X151046676Y-36961946D01*
X151001522Y-37082394D01*
X150997895Y-37097649D01*
X150992369Y-37148514D01*
X150992000Y-37155328D01*
X150992000Y-37827885D01*
X138567999Y-37827885D01*
X138567999Y-37155331D01*
X138567629Y-37148510D01*
X138562105Y-37097648D01*
X138558479Y-37082396D01*
X138513324Y-36961946D01*
X138504786Y-36946351D01*
X138428285Y-36844276D01*
X138415724Y-36831715D01*
X138313649Y-36755214D01*
X138298054Y-36746676D01*
X138177606Y-36701522D01*
X138162351Y-36697895D01*
X138111486Y-36692369D01*
X138104672Y-36692000D01*
X137432115Y-36692000D01*
X137416876Y-36696475D01*
X137415671Y-36697865D01*
X137414000Y-36705548D01*
X137414000Y-37827885D01*
X136906000Y-37827885D01*
X136906000Y-36710116D01*
X136901525Y-36694877D01*
X136900135Y-36693672D01*
X136892452Y-36692001D01*
X136215331Y-36692001D01*
X136208510Y-36692371D01*
X136157648Y-36697895D01*
X136142396Y-36701521D01*
X136021946Y-36746676D01*
X136006351Y-36755214D01*
X135904276Y-36831715D01*
X135891715Y-36844276D01*
X135815214Y-36946351D01*
X135806676Y-36961946D01*
X135761522Y-37082394D01*
X135757895Y-37097649D01*
X135752369Y-37148514D01*
X135752000Y-37155328D01*
X135752000Y-37827885D01*
X129508000Y-37827885D01*
X129508000Y-35634000D01*
X129528002Y-35565879D01*
X129581658Y-35519386D01*
X129634000Y-35508000D01*
X189366000Y-35508000D01*
X189434121Y-35528002D01*
G37*
G04 #@! TD.AperFunction*
G04 #@! TD*
M02*
