G04 #@! TF.GenerationSoftware,KiCad,Pcbnew,6.0.1-79c1e3a40b~116~ubuntu20.04.1*
G04 #@! TF.CreationDate,2022-01-30T08:46:23-05:00*
G04 #@! TF.ProjectId,opamptest,6f70616d-7074-4657-9374-2e6b69636164,rev?*
G04 #@! TF.SameCoordinates,Original*
G04 #@! TF.FileFunction,Copper,L2,Bot*
G04 #@! TF.FilePolarity,Positive*
%FSLAX46Y46*%
G04 Gerber Fmt 4.6, Leading zero omitted, Abs format (unit mm)*
G04 Created by KiCad (PCBNEW 6.0.1-79c1e3a40b~116~ubuntu20.04.1) date 2022-01-30 08:46:23*
%MOMM*%
%LPD*%
G01*
G04 APERTURE LIST*
G04 #@! TA.AperFunction,ComponentPad*
%ADD10C,1.600000*%
G04 #@! TD*
G04 #@! TA.AperFunction,ComponentPad*
%ADD11O,1.600000X1.600000*%
G04 #@! TD*
G04 #@! TA.AperFunction,ComponentPad*
%ADD12R,1.600000X2.400000*%
G04 #@! TD*
G04 #@! TA.AperFunction,ComponentPad*
%ADD13O,1.600000X2.400000*%
G04 #@! TD*
G04 #@! TA.AperFunction,ComponentPad*
%ADD14R,1.800000X1.800000*%
G04 #@! TD*
G04 #@! TA.AperFunction,ComponentPad*
%ADD15C,1.800000*%
G04 #@! TD*
G04 #@! TA.AperFunction,ComponentPad*
%ADD16R,3.000000X3.000000*%
G04 #@! TD*
G04 #@! TA.AperFunction,ComponentPad*
%ADD17C,3.000000*%
G04 #@! TD*
G04 #@! TA.AperFunction,ComponentPad*
%ADD18C,2.000000*%
G04 #@! TD*
G04 #@! TA.AperFunction,Conductor*
%ADD19C,0.750000*%
G04 #@! TD*
G04 #@! TA.AperFunction,Conductor*
%ADD20C,0.250000*%
G04 #@! TD*
G04 APERTURE END LIST*
D10*
G04 #@! TO.P,R8,1*
G04 #@! TO.N,Net-(R7-Pad2)*
X137160000Y-55880000D03*
D11*
G04 #@! TO.P,R8,2*
G04 #@! TO.N,Net-(D2-Pad2)*
X137160000Y-45720000D03*
G04 #@! TD*
D10*
G04 #@! TO.P,R5,1*
G04 #@! TO.N,TL074_1*
X152400000Y-55880000D03*
D11*
G04 #@! TO.P,R5,2*
G04 #@! TO.N,Net-(D1-Pad2)*
X152400000Y-45720000D03*
G04 #@! TD*
D12*
G04 #@! TO.P,U2,1*
G04 #@! TO.N,TL074_1*
X152405000Y-60960000D03*
D13*
G04 #@! TO.P,U2,2,-*
G04 #@! TO.N,TL074_2*
X149865000Y-60960000D03*
G04 #@! TO.P,U2,3,+*
G04 #@! TO.N,INPUT*
X147325000Y-60960000D03*
G04 #@! TO.P,U2,4,V+*
G04 #@! TO.N,+12V*
X144785000Y-60960000D03*
G04 #@! TO.P,U2,5,+*
G04 #@! TO.N,INPUT*
X142245000Y-60960000D03*
G04 #@! TO.P,U2,6,-*
G04 #@! TO.N,Net-(R6-Pad1)*
X139705000Y-60960000D03*
G04 #@! TO.P,U2,7*
G04 #@! TO.N,Net-(R7-Pad2)*
X137165000Y-60960000D03*
G04 #@! TO.P,U2,8*
G04 #@! TO.N,Net-(R10-Pad2)*
X137165000Y-68580000D03*
G04 #@! TO.P,U2,9,-*
G04 #@! TO.N,Net-(R10-Pad1)*
X139705000Y-68580000D03*
G04 #@! TO.P,U2,10,+*
G04 #@! TO.N,INPUT*
X142245000Y-68580000D03*
G04 #@! TO.P,U2,11,V-*
G04 #@! TO.N,-12V*
X144785000Y-68580000D03*
G04 #@! TO.P,U2,12,+*
G04 #@! TO.N,INPUT*
X147325000Y-68580000D03*
G04 #@! TO.P,U2,13,-*
G04 #@! TO.N,TL074_13*
X149865000Y-68580000D03*
G04 #@! TO.P,U2,14*
G04 #@! TO.N,TL074_14*
X152405000Y-68580000D03*
G04 #@! TD*
D10*
G04 #@! TO.P,R10,1*
G04 #@! TO.N,Net-(R10-Pad1)*
X132080000Y-83820000D03*
D11*
G04 #@! TO.P,R10,2*
G04 #@! TO.N,Net-(R10-Pad2)*
X132080000Y-73660000D03*
G04 #@! TD*
D10*
G04 #@! TO.P,R12,1*
G04 #@! TO.N,TL074_13*
X147320000Y-73660000D03*
D11*
G04 #@! TO.P,R12,2*
G04 #@! TO.N,GND*
X147320000Y-83820000D03*
G04 #@! TD*
D12*
G04 #@! TO.P,U1,1,NULL*
G04 #@! TO.N,unconnected-(U1-Pad1)*
X172720000Y-48260000D03*
D13*
G04 #@! TO.P,U1,2,-*
G04 #@! TO.N,TL074_2*
X170180000Y-48260000D03*
G04 #@! TO.P,U1,3,+*
G04 #@! TO.N,INPUT*
X167640000Y-48260000D03*
G04 #@! TO.P,U1,4,V-*
G04 #@! TO.N,-12V*
X165100000Y-48260000D03*
G04 #@! TO.P,U1,5,NULL*
G04 #@! TO.N,unconnected-(U1-Pad5)*
X165100000Y-55880000D03*
G04 #@! TO.P,U1,6*
G04 #@! TO.N,TL074_1*
X167640000Y-55880000D03*
G04 #@! TO.P,U1,7,V+*
G04 #@! TO.N,+12V*
X170180000Y-55880000D03*
G04 #@! TO.P,U1,8,NC*
G04 #@! TO.N,unconnected-(U1-Pad8)*
X172720000Y-55880000D03*
G04 #@! TD*
D10*
G04 #@! TO.P,R2,1*
G04 #@! TO.N,Net-(R1-Pad2)*
X186690000Y-38100000D03*
D11*
G04 #@! TO.P,R2,2*
G04 #@! TO.N,-12V*
X186690000Y-48260000D03*
G04 #@! TD*
D10*
G04 #@! TO.P,R13,1*
G04 #@! TO.N,TL074_13*
X157480000Y-83820000D03*
D11*
G04 #@! TO.P,R13,2*
G04 #@! TO.N,TL074_14*
X157480000Y-73660000D03*
G04 #@! TD*
D10*
G04 #@! TO.P,R11,1*
G04 #@! TO.N,Net-(R10-Pad2)*
X137160000Y-73660000D03*
D11*
G04 #@! TO.P,R11,2*
G04 #@! TO.N,Net-(D3-Pad2)*
X137160000Y-83820000D03*
G04 #@! TD*
D14*
G04 #@! TO.P,D3,1,K*
G04 #@! TO.N,GND*
X137160000Y-91440000D03*
D15*
G04 #@! TO.P,D3,2,A*
G04 #@! TO.N,Net-(D3-Pad2)*
X137160000Y-88900000D03*
G04 #@! TD*
D10*
G04 #@! TO.P,R6,1*
G04 #@! TO.N,Net-(R6-Pad1)*
X142240000Y-55880000D03*
D11*
G04 #@! TO.P,R6,2*
G04 #@! TO.N,GND*
X142240000Y-45720000D03*
G04 #@! TD*
D10*
G04 #@! TO.P,R1,1*
G04 #@! TO.N,+12V*
X181610000Y-48260000D03*
D11*
G04 #@! TO.P,R1,2*
G04 #@! TO.N,Net-(R1-Pad2)*
X181610000Y-38100000D03*
G04 #@! TD*
D12*
G04 #@! TO.P,U3,1*
G04 #@! TO.N,TL074_1*
X172720000Y-73660000D03*
D13*
G04 #@! TO.P,U3,2,-*
G04 #@! TO.N,TL074_2*
X170180000Y-73660000D03*
G04 #@! TO.P,U3,3,+*
G04 #@! TO.N,INPUT*
X167640000Y-73660000D03*
G04 #@! TO.P,U3,4,V-*
G04 #@! TO.N,-12V*
X165100000Y-73660000D03*
G04 #@! TO.P,U3,5,+*
G04 #@! TO.N,INPUT*
X165100000Y-81280000D03*
G04 #@! TO.P,U3,6,-*
G04 #@! TO.N,TL074_13*
X167640000Y-81280000D03*
G04 #@! TO.P,U3,7*
G04 #@! TO.N,TL074_14*
X170180000Y-81280000D03*
G04 #@! TO.P,U3,8,V+*
G04 #@! TO.N,+12V*
X172720000Y-81280000D03*
G04 #@! TD*
D10*
G04 #@! TO.P,R14,1*
G04 #@! TO.N,TL074_14*
X152400000Y-73660000D03*
D11*
G04 #@! TO.P,R14,2*
G04 #@! TO.N,Net-(D4-Pad2)*
X152400000Y-83820000D03*
G04 #@! TD*
D10*
G04 #@! TO.P,R3,1*
G04 #@! TO.N,TL074_2*
X147320000Y-55880000D03*
D11*
G04 #@! TO.P,R3,2*
G04 #@! TO.N,GND*
X147320000Y-45720000D03*
G04 #@! TD*
D10*
G04 #@! TO.P,R4,1*
G04 #@! TO.N,TL074_2*
X157480000Y-45720000D03*
D11*
G04 #@! TO.P,R4,2*
G04 #@! TO.N,TL074_1*
X157480000Y-55880000D03*
G04 #@! TD*
D10*
G04 #@! TO.P,R15,1*
G04 #@! TO.N,INPUT*
X176530000Y-48260000D03*
D11*
G04 #@! TO.P,R15,2*
G04 #@! TO.N,GND*
X176530000Y-38100000D03*
G04 #@! TD*
D10*
G04 #@! TO.P,R9,1*
G04 #@! TO.N,Net-(R10-Pad1)*
X142240000Y-73660000D03*
D11*
G04 #@! TO.P,R9,2*
G04 #@! TO.N,GND*
X142240000Y-83820000D03*
G04 #@! TD*
D14*
G04 #@! TO.P,D1,1,K*
G04 #@! TO.N,GND*
X152400000Y-38100000D03*
D15*
G04 #@! TO.P,D1,2,A*
G04 #@! TO.N,Net-(D1-Pad2)*
X152400000Y-40640000D03*
G04 #@! TD*
D10*
G04 #@! TO.P,R7,1*
G04 #@! TO.N,Net-(R6-Pad1)*
X132080000Y-45720000D03*
D11*
G04 #@! TO.P,R7,2*
G04 #@! TO.N,Net-(R7-Pad2)*
X132080000Y-55880000D03*
G04 #@! TD*
D16*
G04 #@! TO.P,J1,1,Pin_1*
G04 #@! TO.N,-12V*
X182880000Y-59690000D03*
D17*
G04 #@! TO.P,J1,2,Pin_2*
G04 #@! TO.N,GND*
X182880000Y-64690000D03*
G04 #@! TO.P,J1,3,Pin_3*
G04 #@! TO.N,+12V*
X182880000Y-69690000D03*
G04 #@! TD*
D14*
G04 #@! TO.P,D4,1,K*
G04 #@! TO.N,GND*
X152400000Y-91440000D03*
D15*
G04 #@! TO.P,D4,2,A*
G04 #@! TO.N,Net-(D4-Pad2)*
X152400000Y-88900000D03*
G04 #@! TD*
D18*
G04 #@! TO.P,SW1,1,1*
G04 #@! TO.N,Net-(R1-Pad2)*
X170180000Y-44600000D03*
X170180000Y-38100000D03*
G04 #@! TO.P,SW1,2,2*
G04 #@! TO.N,INPUT*
X165680000Y-44600000D03*
X165680000Y-38100000D03*
G04 #@! TD*
D14*
G04 #@! TO.P,D2,1,K*
G04 #@! TO.N,GND*
X137160000Y-38100000D03*
D15*
G04 #@! TO.P,D2,2,A*
G04 #@! TO.N,Net-(D2-Pad2)*
X137160000Y-40640000D03*
G04 #@! TD*
D19*
G04 #@! TO.N,+12V*
X146559511Y-59185489D02*
X166874511Y-59185489D01*
X166874511Y-59185489D02*
X170180000Y-55880000D01*
X182880000Y-69690000D02*
X181770000Y-69690000D01*
X172720000Y-78486000D02*
X181516000Y-69690000D01*
X181516000Y-69690000D02*
X182880000Y-69690000D01*
X172720000Y-81280000D02*
X172720000Y-78486000D01*
X144785000Y-60960000D02*
X146559511Y-59185489D01*
G04 #@! TO.N,-12V*
X167005000Y-75565000D02*
X165100000Y-73660000D01*
X182880000Y-59690000D02*
X180805489Y-61764511D01*
X162433000Y-70993000D02*
X147198000Y-70993000D01*
X173964022Y-75565000D02*
X167005000Y-75565000D01*
X165100000Y-73660000D02*
X162433000Y-70993000D01*
X147198000Y-70993000D02*
X144785000Y-68580000D01*
X180805489Y-61764511D02*
X180805489Y-68723533D01*
X180805489Y-68723533D02*
X173964022Y-75565000D01*
D20*
G04 #@! TO.N,INPUT*
X142245000Y-60960000D02*
X143769520Y-62484520D01*
X142245000Y-68580000D02*
X143769520Y-67055480D01*
X145800480Y-62484520D02*
X147325000Y-60960000D01*
X164084520Y-70104520D02*
X167640000Y-73660000D01*
X143769520Y-67055480D02*
X145668480Y-67055480D01*
X148849520Y-70104520D02*
X164084520Y-70104520D01*
X143769520Y-62484520D02*
X145800480Y-62484520D01*
X147325000Y-68580000D02*
X148849520Y-70104520D01*
X145668480Y-67055480D02*
X147193000Y-68580000D01*
X147193000Y-68580000D02*
X147325000Y-68580000D01*
G04 #@! TO.N,TL074_2*
X166175009Y-69655009D02*
X170180000Y-73660000D01*
X149865000Y-60960000D02*
X158560009Y-69655009D01*
X157734000Y-45974000D02*
X157480000Y-45720000D01*
X158560009Y-69655009D02*
X166175009Y-69655009D01*
X167894000Y-45974000D02*
X157734000Y-45974000D01*
X170180000Y-48260000D02*
X167894000Y-45974000D01*
G04 #@! TO.N,TL074_1*
X166115480Y-54355480D02*
X159004520Y-54355480D01*
X159004520Y-54355480D02*
X157480000Y-55880000D01*
X167640000Y-55880000D02*
X166115480Y-54355480D01*
X152400000Y-55880000D02*
X157480000Y-55880000D01*
G04 #@! TO.N,TL074_13*
X167640000Y-81280000D02*
X165100000Y-83820000D01*
X165100000Y-83820000D02*
X157480000Y-83820000D01*
G04 #@! TO.N,TL074_14*
X170180000Y-81280000D02*
X162560000Y-73660000D01*
X162560000Y-73660000D02*
X157480000Y-73660000D01*
X157480000Y-73660000D02*
X152400000Y-73660000D01*
G04 #@! TO.N,Net-(R1-Pad2)*
X181610000Y-38100000D02*
X186690000Y-38100000D01*
X175110000Y-44600000D02*
X170180000Y-44600000D01*
X181610000Y-38100000D02*
X175110000Y-44600000D01*
G04 #@! TO.N,Net-(R7-Pad2)*
X132080000Y-55880000D02*
X137160000Y-55880000D01*
G04 #@! TO.N,Net-(R10-Pad2)*
X132080000Y-73660000D02*
X137160000Y-73660000D01*
G04 #@! TD*
G04 #@! TA.AperFunction,Conductor*
G04 #@! TO.N,GND*
G36*
X189434121Y-35528002D02*
G01*
X189480614Y-35581658D01*
X189492000Y-35634000D01*
X189492000Y-94366000D01*
X189471998Y-94434121D01*
X189418342Y-94480614D01*
X189366000Y-94492000D01*
X129634000Y-94492000D01*
X129565879Y-94471998D01*
X129519386Y-94418342D01*
X129508000Y-94366000D01*
X129508000Y-92384669D01*
X135752001Y-92384669D01*
X135752371Y-92391490D01*
X135757895Y-92442352D01*
X135761521Y-92457604D01*
X135806676Y-92578054D01*
X135815214Y-92593649D01*
X135891715Y-92695724D01*
X135904276Y-92708285D01*
X136006351Y-92784786D01*
X136021946Y-92793324D01*
X136142394Y-92838478D01*
X136157649Y-92842105D01*
X136208514Y-92847631D01*
X136215328Y-92848000D01*
X136887885Y-92848000D01*
X136903124Y-92843525D01*
X136904329Y-92842135D01*
X136906000Y-92834452D01*
X136906000Y-92829884D01*
X137414000Y-92829884D01*
X137418475Y-92845123D01*
X137419865Y-92846328D01*
X137427548Y-92847999D01*
X138104669Y-92847999D01*
X138111490Y-92847629D01*
X138162352Y-92842105D01*
X138177604Y-92838479D01*
X138298054Y-92793324D01*
X138313649Y-92784786D01*
X138415724Y-92708285D01*
X138428285Y-92695724D01*
X138504786Y-92593649D01*
X138513324Y-92578054D01*
X138558478Y-92457606D01*
X138562105Y-92442351D01*
X138567631Y-92391486D01*
X138568000Y-92384672D01*
X138568000Y-92384669D01*
X150992001Y-92384669D01*
X150992371Y-92391490D01*
X150997895Y-92442352D01*
X151001521Y-92457604D01*
X151046676Y-92578054D01*
X151055214Y-92593649D01*
X151131715Y-92695724D01*
X151144276Y-92708285D01*
X151246351Y-92784786D01*
X151261946Y-92793324D01*
X151382394Y-92838478D01*
X151397649Y-92842105D01*
X151448514Y-92847631D01*
X151455328Y-92848000D01*
X152127885Y-92848000D01*
X152143124Y-92843525D01*
X152144329Y-92842135D01*
X152146000Y-92834452D01*
X152146000Y-92829884D01*
X152654000Y-92829884D01*
X152658475Y-92845123D01*
X152659865Y-92846328D01*
X152667548Y-92847999D01*
X153344669Y-92847999D01*
X153351490Y-92847629D01*
X153402352Y-92842105D01*
X153417604Y-92838479D01*
X153538054Y-92793324D01*
X153553649Y-92784786D01*
X153655724Y-92708285D01*
X153668285Y-92695724D01*
X153744786Y-92593649D01*
X153753324Y-92578054D01*
X153798478Y-92457606D01*
X153802105Y-92442351D01*
X153807631Y-92391486D01*
X153808000Y-92384672D01*
X153808000Y-91712115D01*
X153803525Y-91696876D01*
X153802135Y-91695671D01*
X153794452Y-91694000D01*
X152672115Y-91694000D01*
X152656876Y-91698475D01*
X152655671Y-91699865D01*
X152654000Y-91707548D01*
X152654000Y-92829884D01*
X152146000Y-92829884D01*
X152146000Y-91712115D01*
X152141525Y-91696876D01*
X152140135Y-91695671D01*
X152132452Y-91694000D01*
X151010116Y-91694000D01*
X150994877Y-91698475D01*
X150993672Y-91699865D01*
X150992001Y-91707548D01*
X150992001Y-92384669D01*
X138568000Y-92384669D01*
X138568000Y-91712115D01*
X138563525Y-91696876D01*
X138562135Y-91695671D01*
X138554452Y-91694000D01*
X137432115Y-91694000D01*
X137416876Y-91698475D01*
X137415671Y-91699865D01*
X137414000Y-91707548D01*
X137414000Y-92829884D01*
X136906000Y-92829884D01*
X136906000Y-91712115D01*
X136901525Y-91696876D01*
X136900135Y-91695671D01*
X136892452Y-91694000D01*
X135770116Y-91694000D01*
X135754877Y-91698475D01*
X135753672Y-91699865D01*
X135752001Y-91707548D01*
X135752001Y-92384669D01*
X129508000Y-92384669D01*
X129508000Y-88865469D01*
X135747095Y-88865469D01*
X135747392Y-88870622D01*
X135747392Y-88870625D01*
X135753067Y-88969041D01*
X135760427Y-89096697D01*
X135761564Y-89101743D01*
X135761565Y-89101749D01*
X135793741Y-89244523D01*
X135811346Y-89322642D01*
X135813288Y-89327424D01*
X135813289Y-89327428D01*
X135896540Y-89532450D01*
X135898484Y-89537237D01*
X136019501Y-89734719D01*
X136022882Y-89738622D01*
X136131653Y-89864191D01*
X136161135Y-89928776D01*
X136151020Y-89999049D01*
X136104519Y-90052697D01*
X136080646Y-90064670D01*
X136021944Y-90086677D01*
X136006351Y-90095214D01*
X135904276Y-90171715D01*
X135891715Y-90184276D01*
X135815214Y-90286351D01*
X135806676Y-90301946D01*
X135761522Y-90422394D01*
X135757895Y-90437649D01*
X135752369Y-90488514D01*
X135752000Y-90495328D01*
X135752000Y-91167885D01*
X135756475Y-91183124D01*
X135757865Y-91184329D01*
X135765548Y-91186000D01*
X138549884Y-91186000D01*
X138565123Y-91181525D01*
X138566328Y-91180135D01*
X138567999Y-91172452D01*
X138567999Y-90495331D01*
X138567629Y-90488510D01*
X138562105Y-90437648D01*
X138558479Y-90422396D01*
X138513324Y-90301946D01*
X138504786Y-90286351D01*
X138428285Y-90184276D01*
X138415724Y-90171715D01*
X138313649Y-90095214D01*
X138298052Y-90086675D01*
X138239415Y-90064693D01*
X138182650Y-90022052D01*
X138157950Y-89955490D01*
X138173157Y-89886141D01*
X138194703Y-89857461D01*
X138232641Y-89819654D01*
X138236303Y-89816005D01*
X138371458Y-89627917D01*
X138418641Y-89532450D01*
X138471784Y-89424922D01*
X138471785Y-89424920D01*
X138474078Y-89420280D01*
X138541408Y-89198671D01*
X138571640Y-88969041D01*
X138573327Y-88900000D01*
X138570488Y-88865469D01*
X150987095Y-88865469D01*
X150987392Y-88870622D01*
X150987392Y-88870625D01*
X150993067Y-88969041D01*
X151000427Y-89096697D01*
X151001564Y-89101743D01*
X151001565Y-89101749D01*
X151033741Y-89244523D01*
X151051346Y-89322642D01*
X151053288Y-89327424D01*
X151053289Y-89327428D01*
X151136540Y-89532450D01*
X151138484Y-89537237D01*
X151259501Y-89734719D01*
X151262882Y-89738622D01*
X151371653Y-89864191D01*
X151401135Y-89928776D01*
X151391020Y-89999049D01*
X151344519Y-90052697D01*
X151320646Y-90064670D01*
X151261944Y-90086677D01*
X151246351Y-90095214D01*
X151144276Y-90171715D01*
X151131715Y-90184276D01*
X151055214Y-90286351D01*
X151046676Y-90301946D01*
X151001522Y-90422394D01*
X150997895Y-90437649D01*
X150992369Y-90488514D01*
X150992000Y-90495328D01*
X150992000Y-91167885D01*
X150996475Y-91183124D01*
X150997865Y-91184329D01*
X151005548Y-91186000D01*
X153789884Y-91186000D01*
X153805123Y-91181525D01*
X153806328Y-91180135D01*
X153807999Y-91172452D01*
X153807999Y-90495331D01*
X153807629Y-90488510D01*
X153802105Y-90437648D01*
X153798479Y-90422396D01*
X153753324Y-90301946D01*
X153744786Y-90286351D01*
X153668285Y-90184276D01*
X153655724Y-90171715D01*
X153553649Y-90095214D01*
X153538052Y-90086675D01*
X153479415Y-90064693D01*
X153422650Y-90022052D01*
X153397950Y-89955490D01*
X153413157Y-89886141D01*
X153434703Y-89857461D01*
X153472641Y-89819654D01*
X153476303Y-89816005D01*
X153611458Y-89627917D01*
X153658641Y-89532450D01*
X153711784Y-89424922D01*
X153711785Y-89424920D01*
X153714078Y-89420280D01*
X153781408Y-89198671D01*
X153811640Y-88969041D01*
X153813327Y-88900000D01*
X153807032Y-88823434D01*
X153794773Y-88674318D01*
X153794772Y-88674312D01*
X153794349Y-88669167D01*
X153737925Y-88444533D01*
X153735866Y-88439797D01*
X153647630Y-88236868D01*
X153647628Y-88236865D01*
X153645570Y-88232131D01*
X153519764Y-88037665D01*
X153363887Y-87866358D01*
X153359836Y-87863159D01*
X153359832Y-87863155D01*
X153186177Y-87726011D01*
X153186172Y-87726008D01*
X153182123Y-87722810D01*
X153177607Y-87720317D01*
X153177604Y-87720315D01*
X152983879Y-87613373D01*
X152983875Y-87613371D01*
X152979355Y-87610876D01*
X152974486Y-87609152D01*
X152974482Y-87609150D01*
X152765903Y-87535288D01*
X152765899Y-87535287D01*
X152761028Y-87533562D01*
X152755935Y-87532655D01*
X152755932Y-87532654D01*
X152538095Y-87493851D01*
X152538089Y-87493850D01*
X152533006Y-87492945D01*
X152460096Y-87492054D01*
X152306581Y-87490179D01*
X152306579Y-87490179D01*
X152301411Y-87490116D01*
X152072464Y-87525150D01*
X151852314Y-87597106D01*
X151847726Y-87599494D01*
X151847722Y-87599496D01*
X151821065Y-87613373D01*
X151646872Y-87704052D01*
X151642739Y-87707155D01*
X151642736Y-87707157D01*
X151617625Y-87726011D01*
X151461655Y-87843117D01*
X151301639Y-88010564D01*
X151298725Y-88014836D01*
X151298724Y-88014837D01*
X151283152Y-88037665D01*
X151171119Y-88201899D01*
X151073602Y-88411981D01*
X151011707Y-88635169D01*
X150987095Y-88865469D01*
X138570488Y-88865469D01*
X138567032Y-88823434D01*
X138554773Y-88674318D01*
X138554772Y-88674312D01*
X138554349Y-88669167D01*
X138497925Y-88444533D01*
X138495866Y-88439797D01*
X138407630Y-88236868D01*
X138407628Y-88236865D01*
X138405570Y-88232131D01*
X138279764Y-88037665D01*
X138123887Y-87866358D01*
X138119836Y-87863159D01*
X138119832Y-87863155D01*
X137946177Y-87726011D01*
X137946172Y-87726008D01*
X137942123Y-87722810D01*
X137937607Y-87720317D01*
X137937604Y-87720315D01*
X137743879Y-87613373D01*
X137743875Y-87613371D01*
X137739355Y-87610876D01*
X137734486Y-87609152D01*
X137734482Y-87609150D01*
X137525903Y-87535288D01*
X137525899Y-87535287D01*
X137521028Y-87533562D01*
X137515935Y-87532655D01*
X137515932Y-87532654D01*
X137298095Y-87493851D01*
X137298089Y-87493850D01*
X137293006Y-87492945D01*
X137220096Y-87492054D01*
X137066581Y-87490179D01*
X137066579Y-87490179D01*
X137061411Y-87490116D01*
X136832464Y-87525150D01*
X136612314Y-87597106D01*
X136607726Y-87599494D01*
X136607722Y-87599496D01*
X136581065Y-87613373D01*
X136406872Y-87704052D01*
X136402739Y-87707155D01*
X136402736Y-87707157D01*
X136377625Y-87726011D01*
X136221655Y-87843117D01*
X136061639Y-88010564D01*
X136058725Y-88014836D01*
X136058724Y-88014837D01*
X136043152Y-88037665D01*
X135931119Y-88201899D01*
X135833602Y-88411981D01*
X135771707Y-88635169D01*
X135747095Y-88865469D01*
X129508000Y-88865469D01*
X129508000Y-83820000D01*
X130766502Y-83820000D01*
X130786457Y-84048087D01*
X130787881Y-84053400D01*
X130787881Y-84053402D01*
X130840934Y-84251395D01*
X130845716Y-84269243D01*
X130848039Y-84274224D01*
X130848039Y-84274225D01*
X130940151Y-84471762D01*
X130940154Y-84471767D01*
X130942477Y-84476749D01*
X131073802Y-84664300D01*
X131235700Y-84826198D01*
X131240208Y-84829355D01*
X131240211Y-84829357D01*
X131318389Y-84884098D01*
X131423251Y-84957523D01*
X131428233Y-84959846D01*
X131428238Y-84959849D01*
X131624765Y-85051490D01*
X131630757Y-85054284D01*
X131636065Y-85055706D01*
X131636067Y-85055707D01*
X131846598Y-85112119D01*
X131846600Y-85112119D01*
X131851913Y-85113543D01*
X132080000Y-85133498D01*
X132308087Y-85113543D01*
X132313400Y-85112119D01*
X132313402Y-85112119D01*
X132523933Y-85055707D01*
X132523935Y-85055706D01*
X132529243Y-85054284D01*
X132535235Y-85051490D01*
X132731762Y-84959849D01*
X132731767Y-84959846D01*
X132736749Y-84957523D01*
X132841611Y-84884098D01*
X132919789Y-84829357D01*
X132919792Y-84829355D01*
X132924300Y-84826198D01*
X133086198Y-84664300D01*
X133217523Y-84476749D01*
X133219846Y-84471767D01*
X133219849Y-84471762D01*
X133311961Y-84274225D01*
X133311961Y-84274224D01*
X133314284Y-84269243D01*
X133319067Y-84251395D01*
X133372119Y-84053402D01*
X133372119Y-84053400D01*
X133373543Y-84048087D01*
X133393498Y-83820000D01*
X135846502Y-83820000D01*
X135866457Y-84048087D01*
X135867881Y-84053400D01*
X135867881Y-84053402D01*
X135920934Y-84251395D01*
X135925716Y-84269243D01*
X135928039Y-84274224D01*
X135928039Y-84274225D01*
X136020151Y-84471762D01*
X136020154Y-84471767D01*
X136022477Y-84476749D01*
X136153802Y-84664300D01*
X136315700Y-84826198D01*
X136320208Y-84829355D01*
X136320211Y-84829357D01*
X136398389Y-84884098D01*
X136503251Y-84957523D01*
X136508233Y-84959846D01*
X136508238Y-84959849D01*
X136704765Y-85051490D01*
X136710757Y-85054284D01*
X136716065Y-85055706D01*
X136716067Y-85055707D01*
X136926598Y-85112119D01*
X136926600Y-85112119D01*
X136931913Y-85113543D01*
X137160000Y-85133498D01*
X137388087Y-85113543D01*
X137393400Y-85112119D01*
X137393402Y-85112119D01*
X137603933Y-85055707D01*
X137603935Y-85055706D01*
X137609243Y-85054284D01*
X137615235Y-85051490D01*
X137811762Y-84959849D01*
X137811767Y-84959846D01*
X137816749Y-84957523D01*
X137921611Y-84884098D01*
X137999789Y-84829357D01*
X137999792Y-84829355D01*
X138004300Y-84826198D01*
X138166198Y-84664300D01*
X138297523Y-84476749D01*
X138299846Y-84471767D01*
X138299849Y-84471762D01*
X138391961Y-84274225D01*
X138391961Y-84274224D01*
X138394284Y-84269243D01*
X138399067Y-84251395D01*
X138443245Y-84086522D01*
X140957273Y-84086522D01*
X141004764Y-84263761D01*
X141008510Y-84274053D01*
X141100586Y-84471511D01*
X141106069Y-84481007D01*
X141231028Y-84659467D01*
X141238084Y-84667875D01*
X141392125Y-84821916D01*
X141400533Y-84828972D01*
X141578993Y-84953931D01*
X141588489Y-84959414D01*
X141785947Y-85051490D01*
X141796239Y-85055236D01*
X141968503Y-85101394D01*
X141982599Y-85101058D01*
X141986000Y-85093116D01*
X141986000Y-85087967D01*
X142494000Y-85087967D01*
X142497973Y-85101498D01*
X142506522Y-85102727D01*
X142683761Y-85055236D01*
X142694053Y-85051490D01*
X142891511Y-84959414D01*
X142901007Y-84953931D01*
X143079467Y-84828972D01*
X143087875Y-84821916D01*
X143241916Y-84667875D01*
X143248972Y-84659467D01*
X143373931Y-84481007D01*
X143379414Y-84471511D01*
X143471490Y-84274053D01*
X143475236Y-84263761D01*
X143521394Y-84091497D01*
X143521275Y-84086522D01*
X146037273Y-84086522D01*
X146084764Y-84263761D01*
X146088510Y-84274053D01*
X146180586Y-84471511D01*
X146186069Y-84481007D01*
X146311028Y-84659467D01*
X146318084Y-84667875D01*
X146472125Y-84821916D01*
X146480533Y-84828972D01*
X146658993Y-84953931D01*
X146668489Y-84959414D01*
X146865947Y-85051490D01*
X146876239Y-85055236D01*
X147048503Y-85101394D01*
X147062599Y-85101058D01*
X147066000Y-85093116D01*
X147066000Y-85087967D01*
X147574000Y-85087967D01*
X147577973Y-85101498D01*
X147586522Y-85102727D01*
X147763761Y-85055236D01*
X147774053Y-85051490D01*
X147971511Y-84959414D01*
X147981007Y-84953931D01*
X148159467Y-84828972D01*
X148167875Y-84821916D01*
X148321916Y-84667875D01*
X148328972Y-84659467D01*
X148453931Y-84481007D01*
X148459414Y-84471511D01*
X148551490Y-84274053D01*
X148555236Y-84263761D01*
X148601394Y-84091497D01*
X148601058Y-84077401D01*
X148593116Y-84074000D01*
X147592115Y-84074000D01*
X147576876Y-84078475D01*
X147575671Y-84079865D01*
X147574000Y-84087548D01*
X147574000Y-85087967D01*
X147066000Y-85087967D01*
X147066000Y-84092115D01*
X147061525Y-84076876D01*
X147060135Y-84075671D01*
X147052452Y-84074000D01*
X146052033Y-84074000D01*
X146038502Y-84077973D01*
X146037273Y-84086522D01*
X143521275Y-84086522D01*
X143521058Y-84077401D01*
X143513116Y-84074000D01*
X142512115Y-84074000D01*
X142496876Y-84078475D01*
X142495671Y-84079865D01*
X142494000Y-84087548D01*
X142494000Y-85087967D01*
X141986000Y-85087967D01*
X141986000Y-84092115D01*
X141981525Y-84076876D01*
X141980135Y-84075671D01*
X141972452Y-84074000D01*
X140972033Y-84074000D01*
X140958502Y-84077973D01*
X140957273Y-84086522D01*
X138443245Y-84086522D01*
X138452119Y-84053402D01*
X138452119Y-84053400D01*
X138453543Y-84048087D01*
X138473498Y-83820000D01*
X151086502Y-83820000D01*
X151106457Y-84048087D01*
X151107881Y-84053400D01*
X151107881Y-84053402D01*
X151160934Y-84251395D01*
X151165716Y-84269243D01*
X151168039Y-84274224D01*
X151168039Y-84274225D01*
X151260151Y-84471762D01*
X151260154Y-84471767D01*
X151262477Y-84476749D01*
X151393802Y-84664300D01*
X151555700Y-84826198D01*
X151560208Y-84829355D01*
X151560211Y-84829357D01*
X151638389Y-84884098D01*
X151743251Y-84957523D01*
X151748233Y-84959846D01*
X151748238Y-84959849D01*
X151944765Y-85051490D01*
X151950757Y-85054284D01*
X151956065Y-85055706D01*
X151956067Y-85055707D01*
X152166598Y-85112119D01*
X152166600Y-85112119D01*
X152171913Y-85113543D01*
X152400000Y-85133498D01*
X152628087Y-85113543D01*
X152633400Y-85112119D01*
X152633402Y-85112119D01*
X152843933Y-85055707D01*
X152843935Y-85055706D01*
X152849243Y-85054284D01*
X152855235Y-85051490D01*
X153051762Y-84959849D01*
X153051767Y-84959846D01*
X153056749Y-84957523D01*
X153161611Y-84884098D01*
X153239789Y-84829357D01*
X153239792Y-84829355D01*
X153244300Y-84826198D01*
X153406198Y-84664300D01*
X153537523Y-84476749D01*
X153539846Y-84471767D01*
X153539849Y-84471762D01*
X153631961Y-84274225D01*
X153631961Y-84274224D01*
X153634284Y-84269243D01*
X153639067Y-84251395D01*
X153692119Y-84053402D01*
X153692119Y-84053400D01*
X153693543Y-84048087D01*
X153713498Y-83820000D01*
X153693543Y-83591913D01*
X153683244Y-83553478D01*
X153635707Y-83376067D01*
X153635706Y-83376065D01*
X153634284Y-83370757D01*
X153631961Y-83365775D01*
X153539849Y-83168238D01*
X153539846Y-83168233D01*
X153537523Y-83163251D01*
X153450946Y-83039606D01*
X153409357Y-82980211D01*
X153409355Y-82980208D01*
X153406198Y-82975700D01*
X153244300Y-82813802D01*
X153239792Y-82810645D01*
X153239789Y-82810643D01*
X153161611Y-82755902D01*
X153056749Y-82682477D01*
X153051767Y-82680154D01*
X153051762Y-82680151D01*
X152854225Y-82588039D01*
X152854224Y-82588039D01*
X152849243Y-82585716D01*
X152843935Y-82584294D01*
X152843933Y-82584293D01*
X152633402Y-82527881D01*
X152633400Y-82527881D01*
X152628087Y-82526457D01*
X152400000Y-82506502D01*
X152171913Y-82526457D01*
X152166600Y-82527881D01*
X152166598Y-82527881D01*
X151956067Y-82584293D01*
X151956065Y-82584294D01*
X151950757Y-82585716D01*
X151945776Y-82588039D01*
X151945775Y-82588039D01*
X151748238Y-82680151D01*
X151748233Y-82680154D01*
X151743251Y-82682477D01*
X151638389Y-82755902D01*
X151560211Y-82810643D01*
X151560208Y-82810645D01*
X151555700Y-82813802D01*
X151393802Y-82975700D01*
X151390645Y-82980208D01*
X151390643Y-82980211D01*
X151349054Y-83039606D01*
X151262477Y-83163251D01*
X151260154Y-83168233D01*
X151260151Y-83168238D01*
X151168039Y-83365775D01*
X151165716Y-83370757D01*
X151164294Y-83376065D01*
X151164293Y-83376067D01*
X151116756Y-83553478D01*
X151106457Y-83591913D01*
X151086502Y-83820000D01*
X138473498Y-83820000D01*
X138453543Y-83591913D01*
X138443244Y-83553478D01*
X138441911Y-83548503D01*
X140958606Y-83548503D01*
X140958942Y-83562599D01*
X140966884Y-83566000D01*
X141967885Y-83566000D01*
X141983124Y-83561525D01*
X141984329Y-83560135D01*
X141986000Y-83552452D01*
X141986000Y-83547885D01*
X142494000Y-83547885D01*
X142498475Y-83563124D01*
X142499865Y-83564329D01*
X142507548Y-83566000D01*
X143507967Y-83566000D01*
X143521498Y-83562027D01*
X143522727Y-83553478D01*
X143521394Y-83548503D01*
X146038606Y-83548503D01*
X146038942Y-83562599D01*
X146046884Y-83566000D01*
X147047885Y-83566000D01*
X147063124Y-83561525D01*
X147064329Y-83560135D01*
X147066000Y-83552452D01*
X147066000Y-83547885D01*
X147574000Y-83547885D01*
X147578475Y-83563124D01*
X147579865Y-83564329D01*
X147587548Y-83566000D01*
X148587967Y-83566000D01*
X148601498Y-83562027D01*
X148602727Y-83553478D01*
X148555236Y-83376239D01*
X148551490Y-83365947D01*
X148459414Y-83168489D01*
X148453931Y-83158993D01*
X148328972Y-82980533D01*
X148321916Y-82972125D01*
X148167875Y-82818084D01*
X148159467Y-82811028D01*
X147981007Y-82686069D01*
X147971511Y-82680586D01*
X147774053Y-82588510D01*
X147763761Y-82584764D01*
X147591497Y-82538606D01*
X147577401Y-82538942D01*
X147574000Y-82546884D01*
X147574000Y-83547885D01*
X147066000Y-83547885D01*
X147066000Y-82552033D01*
X147062027Y-82538502D01*
X147053478Y-82537273D01*
X146876239Y-82584764D01*
X146865947Y-82588510D01*
X146668489Y-82680586D01*
X146658993Y-82686069D01*
X146480533Y-82811028D01*
X146472125Y-82818084D01*
X146318084Y-82972125D01*
X146311028Y-82980533D01*
X146186069Y-83158993D01*
X146180586Y-83168489D01*
X146088510Y-83365947D01*
X146084764Y-83376239D01*
X146038606Y-83548503D01*
X143521394Y-83548503D01*
X143475236Y-83376239D01*
X143471490Y-83365947D01*
X143379414Y-83168489D01*
X143373931Y-83158993D01*
X143248972Y-82980533D01*
X143241916Y-82972125D01*
X143087875Y-82818084D01*
X143079467Y-82811028D01*
X142901007Y-82686069D01*
X142891511Y-82680586D01*
X142694053Y-82588510D01*
X142683761Y-82584764D01*
X142511497Y-82538606D01*
X142497401Y-82538942D01*
X142494000Y-82546884D01*
X142494000Y-83547885D01*
X141986000Y-83547885D01*
X141986000Y-82552033D01*
X141982027Y-82538502D01*
X141973478Y-82537273D01*
X141796239Y-82584764D01*
X141785947Y-82588510D01*
X141588489Y-82680586D01*
X141578993Y-82686069D01*
X141400533Y-82811028D01*
X141392125Y-82818084D01*
X141238084Y-82972125D01*
X141231028Y-82980533D01*
X141106069Y-83158993D01*
X141100586Y-83168489D01*
X141008510Y-83365947D01*
X141004764Y-83376239D01*
X140958606Y-83548503D01*
X138441911Y-83548503D01*
X138395707Y-83376067D01*
X138395706Y-83376065D01*
X138394284Y-83370757D01*
X138391961Y-83365775D01*
X138299849Y-83168238D01*
X138299846Y-83168233D01*
X138297523Y-83163251D01*
X138210946Y-83039606D01*
X138169357Y-82980211D01*
X138169355Y-82980208D01*
X138166198Y-82975700D01*
X138004300Y-82813802D01*
X137999792Y-82810645D01*
X137999789Y-82810643D01*
X137921611Y-82755902D01*
X137816749Y-82682477D01*
X137811767Y-82680154D01*
X137811762Y-82680151D01*
X137614225Y-82588039D01*
X137614224Y-82588039D01*
X137609243Y-82585716D01*
X137603935Y-82584294D01*
X137603933Y-82584293D01*
X137393402Y-82527881D01*
X137393400Y-82527881D01*
X137388087Y-82526457D01*
X137160000Y-82506502D01*
X136931913Y-82526457D01*
X136926600Y-82527881D01*
X136926598Y-82527881D01*
X136716067Y-82584293D01*
X136716065Y-82584294D01*
X136710757Y-82585716D01*
X136705776Y-82588039D01*
X136705775Y-82588039D01*
X136508238Y-82680151D01*
X136508233Y-82680154D01*
X136503251Y-82682477D01*
X136398389Y-82755902D01*
X136320211Y-82810643D01*
X136320208Y-82810645D01*
X136315700Y-82813802D01*
X136153802Y-82975700D01*
X136150645Y-82980208D01*
X136150643Y-82980211D01*
X136109054Y-83039606D01*
X136022477Y-83163251D01*
X136020154Y-83168233D01*
X136020151Y-83168238D01*
X135928039Y-83365775D01*
X135925716Y-83370757D01*
X135924294Y-83376065D01*
X135924293Y-83376067D01*
X135876756Y-83553478D01*
X135866457Y-83591913D01*
X135846502Y-83820000D01*
X133393498Y-83820000D01*
X133373543Y-83591913D01*
X133363244Y-83553478D01*
X133315707Y-83376067D01*
X133315706Y-83376065D01*
X133314284Y-83370757D01*
X133311961Y-83365775D01*
X133219849Y-83168238D01*
X133219846Y-83168233D01*
X133217523Y-83163251D01*
X133130946Y-83039606D01*
X133089357Y-82980211D01*
X133089355Y-82980208D01*
X133086198Y-82975700D01*
X132924300Y-82813802D01*
X132919792Y-82810645D01*
X132919789Y-82810643D01*
X132841611Y-82755902D01*
X132736749Y-82682477D01*
X132731767Y-82680154D01*
X132731762Y-82680151D01*
X132534225Y-82588039D01*
X132534224Y-82588039D01*
X132529243Y-82585716D01*
X132523935Y-82584294D01*
X132523933Y-82584293D01*
X132313402Y-82527881D01*
X132313400Y-82527881D01*
X132308087Y-82526457D01*
X132080000Y-82506502D01*
X131851913Y-82526457D01*
X131846600Y-82527881D01*
X131846598Y-82527881D01*
X131636067Y-82584293D01*
X131636065Y-82584294D01*
X131630757Y-82585716D01*
X131625776Y-82588039D01*
X131625775Y-82588039D01*
X131428238Y-82680151D01*
X131428233Y-82680154D01*
X131423251Y-82682477D01*
X131318389Y-82755902D01*
X131240211Y-82810643D01*
X131240208Y-82810645D01*
X131235700Y-82813802D01*
X131073802Y-82975700D01*
X131070645Y-82980208D01*
X131070643Y-82980211D01*
X131029054Y-83039606D01*
X130942477Y-83163251D01*
X130940154Y-83168233D01*
X130940151Y-83168238D01*
X130848039Y-83365775D01*
X130845716Y-83370757D01*
X130844294Y-83376065D01*
X130844293Y-83376067D01*
X130796756Y-83553478D01*
X130786457Y-83591913D01*
X130766502Y-83820000D01*
X129508000Y-83820000D01*
X129508000Y-73660000D01*
X130766502Y-73660000D01*
X130786457Y-73888087D01*
X130787881Y-73893400D01*
X130787881Y-73893402D01*
X130804618Y-73955863D01*
X130845716Y-74109243D01*
X130848039Y-74114224D01*
X130848039Y-74114225D01*
X130940151Y-74311762D01*
X130940154Y-74311767D01*
X130942477Y-74316749D01*
X131073802Y-74504300D01*
X131235700Y-74666198D01*
X131240208Y-74669355D01*
X131240211Y-74669357D01*
X131257553Y-74681500D01*
X131423251Y-74797523D01*
X131428233Y-74799846D01*
X131428238Y-74799849D01*
X131625775Y-74891961D01*
X131630757Y-74894284D01*
X131636065Y-74895706D01*
X131636067Y-74895707D01*
X131846598Y-74952119D01*
X131846600Y-74952119D01*
X131851913Y-74953543D01*
X132080000Y-74973498D01*
X132308087Y-74953543D01*
X132313400Y-74952119D01*
X132313402Y-74952119D01*
X132523933Y-74895707D01*
X132523935Y-74895706D01*
X132529243Y-74894284D01*
X132534225Y-74891961D01*
X132731762Y-74799849D01*
X132731767Y-74799846D01*
X132736749Y-74797523D01*
X132902447Y-74681500D01*
X132919789Y-74669357D01*
X132919792Y-74669355D01*
X132924300Y-74666198D01*
X133086198Y-74504300D01*
X133196181Y-74347229D01*
X133251638Y-74302901D01*
X133299394Y-74293500D01*
X135940606Y-74293500D01*
X136008727Y-74313502D01*
X136043819Y-74347229D01*
X136153802Y-74504300D01*
X136315700Y-74666198D01*
X136320208Y-74669355D01*
X136320211Y-74669357D01*
X136337553Y-74681500D01*
X136503251Y-74797523D01*
X136508233Y-74799846D01*
X136508238Y-74799849D01*
X136705775Y-74891961D01*
X136710757Y-74894284D01*
X136716065Y-74895706D01*
X136716067Y-74895707D01*
X136926598Y-74952119D01*
X136926600Y-74952119D01*
X136931913Y-74953543D01*
X137160000Y-74973498D01*
X137388087Y-74953543D01*
X137393400Y-74952119D01*
X137393402Y-74952119D01*
X137603933Y-74895707D01*
X137603935Y-74895706D01*
X137609243Y-74894284D01*
X137614225Y-74891961D01*
X137811762Y-74799849D01*
X137811767Y-74799846D01*
X137816749Y-74797523D01*
X137982447Y-74681500D01*
X137999789Y-74669357D01*
X137999792Y-74669355D01*
X138004300Y-74666198D01*
X138166198Y-74504300D01*
X138297523Y-74316749D01*
X138299846Y-74311767D01*
X138299849Y-74311762D01*
X138391961Y-74114225D01*
X138391961Y-74114224D01*
X138394284Y-74109243D01*
X138435383Y-73955863D01*
X138452119Y-73893402D01*
X138452119Y-73893400D01*
X138453543Y-73888087D01*
X138473498Y-73660000D01*
X140926502Y-73660000D01*
X140946457Y-73888087D01*
X140947881Y-73893400D01*
X140947881Y-73893402D01*
X140964618Y-73955863D01*
X141005716Y-74109243D01*
X141008039Y-74114224D01*
X141008039Y-74114225D01*
X141100151Y-74311762D01*
X141100154Y-74311767D01*
X141102477Y-74316749D01*
X141233802Y-74504300D01*
X141395700Y-74666198D01*
X141400208Y-74669355D01*
X141400211Y-74669357D01*
X141417553Y-74681500D01*
X141583251Y-74797523D01*
X141588233Y-74799846D01*
X141588238Y-74799849D01*
X141785775Y-74891961D01*
X141790757Y-74894284D01*
X141796065Y-74895706D01*
X141796067Y-74895707D01*
X142006598Y-74952119D01*
X142006600Y-74952119D01*
X142011913Y-74953543D01*
X142240000Y-74973498D01*
X142468087Y-74953543D01*
X142473400Y-74952119D01*
X142473402Y-74952119D01*
X142683933Y-74895707D01*
X142683935Y-74895706D01*
X142689243Y-74894284D01*
X142694225Y-74891961D01*
X142891762Y-74799849D01*
X142891767Y-74799846D01*
X142896749Y-74797523D01*
X143062447Y-74681500D01*
X143079789Y-74669357D01*
X143079792Y-74669355D01*
X143084300Y-74666198D01*
X143246198Y-74504300D01*
X143377523Y-74316749D01*
X143379846Y-74311767D01*
X143379849Y-74311762D01*
X143471961Y-74114225D01*
X143471961Y-74114224D01*
X143474284Y-74109243D01*
X143515383Y-73955863D01*
X143532119Y-73893402D01*
X143532119Y-73893400D01*
X143533543Y-73888087D01*
X143553498Y-73660000D01*
X146006502Y-73660000D01*
X146026457Y-73888087D01*
X146027881Y-73893400D01*
X146027881Y-73893402D01*
X146044618Y-73955863D01*
X146085716Y-74109243D01*
X146088039Y-74114224D01*
X146088039Y-74114225D01*
X146180151Y-74311762D01*
X146180154Y-74311767D01*
X146182477Y-74316749D01*
X146313802Y-74504300D01*
X146475700Y-74666198D01*
X146480208Y-74669355D01*
X146480211Y-74669357D01*
X146497553Y-74681500D01*
X146663251Y-74797523D01*
X146668233Y-74799846D01*
X146668238Y-74799849D01*
X146865775Y-74891961D01*
X146870757Y-74894284D01*
X146876065Y-74895706D01*
X146876067Y-74895707D01*
X147086598Y-74952119D01*
X147086600Y-74952119D01*
X147091913Y-74953543D01*
X147320000Y-74973498D01*
X147548087Y-74953543D01*
X147553400Y-74952119D01*
X147553402Y-74952119D01*
X147763933Y-74895707D01*
X147763935Y-74895706D01*
X147769243Y-74894284D01*
X147774225Y-74891961D01*
X147971762Y-74799849D01*
X147971767Y-74799846D01*
X147976749Y-74797523D01*
X148142447Y-74681500D01*
X148159789Y-74669357D01*
X148159792Y-74669355D01*
X148164300Y-74666198D01*
X148326198Y-74504300D01*
X148457523Y-74316749D01*
X148459846Y-74311767D01*
X148459849Y-74311762D01*
X148551961Y-74114225D01*
X148551961Y-74114224D01*
X148554284Y-74109243D01*
X148595383Y-73955863D01*
X148612119Y-73893402D01*
X148612119Y-73893400D01*
X148613543Y-73888087D01*
X148633498Y-73660000D01*
X148613543Y-73431913D01*
X148554284Y-73210757D01*
X148540591Y-73181392D01*
X148459849Y-73008238D01*
X148459846Y-73008233D01*
X148457523Y-73003251D01*
X148326198Y-72815700D01*
X148164300Y-72653802D01*
X148159792Y-72650645D01*
X148159789Y-72650643D01*
X148081611Y-72595902D01*
X147976749Y-72522477D01*
X147971767Y-72520154D01*
X147971762Y-72520151D01*
X147774225Y-72428039D01*
X147774224Y-72428039D01*
X147769243Y-72425716D01*
X147763935Y-72424294D01*
X147763933Y-72424293D01*
X147553402Y-72367881D01*
X147553400Y-72367881D01*
X147548087Y-72366457D01*
X147320000Y-72346502D01*
X147091913Y-72366457D01*
X147086600Y-72367881D01*
X147086598Y-72367881D01*
X146876067Y-72424293D01*
X146876065Y-72424294D01*
X146870757Y-72425716D01*
X146865776Y-72428039D01*
X146865775Y-72428039D01*
X146668238Y-72520151D01*
X146668233Y-72520154D01*
X146663251Y-72522477D01*
X146558389Y-72595902D01*
X146480211Y-72650643D01*
X146480208Y-72650645D01*
X146475700Y-72653802D01*
X146313802Y-72815700D01*
X146182477Y-73003251D01*
X146180154Y-73008233D01*
X146180151Y-73008238D01*
X146099409Y-73181392D01*
X146085716Y-73210757D01*
X146026457Y-73431913D01*
X146006502Y-73660000D01*
X143553498Y-73660000D01*
X143533543Y-73431913D01*
X143474284Y-73210757D01*
X143460591Y-73181392D01*
X143379849Y-73008238D01*
X143379846Y-73008233D01*
X143377523Y-73003251D01*
X143246198Y-72815700D01*
X143084300Y-72653802D01*
X143079792Y-72650645D01*
X143079789Y-72650643D01*
X143001611Y-72595902D01*
X142896749Y-72522477D01*
X142891767Y-72520154D01*
X142891762Y-72520151D01*
X142694225Y-72428039D01*
X142694224Y-72428039D01*
X142689243Y-72425716D01*
X142683935Y-72424294D01*
X142683933Y-72424293D01*
X142473402Y-72367881D01*
X142473400Y-72367881D01*
X142468087Y-72366457D01*
X142240000Y-72346502D01*
X142011913Y-72366457D01*
X142006600Y-72367881D01*
X142006598Y-72367881D01*
X141796067Y-72424293D01*
X141796065Y-72424294D01*
X141790757Y-72425716D01*
X141785776Y-72428039D01*
X141785775Y-72428039D01*
X141588238Y-72520151D01*
X141588233Y-72520154D01*
X141583251Y-72522477D01*
X141478389Y-72595902D01*
X141400211Y-72650643D01*
X141400208Y-72650645D01*
X141395700Y-72653802D01*
X141233802Y-72815700D01*
X141102477Y-73003251D01*
X141100154Y-73008233D01*
X141100151Y-73008238D01*
X141019409Y-73181392D01*
X141005716Y-73210757D01*
X140946457Y-73431913D01*
X140926502Y-73660000D01*
X138473498Y-73660000D01*
X138453543Y-73431913D01*
X138394284Y-73210757D01*
X138380591Y-73181392D01*
X138299849Y-73008238D01*
X138299846Y-73008233D01*
X138297523Y-73003251D01*
X138166198Y-72815700D01*
X138004300Y-72653802D01*
X137999792Y-72650645D01*
X137999789Y-72650643D01*
X137921611Y-72595902D01*
X137816749Y-72522477D01*
X137811767Y-72520154D01*
X137811762Y-72520151D01*
X137614225Y-72428039D01*
X137614224Y-72428039D01*
X137609243Y-72425716D01*
X137603935Y-72424294D01*
X137603933Y-72424293D01*
X137393402Y-72367881D01*
X137393400Y-72367881D01*
X137388087Y-72366457D01*
X137160000Y-72346502D01*
X136931913Y-72366457D01*
X136926600Y-72367881D01*
X136926598Y-72367881D01*
X136716067Y-72424293D01*
X136716065Y-72424294D01*
X136710757Y-72425716D01*
X136705776Y-72428039D01*
X136705775Y-72428039D01*
X136508238Y-72520151D01*
X136508233Y-72520154D01*
X136503251Y-72522477D01*
X136398389Y-72595902D01*
X136320211Y-72650643D01*
X136320208Y-72650645D01*
X136315700Y-72653802D01*
X136153802Y-72815700D01*
X136150645Y-72820208D01*
X136150643Y-72820211D01*
X136043819Y-72972771D01*
X135988362Y-73017099D01*
X135940606Y-73026500D01*
X133299394Y-73026500D01*
X133231273Y-73006498D01*
X133196181Y-72972771D01*
X133089357Y-72820211D01*
X133089355Y-72820208D01*
X133086198Y-72815700D01*
X132924300Y-72653802D01*
X132919792Y-72650645D01*
X132919789Y-72650643D01*
X132841611Y-72595902D01*
X132736749Y-72522477D01*
X132731767Y-72520154D01*
X132731762Y-72520151D01*
X132534225Y-72428039D01*
X132534224Y-72428039D01*
X132529243Y-72425716D01*
X132523935Y-72424294D01*
X132523933Y-72424293D01*
X132313402Y-72367881D01*
X132313400Y-72367881D01*
X132308087Y-72366457D01*
X132080000Y-72346502D01*
X131851913Y-72366457D01*
X131846600Y-72367881D01*
X131846598Y-72367881D01*
X131636067Y-72424293D01*
X131636065Y-72424294D01*
X131630757Y-72425716D01*
X131625776Y-72428039D01*
X131625775Y-72428039D01*
X131428238Y-72520151D01*
X131428233Y-72520154D01*
X131423251Y-72522477D01*
X131318389Y-72595902D01*
X131240211Y-72650643D01*
X131240208Y-72650645D01*
X131235700Y-72653802D01*
X131073802Y-72815700D01*
X130942477Y-73003251D01*
X130940154Y-73008233D01*
X130940151Y-73008238D01*
X130859409Y-73181392D01*
X130845716Y-73210757D01*
X130786457Y-73431913D01*
X130766502Y-73660000D01*
X129508000Y-73660000D01*
X129508000Y-69037127D01*
X135856500Y-69037127D01*
X135856738Y-69039844D01*
X135856738Y-69039851D01*
X135858616Y-69061314D01*
X135871457Y-69208087D01*
X135872881Y-69213400D01*
X135872881Y-69213402D01*
X135886106Y-69262756D01*
X135930716Y-69429243D01*
X135933039Y-69434224D01*
X135933039Y-69434225D01*
X136025151Y-69631762D01*
X136025154Y-69631767D01*
X136027477Y-69636749D01*
X136158802Y-69824300D01*
X136320700Y-69986198D01*
X136325208Y-69989355D01*
X136325211Y-69989357D01*
X136403389Y-70044098D01*
X136508251Y-70117523D01*
X136513233Y-70119846D01*
X136513238Y-70119849D01*
X136710775Y-70211961D01*
X136715757Y-70214284D01*
X136721065Y-70215706D01*
X136721067Y-70215707D01*
X136931598Y-70272119D01*
X136931600Y-70272119D01*
X136936913Y-70273543D01*
X137165000Y-70293498D01*
X137393087Y-70273543D01*
X137398400Y-70272119D01*
X137398402Y-70272119D01*
X137608933Y-70215707D01*
X137608935Y-70215706D01*
X137614243Y-70214284D01*
X137619225Y-70211961D01*
X137816762Y-70119849D01*
X137816767Y-70119846D01*
X137821749Y-70117523D01*
X137926611Y-70044098D01*
X138004789Y-69989357D01*
X138004792Y-69989355D01*
X138009300Y-69986198D01*
X138171198Y-69824300D01*
X138302523Y-69636749D01*
X138304846Y-69631767D01*
X138304849Y-69631762D01*
X138320805Y-69597543D01*
X138367722Y-69544258D01*
X138435999Y-69524797D01*
X138503959Y-69545339D01*
X138549195Y-69597543D01*
X138565151Y-69631762D01*
X138565154Y-69631767D01*
X138567477Y-69636749D01*
X138698802Y-69824300D01*
X138860700Y-69986198D01*
X138865208Y-69989355D01*
X138865211Y-69989357D01*
X138943389Y-70044098D01*
X139048251Y-70117523D01*
X139053233Y-70119846D01*
X139053238Y-70119849D01*
X139250775Y-70211961D01*
X139255757Y-70214284D01*
X139261065Y-70215706D01*
X139261067Y-70215707D01*
X139471598Y-70272119D01*
X139471600Y-70272119D01*
X139476913Y-70273543D01*
X139705000Y-70293498D01*
X139933087Y-70273543D01*
X139938400Y-70272119D01*
X139938402Y-70272119D01*
X140148933Y-70215707D01*
X140148935Y-70215706D01*
X140154243Y-70214284D01*
X140159225Y-70211961D01*
X140356762Y-70119849D01*
X140356767Y-70119846D01*
X140361749Y-70117523D01*
X140466611Y-70044098D01*
X140544789Y-69989357D01*
X140544792Y-69989355D01*
X140549300Y-69986198D01*
X140711198Y-69824300D01*
X140842523Y-69636749D01*
X140844846Y-69631767D01*
X140844849Y-69631762D01*
X140860805Y-69597543D01*
X140907722Y-69544258D01*
X140975999Y-69524797D01*
X141043959Y-69545339D01*
X141089195Y-69597543D01*
X141105151Y-69631762D01*
X141105154Y-69631767D01*
X141107477Y-69636749D01*
X141238802Y-69824300D01*
X141400700Y-69986198D01*
X141405208Y-69989355D01*
X141405211Y-69989357D01*
X141483389Y-70044098D01*
X141588251Y-70117523D01*
X141593233Y-70119846D01*
X141593238Y-70119849D01*
X141790775Y-70211961D01*
X141795757Y-70214284D01*
X141801065Y-70215706D01*
X141801067Y-70215707D01*
X142011598Y-70272119D01*
X142011600Y-70272119D01*
X142016913Y-70273543D01*
X142245000Y-70293498D01*
X142473087Y-70273543D01*
X142478400Y-70272119D01*
X142478402Y-70272119D01*
X142688933Y-70215707D01*
X142688935Y-70215706D01*
X142694243Y-70214284D01*
X142699225Y-70211961D01*
X142896762Y-70119849D01*
X142896767Y-70119846D01*
X142901749Y-70117523D01*
X143006611Y-70044098D01*
X143084789Y-69989357D01*
X143084792Y-69989355D01*
X143089300Y-69986198D01*
X143251198Y-69824300D01*
X143382523Y-69636749D01*
X143384846Y-69631767D01*
X143384849Y-69631762D01*
X143400805Y-69597543D01*
X143447722Y-69544258D01*
X143515999Y-69524797D01*
X143583959Y-69545339D01*
X143629195Y-69597543D01*
X143645151Y-69631762D01*
X143645154Y-69631767D01*
X143647477Y-69636749D01*
X143778802Y-69824300D01*
X143940700Y-69986198D01*
X143945208Y-69989355D01*
X143945211Y-69989357D01*
X144023389Y-70044098D01*
X144128251Y-70117523D01*
X144133233Y-70119846D01*
X144133238Y-70119849D01*
X144330775Y-70211961D01*
X144335757Y-70214284D01*
X144341065Y-70215706D01*
X144341067Y-70215707D01*
X144551598Y-70272119D01*
X144551600Y-70272119D01*
X144556913Y-70273543D01*
X144785000Y-70293498D01*
X145013087Y-70273543D01*
X145018400Y-70272119D01*
X145018402Y-70272119D01*
X145113173Y-70246725D01*
X145184149Y-70248415D01*
X145234879Y-70279337D01*
X146517088Y-71561546D01*
X146529925Y-71576574D01*
X146537815Y-71587434D01*
X146542725Y-71591855D01*
X146542726Y-71591856D01*
X146587184Y-71631886D01*
X146591969Y-71636427D01*
X146606014Y-71650472D01*
X146608582Y-71652552D01*
X146608586Y-71652555D01*
X146621446Y-71662969D01*
X146626462Y-71667253D01*
X146670920Y-71707283D01*
X146670925Y-71707287D01*
X146675831Y-71711704D01*
X146687097Y-71718209D01*
X146687448Y-71718411D01*
X146703741Y-71729609D01*
X146714161Y-71738047D01*
X146773363Y-71768213D01*
X146779133Y-71771346D01*
X146830945Y-71801260D01*
X146830950Y-71801262D01*
X146836669Y-71804564D01*
X146842949Y-71806605D01*
X146842957Y-71806608D01*
X146849421Y-71808708D01*
X146867683Y-71816272D01*
X146873755Y-71819365D01*
X146879637Y-71822362D01*
X146933147Y-71836700D01*
X146943813Y-71839558D01*
X146950112Y-71841424D01*
X147013298Y-71861954D01*
X147019867Y-71862644D01*
X147019874Y-71862646D01*
X147026645Y-71863358D01*
X147046074Y-71866958D01*
X147059029Y-71870429D01*
X147065625Y-71870775D01*
X147065627Y-71870775D01*
X147098429Y-71872494D01*
X147125353Y-71873905D01*
X147131912Y-71874421D01*
X147151694Y-71876500D01*
X147171574Y-71876500D01*
X147178169Y-71876673D01*
X147237902Y-71879804D01*
X147237906Y-71879804D01*
X147244493Y-71880149D01*
X147257740Y-71878051D01*
X147277450Y-71876500D01*
X162014852Y-71876500D01*
X162082973Y-71896502D01*
X162103947Y-71913405D01*
X163754595Y-73564052D01*
X163788620Y-73626364D01*
X163791500Y-73653147D01*
X163791500Y-73691405D01*
X163771498Y-73759526D01*
X163717842Y-73806019D01*
X163647568Y-73816123D01*
X163582988Y-73786629D01*
X163576405Y-73780500D01*
X163063652Y-73267747D01*
X163056112Y-73259461D01*
X163052000Y-73252982D01*
X163002348Y-73206356D01*
X162999507Y-73203602D01*
X162979770Y-73183865D01*
X162976573Y-73181385D01*
X162967551Y-73173680D01*
X162941100Y-73148841D01*
X162935321Y-73143414D01*
X162928375Y-73139595D01*
X162928372Y-73139593D01*
X162917566Y-73133652D01*
X162901047Y-73122801D01*
X162900583Y-73122441D01*
X162885041Y-73110386D01*
X162877772Y-73107241D01*
X162877768Y-73107238D01*
X162844463Y-73092826D01*
X162833813Y-73087609D01*
X162795060Y-73066305D01*
X162775437Y-73061267D01*
X162756734Y-73054863D01*
X162745420Y-73049967D01*
X162745419Y-73049967D01*
X162738145Y-73046819D01*
X162730322Y-73045580D01*
X162730312Y-73045577D01*
X162694476Y-73039901D01*
X162682856Y-73037495D01*
X162647711Y-73028472D01*
X162647710Y-73028472D01*
X162640030Y-73026500D01*
X162619776Y-73026500D01*
X162600065Y-73024949D01*
X162587886Y-73023020D01*
X162580057Y-73021780D01*
X162572165Y-73022526D01*
X162536039Y-73025941D01*
X162524181Y-73026500D01*
X158699394Y-73026500D01*
X158631273Y-73006498D01*
X158596181Y-72972771D01*
X158489357Y-72820211D01*
X158489355Y-72820208D01*
X158486198Y-72815700D01*
X158324300Y-72653802D01*
X158319792Y-72650645D01*
X158319789Y-72650643D01*
X158241611Y-72595902D01*
X158136749Y-72522477D01*
X158131767Y-72520154D01*
X158131762Y-72520151D01*
X157934225Y-72428039D01*
X157934224Y-72428039D01*
X157929243Y-72425716D01*
X157923935Y-72424294D01*
X157923933Y-72424293D01*
X157713402Y-72367881D01*
X157713400Y-72367881D01*
X157708087Y-72366457D01*
X157480000Y-72346502D01*
X157251913Y-72366457D01*
X157246600Y-72367881D01*
X157246598Y-72367881D01*
X157036067Y-72424293D01*
X157036065Y-72424294D01*
X157030757Y-72425716D01*
X157025776Y-72428039D01*
X157025775Y-72428039D01*
X156828238Y-72520151D01*
X156828233Y-72520154D01*
X156823251Y-72522477D01*
X156718389Y-72595902D01*
X156640211Y-72650643D01*
X156640208Y-72650645D01*
X156635700Y-72653802D01*
X156473802Y-72815700D01*
X156470645Y-72820208D01*
X156470643Y-72820211D01*
X156363819Y-72972771D01*
X156308362Y-73017099D01*
X156260606Y-73026500D01*
X153619394Y-73026500D01*
X153551273Y-73006498D01*
X153516181Y-72972771D01*
X153409357Y-72820211D01*
X153409355Y-72820208D01*
X153406198Y-72815700D01*
X153244300Y-72653802D01*
X153239792Y-72650645D01*
X153239789Y-72650643D01*
X153161611Y-72595902D01*
X153056749Y-72522477D01*
X153051767Y-72520154D01*
X153051762Y-72520151D01*
X152854225Y-72428039D01*
X152854224Y-72428039D01*
X152849243Y-72425716D01*
X152843935Y-72424294D01*
X152843933Y-72424293D01*
X152633402Y-72367881D01*
X152633400Y-72367881D01*
X152628087Y-72366457D01*
X152400000Y-72346502D01*
X152171913Y-72366457D01*
X152166600Y-72367881D01*
X152166598Y-72367881D01*
X151956067Y-72424293D01*
X151956065Y-72424294D01*
X151950757Y-72425716D01*
X151945776Y-72428039D01*
X151945775Y-72428039D01*
X151748238Y-72520151D01*
X151748233Y-72520154D01*
X151743251Y-72522477D01*
X151638389Y-72595902D01*
X151560211Y-72650643D01*
X151560208Y-72650645D01*
X151555700Y-72653802D01*
X151393802Y-72815700D01*
X151262477Y-73003251D01*
X151260154Y-73008233D01*
X151260151Y-73008238D01*
X151179409Y-73181392D01*
X151165716Y-73210757D01*
X151106457Y-73431913D01*
X151086502Y-73660000D01*
X151106457Y-73888087D01*
X151107881Y-73893400D01*
X151107881Y-73893402D01*
X151124618Y-73955863D01*
X151165716Y-74109243D01*
X151168039Y-74114224D01*
X151168039Y-74114225D01*
X151260151Y-74311762D01*
X151260154Y-74311767D01*
X151262477Y-74316749D01*
X151393802Y-74504300D01*
X151555700Y-74666198D01*
X151560208Y-74669355D01*
X151560211Y-74669357D01*
X151577553Y-74681500D01*
X151743251Y-74797523D01*
X151748233Y-74799846D01*
X151748238Y-74799849D01*
X151945775Y-74891961D01*
X151950757Y-74894284D01*
X151956065Y-74895706D01*
X151956067Y-74895707D01*
X152166598Y-74952119D01*
X152166600Y-74952119D01*
X152171913Y-74953543D01*
X152400000Y-74973498D01*
X152628087Y-74953543D01*
X152633400Y-74952119D01*
X152633402Y-74952119D01*
X152843933Y-74895707D01*
X152843935Y-74895706D01*
X152849243Y-74894284D01*
X152854225Y-74891961D01*
X153051762Y-74799849D01*
X153051767Y-74799846D01*
X153056749Y-74797523D01*
X153222447Y-74681500D01*
X153239789Y-74669357D01*
X153239792Y-74669355D01*
X153244300Y-74666198D01*
X153406198Y-74504300D01*
X153516181Y-74347229D01*
X153571638Y-74302901D01*
X153619394Y-74293500D01*
X156260606Y-74293500D01*
X156328727Y-74313502D01*
X156363819Y-74347229D01*
X156473802Y-74504300D01*
X156635700Y-74666198D01*
X156640208Y-74669355D01*
X156640211Y-74669357D01*
X156657553Y-74681500D01*
X156823251Y-74797523D01*
X156828233Y-74799846D01*
X156828238Y-74799849D01*
X157025775Y-74891961D01*
X157030757Y-74894284D01*
X157036065Y-74895706D01*
X157036067Y-74895707D01*
X157246598Y-74952119D01*
X157246600Y-74952119D01*
X157251913Y-74953543D01*
X157480000Y-74973498D01*
X157708087Y-74953543D01*
X157713400Y-74952119D01*
X157713402Y-74952119D01*
X157923933Y-74895707D01*
X157923935Y-74895706D01*
X157929243Y-74894284D01*
X157934225Y-74891961D01*
X158131762Y-74799849D01*
X158131767Y-74799846D01*
X158136749Y-74797523D01*
X158302447Y-74681500D01*
X158319789Y-74669357D01*
X158319792Y-74669355D01*
X158324300Y-74666198D01*
X158486198Y-74504300D01*
X158596181Y-74347229D01*
X158651638Y-74302901D01*
X158699394Y-74293500D01*
X162245406Y-74293500D01*
X162313527Y-74313502D01*
X162334501Y-74330405D01*
X167398484Y-79394388D01*
X167432510Y-79456700D01*
X167427445Y-79527515D01*
X167384898Y-79584351D01*
X167342001Y-79605190D01*
X167190757Y-79645716D01*
X167185776Y-79648039D01*
X167185775Y-79648039D01*
X166988238Y-79740151D01*
X166988233Y-79740154D01*
X166983251Y-79742477D01*
X166878389Y-79815902D01*
X166800211Y-79870643D01*
X166800208Y-79870645D01*
X166795700Y-79873802D01*
X166633802Y-80035700D01*
X166502477Y-80223251D01*
X166500154Y-80228233D01*
X166500151Y-80228238D01*
X166484195Y-80262457D01*
X166437278Y-80315742D01*
X166369001Y-80335203D01*
X166301041Y-80314661D01*
X166255805Y-80262457D01*
X166239849Y-80228238D01*
X166239846Y-80228233D01*
X166237523Y-80223251D01*
X166106198Y-80035700D01*
X165944300Y-79873802D01*
X165939792Y-79870645D01*
X165939789Y-79870643D01*
X165861611Y-79815902D01*
X165756749Y-79742477D01*
X165751767Y-79740154D01*
X165751762Y-79740151D01*
X165554225Y-79648039D01*
X165554224Y-79648039D01*
X165549243Y-79645716D01*
X165543935Y-79644294D01*
X165543933Y-79644293D01*
X165333402Y-79587881D01*
X165333400Y-79587881D01*
X165328087Y-79586457D01*
X165100000Y-79566502D01*
X164871913Y-79586457D01*
X164866600Y-79587881D01*
X164866598Y-79587881D01*
X164656067Y-79644293D01*
X164656065Y-79644294D01*
X164650757Y-79645716D01*
X164645776Y-79648039D01*
X164645775Y-79648039D01*
X164448238Y-79740151D01*
X164448233Y-79740154D01*
X164443251Y-79742477D01*
X164338389Y-79815902D01*
X164260211Y-79870643D01*
X164260208Y-79870645D01*
X164255700Y-79873802D01*
X164093802Y-80035700D01*
X163962477Y-80223251D01*
X163960154Y-80228233D01*
X163960151Y-80228238D01*
X163944195Y-80262457D01*
X163865716Y-80430757D01*
X163806457Y-80651913D01*
X163791500Y-80822873D01*
X163791500Y-81737127D01*
X163806457Y-81908087D01*
X163865716Y-82129243D01*
X163868039Y-82134224D01*
X163868039Y-82134225D01*
X163960151Y-82331762D01*
X163960154Y-82331767D01*
X163962477Y-82336749D01*
X163965634Y-82341257D01*
X164081340Y-82506502D01*
X164093802Y-82524300D01*
X164255700Y-82686198D01*
X164260208Y-82689355D01*
X164260211Y-82689357D01*
X164338389Y-82744098D01*
X164443251Y-82817523D01*
X164448233Y-82819846D01*
X164448238Y-82819849D01*
X164587356Y-82884720D01*
X164650757Y-82914284D01*
X164656065Y-82915706D01*
X164656067Y-82915707D01*
X164742225Y-82938793D01*
X164802848Y-82975745D01*
X164833869Y-83039606D01*
X164825441Y-83110100D01*
X164780238Y-83164847D01*
X164709614Y-83186500D01*
X158699394Y-83186500D01*
X158631273Y-83166498D01*
X158596181Y-83132771D01*
X158489357Y-82980211D01*
X158489355Y-82980208D01*
X158486198Y-82975700D01*
X158324300Y-82813802D01*
X158319792Y-82810645D01*
X158319789Y-82810643D01*
X158241611Y-82755902D01*
X158136749Y-82682477D01*
X158131767Y-82680154D01*
X158131762Y-82680151D01*
X157934225Y-82588039D01*
X157934224Y-82588039D01*
X157929243Y-82585716D01*
X157923935Y-82584294D01*
X157923933Y-82584293D01*
X157713402Y-82527881D01*
X157713400Y-82527881D01*
X157708087Y-82526457D01*
X157480000Y-82506502D01*
X157251913Y-82526457D01*
X157246600Y-82527881D01*
X157246598Y-82527881D01*
X157036067Y-82584293D01*
X157036065Y-82584294D01*
X157030757Y-82585716D01*
X157025776Y-82588039D01*
X157025775Y-82588039D01*
X156828238Y-82680151D01*
X156828233Y-82680154D01*
X156823251Y-82682477D01*
X156718389Y-82755902D01*
X156640211Y-82810643D01*
X156640208Y-82810645D01*
X156635700Y-82813802D01*
X156473802Y-82975700D01*
X156470645Y-82980208D01*
X156470643Y-82980211D01*
X156429054Y-83039606D01*
X156342477Y-83163251D01*
X156340154Y-83168233D01*
X156340151Y-83168238D01*
X156248039Y-83365775D01*
X156245716Y-83370757D01*
X156244294Y-83376065D01*
X156244293Y-83376067D01*
X156196756Y-83553478D01*
X156186457Y-83591913D01*
X156166502Y-83820000D01*
X156186457Y-84048087D01*
X156187881Y-84053400D01*
X156187881Y-84053402D01*
X156240934Y-84251395D01*
X156245716Y-84269243D01*
X156248039Y-84274224D01*
X156248039Y-84274225D01*
X156340151Y-84471762D01*
X156340154Y-84471767D01*
X156342477Y-84476749D01*
X156473802Y-84664300D01*
X156635700Y-84826198D01*
X156640208Y-84829355D01*
X156640211Y-84829357D01*
X156718389Y-84884098D01*
X156823251Y-84957523D01*
X156828233Y-84959846D01*
X156828238Y-84959849D01*
X157024765Y-85051490D01*
X157030757Y-85054284D01*
X157036065Y-85055706D01*
X157036067Y-85055707D01*
X157246598Y-85112119D01*
X157246600Y-85112119D01*
X157251913Y-85113543D01*
X157480000Y-85133498D01*
X157708087Y-85113543D01*
X157713400Y-85112119D01*
X157713402Y-85112119D01*
X157923933Y-85055707D01*
X157923935Y-85055706D01*
X157929243Y-85054284D01*
X157935235Y-85051490D01*
X158131762Y-84959849D01*
X158131767Y-84959846D01*
X158136749Y-84957523D01*
X158241611Y-84884098D01*
X158319789Y-84829357D01*
X158319792Y-84829355D01*
X158324300Y-84826198D01*
X158486198Y-84664300D01*
X158596181Y-84507229D01*
X158651638Y-84462901D01*
X158699394Y-84453500D01*
X165021233Y-84453500D01*
X165032416Y-84454027D01*
X165039909Y-84455702D01*
X165047835Y-84455453D01*
X165047836Y-84455453D01*
X165107986Y-84453562D01*
X165111945Y-84453500D01*
X165139856Y-84453500D01*
X165143791Y-84453003D01*
X165143856Y-84452995D01*
X165155693Y-84452062D01*
X165187951Y-84451048D01*
X165191970Y-84450922D01*
X165199889Y-84450673D01*
X165219343Y-84445021D01*
X165238700Y-84441013D01*
X165250930Y-84439468D01*
X165250931Y-84439468D01*
X165258797Y-84438474D01*
X165266168Y-84435555D01*
X165266170Y-84435555D01*
X165299912Y-84422196D01*
X165311142Y-84418351D01*
X165345983Y-84408229D01*
X165345984Y-84408229D01*
X165353593Y-84406018D01*
X165360412Y-84401985D01*
X165360417Y-84401983D01*
X165371028Y-84395707D01*
X165388776Y-84387012D01*
X165407617Y-84379552D01*
X165443387Y-84353564D01*
X165453307Y-84347048D01*
X165484535Y-84328580D01*
X165484538Y-84328578D01*
X165491362Y-84324542D01*
X165505683Y-84310221D01*
X165520717Y-84297380D01*
X165530694Y-84290131D01*
X165537107Y-84285472D01*
X165565298Y-84251395D01*
X165573288Y-84242616D01*
X166931184Y-82884720D01*
X166993496Y-82850694D01*
X167064311Y-82855759D01*
X167073528Y-82859620D01*
X167185768Y-82911958D01*
X167185772Y-82911959D01*
X167190757Y-82914284D01*
X167282225Y-82938793D01*
X167406598Y-82972119D01*
X167406600Y-82972119D01*
X167411913Y-82973543D01*
X167640000Y-82993498D01*
X167868087Y-82973543D01*
X167873400Y-82972119D01*
X167873402Y-82972119D01*
X168083933Y-82915707D01*
X168083935Y-82915706D01*
X168089243Y-82914284D01*
X168152644Y-82884720D01*
X168291762Y-82819849D01*
X168291767Y-82819846D01*
X168296749Y-82817523D01*
X168401611Y-82744098D01*
X168479789Y-82689357D01*
X168479792Y-82689355D01*
X168484300Y-82686198D01*
X168646198Y-82524300D01*
X168658661Y-82506502D01*
X168774366Y-82341257D01*
X168777523Y-82336749D01*
X168779846Y-82331767D01*
X168779849Y-82331762D01*
X168795805Y-82297543D01*
X168842722Y-82244258D01*
X168910999Y-82224797D01*
X168978959Y-82245339D01*
X169024195Y-82297543D01*
X169040151Y-82331762D01*
X169040154Y-82331767D01*
X169042477Y-82336749D01*
X169045634Y-82341257D01*
X169161340Y-82506502D01*
X169173802Y-82524300D01*
X169335700Y-82686198D01*
X169340208Y-82689355D01*
X169340211Y-82689357D01*
X169418389Y-82744098D01*
X169523251Y-82817523D01*
X169528233Y-82819846D01*
X169528238Y-82819849D01*
X169667356Y-82884720D01*
X169730757Y-82914284D01*
X169736065Y-82915706D01*
X169736067Y-82915707D01*
X169946598Y-82972119D01*
X169946600Y-82972119D01*
X169951913Y-82973543D01*
X170180000Y-82993498D01*
X170408087Y-82973543D01*
X170413400Y-82972119D01*
X170413402Y-82972119D01*
X170623933Y-82915707D01*
X170623935Y-82915706D01*
X170629243Y-82914284D01*
X170692644Y-82884720D01*
X170831762Y-82819849D01*
X170831767Y-82819846D01*
X170836749Y-82817523D01*
X170941611Y-82744098D01*
X171019789Y-82689357D01*
X171019792Y-82689355D01*
X171024300Y-82686198D01*
X171186198Y-82524300D01*
X171198661Y-82506502D01*
X171314366Y-82341257D01*
X171317523Y-82336749D01*
X171319846Y-82331767D01*
X171319849Y-82331762D01*
X171335805Y-82297543D01*
X171382722Y-82244258D01*
X171450999Y-82224797D01*
X171518959Y-82245339D01*
X171564195Y-82297543D01*
X171580151Y-82331762D01*
X171580154Y-82331767D01*
X171582477Y-82336749D01*
X171585634Y-82341257D01*
X171701340Y-82506502D01*
X171713802Y-82524300D01*
X171875700Y-82686198D01*
X171880208Y-82689355D01*
X171880211Y-82689357D01*
X171958389Y-82744098D01*
X172063251Y-82817523D01*
X172068233Y-82819846D01*
X172068238Y-82819849D01*
X172207356Y-82884720D01*
X172270757Y-82914284D01*
X172276065Y-82915706D01*
X172276067Y-82915707D01*
X172486598Y-82972119D01*
X172486600Y-82972119D01*
X172491913Y-82973543D01*
X172720000Y-82993498D01*
X172948087Y-82973543D01*
X172953400Y-82972119D01*
X172953402Y-82972119D01*
X173163933Y-82915707D01*
X173163935Y-82915706D01*
X173169243Y-82914284D01*
X173232644Y-82884720D01*
X173371762Y-82819849D01*
X173371767Y-82819846D01*
X173376749Y-82817523D01*
X173481611Y-82744098D01*
X173559789Y-82689357D01*
X173559792Y-82689355D01*
X173564300Y-82686198D01*
X173726198Y-82524300D01*
X173738661Y-82506502D01*
X173854366Y-82341257D01*
X173857523Y-82336749D01*
X173859846Y-82331767D01*
X173859849Y-82331762D01*
X173951961Y-82134225D01*
X173951961Y-82134224D01*
X173954284Y-82129243D01*
X174013543Y-81908087D01*
X174028500Y-81737127D01*
X174028500Y-80822873D01*
X174013543Y-80651913D01*
X173954284Y-80430757D01*
X173875805Y-80262457D01*
X173859849Y-80228238D01*
X173859846Y-80228233D01*
X173857523Y-80223251D01*
X173726198Y-80035700D01*
X173640405Y-79949907D01*
X173606379Y-79887595D01*
X173603500Y-79860812D01*
X173603500Y-78904148D01*
X173623502Y-78836027D01*
X173640405Y-78815053D01*
X181310632Y-71144826D01*
X181372944Y-71110800D01*
X181443759Y-71115865D01*
X181485971Y-71142371D01*
X181486582Y-71143043D01*
X181696675Y-71318707D01*
X181700316Y-71320991D01*
X181925024Y-71461951D01*
X181925028Y-71461953D01*
X181928664Y-71464234D01*
X181996544Y-71494883D01*
X182174345Y-71575164D01*
X182174349Y-71575166D01*
X182178257Y-71576930D01*
X182182377Y-71578150D01*
X182182376Y-71578150D01*
X182436723Y-71653491D01*
X182436727Y-71653492D01*
X182440836Y-71654709D01*
X182445070Y-71655357D01*
X182445075Y-71655358D01*
X182707298Y-71695483D01*
X182707300Y-71695483D01*
X182711540Y-71696132D01*
X182850912Y-71698322D01*
X182981071Y-71700367D01*
X182981077Y-71700367D01*
X182985362Y-71700434D01*
X183257235Y-71667534D01*
X183522127Y-71598041D01*
X183526087Y-71596401D01*
X183526092Y-71596399D01*
X183648632Y-71545641D01*
X183775136Y-71493241D01*
X184011582Y-71355073D01*
X184227089Y-71186094D01*
X184268809Y-71143043D01*
X184414686Y-70992509D01*
X184417669Y-70989431D01*
X184420202Y-70985983D01*
X184420206Y-70985978D01*
X184577257Y-70772178D01*
X184579795Y-70768723D01*
X184596291Y-70738341D01*
X184708418Y-70531830D01*
X184708419Y-70531828D01*
X184710468Y-70528054D01*
X184800863Y-70288830D01*
X184805751Y-70275895D01*
X184805752Y-70275891D01*
X184807269Y-70271877D01*
X184868407Y-70004933D01*
X184884931Y-69819789D01*
X184892531Y-69734627D01*
X184892531Y-69734625D01*
X184892751Y-69732161D01*
X184893193Y-69690000D01*
X184886890Y-69597543D01*
X184874859Y-69421055D01*
X184874858Y-69421049D01*
X184874567Y-69416778D01*
X184819032Y-69148612D01*
X184727617Y-68890465D01*
X184602013Y-68647112D01*
X184444545Y-68423057D01*
X184258125Y-68222445D01*
X184254810Y-68219731D01*
X184254806Y-68219728D01*
X184049523Y-68051706D01*
X184046205Y-68048990D01*
X183812704Y-67905901D01*
X183808768Y-67904173D01*
X183565873Y-67797549D01*
X183565869Y-67797548D01*
X183561945Y-67795825D01*
X183298566Y-67720800D01*
X183294324Y-67720196D01*
X183294318Y-67720195D01*
X183093834Y-67691662D01*
X183027443Y-67682213D01*
X182883589Y-67681460D01*
X182757877Y-67680802D01*
X182757871Y-67680802D01*
X182753591Y-67680780D01*
X182749347Y-67681339D01*
X182749343Y-67681339D01*
X182630302Y-67697011D01*
X182482078Y-67716525D01*
X182477938Y-67717658D01*
X182477936Y-67717658D01*
X182430054Y-67730757D01*
X182217928Y-67788788D01*
X182213980Y-67790472D01*
X181969982Y-67894546D01*
X181969978Y-67894548D01*
X181966030Y-67896232D01*
X181946125Y-67908145D01*
X181879695Y-67947902D01*
X181810971Y-67965722D01*
X181743523Y-67943558D01*
X181698764Y-67888447D01*
X181688989Y-67839786D01*
X181688989Y-66541075D01*
X181708991Y-66472954D01*
X181762647Y-66426461D01*
X181832921Y-66416357D01*
X181881944Y-66434337D01*
X181925265Y-66461512D01*
X181932807Y-66465556D01*
X182174520Y-66574694D01*
X182182551Y-66577680D01*
X182436832Y-66653002D01*
X182445184Y-66654869D01*
X182707340Y-66694984D01*
X182715874Y-66695700D01*
X182981045Y-66699867D01*
X182989596Y-66699418D01*
X183252883Y-66667557D01*
X183261284Y-66665955D01*
X183517824Y-66598653D01*
X183525926Y-66595926D01*
X183770949Y-66494434D01*
X183778617Y-66490628D01*
X184007598Y-66356822D01*
X184014679Y-66352009D01*
X184094655Y-66289301D01*
X184103125Y-66277442D01*
X184096608Y-66265818D01*
X182609885Y-64779095D01*
X182575859Y-64716783D01*
X182577694Y-64691132D01*
X183244408Y-64691132D01*
X183244539Y-64692965D01*
X183248790Y-64699580D01*
X184455730Y-65906520D01*
X184467939Y-65913187D01*
X184479439Y-65904497D01*
X184576831Y-65771913D01*
X184581418Y-65764685D01*
X184707962Y-65531621D01*
X184711530Y-65523827D01*
X184805271Y-65275750D01*
X184807748Y-65267544D01*
X184866954Y-65009038D01*
X184868294Y-65000577D01*
X184892031Y-64734616D01*
X184892277Y-64729677D01*
X184892666Y-64692485D01*
X184892523Y-64687519D01*
X184874362Y-64421123D01*
X184873201Y-64412649D01*
X184819419Y-64152944D01*
X184817120Y-64144709D01*
X184728588Y-63894705D01*
X184725191Y-63886854D01*
X184603550Y-63651178D01*
X184599122Y-63643866D01*
X184480031Y-63474417D01*
X184469509Y-63466037D01*
X184456121Y-63473089D01*
X183252022Y-64677188D01*
X183244408Y-64691132D01*
X182577694Y-64691132D01*
X182580924Y-64645968D01*
X182609885Y-64600905D01*
X184096604Y-63114186D01*
X184103795Y-63101017D01*
X184096473Y-63090780D01*
X184049233Y-63052115D01*
X184042261Y-63047160D01*
X183816122Y-62908582D01*
X183808552Y-62904624D01*
X183565704Y-62798022D01*
X183557644Y-62795120D01*
X183302592Y-62722467D01*
X183294214Y-62720685D01*
X183031656Y-62683318D01*
X183023111Y-62682691D01*
X182757908Y-62681302D01*
X182749374Y-62681839D01*
X182486433Y-62716456D01*
X182478035Y-62718149D01*
X182222238Y-62788127D01*
X182214143Y-62790946D01*
X181970199Y-62894997D01*
X181962576Y-62898881D01*
X181879695Y-62948484D01*
X181810971Y-62966304D01*
X181743523Y-62944140D01*
X181698765Y-62889029D01*
X181688989Y-62840368D01*
X181688989Y-62182659D01*
X181708991Y-62114538D01*
X181725894Y-62093564D01*
X182084053Y-61735405D01*
X182146365Y-61701379D01*
X182173148Y-61698500D01*
X184428134Y-61698500D01*
X184490316Y-61691745D01*
X184626705Y-61640615D01*
X184743261Y-61553261D01*
X184830615Y-61436705D01*
X184881745Y-61300316D01*
X184888500Y-61238134D01*
X184888500Y-58141866D01*
X184881745Y-58079684D01*
X184830615Y-57943295D01*
X184743261Y-57826739D01*
X184626705Y-57739385D01*
X184490316Y-57688255D01*
X184428134Y-57681500D01*
X181331866Y-57681500D01*
X181269684Y-57688255D01*
X181133295Y-57739385D01*
X181016739Y-57826739D01*
X180929385Y-57943295D01*
X180878255Y-58079684D01*
X180871500Y-58141866D01*
X180871500Y-60396852D01*
X180851498Y-60464973D01*
X180834595Y-60485947D01*
X180236943Y-61083599D01*
X180221915Y-61096436D01*
X180211055Y-61104326D01*
X180206634Y-61109236D01*
X180206633Y-61109237D01*
X180166603Y-61153695D01*
X180162062Y-61158480D01*
X180148017Y-61172525D01*
X180145933Y-61175099D01*
X180145930Y-61175102D01*
X180135520Y-61187957D01*
X180131236Y-61192973D01*
X180091206Y-61237431D01*
X180091202Y-61237436D01*
X180086785Y-61242342D01*
X180080280Y-61253608D01*
X180080078Y-61253959D01*
X180068880Y-61270252D01*
X180060442Y-61280672D01*
X180030276Y-61339874D01*
X180027143Y-61345644D01*
X179997229Y-61397456D01*
X179997227Y-61397461D01*
X179993925Y-61403180D01*
X179991884Y-61409460D01*
X179991881Y-61409468D01*
X179989781Y-61415932D01*
X179982217Y-61434194D01*
X179979126Y-61440260D01*
X179979123Y-61440269D01*
X179976127Y-61446148D01*
X179974418Y-61452526D01*
X179958933Y-61510315D01*
X179957067Y-61516617D01*
X179936535Y-61579809D01*
X179935845Y-61586377D01*
X179935134Y-61593139D01*
X179931531Y-61612582D01*
X179928059Y-61625540D01*
X179927714Y-61632130D01*
X179927713Y-61632134D01*
X179924582Y-61691878D01*
X179924066Y-61698442D01*
X179921989Y-61718205D01*
X179921989Y-61738066D01*
X179921816Y-61744661D01*
X179918710Y-61803933D01*
X179918339Y-61811004D01*
X179919371Y-61817518D01*
X179920438Y-61824255D01*
X179921989Y-61843967D01*
X179921989Y-68305385D01*
X179901987Y-68373506D01*
X179885084Y-68394480D01*
X174243595Y-74035969D01*
X174181283Y-74069995D01*
X174110468Y-74064930D01*
X174053632Y-74022383D01*
X174028821Y-73955863D01*
X174028500Y-73946874D01*
X174028500Y-72411866D01*
X174021745Y-72349684D01*
X173970615Y-72213295D01*
X173883261Y-72096739D01*
X173766705Y-72009385D01*
X173630316Y-71958255D01*
X173568134Y-71951500D01*
X171871866Y-71951500D01*
X171809684Y-71958255D01*
X171673295Y-72009385D01*
X171556739Y-72096739D01*
X171469385Y-72213295D01*
X171418255Y-72349684D01*
X171417083Y-72360474D01*
X171416197Y-72362606D01*
X171415575Y-72365222D01*
X171415152Y-72365121D01*
X171389845Y-72426035D01*
X171331483Y-72466463D01*
X171260529Y-72468922D01*
X171199510Y-72432629D01*
X171192511Y-72423969D01*
X171189354Y-72420207D01*
X171186198Y-72415700D01*
X171024300Y-72253802D01*
X171019792Y-72250645D01*
X171019789Y-72250643D01*
X170941611Y-72195902D01*
X170836749Y-72122477D01*
X170831767Y-72120154D01*
X170831762Y-72120151D01*
X170634225Y-72028039D01*
X170634224Y-72028039D01*
X170629243Y-72025716D01*
X170623935Y-72024294D01*
X170623933Y-72024293D01*
X170413402Y-71967881D01*
X170413400Y-71967881D01*
X170408087Y-71966457D01*
X170180000Y-71946502D01*
X169951913Y-71966457D01*
X169946600Y-71967881D01*
X169946598Y-71967881D01*
X169736067Y-72024293D01*
X169736065Y-72024294D01*
X169730757Y-72025716D01*
X169613528Y-72080380D01*
X169543338Y-72091041D01*
X169478526Y-72062061D01*
X169471185Y-72055280D01*
X166678661Y-69262756D01*
X166671121Y-69254470D01*
X166667009Y-69247991D01*
X166617357Y-69201365D01*
X166614516Y-69198611D01*
X166594779Y-69178874D01*
X166591582Y-69176394D01*
X166582560Y-69168689D01*
X166550330Y-69138423D01*
X166543384Y-69134604D01*
X166543381Y-69134602D01*
X166532575Y-69128661D01*
X166516056Y-69117810D01*
X166515592Y-69117450D01*
X166500050Y-69105395D01*
X166492781Y-69102250D01*
X166492777Y-69102247D01*
X166459472Y-69087835D01*
X166448822Y-69082618D01*
X166410069Y-69061314D01*
X166390446Y-69056276D01*
X166371743Y-69049872D01*
X166360429Y-69044976D01*
X166360428Y-69044976D01*
X166353154Y-69041828D01*
X166345331Y-69040589D01*
X166345321Y-69040586D01*
X166309485Y-69034910D01*
X166297865Y-69032504D01*
X166262720Y-69023481D01*
X166262719Y-69023481D01*
X166255039Y-69021509D01*
X166234785Y-69021509D01*
X166215074Y-69019958D01*
X166202895Y-69018029D01*
X166195066Y-69016789D01*
X166187174Y-69017535D01*
X166151048Y-69020950D01*
X166139190Y-69021509D01*
X158874603Y-69021509D01*
X158806482Y-69001507D01*
X158785508Y-68984604D01*
X152684500Y-62883595D01*
X152650474Y-62821283D01*
X152655539Y-62750468D01*
X152698086Y-62693632D01*
X152764606Y-62668821D01*
X152773595Y-62668500D01*
X153253134Y-62668500D01*
X153315316Y-62661745D01*
X153451705Y-62610615D01*
X153568261Y-62523261D01*
X153655615Y-62406705D01*
X153706745Y-62270316D01*
X153713500Y-62208134D01*
X153713500Y-60194989D01*
X153733502Y-60126868D01*
X153787158Y-60080375D01*
X153839500Y-60068989D01*
X166795054Y-60068989D01*
X166814766Y-60070540D01*
X166828018Y-60072639D01*
X166834605Y-60072294D01*
X166834609Y-60072294D01*
X166894361Y-60069162D01*
X166900956Y-60068989D01*
X166920817Y-60068989D01*
X166940580Y-60066912D01*
X166947139Y-60066396D01*
X166962938Y-60065568D01*
X167006888Y-60063265D01*
X167006892Y-60063264D01*
X167013482Y-60062919D01*
X167026440Y-60059447D01*
X167045883Y-60055844D01*
X167046306Y-60055800D01*
X167059213Y-60054443D01*
X167122405Y-60033911D01*
X167128707Y-60032045D01*
X167186496Y-60016560D01*
X167192874Y-60014851D01*
X167198753Y-60011855D01*
X167198762Y-60011852D01*
X167204828Y-60008761D01*
X167223090Y-60001197D01*
X167229554Y-59999097D01*
X167229562Y-59999094D01*
X167235842Y-59997053D01*
X167241561Y-59993751D01*
X167241566Y-59993749D01*
X167293378Y-59963835D01*
X167299148Y-59960702D01*
X167358350Y-59930536D01*
X167368770Y-59922098D01*
X167385063Y-59910900D01*
X167385414Y-59910698D01*
X167396680Y-59904193D01*
X167401586Y-59899776D01*
X167401591Y-59899772D01*
X167446049Y-59859742D01*
X167451065Y-59855458D01*
X167463920Y-59845048D01*
X167463923Y-59845045D01*
X167466497Y-59842961D01*
X167480542Y-59828916D01*
X167485327Y-59824375D01*
X167529785Y-59784345D01*
X167529786Y-59784344D01*
X167534696Y-59779923D01*
X167542586Y-59769063D01*
X167555423Y-59754035D01*
X169730121Y-57579337D01*
X169792433Y-57545311D01*
X169851827Y-57546725D01*
X169946598Y-57572119D01*
X169946600Y-57572119D01*
X169951913Y-57573543D01*
X170180000Y-57593498D01*
X170408087Y-57573543D01*
X170413400Y-57572119D01*
X170413402Y-57572119D01*
X170623933Y-57515707D01*
X170623935Y-57515706D01*
X170629243Y-57514284D01*
X170720379Y-57471787D01*
X170831762Y-57419849D01*
X170831767Y-57419846D01*
X170836749Y-57417523D01*
X170941611Y-57344098D01*
X171019789Y-57289357D01*
X171019792Y-57289355D01*
X171024300Y-57286198D01*
X171186198Y-57124300D01*
X171193212Y-57114284D01*
X171244098Y-57041611D01*
X171317523Y-56936749D01*
X171319846Y-56931767D01*
X171319849Y-56931762D01*
X171335805Y-56897543D01*
X171382722Y-56844258D01*
X171450999Y-56824797D01*
X171518959Y-56845339D01*
X171564195Y-56897543D01*
X171580151Y-56931762D01*
X171580154Y-56931767D01*
X171582477Y-56936749D01*
X171655902Y-57041611D01*
X171706789Y-57114284D01*
X171713802Y-57124300D01*
X171875700Y-57286198D01*
X171880208Y-57289355D01*
X171880211Y-57289357D01*
X171958389Y-57344098D01*
X172063251Y-57417523D01*
X172068233Y-57419846D01*
X172068238Y-57419849D01*
X172179621Y-57471787D01*
X172270757Y-57514284D01*
X172276065Y-57515706D01*
X172276067Y-57515707D01*
X172486598Y-57572119D01*
X172486600Y-57572119D01*
X172491913Y-57573543D01*
X172720000Y-57593498D01*
X172948087Y-57573543D01*
X172953400Y-57572119D01*
X172953402Y-57572119D01*
X173163933Y-57515707D01*
X173163935Y-57515706D01*
X173169243Y-57514284D01*
X173260379Y-57471787D01*
X173371762Y-57419849D01*
X173371767Y-57419846D01*
X173376749Y-57417523D01*
X173481611Y-57344098D01*
X173559789Y-57289357D01*
X173559792Y-57289355D01*
X173564300Y-57286198D01*
X173726198Y-57124300D01*
X173733212Y-57114284D01*
X173784098Y-57041611D01*
X173857523Y-56936749D01*
X173859846Y-56931767D01*
X173859849Y-56931762D01*
X173951961Y-56734225D01*
X173951961Y-56734224D01*
X173954284Y-56729243D01*
X174013543Y-56508087D01*
X174028500Y-56337127D01*
X174028500Y-55422873D01*
X174013543Y-55251913D01*
X173954284Y-55030757D01*
X173900148Y-54914661D01*
X173859849Y-54828238D01*
X173859846Y-54828233D01*
X173857523Y-54823251D01*
X173734838Y-54648039D01*
X173729357Y-54640211D01*
X173729355Y-54640208D01*
X173726198Y-54635700D01*
X173564300Y-54473802D01*
X173559792Y-54470645D01*
X173559789Y-54470643D01*
X173481611Y-54415902D01*
X173376749Y-54342477D01*
X173371767Y-54340154D01*
X173371762Y-54340151D01*
X173174225Y-54248039D01*
X173174224Y-54248039D01*
X173169243Y-54245716D01*
X173163935Y-54244294D01*
X173163933Y-54244293D01*
X172953402Y-54187881D01*
X172953400Y-54187881D01*
X172948087Y-54186457D01*
X172720000Y-54166502D01*
X172491913Y-54186457D01*
X172486600Y-54187881D01*
X172486598Y-54187881D01*
X172276067Y-54244293D01*
X172276065Y-54244294D01*
X172270757Y-54245716D01*
X172265776Y-54248039D01*
X172265775Y-54248039D01*
X172068238Y-54340151D01*
X172068233Y-54340154D01*
X172063251Y-54342477D01*
X171958389Y-54415902D01*
X171880211Y-54470643D01*
X171880208Y-54470645D01*
X171875700Y-54473802D01*
X171713802Y-54635700D01*
X171710645Y-54640208D01*
X171710643Y-54640211D01*
X171705162Y-54648039D01*
X171582477Y-54823251D01*
X171580154Y-54828233D01*
X171580151Y-54828238D01*
X171564195Y-54862457D01*
X171517278Y-54915742D01*
X171449001Y-54935203D01*
X171381041Y-54914661D01*
X171335805Y-54862457D01*
X171319849Y-54828238D01*
X171319846Y-54828233D01*
X171317523Y-54823251D01*
X171194838Y-54648039D01*
X171189357Y-54640211D01*
X171189355Y-54640208D01*
X171186198Y-54635700D01*
X171024300Y-54473802D01*
X171019792Y-54470645D01*
X171019789Y-54470643D01*
X170941611Y-54415902D01*
X170836749Y-54342477D01*
X170831767Y-54340154D01*
X170831762Y-54340151D01*
X170634225Y-54248039D01*
X170634224Y-54248039D01*
X170629243Y-54245716D01*
X170623935Y-54244294D01*
X170623933Y-54244293D01*
X170413402Y-54187881D01*
X170413400Y-54187881D01*
X170408087Y-54186457D01*
X170180000Y-54166502D01*
X169951913Y-54186457D01*
X169946600Y-54187881D01*
X169946598Y-54187881D01*
X169736067Y-54244293D01*
X169736065Y-54244294D01*
X169730757Y-54245716D01*
X169725776Y-54248039D01*
X169725775Y-54248039D01*
X169528238Y-54340151D01*
X169528233Y-54340154D01*
X169523251Y-54342477D01*
X169418389Y-54415902D01*
X169340211Y-54470643D01*
X169340208Y-54470645D01*
X169335700Y-54473802D01*
X169173802Y-54635700D01*
X169170645Y-54640208D01*
X169170643Y-54640211D01*
X169165162Y-54648039D01*
X169042477Y-54823251D01*
X169040154Y-54828233D01*
X169040151Y-54828238D01*
X169024195Y-54862457D01*
X168977278Y-54915742D01*
X168909001Y-54935203D01*
X168841041Y-54914661D01*
X168795805Y-54862457D01*
X168779849Y-54828238D01*
X168779846Y-54828233D01*
X168777523Y-54823251D01*
X168654838Y-54648039D01*
X168649357Y-54640211D01*
X168649355Y-54640208D01*
X168646198Y-54635700D01*
X168484300Y-54473802D01*
X168479792Y-54470645D01*
X168479789Y-54470643D01*
X168401611Y-54415902D01*
X168296749Y-54342477D01*
X168291767Y-54340154D01*
X168291762Y-54340151D01*
X168094225Y-54248039D01*
X168094224Y-54248039D01*
X168089243Y-54245716D01*
X168083935Y-54244294D01*
X168083933Y-54244293D01*
X167873402Y-54187881D01*
X167873400Y-54187881D01*
X167868087Y-54186457D01*
X167640000Y-54166502D01*
X167411913Y-54186457D01*
X167406600Y-54187881D01*
X167406598Y-54187881D01*
X167196067Y-54244293D01*
X167196065Y-54244294D01*
X167190757Y-54245716D01*
X167073528Y-54300380D01*
X167003338Y-54311041D01*
X166938526Y-54282061D01*
X166931185Y-54275280D01*
X166619132Y-53963227D01*
X166611592Y-53954941D01*
X166607480Y-53948462D01*
X166557828Y-53901836D01*
X166554987Y-53899082D01*
X166535250Y-53879345D01*
X166532053Y-53876865D01*
X166523031Y-53869160D01*
X166509602Y-53856549D01*
X166490801Y-53838894D01*
X166483855Y-53835075D01*
X166483852Y-53835073D01*
X166473046Y-53829132D01*
X166456527Y-53818281D01*
X166456063Y-53817921D01*
X166440521Y-53805866D01*
X166433252Y-53802721D01*
X166433248Y-53802718D01*
X166399943Y-53788306D01*
X166389293Y-53783089D01*
X166350540Y-53761785D01*
X166330917Y-53756747D01*
X166312214Y-53750343D01*
X166300900Y-53745447D01*
X166300899Y-53745447D01*
X166293625Y-53742299D01*
X166285802Y-53741060D01*
X166285792Y-53741057D01*
X166249956Y-53735381D01*
X166238336Y-53732975D01*
X166203191Y-53723952D01*
X166203190Y-53723952D01*
X166195510Y-53721980D01*
X166175256Y-53721980D01*
X166155545Y-53720429D01*
X166143366Y-53718500D01*
X166135537Y-53717260D01*
X166106266Y-53720027D01*
X166091519Y-53721421D01*
X166079661Y-53721980D01*
X159083287Y-53721980D01*
X159072104Y-53721453D01*
X159064611Y-53719778D01*
X159056685Y-53720027D01*
X159056684Y-53720027D01*
X158996521Y-53721918D01*
X158992563Y-53721980D01*
X158964664Y-53721980D01*
X158960674Y-53722484D01*
X158948840Y-53723416D01*
X158904631Y-53724806D01*
X158897017Y-53727018D01*
X158897012Y-53727019D01*
X158885179Y-53730457D01*
X158865816Y-53734468D01*
X158845723Y-53737006D01*
X158838356Y-53739923D01*
X158838351Y-53739924D01*
X158804612Y-53753282D01*
X158793385Y-53757126D01*
X158750927Y-53769462D01*
X158744101Y-53773499D01*
X158733492Y-53779773D01*
X158715744Y-53788468D01*
X158696903Y-53795928D01*
X158690487Y-53800590D01*
X158690486Y-53800590D01*
X158661133Y-53821916D01*
X158651213Y-53828432D01*
X158619985Y-53846900D01*
X158619982Y-53846902D01*
X158613158Y-53850938D01*
X158598837Y-53865259D01*
X158583804Y-53878099D01*
X158567413Y-53890008D01*
X158558737Y-53900496D01*
X158539222Y-53924085D01*
X158531232Y-53932864D01*
X157893248Y-54570848D01*
X157830936Y-54604874D01*
X157771541Y-54603459D01*
X157713409Y-54587882D01*
X157713398Y-54587880D01*
X157708087Y-54586457D01*
X157480000Y-54566502D01*
X157251913Y-54586457D01*
X157246600Y-54587881D01*
X157246598Y-54587881D01*
X157036067Y-54644293D01*
X157036065Y-54644294D01*
X157030757Y-54645716D01*
X157025776Y-54648039D01*
X157025775Y-54648039D01*
X156828238Y-54740151D01*
X156828233Y-54740154D01*
X156823251Y-54742477D01*
X156718389Y-54815902D01*
X156640211Y-54870643D01*
X156640208Y-54870645D01*
X156635700Y-54873802D01*
X156473802Y-55035700D01*
X156470645Y-55040208D01*
X156470643Y-55040211D01*
X156363819Y-55192771D01*
X156308362Y-55237099D01*
X156260606Y-55246500D01*
X153619394Y-55246500D01*
X153551273Y-55226498D01*
X153516181Y-55192771D01*
X153409357Y-55040211D01*
X153409355Y-55040208D01*
X153406198Y-55035700D01*
X153244300Y-54873802D01*
X153239792Y-54870645D01*
X153239789Y-54870643D01*
X153161611Y-54815902D01*
X153056749Y-54742477D01*
X153051767Y-54740154D01*
X153051762Y-54740151D01*
X152854225Y-54648039D01*
X152854224Y-54648039D01*
X152849243Y-54645716D01*
X152843935Y-54644294D01*
X152843933Y-54644293D01*
X152633402Y-54587881D01*
X152633400Y-54587881D01*
X152628087Y-54586457D01*
X152400000Y-54566502D01*
X152171913Y-54586457D01*
X152166600Y-54587881D01*
X152166598Y-54587881D01*
X151956067Y-54644293D01*
X151956065Y-54644294D01*
X151950757Y-54645716D01*
X151945776Y-54648039D01*
X151945775Y-54648039D01*
X151748238Y-54740151D01*
X151748233Y-54740154D01*
X151743251Y-54742477D01*
X151638389Y-54815902D01*
X151560211Y-54870643D01*
X151560208Y-54870645D01*
X151555700Y-54873802D01*
X151393802Y-55035700D01*
X151262477Y-55223251D01*
X151260154Y-55228233D01*
X151260151Y-55228238D01*
X151169392Y-55422873D01*
X151165716Y-55430757D01*
X151106457Y-55651913D01*
X151086502Y-55880000D01*
X151106457Y-56108087D01*
X151165716Y-56329243D01*
X151168039Y-56334224D01*
X151168039Y-56334225D01*
X151260151Y-56531762D01*
X151260154Y-56531767D01*
X151262477Y-56536749D01*
X151393802Y-56724300D01*
X151555700Y-56886198D01*
X151560208Y-56889355D01*
X151560211Y-56889357D01*
X151571902Y-56897543D01*
X151743251Y-57017523D01*
X151748233Y-57019846D01*
X151748238Y-57019849D01*
X151945775Y-57111961D01*
X151950757Y-57114284D01*
X151956065Y-57115706D01*
X151956067Y-57115707D01*
X152166598Y-57172119D01*
X152166600Y-57172119D01*
X152171913Y-57173543D01*
X152400000Y-57193498D01*
X152628087Y-57173543D01*
X152633400Y-57172119D01*
X152633402Y-57172119D01*
X152843933Y-57115707D01*
X152843935Y-57115706D01*
X152849243Y-57114284D01*
X152854225Y-57111961D01*
X153051762Y-57019849D01*
X153051767Y-57019846D01*
X153056749Y-57017523D01*
X153228098Y-56897543D01*
X153239789Y-56889357D01*
X153239792Y-56889355D01*
X153244300Y-56886198D01*
X153406198Y-56724300D01*
X153516181Y-56567229D01*
X153571638Y-56522901D01*
X153619394Y-56513500D01*
X156260606Y-56513500D01*
X156328727Y-56533502D01*
X156363819Y-56567229D01*
X156473802Y-56724300D01*
X156635700Y-56886198D01*
X156640208Y-56889355D01*
X156640211Y-56889357D01*
X156651902Y-56897543D01*
X156823251Y-57017523D01*
X156828233Y-57019846D01*
X156828238Y-57019849D01*
X157025775Y-57111961D01*
X157030757Y-57114284D01*
X157036065Y-57115706D01*
X157036067Y-57115707D01*
X157246598Y-57172119D01*
X157246600Y-57172119D01*
X157251913Y-57173543D01*
X157480000Y-57193498D01*
X157708087Y-57173543D01*
X157713400Y-57172119D01*
X157713402Y-57172119D01*
X157923933Y-57115707D01*
X157923935Y-57115706D01*
X157929243Y-57114284D01*
X157934225Y-57111961D01*
X158131762Y-57019849D01*
X158131767Y-57019846D01*
X158136749Y-57017523D01*
X158308098Y-56897543D01*
X158319789Y-56889357D01*
X158319792Y-56889355D01*
X158324300Y-56886198D01*
X158486198Y-56724300D01*
X158617523Y-56536749D01*
X158619846Y-56531767D01*
X158619849Y-56531762D01*
X158711961Y-56334225D01*
X158711961Y-56334224D01*
X158714284Y-56329243D01*
X158773543Y-56108087D01*
X158793498Y-55880000D01*
X158773543Y-55651913D01*
X158772121Y-55646608D01*
X158772119Y-55646594D01*
X158756541Y-55588461D01*
X158758229Y-55517484D01*
X158789152Y-55466752D01*
X159003992Y-55251913D01*
X159230021Y-55025884D01*
X159292333Y-54991859D01*
X159319116Y-54988980D01*
X163712703Y-54988980D01*
X163780824Y-55008982D01*
X163827317Y-55062638D01*
X163837421Y-55132912D01*
X163834410Y-55147591D01*
X163806457Y-55251913D01*
X163791500Y-55422873D01*
X163791500Y-56337127D01*
X163806457Y-56508087D01*
X163865716Y-56729243D01*
X163868039Y-56734224D01*
X163868039Y-56734225D01*
X163960151Y-56931762D01*
X163960154Y-56931767D01*
X163962477Y-56936749D01*
X164035902Y-57041611D01*
X164086789Y-57114284D01*
X164093802Y-57124300D01*
X164255700Y-57286198D01*
X164260208Y-57289355D01*
X164260211Y-57289357D01*
X164338389Y-57344098D01*
X164443251Y-57417523D01*
X164448233Y-57419846D01*
X164448238Y-57419849D01*
X164559621Y-57471787D01*
X164650757Y-57514284D01*
X164656065Y-57515706D01*
X164656067Y-57515707D01*
X164866598Y-57572119D01*
X164866600Y-57572119D01*
X164871913Y-57573543D01*
X165100000Y-57593498D01*
X165328087Y-57573543D01*
X165333400Y-57572119D01*
X165333402Y-57572119D01*
X165543933Y-57515707D01*
X165543935Y-57515706D01*
X165549243Y-57514284D01*
X165640379Y-57471787D01*
X165751762Y-57419849D01*
X165751767Y-57419846D01*
X165756749Y-57417523D01*
X165861611Y-57344098D01*
X165939789Y-57289357D01*
X165939792Y-57289355D01*
X165944300Y-57286198D01*
X166106198Y-57124300D01*
X166113212Y-57114284D01*
X166164098Y-57041611D01*
X166237523Y-56936749D01*
X166239846Y-56931767D01*
X166239849Y-56931762D01*
X166255805Y-56897543D01*
X166302722Y-56844258D01*
X166370999Y-56824797D01*
X166438959Y-56845339D01*
X166484195Y-56897543D01*
X166500151Y-56931762D01*
X166500154Y-56931767D01*
X166502477Y-56936749D01*
X166575902Y-57041611D01*
X166626789Y-57114284D01*
X166633802Y-57124300D01*
X166795700Y-57286198D01*
X166800208Y-57289355D01*
X166800211Y-57289357D01*
X166878389Y-57344098D01*
X166983251Y-57417523D01*
X166988233Y-57419846D01*
X166988238Y-57419849D01*
X167099620Y-57471787D01*
X167152905Y-57518704D01*
X167172366Y-57586982D01*
X167151824Y-57654942D01*
X167135465Y-57675077D01*
X166545458Y-58265084D01*
X166483146Y-58299110D01*
X166456363Y-58301989D01*
X146638968Y-58301989D01*
X146619256Y-58300438D01*
X146612519Y-58299371D01*
X146612520Y-58299371D01*
X146606004Y-58298339D01*
X146599417Y-58298684D01*
X146599413Y-58298684D01*
X146539661Y-58301816D01*
X146533066Y-58301989D01*
X146513205Y-58301989D01*
X146493442Y-58304066D01*
X146486883Y-58304582D01*
X146445244Y-58306764D01*
X146427140Y-58307713D01*
X146427139Y-58307713D01*
X146420540Y-58308059D01*
X146414156Y-58309770D01*
X146414154Y-58309770D01*
X146407585Y-58311530D01*
X146388150Y-58315132D01*
X146381380Y-58315844D01*
X146381376Y-58315845D01*
X146374809Y-58316535D01*
X146311603Y-58337071D01*
X146305356Y-58338922D01*
X146241149Y-58356127D01*
X146235274Y-58359120D01*
X146235267Y-58359123D01*
X146229197Y-58362216D01*
X146210942Y-58369777D01*
X146204466Y-58371882D01*
X146204462Y-58371884D01*
X146198180Y-58373925D01*
X146192465Y-58377224D01*
X146192455Y-58377229D01*
X146140650Y-58407140D01*
X146134878Y-58410275D01*
X146075672Y-58440441D01*
X146070538Y-58444598D01*
X146070537Y-58444599D01*
X146065248Y-58448882D01*
X146048960Y-58460077D01*
X146037342Y-58466785D01*
X146032436Y-58471202D01*
X146032431Y-58471206D01*
X145987973Y-58511236D01*
X145982958Y-58515520D01*
X145974880Y-58522062D01*
X145967526Y-58528017D01*
X145953490Y-58542053D01*
X145948705Y-58546594D01*
X145899326Y-58591055D01*
X145891436Y-58601915D01*
X145878599Y-58616944D01*
X145234878Y-59260664D01*
X145172566Y-59294689D01*
X145113173Y-59293275D01*
X145013087Y-59266457D01*
X144785000Y-59246502D01*
X144556913Y-59266457D01*
X144551600Y-59267881D01*
X144551598Y-59267881D01*
X144341067Y-59324293D01*
X144341065Y-59324294D01*
X144335757Y-59325716D01*
X144330776Y-59328039D01*
X144330775Y-59328039D01*
X144133238Y-59420151D01*
X144133233Y-59420154D01*
X144128251Y-59422477D01*
X144023389Y-59495902D01*
X143945211Y-59550643D01*
X143945208Y-59550645D01*
X143940700Y-59553802D01*
X143778802Y-59715700D01*
X143647477Y-59903251D01*
X143645154Y-59908233D01*
X143645151Y-59908238D01*
X143629195Y-59942457D01*
X143582278Y-59995742D01*
X143514001Y-60015203D01*
X143446041Y-59994661D01*
X143400805Y-59942457D01*
X143384849Y-59908238D01*
X143384846Y-59908233D01*
X143382523Y-59903251D01*
X143251198Y-59715700D01*
X143089300Y-59553802D01*
X143084792Y-59550645D01*
X143084789Y-59550643D01*
X143006611Y-59495902D01*
X142901749Y-59422477D01*
X142896767Y-59420154D01*
X142896762Y-59420151D01*
X142699225Y-59328039D01*
X142699224Y-59328039D01*
X142694243Y-59325716D01*
X142688935Y-59324294D01*
X142688933Y-59324293D01*
X142478402Y-59267881D01*
X142478400Y-59267881D01*
X142473087Y-59266457D01*
X142245000Y-59246502D01*
X142016913Y-59266457D01*
X142011600Y-59267881D01*
X142011598Y-59267881D01*
X141801067Y-59324293D01*
X141801065Y-59324294D01*
X141795757Y-59325716D01*
X141790776Y-59328039D01*
X141790775Y-59328039D01*
X141593238Y-59420151D01*
X141593233Y-59420154D01*
X141588251Y-59422477D01*
X141483389Y-59495902D01*
X141405211Y-59550643D01*
X141405208Y-59550645D01*
X141400700Y-59553802D01*
X141238802Y-59715700D01*
X141107477Y-59903251D01*
X141105154Y-59908233D01*
X141105151Y-59908238D01*
X141089195Y-59942457D01*
X141042278Y-59995742D01*
X140974001Y-60015203D01*
X140906041Y-59994661D01*
X140860805Y-59942457D01*
X140844849Y-59908238D01*
X140844846Y-59908233D01*
X140842523Y-59903251D01*
X140711198Y-59715700D01*
X140549300Y-59553802D01*
X140544792Y-59550645D01*
X140544789Y-59550643D01*
X140466611Y-59495902D01*
X140361749Y-59422477D01*
X140356767Y-59420154D01*
X140356762Y-59420151D01*
X140159225Y-59328039D01*
X140159224Y-59328039D01*
X140154243Y-59325716D01*
X140148935Y-59324294D01*
X140148933Y-59324293D01*
X139938402Y-59267881D01*
X139938400Y-59267881D01*
X139933087Y-59266457D01*
X139705000Y-59246502D01*
X139476913Y-59266457D01*
X139471600Y-59267881D01*
X139471598Y-59267881D01*
X139261067Y-59324293D01*
X139261065Y-59324294D01*
X139255757Y-59325716D01*
X139250776Y-59328039D01*
X139250775Y-59328039D01*
X139053238Y-59420151D01*
X139053233Y-59420154D01*
X139048251Y-59422477D01*
X138943389Y-59495902D01*
X138865211Y-59550643D01*
X138865208Y-59550645D01*
X138860700Y-59553802D01*
X138698802Y-59715700D01*
X138567477Y-59903251D01*
X138565154Y-59908233D01*
X138565151Y-59908238D01*
X138549195Y-59942457D01*
X138502278Y-59995742D01*
X138434001Y-60015203D01*
X138366041Y-59994661D01*
X138320805Y-59942457D01*
X138304849Y-59908238D01*
X138304846Y-59908233D01*
X138302523Y-59903251D01*
X138171198Y-59715700D01*
X138009300Y-59553802D01*
X138004792Y-59550645D01*
X138004789Y-59550643D01*
X137926611Y-59495902D01*
X137821749Y-59422477D01*
X137816767Y-59420154D01*
X137816762Y-59420151D01*
X137619225Y-59328039D01*
X137619224Y-59328039D01*
X137614243Y-59325716D01*
X137608935Y-59324294D01*
X137608933Y-59324293D01*
X137398402Y-59267881D01*
X137398400Y-59267881D01*
X137393087Y-59266457D01*
X137165000Y-59246502D01*
X136936913Y-59266457D01*
X136931600Y-59267881D01*
X136931598Y-59267881D01*
X136721067Y-59324293D01*
X136721065Y-59324294D01*
X136715757Y-59325716D01*
X136710776Y-59328039D01*
X136710775Y-59328039D01*
X136513238Y-59420151D01*
X136513233Y-59420154D01*
X136508251Y-59422477D01*
X136403389Y-59495902D01*
X136325211Y-59550643D01*
X136325208Y-59550645D01*
X136320700Y-59553802D01*
X136158802Y-59715700D01*
X136027477Y-59903251D01*
X136025154Y-59908233D01*
X136025151Y-59908238D01*
X135944883Y-60080375D01*
X135930716Y-60110757D01*
X135871457Y-60331913D01*
X135856500Y-60502873D01*
X135856500Y-61417127D01*
X135856738Y-61419844D01*
X135856738Y-61419851D01*
X135859039Y-61446148D01*
X135871457Y-61588087D01*
X135872881Y-61593400D01*
X135872881Y-61593402D01*
X135912527Y-61741360D01*
X135930716Y-61809243D01*
X135933039Y-61814224D01*
X135933039Y-61814225D01*
X136025151Y-62011762D01*
X136025154Y-62011767D01*
X136027477Y-62016749D01*
X136030634Y-62021257D01*
X136143649Y-62182659D01*
X136158802Y-62204300D01*
X136320700Y-62366198D01*
X136325208Y-62369355D01*
X136325211Y-62369357D01*
X136366542Y-62398297D01*
X136508251Y-62497523D01*
X136513233Y-62499846D01*
X136513238Y-62499849D01*
X136637814Y-62557939D01*
X136715757Y-62594284D01*
X136721065Y-62595706D01*
X136721067Y-62595707D01*
X136931598Y-62652119D01*
X136931600Y-62652119D01*
X136936913Y-62653543D01*
X137165000Y-62673498D01*
X137393087Y-62653543D01*
X137398400Y-62652119D01*
X137398402Y-62652119D01*
X137608933Y-62595707D01*
X137608935Y-62595706D01*
X137614243Y-62594284D01*
X137692186Y-62557939D01*
X137816762Y-62499849D01*
X137816767Y-62499846D01*
X137821749Y-62497523D01*
X137963458Y-62398297D01*
X138004789Y-62369357D01*
X138004792Y-62369355D01*
X138009300Y-62366198D01*
X138171198Y-62204300D01*
X138186352Y-62182659D01*
X138299366Y-62021257D01*
X138302523Y-62016749D01*
X138304846Y-62011767D01*
X138304849Y-62011762D01*
X138320805Y-61977543D01*
X138367722Y-61924258D01*
X138435999Y-61904797D01*
X138503959Y-61925339D01*
X138549195Y-61977543D01*
X138565151Y-62011762D01*
X138565154Y-62011767D01*
X138567477Y-62016749D01*
X138570634Y-62021257D01*
X138683649Y-62182659D01*
X138698802Y-62204300D01*
X138860700Y-62366198D01*
X138865208Y-62369355D01*
X138865211Y-62369357D01*
X138906542Y-62398297D01*
X139048251Y-62497523D01*
X139053233Y-62499846D01*
X139053238Y-62499849D01*
X139177814Y-62557939D01*
X139255757Y-62594284D01*
X139261065Y-62595706D01*
X139261067Y-62595707D01*
X139471598Y-62652119D01*
X139471600Y-62652119D01*
X139476913Y-62653543D01*
X139705000Y-62673498D01*
X139933087Y-62653543D01*
X139938400Y-62652119D01*
X139938402Y-62652119D01*
X140148933Y-62595707D01*
X140148935Y-62595706D01*
X140154243Y-62594284D01*
X140232186Y-62557939D01*
X140356762Y-62499849D01*
X140356767Y-62499846D01*
X140361749Y-62497523D01*
X140503458Y-62398297D01*
X140544789Y-62369357D01*
X140544792Y-62369355D01*
X140549300Y-62366198D01*
X140711198Y-62204300D01*
X140726352Y-62182659D01*
X140839366Y-62021257D01*
X140842523Y-62016749D01*
X140844846Y-62011767D01*
X140844849Y-62011762D01*
X140860805Y-61977543D01*
X140907722Y-61924258D01*
X140975999Y-61904797D01*
X141043959Y-61925339D01*
X141089195Y-61977543D01*
X141105151Y-62011762D01*
X141105154Y-62011767D01*
X141107477Y-62016749D01*
X141110634Y-62021257D01*
X141223649Y-62182659D01*
X141238802Y-62204300D01*
X141400700Y-62366198D01*
X141405208Y-62369355D01*
X141405211Y-62369357D01*
X141446542Y-62398297D01*
X141588251Y-62497523D01*
X141593233Y-62499846D01*
X141593238Y-62499849D01*
X141717814Y-62557939D01*
X141795757Y-62594284D01*
X141801065Y-62595706D01*
X141801067Y-62595707D01*
X142011598Y-62652119D01*
X142011600Y-62652119D01*
X142016913Y-62653543D01*
X142245000Y-62673498D01*
X142473087Y-62653543D01*
X142478400Y-62652119D01*
X142478402Y-62652119D01*
X142688933Y-62595707D01*
X142688935Y-62595706D01*
X142694243Y-62594284D01*
X142811472Y-62539620D01*
X142881662Y-62528959D01*
X142946474Y-62557939D01*
X142953815Y-62564720D01*
X143265868Y-62876773D01*
X143273408Y-62885059D01*
X143277520Y-62891538D01*
X143283297Y-62896963D01*
X143327171Y-62938163D01*
X143330013Y-62940918D01*
X143349750Y-62960655D01*
X143352947Y-62963135D01*
X143361967Y-62970838D01*
X143394199Y-63001106D01*
X143401145Y-63004925D01*
X143401148Y-63004927D01*
X143411954Y-63010868D01*
X143428473Y-63021719D01*
X143444479Y-63034134D01*
X143451748Y-63037279D01*
X143451752Y-63037282D01*
X143485057Y-63051694D01*
X143495707Y-63056911D01*
X143534460Y-63078215D01*
X143542135Y-63080186D01*
X143542136Y-63080186D01*
X143554082Y-63083253D01*
X143572787Y-63089657D01*
X143591375Y-63097701D01*
X143599198Y-63098940D01*
X143599208Y-63098943D01*
X143635044Y-63104619D01*
X143646664Y-63107025D01*
X143678479Y-63115193D01*
X143689490Y-63118020D01*
X143709744Y-63118020D01*
X143729454Y-63119571D01*
X143749463Y-63122740D01*
X143757355Y-63121994D01*
X143776100Y-63120222D01*
X143793482Y-63118579D01*
X143805339Y-63118020D01*
X145721713Y-63118020D01*
X145732896Y-63118547D01*
X145740389Y-63120222D01*
X145748315Y-63119973D01*
X145748316Y-63119973D01*
X145808466Y-63118082D01*
X145812425Y-63118020D01*
X145840336Y-63118020D01*
X145844271Y-63117523D01*
X145844336Y-63117515D01*
X145856173Y-63116582D01*
X145888431Y-63115568D01*
X145892450Y-63115442D01*
X145900369Y-63115193D01*
X145919823Y-63109541D01*
X145939180Y-63105533D01*
X145951410Y-63103988D01*
X145951411Y-63103988D01*
X145959277Y-63102994D01*
X145966648Y-63100075D01*
X145966650Y-63100075D01*
X146000392Y-63086716D01*
X146011622Y-63082871D01*
X146046463Y-63072749D01*
X146046464Y-63072749D01*
X146054073Y-63070538D01*
X146060892Y-63066505D01*
X146060897Y-63066503D01*
X146071508Y-63060227D01*
X146089256Y-63051532D01*
X146108097Y-63044072D01*
X146143867Y-63018084D01*
X146153787Y-63011568D01*
X146185015Y-62993100D01*
X146185018Y-62993098D01*
X146191842Y-62989062D01*
X146206163Y-62974741D01*
X146221197Y-62961900D01*
X146231174Y-62954651D01*
X146237587Y-62949992D01*
X146242637Y-62943888D01*
X146242642Y-62943883D01*
X146265773Y-62915922D01*
X146273763Y-62907141D01*
X146616185Y-62564720D01*
X146678497Y-62530695D01*
X146749313Y-62535760D01*
X146758529Y-62539621D01*
X146870770Y-62591959D01*
X146870774Y-62591961D01*
X146875757Y-62594284D01*
X146881065Y-62595706D01*
X146881067Y-62595707D01*
X147091598Y-62652119D01*
X147091600Y-62652119D01*
X147096913Y-62653543D01*
X147325000Y-62673498D01*
X147553087Y-62653543D01*
X147558400Y-62652119D01*
X147558402Y-62652119D01*
X147768933Y-62595707D01*
X147768935Y-62595706D01*
X147774243Y-62594284D01*
X147852186Y-62557939D01*
X147976762Y-62499849D01*
X147976767Y-62499846D01*
X147981749Y-62497523D01*
X148123458Y-62398297D01*
X148164789Y-62369357D01*
X148164792Y-62369355D01*
X148169300Y-62366198D01*
X148331198Y-62204300D01*
X148346352Y-62182659D01*
X148459366Y-62021257D01*
X148462523Y-62016749D01*
X148464846Y-62011767D01*
X148464849Y-62011762D01*
X148480805Y-61977543D01*
X148527722Y-61924258D01*
X148595999Y-61904797D01*
X148663959Y-61925339D01*
X148709195Y-61977543D01*
X148725151Y-62011762D01*
X148725154Y-62011767D01*
X148727477Y-62016749D01*
X148730634Y-62021257D01*
X148843649Y-62182659D01*
X148858802Y-62204300D01*
X149020700Y-62366198D01*
X149025208Y-62369355D01*
X149025211Y-62369357D01*
X149066542Y-62398297D01*
X149208251Y-62497523D01*
X149213233Y-62499846D01*
X149213238Y-62499849D01*
X149337814Y-62557939D01*
X149415757Y-62594284D01*
X149421065Y-62595706D01*
X149421067Y-62595707D01*
X149631598Y-62652119D01*
X149631600Y-62652119D01*
X149636913Y-62653543D01*
X149865000Y-62673498D01*
X150093087Y-62653543D01*
X150098400Y-62652119D01*
X150098402Y-62652119D01*
X150273396Y-62605229D01*
X150314243Y-62594284D01*
X150319228Y-62591959D01*
X150319232Y-62591958D01*
X150431472Y-62539620D01*
X150501663Y-62528959D01*
X150566476Y-62557939D01*
X150573816Y-62564720D01*
X157265021Y-69255925D01*
X157299047Y-69318237D01*
X157293982Y-69389052D01*
X157251435Y-69445888D01*
X157184915Y-69470699D01*
X157175926Y-69471020D01*
X153792297Y-69471020D01*
X153724176Y-69451018D01*
X153677683Y-69397362D01*
X153667579Y-69327088D01*
X153670590Y-69312409D01*
X153697119Y-69213402D01*
X153697119Y-69213400D01*
X153698543Y-69208087D01*
X153711384Y-69061314D01*
X153713262Y-69039851D01*
X153713262Y-69039844D01*
X153713500Y-69037127D01*
X153713500Y-68122873D01*
X153698543Y-67951913D01*
X153683623Y-67896232D01*
X153640707Y-67736067D01*
X153640706Y-67736065D01*
X153639284Y-67730757D01*
X153632648Y-67716525D01*
X153544849Y-67528238D01*
X153544846Y-67528233D01*
X153542523Y-67523251D01*
X153411198Y-67335700D01*
X153249300Y-67173802D01*
X153244792Y-67170645D01*
X153244789Y-67170643D01*
X153130487Y-67090608D01*
X153061749Y-67042477D01*
X153056767Y-67040154D01*
X153056762Y-67040151D01*
X152859225Y-66948039D01*
X152859224Y-66948039D01*
X152854243Y-66945716D01*
X152848935Y-66944294D01*
X152848933Y-66944293D01*
X152638402Y-66887881D01*
X152638400Y-66887881D01*
X152633087Y-66886457D01*
X152405000Y-66866502D01*
X152176913Y-66886457D01*
X152171600Y-66887881D01*
X152171598Y-66887881D01*
X151961067Y-66944293D01*
X151961065Y-66944294D01*
X151955757Y-66945716D01*
X151950776Y-66948039D01*
X151950775Y-66948039D01*
X151753238Y-67040151D01*
X151753233Y-67040154D01*
X151748251Y-67042477D01*
X151679513Y-67090608D01*
X151565211Y-67170643D01*
X151565208Y-67170645D01*
X151560700Y-67173802D01*
X151398802Y-67335700D01*
X151267477Y-67523251D01*
X151265154Y-67528233D01*
X151265151Y-67528238D01*
X151249195Y-67562457D01*
X151202278Y-67615742D01*
X151134001Y-67635203D01*
X151066041Y-67614661D01*
X151020805Y-67562457D01*
X151004849Y-67528238D01*
X151004846Y-67528233D01*
X151002523Y-67523251D01*
X150871198Y-67335700D01*
X150709300Y-67173802D01*
X150704792Y-67170645D01*
X150704789Y-67170643D01*
X150590487Y-67090608D01*
X150521749Y-67042477D01*
X150516767Y-67040154D01*
X150516762Y-67040151D01*
X150319225Y-66948039D01*
X150319224Y-66948039D01*
X150314243Y-66945716D01*
X150308935Y-66944294D01*
X150308933Y-66944293D01*
X150098402Y-66887881D01*
X150098400Y-66887881D01*
X150093087Y-66886457D01*
X149865000Y-66866502D01*
X149636913Y-66886457D01*
X149631600Y-66887881D01*
X149631598Y-66887881D01*
X149421067Y-66944293D01*
X149421065Y-66944294D01*
X149415757Y-66945716D01*
X149410776Y-66948039D01*
X149410775Y-66948039D01*
X149213238Y-67040151D01*
X149213233Y-67040154D01*
X149208251Y-67042477D01*
X149139513Y-67090608D01*
X149025211Y-67170643D01*
X149025208Y-67170645D01*
X149020700Y-67173802D01*
X148858802Y-67335700D01*
X148727477Y-67523251D01*
X148725154Y-67528233D01*
X148725151Y-67528238D01*
X148709195Y-67562457D01*
X148662278Y-67615742D01*
X148594001Y-67635203D01*
X148526041Y-67614661D01*
X148480805Y-67562457D01*
X148464849Y-67528238D01*
X148464846Y-67528233D01*
X148462523Y-67523251D01*
X148331198Y-67335700D01*
X148169300Y-67173802D01*
X148164792Y-67170645D01*
X148164789Y-67170643D01*
X148050487Y-67090608D01*
X147981749Y-67042477D01*
X147976767Y-67040154D01*
X147976762Y-67040151D01*
X147779225Y-66948039D01*
X147779224Y-66948039D01*
X147774243Y-66945716D01*
X147768935Y-66944294D01*
X147768933Y-66944293D01*
X147558402Y-66887881D01*
X147558400Y-66887881D01*
X147553087Y-66886457D01*
X147325000Y-66866502D01*
X147096913Y-66886457D01*
X147091600Y-66887881D01*
X147091598Y-66887881D01*
X146881067Y-66944293D01*
X146881065Y-66944294D01*
X146875757Y-66945716D01*
X146870775Y-66948039D01*
X146870770Y-66948041D01*
X146668506Y-67042357D01*
X146598315Y-67053018D01*
X146533502Y-67024038D01*
X146526162Y-67017257D01*
X146172132Y-66663227D01*
X146164592Y-66654941D01*
X146160480Y-66648462D01*
X146134514Y-66624078D01*
X146110829Y-66601837D01*
X146107987Y-66599082D01*
X146088250Y-66579345D01*
X146085053Y-66576865D01*
X146076031Y-66569160D01*
X146062602Y-66556549D01*
X146043801Y-66538894D01*
X146036855Y-66535075D01*
X146036852Y-66535073D01*
X146026046Y-66529132D01*
X146009527Y-66518281D01*
X146009063Y-66517921D01*
X145993521Y-66505866D01*
X145986252Y-66502721D01*
X145986248Y-66502718D01*
X145952943Y-66488306D01*
X145942293Y-66483089D01*
X145903540Y-66461785D01*
X145883917Y-66456747D01*
X145865214Y-66450343D01*
X145853900Y-66445447D01*
X145853899Y-66445447D01*
X145846625Y-66442299D01*
X145838802Y-66441060D01*
X145838792Y-66441057D01*
X145802956Y-66435381D01*
X145791336Y-66432975D01*
X145756191Y-66423952D01*
X145756190Y-66423952D01*
X145748510Y-66421980D01*
X145728256Y-66421980D01*
X145708545Y-66420429D01*
X145696366Y-66418500D01*
X145688537Y-66417260D01*
X145659266Y-66420027D01*
X145644519Y-66421421D01*
X145632661Y-66421980D01*
X143848287Y-66421980D01*
X143837104Y-66421453D01*
X143829611Y-66419778D01*
X143821685Y-66420027D01*
X143821684Y-66420027D01*
X143761521Y-66421918D01*
X143757563Y-66421980D01*
X143729664Y-66421980D01*
X143725674Y-66422484D01*
X143713840Y-66423416D01*
X143669631Y-66424806D01*
X143662017Y-66427018D01*
X143662012Y-66427019D01*
X143650179Y-66430457D01*
X143630816Y-66434468D01*
X143610723Y-66437006D01*
X143603356Y-66439923D01*
X143603351Y-66439924D01*
X143569612Y-66453282D01*
X143558385Y-66457126D01*
X143515927Y-66469462D01*
X143509101Y-66473499D01*
X143498492Y-66479773D01*
X143480744Y-66488468D01*
X143461903Y-66495928D01*
X143455487Y-66500590D01*
X143455486Y-66500590D01*
X143426133Y-66521916D01*
X143416213Y-66528432D01*
X143384985Y-66546900D01*
X143384982Y-66546902D01*
X143378158Y-66550938D01*
X143363837Y-66565259D01*
X143348804Y-66578099D01*
X143332413Y-66590008D01*
X143327363Y-66596112D01*
X143327358Y-66596117D01*
X143304227Y-66624078D01*
X143296237Y-66632859D01*
X142953815Y-66975280D01*
X142891503Y-67009305D01*
X142820687Y-67004240D01*
X142811471Y-67000379D01*
X142699230Y-66948041D01*
X142699226Y-66948039D01*
X142694243Y-66945716D01*
X142688935Y-66944294D01*
X142688933Y-66944293D01*
X142478402Y-66887881D01*
X142478400Y-66887881D01*
X142473087Y-66886457D01*
X142245000Y-66866502D01*
X142016913Y-66886457D01*
X142011600Y-66887881D01*
X142011598Y-66887881D01*
X141801067Y-66944293D01*
X141801065Y-66944294D01*
X141795757Y-66945716D01*
X141790776Y-66948039D01*
X141790775Y-66948039D01*
X141593238Y-67040151D01*
X141593233Y-67040154D01*
X141588251Y-67042477D01*
X141519513Y-67090608D01*
X141405211Y-67170643D01*
X141405208Y-67170645D01*
X141400700Y-67173802D01*
X141238802Y-67335700D01*
X141107477Y-67523251D01*
X141105154Y-67528233D01*
X141105151Y-67528238D01*
X141089195Y-67562457D01*
X141042278Y-67615742D01*
X140974001Y-67635203D01*
X140906041Y-67614661D01*
X140860805Y-67562457D01*
X140844849Y-67528238D01*
X140844846Y-67528233D01*
X140842523Y-67523251D01*
X140711198Y-67335700D01*
X140549300Y-67173802D01*
X140544792Y-67170645D01*
X140544789Y-67170643D01*
X140430487Y-67090608D01*
X140361749Y-67042477D01*
X140356767Y-67040154D01*
X140356762Y-67040151D01*
X140159225Y-66948039D01*
X140159224Y-66948039D01*
X140154243Y-66945716D01*
X140148935Y-66944294D01*
X140148933Y-66944293D01*
X139938402Y-66887881D01*
X139938400Y-66887881D01*
X139933087Y-66886457D01*
X139705000Y-66866502D01*
X139476913Y-66886457D01*
X139471600Y-66887881D01*
X139471598Y-66887881D01*
X139261067Y-66944293D01*
X139261065Y-66944294D01*
X139255757Y-66945716D01*
X139250776Y-66948039D01*
X139250775Y-66948039D01*
X139053238Y-67040151D01*
X139053233Y-67040154D01*
X139048251Y-67042477D01*
X138979513Y-67090608D01*
X138865211Y-67170643D01*
X138865208Y-67170645D01*
X138860700Y-67173802D01*
X138698802Y-67335700D01*
X138567477Y-67523251D01*
X138565154Y-67528233D01*
X138565151Y-67528238D01*
X138549195Y-67562457D01*
X138502278Y-67615742D01*
X138434001Y-67635203D01*
X138366041Y-67614661D01*
X138320805Y-67562457D01*
X138304849Y-67528238D01*
X138304846Y-67528233D01*
X138302523Y-67523251D01*
X138171198Y-67335700D01*
X138009300Y-67173802D01*
X138004792Y-67170645D01*
X138004789Y-67170643D01*
X137890487Y-67090608D01*
X137821749Y-67042477D01*
X137816767Y-67040154D01*
X137816762Y-67040151D01*
X137619225Y-66948039D01*
X137619224Y-66948039D01*
X137614243Y-66945716D01*
X137608935Y-66944294D01*
X137608933Y-66944293D01*
X137398402Y-66887881D01*
X137398400Y-66887881D01*
X137393087Y-66886457D01*
X137165000Y-66866502D01*
X136936913Y-66886457D01*
X136931600Y-66887881D01*
X136931598Y-66887881D01*
X136721067Y-66944293D01*
X136721065Y-66944294D01*
X136715757Y-66945716D01*
X136710776Y-66948039D01*
X136710775Y-66948039D01*
X136513238Y-67040151D01*
X136513233Y-67040154D01*
X136508251Y-67042477D01*
X136439513Y-67090608D01*
X136325211Y-67170643D01*
X136325208Y-67170645D01*
X136320700Y-67173802D01*
X136158802Y-67335700D01*
X136027477Y-67523251D01*
X136025154Y-67528233D01*
X136025151Y-67528238D01*
X135937352Y-67716525D01*
X135930716Y-67730757D01*
X135929294Y-67736065D01*
X135929293Y-67736067D01*
X135886377Y-67896232D01*
X135871457Y-67951913D01*
X135856500Y-68122873D01*
X135856500Y-69037127D01*
X129508000Y-69037127D01*
X129508000Y-55880000D01*
X130766502Y-55880000D01*
X130786457Y-56108087D01*
X130845716Y-56329243D01*
X130848039Y-56334224D01*
X130848039Y-56334225D01*
X130940151Y-56531762D01*
X130940154Y-56531767D01*
X130942477Y-56536749D01*
X131073802Y-56724300D01*
X131235700Y-56886198D01*
X131240208Y-56889355D01*
X131240211Y-56889357D01*
X131251902Y-56897543D01*
X131423251Y-57017523D01*
X131428233Y-57019846D01*
X131428238Y-57019849D01*
X131625775Y-57111961D01*
X131630757Y-57114284D01*
X131636065Y-57115706D01*
X131636067Y-57115707D01*
X131846598Y-57172119D01*
X131846600Y-57172119D01*
X131851913Y-57173543D01*
X132080000Y-57193498D01*
X132308087Y-57173543D01*
X132313400Y-57172119D01*
X132313402Y-57172119D01*
X132523933Y-57115707D01*
X132523935Y-57115706D01*
X132529243Y-57114284D01*
X132534225Y-57111961D01*
X132731762Y-57019849D01*
X132731767Y-57019846D01*
X132736749Y-57017523D01*
X132908098Y-56897543D01*
X132919789Y-56889357D01*
X132919792Y-56889355D01*
X132924300Y-56886198D01*
X133086198Y-56724300D01*
X133196181Y-56567229D01*
X133251638Y-56522901D01*
X133299394Y-56513500D01*
X135940606Y-56513500D01*
X136008727Y-56533502D01*
X136043819Y-56567229D01*
X136153802Y-56724300D01*
X136315700Y-56886198D01*
X136320208Y-56889355D01*
X136320211Y-56889357D01*
X136331902Y-56897543D01*
X136503251Y-57017523D01*
X136508233Y-57019846D01*
X136508238Y-57019849D01*
X136705775Y-57111961D01*
X136710757Y-57114284D01*
X136716065Y-57115706D01*
X136716067Y-57115707D01*
X136926598Y-57172119D01*
X136926600Y-57172119D01*
X136931913Y-57173543D01*
X137160000Y-57193498D01*
X137388087Y-57173543D01*
X137393400Y-57172119D01*
X137393402Y-57172119D01*
X137603933Y-57115707D01*
X137603935Y-57115706D01*
X137609243Y-57114284D01*
X137614225Y-57111961D01*
X137811762Y-57019849D01*
X137811767Y-57019846D01*
X137816749Y-57017523D01*
X137988098Y-56897543D01*
X137999789Y-56889357D01*
X137999792Y-56889355D01*
X138004300Y-56886198D01*
X138166198Y-56724300D01*
X138297523Y-56536749D01*
X138299846Y-56531767D01*
X138299849Y-56531762D01*
X138391961Y-56334225D01*
X138391961Y-56334224D01*
X138394284Y-56329243D01*
X138453543Y-56108087D01*
X138473498Y-55880000D01*
X140926502Y-55880000D01*
X140946457Y-56108087D01*
X141005716Y-56329243D01*
X141008039Y-56334224D01*
X141008039Y-56334225D01*
X141100151Y-56531762D01*
X141100154Y-56531767D01*
X141102477Y-56536749D01*
X141233802Y-56724300D01*
X141395700Y-56886198D01*
X141400208Y-56889355D01*
X141400211Y-56889357D01*
X141411902Y-56897543D01*
X141583251Y-57017523D01*
X141588233Y-57019846D01*
X141588238Y-57019849D01*
X141785775Y-57111961D01*
X141790757Y-57114284D01*
X141796065Y-57115706D01*
X141796067Y-57115707D01*
X142006598Y-57172119D01*
X142006600Y-57172119D01*
X142011913Y-57173543D01*
X142240000Y-57193498D01*
X142468087Y-57173543D01*
X142473400Y-57172119D01*
X142473402Y-57172119D01*
X142683933Y-57115707D01*
X142683935Y-57115706D01*
X142689243Y-57114284D01*
X142694225Y-57111961D01*
X142891762Y-57019849D01*
X142891767Y-57019846D01*
X142896749Y-57017523D01*
X143068098Y-56897543D01*
X143079789Y-56889357D01*
X143079792Y-56889355D01*
X143084300Y-56886198D01*
X143246198Y-56724300D01*
X143377523Y-56536749D01*
X143379846Y-56531767D01*
X143379849Y-56531762D01*
X143471961Y-56334225D01*
X143471961Y-56334224D01*
X143474284Y-56329243D01*
X143533543Y-56108087D01*
X143553498Y-55880000D01*
X146006502Y-55880000D01*
X146026457Y-56108087D01*
X146085716Y-56329243D01*
X146088039Y-56334224D01*
X146088039Y-56334225D01*
X146180151Y-56531762D01*
X146180154Y-56531767D01*
X146182477Y-56536749D01*
X146313802Y-56724300D01*
X146475700Y-56886198D01*
X146480208Y-56889355D01*
X146480211Y-56889357D01*
X146491902Y-56897543D01*
X146663251Y-57017523D01*
X146668233Y-57019846D01*
X146668238Y-57019849D01*
X146865775Y-57111961D01*
X146870757Y-57114284D01*
X146876065Y-57115706D01*
X146876067Y-57115707D01*
X147086598Y-57172119D01*
X147086600Y-57172119D01*
X147091913Y-57173543D01*
X147320000Y-57193498D01*
X147548087Y-57173543D01*
X147553400Y-57172119D01*
X147553402Y-57172119D01*
X147763933Y-57115707D01*
X147763935Y-57115706D01*
X147769243Y-57114284D01*
X147774225Y-57111961D01*
X147971762Y-57019849D01*
X147971767Y-57019846D01*
X147976749Y-57017523D01*
X148148098Y-56897543D01*
X148159789Y-56889357D01*
X148159792Y-56889355D01*
X148164300Y-56886198D01*
X148326198Y-56724300D01*
X148457523Y-56536749D01*
X148459846Y-56531767D01*
X148459849Y-56531762D01*
X148551961Y-56334225D01*
X148551961Y-56334224D01*
X148554284Y-56329243D01*
X148613543Y-56108087D01*
X148633498Y-55880000D01*
X148613543Y-55651913D01*
X148554284Y-55430757D01*
X148550608Y-55422873D01*
X148459849Y-55228238D01*
X148459846Y-55228233D01*
X148457523Y-55223251D01*
X148326198Y-55035700D01*
X148164300Y-54873802D01*
X148159792Y-54870645D01*
X148159789Y-54870643D01*
X148081611Y-54815902D01*
X147976749Y-54742477D01*
X147971767Y-54740154D01*
X147971762Y-54740151D01*
X147774225Y-54648039D01*
X147774224Y-54648039D01*
X147769243Y-54645716D01*
X147763935Y-54644294D01*
X147763933Y-54644293D01*
X147553402Y-54587881D01*
X147553400Y-54587881D01*
X147548087Y-54586457D01*
X147320000Y-54566502D01*
X147091913Y-54586457D01*
X147086600Y-54587881D01*
X147086598Y-54587881D01*
X146876067Y-54644293D01*
X146876065Y-54644294D01*
X146870757Y-54645716D01*
X146865776Y-54648039D01*
X146865775Y-54648039D01*
X146668238Y-54740151D01*
X146668233Y-54740154D01*
X146663251Y-54742477D01*
X146558389Y-54815902D01*
X146480211Y-54870643D01*
X146480208Y-54870645D01*
X146475700Y-54873802D01*
X146313802Y-55035700D01*
X146182477Y-55223251D01*
X146180154Y-55228233D01*
X146180151Y-55228238D01*
X146089392Y-55422873D01*
X146085716Y-55430757D01*
X146026457Y-55651913D01*
X146006502Y-55880000D01*
X143553498Y-55880000D01*
X143533543Y-55651913D01*
X143474284Y-55430757D01*
X143470608Y-55422873D01*
X143379849Y-55228238D01*
X143379846Y-55228233D01*
X143377523Y-55223251D01*
X143246198Y-55035700D01*
X143084300Y-54873802D01*
X143079792Y-54870645D01*
X143079789Y-54870643D01*
X143001611Y-54815902D01*
X142896749Y-54742477D01*
X142891767Y-54740154D01*
X142891762Y-54740151D01*
X142694225Y-54648039D01*
X142694224Y-54648039D01*
X142689243Y-54645716D01*
X142683935Y-54644294D01*
X142683933Y-54644293D01*
X142473402Y-54587881D01*
X142473400Y-54587881D01*
X142468087Y-54586457D01*
X142240000Y-54566502D01*
X142011913Y-54586457D01*
X142006600Y-54587881D01*
X142006598Y-54587881D01*
X141796067Y-54644293D01*
X141796065Y-54644294D01*
X141790757Y-54645716D01*
X141785776Y-54648039D01*
X141785775Y-54648039D01*
X141588238Y-54740151D01*
X141588233Y-54740154D01*
X141583251Y-54742477D01*
X141478389Y-54815902D01*
X141400211Y-54870643D01*
X141400208Y-54870645D01*
X141395700Y-54873802D01*
X141233802Y-55035700D01*
X141102477Y-55223251D01*
X141100154Y-55228233D01*
X141100151Y-55228238D01*
X141009392Y-55422873D01*
X141005716Y-55430757D01*
X140946457Y-55651913D01*
X140926502Y-55880000D01*
X138473498Y-55880000D01*
X138453543Y-55651913D01*
X138394284Y-55430757D01*
X138390608Y-55422873D01*
X138299849Y-55228238D01*
X138299846Y-55228233D01*
X138297523Y-55223251D01*
X138166198Y-55035700D01*
X138004300Y-54873802D01*
X137999792Y-54870645D01*
X137999789Y-54870643D01*
X137921611Y-54815902D01*
X137816749Y-54742477D01*
X137811767Y-54740154D01*
X137811762Y-54740151D01*
X137614225Y-54648039D01*
X137614224Y-54648039D01*
X137609243Y-54645716D01*
X137603935Y-54644294D01*
X137603933Y-54644293D01*
X137393402Y-54587881D01*
X137393400Y-54587881D01*
X137388087Y-54586457D01*
X137160000Y-54566502D01*
X136931913Y-54586457D01*
X136926600Y-54587881D01*
X136926598Y-54587881D01*
X136716067Y-54644293D01*
X136716065Y-54644294D01*
X136710757Y-54645716D01*
X136705776Y-54648039D01*
X136705775Y-54648039D01*
X136508238Y-54740151D01*
X136508233Y-54740154D01*
X136503251Y-54742477D01*
X136398389Y-54815902D01*
X136320211Y-54870643D01*
X136320208Y-54870645D01*
X136315700Y-54873802D01*
X136153802Y-55035700D01*
X136150645Y-55040208D01*
X136150643Y-55040211D01*
X136043819Y-55192771D01*
X135988362Y-55237099D01*
X135940606Y-55246500D01*
X133299394Y-55246500D01*
X133231273Y-55226498D01*
X133196181Y-55192771D01*
X133089357Y-55040211D01*
X133089355Y-55040208D01*
X133086198Y-55035700D01*
X132924300Y-54873802D01*
X132919792Y-54870645D01*
X132919789Y-54870643D01*
X132841611Y-54815902D01*
X132736749Y-54742477D01*
X132731767Y-54740154D01*
X132731762Y-54740151D01*
X132534225Y-54648039D01*
X132534224Y-54648039D01*
X132529243Y-54645716D01*
X132523935Y-54644294D01*
X132523933Y-54644293D01*
X132313402Y-54587881D01*
X132313400Y-54587881D01*
X132308087Y-54586457D01*
X132080000Y-54566502D01*
X131851913Y-54586457D01*
X131846600Y-54587881D01*
X131846598Y-54587881D01*
X131636067Y-54644293D01*
X131636065Y-54644294D01*
X131630757Y-54645716D01*
X131625776Y-54648039D01*
X131625775Y-54648039D01*
X131428238Y-54740151D01*
X131428233Y-54740154D01*
X131423251Y-54742477D01*
X131318389Y-54815902D01*
X131240211Y-54870643D01*
X131240208Y-54870645D01*
X131235700Y-54873802D01*
X131073802Y-55035700D01*
X130942477Y-55223251D01*
X130940154Y-55228233D01*
X130940151Y-55228238D01*
X130849392Y-55422873D01*
X130845716Y-55430757D01*
X130786457Y-55651913D01*
X130766502Y-55880000D01*
X129508000Y-55880000D01*
X129508000Y-45720000D01*
X130766502Y-45720000D01*
X130786457Y-45948087D01*
X130787881Y-45953400D01*
X130787881Y-45953402D01*
X130797031Y-45987548D01*
X130845716Y-46169243D01*
X130848039Y-46174224D01*
X130848039Y-46174225D01*
X130940151Y-46371762D01*
X130940154Y-46371767D01*
X130942477Y-46376749D01*
X130945634Y-46381257D01*
X131065098Y-46551869D01*
X131073802Y-46564300D01*
X131235700Y-46726198D01*
X131240208Y-46729355D01*
X131240211Y-46729357D01*
X131314332Y-46781257D01*
X131423251Y-46857523D01*
X131428233Y-46859846D01*
X131428238Y-46859849D01*
X131620892Y-46949684D01*
X131630757Y-46954284D01*
X131636065Y-46955706D01*
X131636067Y-46955707D01*
X131846598Y-47012119D01*
X131846600Y-47012119D01*
X131851913Y-47013543D01*
X132080000Y-47033498D01*
X132308087Y-47013543D01*
X132313400Y-47012119D01*
X132313402Y-47012119D01*
X132523933Y-46955707D01*
X132523935Y-46955706D01*
X132529243Y-46954284D01*
X132539108Y-46949684D01*
X132731762Y-46859849D01*
X132731767Y-46859846D01*
X132736749Y-46857523D01*
X132845668Y-46781257D01*
X132919789Y-46729357D01*
X132919792Y-46729355D01*
X132924300Y-46726198D01*
X133086198Y-46564300D01*
X133094903Y-46551869D01*
X133214366Y-46381257D01*
X133217523Y-46376749D01*
X133219846Y-46371767D01*
X133219849Y-46371762D01*
X133311961Y-46174225D01*
X133311961Y-46174224D01*
X133314284Y-46169243D01*
X133362970Y-45987548D01*
X133372119Y-45953402D01*
X133372119Y-45953400D01*
X133373543Y-45948087D01*
X133393498Y-45720000D01*
X135846502Y-45720000D01*
X135866457Y-45948087D01*
X135867881Y-45953400D01*
X135867881Y-45953402D01*
X135877031Y-45987548D01*
X135925716Y-46169243D01*
X135928039Y-46174224D01*
X135928039Y-46174225D01*
X136020151Y-46371762D01*
X136020154Y-46371767D01*
X136022477Y-46376749D01*
X136025634Y-46381257D01*
X136145098Y-46551869D01*
X136153802Y-46564300D01*
X136315700Y-46726198D01*
X136320208Y-46729355D01*
X136320211Y-46729357D01*
X136394332Y-46781257D01*
X136503251Y-46857523D01*
X136508233Y-46859846D01*
X136508238Y-46859849D01*
X136700892Y-46949684D01*
X136710757Y-46954284D01*
X136716065Y-46955706D01*
X136716067Y-46955707D01*
X136926598Y-47012119D01*
X136926600Y-47012119D01*
X136931913Y-47013543D01*
X137160000Y-47033498D01*
X137388087Y-47013543D01*
X137393400Y-47012119D01*
X137393402Y-47012119D01*
X137603933Y-46955707D01*
X137603935Y-46955706D01*
X137609243Y-46954284D01*
X137619108Y-46949684D01*
X137811762Y-46859849D01*
X137811767Y-46859846D01*
X137816749Y-46857523D01*
X137925668Y-46781257D01*
X137999789Y-46729357D01*
X137999792Y-46729355D01*
X138004300Y-46726198D01*
X138166198Y-46564300D01*
X138174903Y-46551869D01*
X138294366Y-46381257D01*
X138297523Y-46376749D01*
X138299846Y-46371767D01*
X138299849Y-46371762D01*
X138391961Y-46174225D01*
X138391961Y-46174224D01*
X138394284Y-46169243D01*
X138442970Y-45987548D01*
X138443245Y-45986522D01*
X140957273Y-45986522D01*
X141004764Y-46163761D01*
X141008510Y-46174053D01*
X141100586Y-46371511D01*
X141106069Y-46381007D01*
X141231028Y-46559467D01*
X141238084Y-46567875D01*
X141392125Y-46721916D01*
X141400533Y-46728972D01*
X141578993Y-46853931D01*
X141588489Y-46859414D01*
X141785947Y-46951490D01*
X141796239Y-46955236D01*
X141968503Y-47001394D01*
X141982599Y-47001058D01*
X141986000Y-46993116D01*
X141986000Y-46987967D01*
X142494000Y-46987967D01*
X142497973Y-47001498D01*
X142506522Y-47002727D01*
X142683761Y-46955236D01*
X142694053Y-46951490D01*
X142891511Y-46859414D01*
X142901007Y-46853931D01*
X143079467Y-46728972D01*
X143087875Y-46721916D01*
X143241916Y-46567875D01*
X143248972Y-46559467D01*
X143373931Y-46381007D01*
X143379414Y-46371511D01*
X143471490Y-46174053D01*
X143475236Y-46163761D01*
X143521394Y-45991497D01*
X143521275Y-45986522D01*
X146037273Y-45986522D01*
X146084764Y-46163761D01*
X146088510Y-46174053D01*
X146180586Y-46371511D01*
X146186069Y-46381007D01*
X146311028Y-46559467D01*
X146318084Y-46567875D01*
X146472125Y-46721916D01*
X146480533Y-46728972D01*
X146658993Y-46853931D01*
X146668489Y-46859414D01*
X146865947Y-46951490D01*
X146876239Y-46955236D01*
X147048503Y-47001394D01*
X147062599Y-47001058D01*
X147066000Y-46993116D01*
X147066000Y-46987967D01*
X147574000Y-46987967D01*
X147577973Y-47001498D01*
X147586522Y-47002727D01*
X147763761Y-46955236D01*
X147774053Y-46951490D01*
X147971511Y-46859414D01*
X147981007Y-46853931D01*
X148159467Y-46728972D01*
X148167875Y-46721916D01*
X148321916Y-46567875D01*
X148328972Y-46559467D01*
X148453931Y-46381007D01*
X148459414Y-46371511D01*
X148551490Y-46174053D01*
X148555236Y-46163761D01*
X148601394Y-45991497D01*
X148601058Y-45977401D01*
X148593116Y-45974000D01*
X147592115Y-45974000D01*
X147576876Y-45978475D01*
X147575671Y-45979865D01*
X147574000Y-45987548D01*
X147574000Y-46987967D01*
X147066000Y-46987967D01*
X147066000Y-45992115D01*
X147061525Y-45976876D01*
X147060135Y-45975671D01*
X147052452Y-45974000D01*
X146052033Y-45974000D01*
X146038502Y-45977973D01*
X146037273Y-45986522D01*
X143521275Y-45986522D01*
X143521058Y-45977401D01*
X143513116Y-45974000D01*
X142512115Y-45974000D01*
X142496876Y-45978475D01*
X142495671Y-45979865D01*
X142494000Y-45987548D01*
X142494000Y-46987967D01*
X141986000Y-46987967D01*
X141986000Y-45992115D01*
X141981525Y-45976876D01*
X141980135Y-45975671D01*
X141972452Y-45974000D01*
X140972033Y-45974000D01*
X140958502Y-45977973D01*
X140957273Y-45986522D01*
X138443245Y-45986522D01*
X138452119Y-45953402D01*
X138452119Y-45953400D01*
X138453543Y-45948087D01*
X138473498Y-45720000D01*
X151086502Y-45720000D01*
X151106457Y-45948087D01*
X151107881Y-45953400D01*
X151107881Y-45953402D01*
X151117031Y-45987548D01*
X151165716Y-46169243D01*
X151168039Y-46174224D01*
X151168039Y-46174225D01*
X151260151Y-46371762D01*
X151260154Y-46371767D01*
X151262477Y-46376749D01*
X151265634Y-46381257D01*
X151385098Y-46551869D01*
X151393802Y-46564300D01*
X151555700Y-46726198D01*
X151560208Y-46729355D01*
X151560211Y-46729357D01*
X151634332Y-46781257D01*
X151743251Y-46857523D01*
X151748233Y-46859846D01*
X151748238Y-46859849D01*
X151940892Y-46949684D01*
X151950757Y-46954284D01*
X151956065Y-46955706D01*
X151956067Y-46955707D01*
X152166598Y-47012119D01*
X152166600Y-47012119D01*
X152171913Y-47013543D01*
X152400000Y-47033498D01*
X152628087Y-47013543D01*
X152633400Y-47012119D01*
X152633402Y-47012119D01*
X152843933Y-46955707D01*
X152843935Y-46955706D01*
X152849243Y-46954284D01*
X152859108Y-46949684D01*
X153051762Y-46859849D01*
X153051767Y-46859846D01*
X153056749Y-46857523D01*
X153165668Y-46781257D01*
X153239789Y-46729357D01*
X153239792Y-46729355D01*
X153244300Y-46726198D01*
X153406198Y-46564300D01*
X153414903Y-46551869D01*
X153534366Y-46381257D01*
X153537523Y-46376749D01*
X153539846Y-46371767D01*
X153539849Y-46371762D01*
X153631961Y-46174225D01*
X153631961Y-46174224D01*
X153634284Y-46169243D01*
X153682970Y-45987548D01*
X153692119Y-45953402D01*
X153692119Y-45953400D01*
X153693543Y-45948087D01*
X153713498Y-45720000D01*
X156166502Y-45720000D01*
X156186457Y-45948087D01*
X156187881Y-45953400D01*
X156187881Y-45953402D01*
X156197031Y-45987548D01*
X156245716Y-46169243D01*
X156248039Y-46174224D01*
X156248039Y-46174225D01*
X156340151Y-46371762D01*
X156340154Y-46371767D01*
X156342477Y-46376749D01*
X156345634Y-46381257D01*
X156465098Y-46551869D01*
X156473802Y-46564300D01*
X156635700Y-46726198D01*
X156640208Y-46729355D01*
X156640211Y-46729357D01*
X156714332Y-46781257D01*
X156823251Y-46857523D01*
X156828233Y-46859846D01*
X156828238Y-46859849D01*
X157020892Y-46949684D01*
X157030757Y-46954284D01*
X157036065Y-46955706D01*
X157036067Y-46955707D01*
X157246598Y-47012119D01*
X157246600Y-47012119D01*
X157251913Y-47013543D01*
X157480000Y-47033498D01*
X157708087Y-47013543D01*
X157713400Y-47012119D01*
X157713402Y-47012119D01*
X157923933Y-46955707D01*
X157923935Y-46955706D01*
X157929243Y-46954284D01*
X157939108Y-46949684D01*
X158131762Y-46859849D01*
X158131767Y-46859846D01*
X158136749Y-46857523D01*
X158245668Y-46781257D01*
X158319789Y-46729357D01*
X158319792Y-46729355D01*
X158324300Y-46726198D01*
X158406093Y-46644405D01*
X158468405Y-46610379D01*
X158495188Y-46607500D01*
X164207835Y-46607500D01*
X164275956Y-46627502D01*
X164322449Y-46681158D01*
X164332553Y-46751432D01*
X164303059Y-46816012D01*
X164280108Y-46836711D01*
X164255700Y-46853802D01*
X164093802Y-47015700D01*
X164090645Y-47020208D01*
X164090643Y-47020211D01*
X164058257Y-47066463D01*
X163962477Y-47203251D01*
X163960154Y-47208233D01*
X163960151Y-47208238D01*
X163919852Y-47294661D01*
X163865716Y-47410757D01*
X163806457Y-47631913D01*
X163791500Y-47802873D01*
X163791500Y-48717127D01*
X163806457Y-48888087D01*
X163865716Y-49109243D01*
X163868039Y-49114224D01*
X163868039Y-49114225D01*
X163960151Y-49311762D01*
X163960154Y-49311767D01*
X163962477Y-49316749D01*
X164035902Y-49421611D01*
X164086789Y-49494284D01*
X164093802Y-49504300D01*
X164255700Y-49666198D01*
X164260208Y-49669355D01*
X164260211Y-49669357D01*
X164301542Y-49698297D01*
X164443251Y-49797523D01*
X164448233Y-49799846D01*
X164448238Y-49799849D01*
X164645775Y-49891961D01*
X164650757Y-49894284D01*
X164656065Y-49895706D01*
X164656067Y-49895707D01*
X164866598Y-49952119D01*
X164866600Y-49952119D01*
X164871913Y-49953543D01*
X165100000Y-49973498D01*
X165328087Y-49953543D01*
X165333400Y-49952119D01*
X165333402Y-49952119D01*
X165543933Y-49895707D01*
X165543935Y-49895706D01*
X165549243Y-49894284D01*
X165554225Y-49891961D01*
X165751762Y-49799849D01*
X165751767Y-49799846D01*
X165756749Y-49797523D01*
X165898458Y-49698297D01*
X165939789Y-49669357D01*
X165939792Y-49669355D01*
X165944300Y-49666198D01*
X166106198Y-49504300D01*
X166113212Y-49494284D01*
X166164098Y-49421611D01*
X166237523Y-49316749D01*
X166239846Y-49311767D01*
X166239849Y-49311762D01*
X166255805Y-49277543D01*
X166302722Y-49224258D01*
X166370999Y-49204797D01*
X166438959Y-49225339D01*
X166484195Y-49277543D01*
X166500151Y-49311762D01*
X166500154Y-49311767D01*
X166502477Y-49316749D01*
X166575902Y-49421611D01*
X166626789Y-49494284D01*
X166633802Y-49504300D01*
X166795700Y-49666198D01*
X166800208Y-49669355D01*
X166800211Y-49669357D01*
X166841542Y-49698297D01*
X166983251Y-49797523D01*
X166988233Y-49799846D01*
X166988238Y-49799849D01*
X167185775Y-49891961D01*
X167190757Y-49894284D01*
X167196065Y-49895706D01*
X167196067Y-49895707D01*
X167406598Y-49952119D01*
X167406600Y-49952119D01*
X167411913Y-49953543D01*
X167640000Y-49973498D01*
X167868087Y-49953543D01*
X167873400Y-49952119D01*
X167873402Y-49952119D01*
X168083933Y-49895707D01*
X168083935Y-49895706D01*
X168089243Y-49894284D01*
X168094225Y-49891961D01*
X168291762Y-49799849D01*
X168291767Y-49799846D01*
X168296749Y-49797523D01*
X168438458Y-49698297D01*
X168479789Y-49669357D01*
X168479792Y-49669355D01*
X168484300Y-49666198D01*
X168646198Y-49504300D01*
X168653212Y-49494284D01*
X168704098Y-49421611D01*
X168777523Y-49316749D01*
X168779846Y-49311767D01*
X168779849Y-49311762D01*
X168795805Y-49277543D01*
X168842722Y-49224258D01*
X168910999Y-49204797D01*
X168978959Y-49225339D01*
X169024195Y-49277543D01*
X169040151Y-49311762D01*
X169040154Y-49311767D01*
X169042477Y-49316749D01*
X169115902Y-49421611D01*
X169166789Y-49494284D01*
X169173802Y-49504300D01*
X169335700Y-49666198D01*
X169340208Y-49669355D01*
X169340211Y-49669357D01*
X169381542Y-49698297D01*
X169523251Y-49797523D01*
X169528233Y-49799846D01*
X169528238Y-49799849D01*
X169725775Y-49891961D01*
X169730757Y-49894284D01*
X169736065Y-49895706D01*
X169736067Y-49895707D01*
X169946598Y-49952119D01*
X169946600Y-49952119D01*
X169951913Y-49953543D01*
X170180000Y-49973498D01*
X170408087Y-49953543D01*
X170413400Y-49952119D01*
X170413402Y-49952119D01*
X170623933Y-49895707D01*
X170623935Y-49895706D01*
X170629243Y-49894284D01*
X170634225Y-49891961D01*
X170831762Y-49799849D01*
X170831767Y-49799846D01*
X170836749Y-49797523D01*
X170978458Y-49698297D01*
X171019789Y-49669357D01*
X171019792Y-49669355D01*
X171024300Y-49666198D01*
X171186198Y-49504300D01*
X171189357Y-49499789D01*
X171192892Y-49495576D01*
X171194026Y-49496527D01*
X171244071Y-49456529D01*
X171314690Y-49449224D01*
X171378049Y-49481258D01*
X171414030Y-49542462D01*
X171417082Y-49559517D01*
X171418255Y-49570316D01*
X171469385Y-49706705D01*
X171556739Y-49823261D01*
X171673295Y-49910615D01*
X171809684Y-49961745D01*
X171871866Y-49968500D01*
X173568134Y-49968500D01*
X173630316Y-49961745D01*
X173766705Y-49910615D01*
X173883261Y-49823261D01*
X173970615Y-49706705D01*
X174021745Y-49570316D01*
X174028500Y-49508134D01*
X174028500Y-48260000D01*
X175216502Y-48260000D01*
X175236457Y-48488087D01*
X175295716Y-48709243D01*
X175298039Y-48714224D01*
X175298039Y-48714225D01*
X175390151Y-48911762D01*
X175390154Y-48911767D01*
X175392477Y-48916749D01*
X175523802Y-49104300D01*
X175685700Y-49266198D01*
X175690208Y-49269355D01*
X175690211Y-49269357D01*
X175701902Y-49277543D01*
X175873251Y-49397523D01*
X175878233Y-49399846D01*
X175878238Y-49399849D01*
X176052822Y-49481258D01*
X176080757Y-49494284D01*
X176086065Y-49495706D01*
X176086067Y-49495707D01*
X176296598Y-49552119D01*
X176296600Y-49552119D01*
X176301913Y-49553543D01*
X176530000Y-49573498D01*
X176758087Y-49553543D01*
X176763400Y-49552119D01*
X176763402Y-49552119D01*
X176973933Y-49495707D01*
X176973935Y-49495706D01*
X176979243Y-49494284D01*
X177007178Y-49481258D01*
X177181762Y-49399849D01*
X177181767Y-49399846D01*
X177186749Y-49397523D01*
X177358098Y-49277543D01*
X177369789Y-49269357D01*
X177369792Y-49269355D01*
X177374300Y-49266198D01*
X177536198Y-49104300D01*
X177667523Y-48916749D01*
X177669846Y-48911767D01*
X177669849Y-48911762D01*
X177761961Y-48714225D01*
X177761961Y-48714224D01*
X177764284Y-48709243D01*
X177823543Y-48488087D01*
X177843498Y-48260000D01*
X180296502Y-48260000D01*
X180316457Y-48488087D01*
X180375716Y-48709243D01*
X180378039Y-48714224D01*
X180378039Y-48714225D01*
X180470151Y-48911762D01*
X180470154Y-48911767D01*
X180472477Y-48916749D01*
X180603802Y-49104300D01*
X180765700Y-49266198D01*
X180770208Y-49269355D01*
X180770211Y-49269357D01*
X180781902Y-49277543D01*
X180953251Y-49397523D01*
X180958233Y-49399846D01*
X180958238Y-49399849D01*
X181132822Y-49481258D01*
X181160757Y-49494284D01*
X181166065Y-49495706D01*
X181166067Y-49495707D01*
X181376598Y-49552119D01*
X181376600Y-49552119D01*
X181381913Y-49553543D01*
X181610000Y-49573498D01*
X181838087Y-49553543D01*
X181843400Y-49552119D01*
X181843402Y-49552119D01*
X182053933Y-49495707D01*
X182053935Y-49495706D01*
X182059243Y-49494284D01*
X182087178Y-49481258D01*
X182261762Y-49399849D01*
X182261767Y-49399846D01*
X182266749Y-49397523D01*
X182438098Y-49277543D01*
X182449789Y-49269357D01*
X182449792Y-49269355D01*
X182454300Y-49266198D01*
X182616198Y-49104300D01*
X182747523Y-48916749D01*
X182749846Y-48911767D01*
X182749849Y-48911762D01*
X182841961Y-48714225D01*
X182841961Y-48714224D01*
X182844284Y-48709243D01*
X182903543Y-48488087D01*
X182923498Y-48260000D01*
X185376502Y-48260000D01*
X185396457Y-48488087D01*
X185455716Y-48709243D01*
X185458039Y-48714224D01*
X185458039Y-48714225D01*
X185550151Y-48911762D01*
X185550154Y-48911767D01*
X185552477Y-48916749D01*
X185683802Y-49104300D01*
X185845700Y-49266198D01*
X185850208Y-49269355D01*
X185850211Y-49269357D01*
X185861902Y-49277543D01*
X186033251Y-49397523D01*
X186038233Y-49399846D01*
X186038238Y-49399849D01*
X186212822Y-49481258D01*
X186240757Y-49494284D01*
X186246065Y-49495706D01*
X186246067Y-49495707D01*
X186456598Y-49552119D01*
X186456600Y-49552119D01*
X186461913Y-49553543D01*
X186690000Y-49573498D01*
X186918087Y-49553543D01*
X186923400Y-49552119D01*
X186923402Y-49552119D01*
X187133933Y-49495707D01*
X187133935Y-49495706D01*
X187139243Y-49494284D01*
X187167178Y-49481258D01*
X187341762Y-49399849D01*
X187341767Y-49399846D01*
X187346749Y-49397523D01*
X187518098Y-49277543D01*
X187529789Y-49269357D01*
X187529792Y-49269355D01*
X187534300Y-49266198D01*
X187696198Y-49104300D01*
X187827523Y-48916749D01*
X187829846Y-48911767D01*
X187829849Y-48911762D01*
X187921961Y-48714225D01*
X187921961Y-48714224D01*
X187924284Y-48709243D01*
X187983543Y-48488087D01*
X188003498Y-48260000D01*
X187983543Y-48031913D01*
X187924284Y-47810757D01*
X187920608Y-47802873D01*
X187829849Y-47608238D01*
X187829846Y-47608233D01*
X187827523Y-47603251D01*
X187696198Y-47415700D01*
X187534300Y-47253802D01*
X187529792Y-47250645D01*
X187529789Y-47250643D01*
X187451611Y-47195902D01*
X187346749Y-47122477D01*
X187341767Y-47120154D01*
X187341762Y-47120151D01*
X187144225Y-47028039D01*
X187144224Y-47028039D01*
X187139243Y-47025716D01*
X187133935Y-47024294D01*
X187133933Y-47024293D01*
X186923402Y-46967881D01*
X186923400Y-46967881D01*
X186918087Y-46966457D01*
X186690000Y-46946502D01*
X186461913Y-46966457D01*
X186456600Y-46967881D01*
X186456598Y-46967881D01*
X186246067Y-47024293D01*
X186246065Y-47024294D01*
X186240757Y-47025716D01*
X186235776Y-47028039D01*
X186235775Y-47028039D01*
X186038238Y-47120151D01*
X186038233Y-47120154D01*
X186033251Y-47122477D01*
X185928389Y-47195902D01*
X185850211Y-47250643D01*
X185850208Y-47250645D01*
X185845700Y-47253802D01*
X185683802Y-47415700D01*
X185552477Y-47603251D01*
X185550154Y-47608233D01*
X185550151Y-47608238D01*
X185459392Y-47802873D01*
X185455716Y-47810757D01*
X185396457Y-48031913D01*
X185376502Y-48260000D01*
X182923498Y-48260000D01*
X182903543Y-48031913D01*
X182844284Y-47810757D01*
X182840608Y-47802873D01*
X182749849Y-47608238D01*
X182749846Y-47608233D01*
X182747523Y-47603251D01*
X182616198Y-47415700D01*
X182454300Y-47253802D01*
X182449792Y-47250645D01*
X182449789Y-47250643D01*
X182371611Y-47195902D01*
X182266749Y-47122477D01*
X182261767Y-47120154D01*
X182261762Y-47120151D01*
X182064225Y-47028039D01*
X182064224Y-47028039D01*
X182059243Y-47025716D01*
X182053935Y-47024294D01*
X182053933Y-47024293D01*
X181843402Y-46967881D01*
X181843400Y-46967881D01*
X181838087Y-46966457D01*
X181610000Y-46946502D01*
X181381913Y-46966457D01*
X181376600Y-46967881D01*
X181376598Y-46967881D01*
X181166067Y-47024293D01*
X181166065Y-47024294D01*
X181160757Y-47025716D01*
X181155776Y-47028039D01*
X181155775Y-47028039D01*
X180958238Y-47120151D01*
X180958233Y-47120154D01*
X180953251Y-47122477D01*
X180848389Y-47195902D01*
X180770211Y-47250643D01*
X180770208Y-47250645D01*
X180765700Y-47253802D01*
X180603802Y-47415700D01*
X180472477Y-47603251D01*
X180470154Y-47608233D01*
X180470151Y-47608238D01*
X180379392Y-47802873D01*
X180375716Y-47810757D01*
X180316457Y-48031913D01*
X180296502Y-48260000D01*
X177843498Y-48260000D01*
X177823543Y-48031913D01*
X177764284Y-47810757D01*
X177760608Y-47802873D01*
X177669849Y-47608238D01*
X177669846Y-47608233D01*
X177667523Y-47603251D01*
X177536198Y-47415700D01*
X177374300Y-47253802D01*
X177369792Y-47250645D01*
X177369789Y-47250643D01*
X177291611Y-47195902D01*
X177186749Y-47122477D01*
X177181767Y-47120154D01*
X177181762Y-47120151D01*
X176984225Y-47028039D01*
X176984224Y-47028039D01*
X176979243Y-47025716D01*
X176973935Y-47024294D01*
X176973933Y-47024293D01*
X176763402Y-46967881D01*
X176763400Y-46967881D01*
X176758087Y-46966457D01*
X176530000Y-46946502D01*
X176301913Y-46966457D01*
X176296600Y-46967881D01*
X176296598Y-46967881D01*
X176086067Y-47024293D01*
X176086065Y-47024294D01*
X176080757Y-47025716D01*
X176075776Y-47028039D01*
X176075775Y-47028039D01*
X175878238Y-47120151D01*
X175878233Y-47120154D01*
X175873251Y-47122477D01*
X175768389Y-47195902D01*
X175690211Y-47250643D01*
X175690208Y-47250645D01*
X175685700Y-47253802D01*
X175523802Y-47415700D01*
X175392477Y-47603251D01*
X175390154Y-47608233D01*
X175390151Y-47608238D01*
X175299392Y-47802873D01*
X175295716Y-47810757D01*
X175236457Y-48031913D01*
X175216502Y-48260000D01*
X174028500Y-48260000D01*
X174028500Y-47011866D01*
X174021745Y-46949684D01*
X173970615Y-46813295D01*
X173883261Y-46696739D01*
X173766705Y-46609385D01*
X173630316Y-46558255D01*
X173568134Y-46551500D01*
X171871866Y-46551500D01*
X171809684Y-46558255D01*
X171673295Y-46609385D01*
X171556739Y-46696739D01*
X171469385Y-46813295D01*
X171418255Y-46949684D01*
X171417083Y-46960474D01*
X171416197Y-46962606D01*
X171415575Y-46965222D01*
X171415152Y-46965121D01*
X171389845Y-47026035D01*
X171331483Y-47066463D01*
X171260529Y-47068922D01*
X171199510Y-47032629D01*
X171192511Y-47023969D01*
X171189354Y-47020207D01*
X171186198Y-47015700D01*
X171024300Y-46853802D01*
X171019792Y-46850645D01*
X171019789Y-46850643D01*
X170920695Y-46781257D01*
X170836749Y-46722477D01*
X170831767Y-46720154D01*
X170831762Y-46720151D01*
X170634225Y-46628039D01*
X170634224Y-46628039D01*
X170629243Y-46625716D01*
X170623935Y-46624294D01*
X170623933Y-46624293D01*
X170413402Y-46567881D01*
X170413400Y-46567881D01*
X170408087Y-46566457D01*
X170180000Y-46546502D01*
X169951913Y-46566457D01*
X169946600Y-46567881D01*
X169946598Y-46567881D01*
X169736067Y-46624293D01*
X169736065Y-46624294D01*
X169730757Y-46625716D01*
X169613528Y-46680380D01*
X169543338Y-46691041D01*
X169478526Y-46662061D01*
X169471185Y-46655280D01*
X168397652Y-45581747D01*
X168390112Y-45573461D01*
X168386000Y-45566982D01*
X168336348Y-45520356D01*
X168333507Y-45517602D01*
X168313770Y-45497865D01*
X168310573Y-45495385D01*
X168301551Y-45487680D01*
X168276685Y-45464329D01*
X168269321Y-45457414D01*
X168262375Y-45453595D01*
X168262372Y-45453593D01*
X168251566Y-45447652D01*
X168235047Y-45436801D01*
X168234583Y-45436441D01*
X168219041Y-45424386D01*
X168211772Y-45421241D01*
X168211768Y-45421238D01*
X168178463Y-45406826D01*
X168167813Y-45401609D01*
X168129060Y-45380305D01*
X168109437Y-45375267D01*
X168090734Y-45368863D01*
X168079420Y-45363967D01*
X168079419Y-45363967D01*
X168072145Y-45360819D01*
X168064322Y-45359580D01*
X168064312Y-45359577D01*
X168028476Y-45353901D01*
X168016856Y-45351495D01*
X167981711Y-45342472D01*
X167981710Y-45342472D01*
X167974030Y-45340500D01*
X167953776Y-45340500D01*
X167934065Y-45338949D01*
X167921886Y-45337020D01*
X167914057Y-45335780D01*
X167906165Y-45336526D01*
X167870039Y-45339941D01*
X167858181Y-45340500D01*
X167194636Y-45340500D01*
X167126515Y-45320498D01*
X167080022Y-45266842D01*
X167069918Y-45196568D01*
X167078227Y-45166282D01*
X167079807Y-45162469D01*
X167119105Y-45067594D01*
X167138360Y-44987391D01*
X167173380Y-44841524D01*
X167173381Y-44841518D01*
X167174535Y-44836711D01*
X167193165Y-44600000D01*
X168666835Y-44600000D01*
X168685465Y-44836711D01*
X168686619Y-44841518D01*
X168686620Y-44841524D01*
X168721640Y-44987391D01*
X168740895Y-45067594D01*
X168742788Y-45072165D01*
X168742789Y-45072167D01*
X168827247Y-45276067D01*
X168831760Y-45286963D01*
X168834346Y-45291183D01*
X168953241Y-45485202D01*
X168953245Y-45485208D01*
X168955824Y-45489416D01*
X169110031Y-45669969D01*
X169290584Y-45824176D01*
X169294792Y-45826755D01*
X169294798Y-45826759D01*
X169483845Y-45942607D01*
X169493037Y-45948240D01*
X169497607Y-45950133D01*
X169497611Y-45950135D01*
X169597469Y-45991497D01*
X169712406Y-46039105D01*
X169792609Y-46058360D01*
X169938476Y-46093380D01*
X169938482Y-46093381D01*
X169943289Y-46094535D01*
X170180000Y-46113165D01*
X170416711Y-46094535D01*
X170421518Y-46093381D01*
X170421524Y-46093380D01*
X170567391Y-46058360D01*
X170647594Y-46039105D01*
X170762531Y-45991497D01*
X170862389Y-45950135D01*
X170862393Y-45950133D01*
X170866963Y-45948240D01*
X170876155Y-45942607D01*
X171065202Y-45826759D01*
X171065208Y-45826755D01*
X171069416Y-45824176D01*
X171249969Y-45669969D01*
X171404176Y-45489416D01*
X171406755Y-45485208D01*
X171406759Y-45485202D01*
X171524133Y-45293665D01*
X171576781Y-45246034D01*
X171631566Y-45233500D01*
X175031233Y-45233500D01*
X175042416Y-45234027D01*
X175049909Y-45235702D01*
X175057835Y-45235453D01*
X175057836Y-45235453D01*
X175117986Y-45233562D01*
X175121945Y-45233500D01*
X175149856Y-45233500D01*
X175153791Y-45233003D01*
X175153856Y-45232995D01*
X175165693Y-45232062D01*
X175197951Y-45231048D01*
X175201970Y-45230922D01*
X175209889Y-45230673D01*
X175229343Y-45225021D01*
X175248700Y-45221013D01*
X175260930Y-45219468D01*
X175260931Y-45219468D01*
X175268797Y-45218474D01*
X175276168Y-45215555D01*
X175276170Y-45215555D01*
X175309912Y-45202196D01*
X175321142Y-45198351D01*
X175355983Y-45188229D01*
X175355984Y-45188229D01*
X175363593Y-45186018D01*
X175370412Y-45181985D01*
X175370417Y-45181983D01*
X175381028Y-45175707D01*
X175398776Y-45167012D01*
X175417617Y-45159552D01*
X175453387Y-45133564D01*
X175463307Y-45127048D01*
X175494535Y-45108580D01*
X175494538Y-45108578D01*
X175501362Y-45104542D01*
X175515683Y-45090221D01*
X175530717Y-45077380D01*
X175540694Y-45070131D01*
X175547107Y-45065472D01*
X175575298Y-45031395D01*
X175583288Y-45022616D01*
X181196752Y-39409152D01*
X181259064Y-39375126D01*
X181318459Y-39376541D01*
X181376591Y-39392118D01*
X181376602Y-39392120D01*
X181381913Y-39393543D01*
X181610000Y-39413498D01*
X181838087Y-39393543D01*
X181843400Y-39392119D01*
X181843402Y-39392119D01*
X182053933Y-39335707D01*
X182053935Y-39335706D01*
X182059243Y-39334284D01*
X182189463Y-39273562D01*
X182261762Y-39239849D01*
X182261767Y-39239846D01*
X182266749Y-39237523D01*
X182438011Y-39117604D01*
X182449789Y-39109357D01*
X182449792Y-39109355D01*
X182454300Y-39106198D01*
X182616198Y-38944300D01*
X182726181Y-38787229D01*
X182781638Y-38742901D01*
X182829394Y-38733500D01*
X185470606Y-38733500D01*
X185538727Y-38753502D01*
X185573819Y-38787229D01*
X185683802Y-38944300D01*
X185845700Y-39106198D01*
X185850208Y-39109355D01*
X185850211Y-39109357D01*
X185861989Y-39117604D01*
X186033251Y-39237523D01*
X186038233Y-39239846D01*
X186038238Y-39239849D01*
X186110537Y-39273562D01*
X186240757Y-39334284D01*
X186246065Y-39335706D01*
X186246067Y-39335707D01*
X186456598Y-39392119D01*
X186456600Y-39392119D01*
X186461913Y-39393543D01*
X186690000Y-39413498D01*
X186918087Y-39393543D01*
X186923400Y-39392119D01*
X186923402Y-39392119D01*
X187133933Y-39335707D01*
X187133935Y-39335706D01*
X187139243Y-39334284D01*
X187269463Y-39273562D01*
X187341762Y-39239849D01*
X187341767Y-39239846D01*
X187346749Y-39237523D01*
X187518011Y-39117604D01*
X187529789Y-39109357D01*
X187529792Y-39109355D01*
X187534300Y-39106198D01*
X187696198Y-38944300D01*
X187827523Y-38756749D01*
X187829846Y-38751767D01*
X187829849Y-38751762D01*
X187921961Y-38554225D01*
X187921961Y-38554224D01*
X187924284Y-38549243D01*
X187966541Y-38391541D01*
X187982119Y-38333402D01*
X187982120Y-38333398D01*
X187983543Y-38328087D01*
X188003498Y-38100000D01*
X187983543Y-37871913D01*
X187973244Y-37833478D01*
X187925707Y-37656067D01*
X187925706Y-37656065D01*
X187924284Y-37650757D01*
X187915727Y-37632406D01*
X187829849Y-37448238D01*
X187829846Y-37448233D01*
X187827523Y-37443251D01*
X187696198Y-37255700D01*
X187534300Y-37093802D01*
X187529792Y-37090645D01*
X187529789Y-37090643D01*
X187438644Y-37026823D01*
X187346749Y-36962477D01*
X187341767Y-36960154D01*
X187341762Y-36960151D01*
X187144225Y-36868039D01*
X187144224Y-36868039D01*
X187139243Y-36865716D01*
X187133935Y-36864294D01*
X187133933Y-36864293D01*
X186923402Y-36807881D01*
X186923400Y-36807881D01*
X186918087Y-36806457D01*
X186690000Y-36786502D01*
X186461913Y-36806457D01*
X186456600Y-36807881D01*
X186456598Y-36807881D01*
X186246067Y-36864293D01*
X186246065Y-36864294D01*
X186240757Y-36865716D01*
X186235776Y-36868039D01*
X186235775Y-36868039D01*
X186038238Y-36960151D01*
X186038233Y-36960154D01*
X186033251Y-36962477D01*
X185941356Y-37026823D01*
X185850211Y-37090643D01*
X185850208Y-37090645D01*
X185845700Y-37093802D01*
X185683802Y-37255700D01*
X185680645Y-37260208D01*
X185680643Y-37260211D01*
X185573819Y-37412771D01*
X185518362Y-37457099D01*
X185470606Y-37466500D01*
X182829394Y-37466500D01*
X182761273Y-37446498D01*
X182726181Y-37412771D01*
X182619357Y-37260211D01*
X182619355Y-37260208D01*
X182616198Y-37255700D01*
X182454300Y-37093802D01*
X182449792Y-37090645D01*
X182449789Y-37090643D01*
X182358644Y-37026823D01*
X182266749Y-36962477D01*
X182261767Y-36960154D01*
X182261762Y-36960151D01*
X182064225Y-36868039D01*
X182064224Y-36868039D01*
X182059243Y-36865716D01*
X182053935Y-36864294D01*
X182053933Y-36864293D01*
X181843402Y-36807881D01*
X181843400Y-36807881D01*
X181838087Y-36806457D01*
X181610000Y-36786502D01*
X181381913Y-36806457D01*
X181376600Y-36807881D01*
X181376598Y-36807881D01*
X181166067Y-36864293D01*
X181166065Y-36864294D01*
X181160757Y-36865716D01*
X181155776Y-36868039D01*
X181155775Y-36868039D01*
X180958238Y-36960151D01*
X180958233Y-36960154D01*
X180953251Y-36962477D01*
X180861356Y-37026823D01*
X180770211Y-37090643D01*
X180770208Y-37090645D01*
X180765700Y-37093802D01*
X180603802Y-37255700D01*
X180472477Y-37443251D01*
X180470154Y-37448233D01*
X180470151Y-37448238D01*
X180384273Y-37632406D01*
X180375716Y-37650757D01*
X180374294Y-37656065D01*
X180374293Y-37656067D01*
X180326756Y-37833478D01*
X180316457Y-37871913D01*
X180296502Y-38100000D01*
X180316457Y-38328087D01*
X180326756Y-38366522D01*
X180333460Y-38391541D01*
X180331770Y-38462518D01*
X180300848Y-38513247D01*
X174884500Y-43929595D01*
X174822188Y-43963621D01*
X174795405Y-43966500D01*
X171631566Y-43966500D01*
X171563445Y-43946498D01*
X171524133Y-43906335D01*
X171406759Y-43714798D01*
X171406755Y-43714792D01*
X171404176Y-43710584D01*
X171249969Y-43530031D01*
X171069416Y-43375824D01*
X171065208Y-43373245D01*
X171065202Y-43373241D01*
X170871183Y-43254346D01*
X170866963Y-43251760D01*
X170862393Y-43249867D01*
X170862389Y-43249865D01*
X170652167Y-43162789D01*
X170652165Y-43162788D01*
X170647594Y-43160895D01*
X170567391Y-43141640D01*
X170421524Y-43106620D01*
X170421518Y-43106619D01*
X170416711Y-43105465D01*
X170180000Y-43086835D01*
X169943289Y-43105465D01*
X169938482Y-43106619D01*
X169938476Y-43106620D01*
X169792609Y-43141640D01*
X169712406Y-43160895D01*
X169707835Y-43162788D01*
X169707833Y-43162789D01*
X169497611Y-43249865D01*
X169497607Y-43249867D01*
X169493037Y-43251760D01*
X169488817Y-43254346D01*
X169294798Y-43373241D01*
X169294792Y-43373245D01*
X169290584Y-43375824D01*
X169110031Y-43530031D01*
X168955824Y-43710584D01*
X168953245Y-43714792D01*
X168953241Y-43714798D01*
X168835867Y-43906335D01*
X168831760Y-43913037D01*
X168829867Y-43917607D01*
X168829865Y-43917611D01*
X168809615Y-43966500D01*
X168740895Y-44132406D01*
X168685465Y-44363289D01*
X168666835Y-44600000D01*
X167193165Y-44600000D01*
X167174535Y-44363289D01*
X167119105Y-44132406D01*
X167050385Y-43966500D01*
X167030135Y-43917611D01*
X167030133Y-43917607D01*
X167028240Y-43913037D01*
X167024133Y-43906335D01*
X166906759Y-43714798D01*
X166906755Y-43714792D01*
X166904176Y-43710584D01*
X166749969Y-43530031D01*
X166569416Y-43375824D01*
X166565208Y-43373245D01*
X166565202Y-43373241D01*
X166371183Y-43254346D01*
X166366963Y-43251760D01*
X166362393Y-43249867D01*
X166362389Y-43249865D01*
X166152167Y-43162789D01*
X166152165Y-43162788D01*
X166147594Y-43160895D01*
X166067391Y-43141640D01*
X165921524Y-43106620D01*
X165921518Y-43106619D01*
X165916711Y-43105465D01*
X165680000Y-43086835D01*
X165443289Y-43105465D01*
X165438482Y-43106619D01*
X165438476Y-43106620D01*
X165292609Y-43141640D01*
X165212406Y-43160895D01*
X165207835Y-43162788D01*
X165207833Y-43162789D01*
X164997611Y-43249865D01*
X164997607Y-43249867D01*
X164993037Y-43251760D01*
X164988817Y-43254346D01*
X164794798Y-43373241D01*
X164794792Y-43373245D01*
X164790584Y-43375824D01*
X164610031Y-43530031D01*
X164455824Y-43710584D01*
X164453245Y-43714792D01*
X164453241Y-43714798D01*
X164335867Y-43906335D01*
X164331760Y-43913037D01*
X164329867Y-43917607D01*
X164329865Y-43917611D01*
X164309615Y-43966500D01*
X164240895Y-44132406D01*
X164185465Y-44363289D01*
X164166835Y-44600000D01*
X164185465Y-44836711D01*
X164186619Y-44841518D01*
X164186620Y-44841524D01*
X164221640Y-44987391D01*
X164240895Y-45067594D01*
X164280194Y-45162469D01*
X164281773Y-45166282D01*
X164289362Y-45236872D01*
X164257583Y-45300359D01*
X164196525Y-45336586D01*
X164165364Y-45340500D01*
X158827077Y-45340500D01*
X158758956Y-45320498D01*
X158712882Y-45267750D01*
X158619849Y-45068238D01*
X158619846Y-45068233D01*
X158617523Y-45063251D01*
X158486198Y-44875700D01*
X158324300Y-44713802D01*
X158319792Y-44710645D01*
X158319789Y-44710643D01*
X158161774Y-44600000D01*
X158136749Y-44582477D01*
X158131767Y-44580154D01*
X158131762Y-44580151D01*
X157934225Y-44488039D01*
X157934224Y-44488039D01*
X157929243Y-44485716D01*
X157923935Y-44484294D01*
X157923933Y-44484293D01*
X157713402Y-44427881D01*
X157713400Y-44427881D01*
X157708087Y-44426457D01*
X157480000Y-44406502D01*
X157251913Y-44426457D01*
X157246600Y-44427881D01*
X157246598Y-44427881D01*
X157036067Y-44484293D01*
X157036065Y-44484294D01*
X157030757Y-44485716D01*
X157025776Y-44488039D01*
X157025775Y-44488039D01*
X156828238Y-44580151D01*
X156828233Y-44580154D01*
X156823251Y-44582477D01*
X156798226Y-44600000D01*
X156640211Y-44710643D01*
X156640208Y-44710645D01*
X156635700Y-44713802D01*
X156473802Y-44875700D01*
X156342477Y-45063251D01*
X156340154Y-45068233D01*
X156340151Y-45068238D01*
X156263321Y-45233003D01*
X156245716Y-45270757D01*
X156244294Y-45276065D01*
X156244293Y-45276067D01*
X156196756Y-45453478D01*
X156186457Y-45491913D01*
X156166502Y-45720000D01*
X153713498Y-45720000D01*
X153693543Y-45491913D01*
X153683244Y-45453478D01*
X153635707Y-45276067D01*
X153635706Y-45276065D01*
X153634284Y-45270757D01*
X153616679Y-45233003D01*
X153539849Y-45068238D01*
X153539846Y-45068233D01*
X153537523Y-45063251D01*
X153406198Y-44875700D01*
X153244300Y-44713802D01*
X153239792Y-44710645D01*
X153239789Y-44710643D01*
X153081774Y-44600000D01*
X153056749Y-44582477D01*
X153051767Y-44580154D01*
X153051762Y-44580151D01*
X152854225Y-44488039D01*
X152854224Y-44488039D01*
X152849243Y-44485716D01*
X152843935Y-44484294D01*
X152843933Y-44484293D01*
X152633402Y-44427881D01*
X152633400Y-44427881D01*
X152628087Y-44426457D01*
X152400000Y-44406502D01*
X152171913Y-44426457D01*
X152166600Y-44427881D01*
X152166598Y-44427881D01*
X151956067Y-44484293D01*
X151956065Y-44484294D01*
X151950757Y-44485716D01*
X151945776Y-44488039D01*
X151945775Y-44488039D01*
X151748238Y-44580151D01*
X151748233Y-44580154D01*
X151743251Y-44582477D01*
X151718226Y-44600000D01*
X151560211Y-44710643D01*
X151560208Y-44710645D01*
X151555700Y-44713802D01*
X151393802Y-44875700D01*
X151262477Y-45063251D01*
X151260154Y-45068233D01*
X151260151Y-45068238D01*
X151183321Y-45233003D01*
X151165716Y-45270757D01*
X151164294Y-45276065D01*
X151164293Y-45276067D01*
X151116756Y-45453478D01*
X151106457Y-45491913D01*
X151086502Y-45720000D01*
X138473498Y-45720000D01*
X138453543Y-45491913D01*
X138443244Y-45453478D01*
X138441911Y-45448503D01*
X140958606Y-45448503D01*
X140958942Y-45462599D01*
X140966884Y-45466000D01*
X141967885Y-45466000D01*
X141983124Y-45461525D01*
X141984329Y-45460135D01*
X141986000Y-45452452D01*
X141986000Y-45447885D01*
X142494000Y-45447885D01*
X142498475Y-45463124D01*
X142499865Y-45464329D01*
X142507548Y-45466000D01*
X143507967Y-45466000D01*
X143521498Y-45462027D01*
X143522727Y-45453478D01*
X143521394Y-45448503D01*
X146038606Y-45448503D01*
X146038942Y-45462599D01*
X146046884Y-45466000D01*
X147047885Y-45466000D01*
X147063124Y-45461525D01*
X147064329Y-45460135D01*
X147066000Y-45452452D01*
X147066000Y-45447885D01*
X147574000Y-45447885D01*
X147578475Y-45463124D01*
X147579865Y-45464329D01*
X147587548Y-45466000D01*
X148587967Y-45466000D01*
X148601498Y-45462027D01*
X148602727Y-45453478D01*
X148555236Y-45276239D01*
X148551490Y-45265947D01*
X148459414Y-45068489D01*
X148453931Y-45058993D01*
X148328972Y-44880533D01*
X148321916Y-44872125D01*
X148167875Y-44718084D01*
X148159467Y-44711028D01*
X147981007Y-44586069D01*
X147971511Y-44580586D01*
X147774053Y-44488510D01*
X147763761Y-44484764D01*
X147591497Y-44438606D01*
X147577401Y-44438942D01*
X147574000Y-44446884D01*
X147574000Y-45447885D01*
X147066000Y-45447885D01*
X147066000Y-44452033D01*
X147062027Y-44438502D01*
X147053478Y-44437273D01*
X146876239Y-44484764D01*
X146865947Y-44488510D01*
X146668489Y-44580586D01*
X146658993Y-44586069D01*
X146480533Y-44711028D01*
X146472125Y-44718084D01*
X146318084Y-44872125D01*
X146311028Y-44880533D01*
X146186069Y-45058993D01*
X146180586Y-45068489D01*
X146088510Y-45265947D01*
X146084764Y-45276239D01*
X146038606Y-45448503D01*
X143521394Y-45448503D01*
X143475236Y-45276239D01*
X143471490Y-45265947D01*
X143379414Y-45068489D01*
X143373931Y-45058993D01*
X143248972Y-44880533D01*
X143241916Y-44872125D01*
X143087875Y-44718084D01*
X143079467Y-44711028D01*
X142901007Y-44586069D01*
X142891511Y-44580586D01*
X142694053Y-44488510D01*
X142683761Y-44484764D01*
X142511497Y-44438606D01*
X142497401Y-44438942D01*
X142494000Y-44446884D01*
X142494000Y-45447885D01*
X141986000Y-45447885D01*
X141986000Y-44452033D01*
X141982027Y-44438502D01*
X141973478Y-44437273D01*
X141796239Y-44484764D01*
X141785947Y-44488510D01*
X141588489Y-44580586D01*
X141578993Y-44586069D01*
X141400533Y-44711028D01*
X141392125Y-44718084D01*
X141238084Y-44872125D01*
X141231028Y-44880533D01*
X141106069Y-45058993D01*
X141100586Y-45068489D01*
X141008510Y-45265947D01*
X141004764Y-45276239D01*
X140958606Y-45448503D01*
X138441911Y-45448503D01*
X138395707Y-45276067D01*
X138395706Y-45276065D01*
X138394284Y-45270757D01*
X138376679Y-45233003D01*
X138299849Y-45068238D01*
X138299846Y-45068233D01*
X138297523Y-45063251D01*
X138166198Y-44875700D01*
X138004300Y-44713802D01*
X137999792Y-44710645D01*
X137999789Y-44710643D01*
X137841774Y-44600000D01*
X137816749Y-44582477D01*
X137811767Y-44580154D01*
X137811762Y-44580151D01*
X137614225Y-44488039D01*
X137614224Y-44488039D01*
X137609243Y-44485716D01*
X137603935Y-44484294D01*
X137603933Y-44484293D01*
X137393402Y-44427881D01*
X137393400Y-44427881D01*
X137388087Y-44426457D01*
X137160000Y-44406502D01*
X136931913Y-44426457D01*
X136926600Y-44427881D01*
X136926598Y-44427881D01*
X136716067Y-44484293D01*
X136716065Y-44484294D01*
X136710757Y-44485716D01*
X136705776Y-44488039D01*
X136705775Y-44488039D01*
X136508238Y-44580151D01*
X136508233Y-44580154D01*
X136503251Y-44582477D01*
X136478226Y-44600000D01*
X136320211Y-44710643D01*
X136320208Y-44710645D01*
X136315700Y-44713802D01*
X136153802Y-44875700D01*
X136022477Y-45063251D01*
X136020154Y-45068233D01*
X136020151Y-45068238D01*
X135943321Y-45233003D01*
X135925716Y-45270757D01*
X135924294Y-45276065D01*
X135924293Y-45276067D01*
X135876756Y-45453478D01*
X135866457Y-45491913D01*
X135846502Y-45720000D01*
X133393498Y-45720000D01*
X133373543Y-45491913D01*
X133363244Y-45453478D01*
X133315707Y-45276067D01*
X133315706Y-45276065D01*
X133314284Y-45270757D01*
X133296679Y-45233003D01*
X133219849Y-45068238D01*
X133219846Y-45068233D01*
X133217523Y-45063251D01*
X133086198Y-44875700D01*
X132924300Y-44713802D01*
X132919792Y-44710645D01*
X132919789Y-44710643D01*
X132761774Y-44600000D01*
X132736749Y-44582477D01*
X132731767Y-44580154D01*
X132731762Y-44580151D01*
X132534225Y-44488039D01*
X132534224Y-44488039D01*
X132529243Y-44485716D01*
X132523935Y-44484294D01*
X132523933Y-44484293D01*
X132313402Y-44427881D01*
X132313400Y-44427881D01*
X132308087Y-44426457D01*
X132080000Y-44406502D01*
X131851913Y-44426457D01*
X131846600Y-44427881D01*
X131846598Y-44427881D01*
X131636067Y-44484293D01*
X131636065Y-44484294D01*
X131630757Y-44485716D01*
X131625776Y-44488039D01*
X131625775Y-44488039D01*
X131428238Y-44580151D01*
X131428233Y-44580154D01*
X131423251Y-44582477D01*
X131398226Y-44600000D01*
X131240211Y-44710643D01*
X131240208Y-44710645D01*
X131235700Y-44713802D01*
X131073802Y-44875700D01*
X130942477Y-45063251D01*
X130940154Y-45068233D01*
X130940151Y-45068238D01*
X130863321Y-45233003D01*
X130845716Y-45270757D01*
X130844294Y-45276065D01*
X130844293Y-45276067D01*
X130796756Y-45453478D01*
X130786457Y-45491913D01*
X130766502Y-45720000D01*
X129508000Y-45720000D01*
X129508000Y-40605469D01*
X135747095Y-40605469D01*
X135747392Y-40610622D01*
X135747392Y-40610625D01*
X135753067Y-40709041D01*
X135760427Y-40836697D01*
X135761564Y-40841743D01*
X135761565Y-40841749D01*
X135793741Y-40984523D01*
X135811346Y-41062642D01*
X135813288Y-41067424D01*
X135813289Y-41067428D01*
X135896540Y-41272450D01*
X135898484Y-41277237D01*
X136019501Y-41474719D01*
X136171147Y-41649784D01*
X136349349Y-41797730D01*
X136549322Y-41914584D01*
X136765694Y-41997209D01*
X136770760Y-41998240D01*
X136770761Y-41998240D01*
X136823846Y-42009040D01*
X136992656Y-42043385D01*
X137123324Y-42048176D01*
X137218949Y-42051683D01*
X137218953Y-42051683D01*
X137224113Y-42051872D01*
X137229233Y-42051216D01*
X137229235Y-42051216D01*
X137302270Y-42041860D01*
X137453847Y-42022442D01*
X137458795Y-42020957D01*
X137458802Y-42020956D01*
X137670747Y-41957369D01*
X137675690Y-41955886D01*
X137756236Y-41916427D01*
X137879049Y-41856262D01*
X137879052Y-41856260D01*
X137883684Y-41853991D01*
X138072243Y-41719494D01*
X138236303Y-41556005D01*
X138371458Y-41367917D01*
X138418641Y-41272450D01*
X138471784Y-41164922D01*
X138471785Y-41164920D01*
X138474078Y-41160280D01*
X138541408Y-40938671D01*
X138571640Y-40709041D01*
X138573327Y-40640000D01*
X138570488Y-40605469D01*
X150987095Y-40605469D01*
X150987392Y-40610622D01*
X150987392Y-40610625D01*
X150993067Y-40709041D01*
X151000427Y-40836697D01*
X151001564Y-40841743D01*
X151001565Y-40841749D01*
X151033741Y-40984523D01*
X151051346Y-41062642D01*
X151053288Y-41067424D01*
X151053289Y-41067428D01*
X151136540Y-41272450D01*
X151138484Y-41277237D01*
X151259501Y-41474719D01*
X151411147Y-41649784D01*
X151589349Y-41797730D01*
X151789322Y-41914584D01*
X152005694Y-41997209D01*
X152010760Y-41998240D01*
X152010761Y-41998240D01*
X152063846Y-42009040D01*
X152232656Y-42043385D01*
X152363324Y-42048176D01*
X152458949Y-42051683D01*
X152458953Y-42051683D01*
X152464113Y-42051872D01*
X152469233Y-42051216D01*
X152469235Y-42051216D01*
X152542270Y-42041860D01*
X152693847Y-42022442D01*
X152698795Y-42020957D01*
X152698802Y-42020956D01*
X152910747Y-41957369D01*
X152915690Y-41955886D01*
X152996236Y-41916427D01*
X153119049Y-41856262D01*
X153119052Y-41856260D01*
X153123684Y-41853991D01*
X153312243Y-41719494D01*
X153476303Y-41556005D01*
X153611458Y-41367917D01*
X153658641Y-41272450D01*
X153711784Y-41164922D01*
X153711785Y-41164920D01*
X153714078Y-41160280D01*
X153781408Y-40938671D01*
X153811640Y-40709041D01*
X153813327Y-40640000D01*
X153807032Y-40563434D01*
X153794773Y-40414318D01*
X153794772Y-40414312D01*
X153794349Y-40409167D01*
X153737925Y-40184533D01*
X153735866Y-40179797D01*
X153647630Y-39976868D01*
X153647628Y-39976865D01*
X153645570Y-39972131D01*
X153519764Y-39777665D01*
X153429486Y-39678450D01*
X153398434Y-39614605D01*
X153406829Y-39544106D01*
X153452005Y-39489338D01*
X153478449Y-39475669D01*
X153538054Y-39453324D01*
X153553649Y-39444786D01*
X153655724Y-39368285D01*
X153668285Y-39355724D01*
X153744786Y-39253649D01*
X153753324Y-39238054D01*
X153798478Y-39117606D01*
X153802105Y-39102351D01*
X153807631Y-39051486D01*
X153808000Y-39044672D01*
X153808000Y-38372115D01*
X153803525Y-38356876D01*
X153802135Y-38355671D01*
X153794452Y-38354000D01*
X151010116Y-38354000D01*
X150994877Y-38358475D01*
X150993672Y-38359865D01*
X150992001Y-38367548D01*
X150992001Y-39044669D01*
X150992371Y-39051490D01*
X150997895Y-39102352D01*
X151001521Y-39117604D01*
X151046676Y-39238054D01*
X151055214Y-39253649D01*
X151131715Y-39355724D01*
X151144276Y-39368285D01*
X151246351Y-39444786D01*
X151261946Y-39453324D01*
X151321540Y-39475665D01*
X151378304Y-39518307D01*
X151403004Y-39584868D01*
X151387796Y-39654217D01*
X151368404Y-39680698D01*
X151301639Y-39750564D01*
X151298725Y-39754836D01*
X151298724Y-39754837D01*
X151283152Y-39777665D01*
X151171119Y-39941899D01*
X151073602Y-40151981D01*
X151011707Y-40375169D01*
X150987095Y-40605469D01*
X138570488Y-40605469D01*
X138567032Y-40563434D01*
X138554773Y-40414318D01*
X138554772Y-40414312D01*
X138554349Y-40409167D01*
X138497925Y-40184533D01*
X138495866Y-40179797D01*
X138407630Y-39976868D01*
X138407628Y-39976865D01*
X138405570Y-39972131D01*
X138279764Y-39777665D01*
X138189486Y-39678450D01*
X138158434Y-39614605D01*
X138166829Y-39544106D01*
X138212005Y-39489338D01*
X138238449Y-39475669D01*
X138298054Y-39453324D01*
X138313649Y-39444786D01*
X138415724Y-39368285D01*
X138428285Y-39355724D01*
X138504786Y-39253649D01*
X138513324Y-39238054D01*
X138558478Y-39117606D01*
X138562105Y-39102351D01*
X138567631Y-39051486D01*
X138568000Y-39044672D01*
X138568000Y-38372115D01*
X138563525Y-38356876D01*
X138562135Y-38355671D01*
X138554452Y-38354000D01*
X135770116Y-38354000D01*
X135754877Y-38358475D01*
X135753672Y-38359865D01*
X135752001Y-38367548D01*
X135752001Y-39044669D01*
X135752371Y-39051490D01*
X135757895Y-39102352D01*
X135761521Y-39117604D01*
X135806676Y-39238054D01*
X135815214Y-39253649D01*
X135891715Y-39355724D01*
X135904276Y-39368285D01*
X136006351Y-39444786D01*
X136021946Y-39453324D01*
X136081540Y-39475665D01*
X136138304Y-39518307D01*
X136163004Y-39584868D01*
X136147796Y-39654217D01*
X136128404Y-39680698D01*
X136061639Y-39750564D01*
X136058725Y-39754836D01*
X136058724Y-39754837D01*
X136043152Y-39777665D01*
X135931119Y-39941899D01*
X135833602Y-40151981D01*
X135771707Y-40375169D01*
X135747095Y-40605469D01*
X129508000Y-40605469D01*
X129508000Y-38100000D01*
X164166835Y-38100000D01*
X164185465Y-38336711D01*
X164186619Y-38341518D01*
X164186620Y-38341524D01*
X164221640Y-38487391D01*
X164240895Y-38567594D01*
X164242788Y-38572165D01*
X164242789Y-38572167D01*
X164321009Y-38761007D01*
X164331760Y-38786963D01*
X164334346Y-38791183D01*
X164453241Y-38985202D01*
X164453245Y-38985208D01*
X164455824Y-38989416D01*
X164610031Y-39169969D01*
X164790584Y-39324176D01*
X164794792Y-39326755D01*
X164794798Y-39326759D01*
X164986203Y-39444052D01*
X164993037Y-39448240D01*
X164997607Y-39450133D01*
X164997611Y-39450135D01*
X165207833Y-39537211D01*
X165212406Y-39539105D01*
X165292609Y-39558360D01*
X165438476Y-39593380D01*
X165438482Y-39593381D01*
X165443289Y-39594535D01*
X165680000Y-39613165D01*
X165916711Y-39594535D01*
X165921518Y-39593381D01*
X165921524Y-39593380D01*
X166067391Y-39558360D01*
X166147594Y-39539105D01*
X166152167Y-39537211D01*
X166362389Y-39450135D01*
X166362393Y-39450133D01*
X166366963Y-39448240D01*
X166373797Y-39444052D01*
X166565202Y-39326759D01*
X166565208Y-39326755D01*
X166569416Y-39324176D01*
X166749969Y-39169969D01*
X166904176Y-38989416D01*
X166906755Y-38985208D01*
X166906759Y-38985202D01*
X167025654Y-38791183D01*
X167028240Y-38786963D01*
X167038992Y-38761007D01*
X167117211Y-38572167D01*
X167117212Y-38572165D01*
X167119105Y-38567594D01*
X167138360Y-38487391D01*
X167173380Y-38341524D01*
X167173381Y-38341518D01*
X167174535Y-38336711D01*
X167193165Y-38100000D01*
X168666835Y-38100000D01*
X168685465Y-38336711D01*
X168686619Y-38341518D01*
X168686620Y-38341524D01*
X168721640Y-38487391D01*
X168740895Y-38567594D01*
X168742788Y-38572165D01*
X168742789Y-38572167D01*
X168821009Y-38761007D01*
X168831760Y-38786963D01*
X168834346Y-38791183D01*
X168953241Y-38985202D01*
X168953245Y-38985208D01*
X168955824Y-38989416D01*
X169110031Y-39169969D01*
X169290584Y-39324176D01*
X169294792Y-39326755D01*
X169294798Y-39326759D01*
X169486203Y-39444052D01*
X169493037Y-39448240D01*
X169497607Y-39450133D01*
X169497611Y-39450135D01*
X169707833Y-39537211D01*
X169712406Y-39539105D01*
X169792609Y-39558360D01*
X169938476Y-39593380D01*
X169938482Y-39593381D01*
X169943289Y-39594535D01*
X170180000Y-39613165D01*
X170416711Y-39594535D01*
X170421518Y-39593381D01*
X170421524Y-39593380D01*
X170567391Y-39558360D01*
X170647594Y-39539105D01*
X170652167Y-39537211D01*
X170862389Y-39450135D01*
X170862393Y-39450133D01*
X170866963Y-39448240D01*
X170873797Y-39444052D01*
X171065202Y-39326759D01*
X171065208Y-39326755D01*
X171069416Y-39324176D01*
X171249969Y-39169969D01*
X171404176Y-38989416D01*
X171406755Y-38985208D01*
X171406759Y-38985202D01*
X171525654Y-38791183D01*
X171528240Y-38786963D01*
X171538992Y-38761007D01*
X171617211Y-38572167D01*
X171617212Y-38572165D01*
X171619105Y-38567594D01*
X171638360Y-38487391D01*
X171667378Y-38366522D01*
X175247273Y-38366522D01*
X175294764Y-38543761D01*
X175298510Y-38554053D01*
X175390586Y-38751511D01*
X175396069Y-38761007D01*
X175521028Y-38939467D01*
X175528084Y-38947875D01*
X175682125Y-39101916D01*
X175690533Y-39108972D01*
X175868993Y-39233931D01*
X175878489Y-39239414D01*
X176075947Y-39331490D01*
X176086239Y-39335236D01*
X176258503Y-39381394D01*
X176272599Y-39381058D01*
X176276000Y-39373116D01*
X176276000Y-39367967D01*
X176784000Y-39367967D01*
X176787973Y-39381498D01*
X176796522Y-39382727D01*
X176973761Y-39335236D01*
X176984053Y-39331490D01*
X177181511Y-39239414D01*
X177191007Y-39233931D01*
X177369467Y-39108972D01*
X177377875Y-39101916D01*
X177531916Y-38947875D01*
X177538972Y-38939467D01*
X177663931Y-38761007D01*
X177669414Y-38751511D01*
X177761490Y-38554053D01*
X177765236Y-38543761D01*
X177811394Y-38371497D01*
X177811058Y-38357401D01*
X177803116Y-38354000D01*
X176802115Y-38354000D01*
X176786876Y-38358475D01*
X176785671Y-38359865D01*
X176784000Y-38367548D01*
X176784000Y-39367967D01*
X176276000Y-39367967D01*
X176276000Y-38372115D01*
X176271525Y-38356876D01*
X176270135Y-38355671D01*
X176262452Y-38354000D01*
X175262033Y-38354000D01*
X175248502Y-38357973D01*
X175247273Y-38366522D01*
X171667378Y-38366522D01*
X171673380Y-38341524D01*
X171673381Y-38341518D01*
X171674535Y-38336711D01*
X171693165Y-38100000D01*
X171674535Y-37863289D01*
X171670385Y-37846000D01*
X171666184Y-37828503D01*
X175248606Y-37828503D01*
X175248942Y-37842599D01*
X175256884Y-37846000D01*
X176257885Y-37846000D01*
X176273124Y-37841525D01*
X176274329Y-37840135D01*
X176276000Y-37832452D01*
X176276000Y-37827885D01*
X176784000Y-37827885D01*
X176788475Y-37843124D01*
X176789865Y-37844329D01*
X176797548Y-37846000D01*
X177797967Y-37846000D01*
X177811498Y-37842027D01*
X177812727Y-37833478D01*
X177765236Y-37656239D01*
X177761490Y-37645947D01*
X177669414Y-37448489D01*
X177663931Y-37438993D01*
X177538972Y-37260533D01*
X177531916Y-37252125D01*
X177377875Y-37098084D01*
X177369467Y-37091028D01*
X177191007Y-36966069D01*
X177181511Y-36960586D01*
X176984053Y-36868510D01*
X176973761Y-36864764D01*
X176801497Y-36818606D01*
X176787401Y-36818942D01*
X176784000Y-36826884D01*
X176784000Y-37827885D01*
X176276000Y-37827885D01*
X176276000Y-36832033D01*
X176272027Y-36818502D01*
X176263478Y-36817273D01*
X176086239Y-36864764D01*
X176075947Y-36868510D01*
X175878489Y-36960586D01*
X175868993Y-36966069D01*
X175690533Y-37091028D01*
X175682125Y-37098084D01*
X175528084Y-37252125D01*
X175521028Y-37260533D01*
X175396069Y-37438993D01*
X175390586Y-37448489D01*
X175298510Y-37645947D01*
X175294764Y-37656239D01*
X175248606Y-37828503D01*
X171666184Y-37828503D01*
X171624785Y-37656067D01*
X171619105Y-37632406D01*
X171540755Y-37443251D01*
X171530135Y-37417611D01*
X171530133Y-37417607D01*
X171528240Y-37413037D01*
X171434588Y-37260211D01*
X171406759Y-37214798D01*
X171406755Y-37214792D01*
X171404176Y-37210584D01*
X171249969Y-37030031D01*
X171069416Y-36875824D01*
X171065208Y-36873245D01*
X171065202Y-36873241D01*
X170871183Y-36754346D01*
X170866963Y-36751760D01*
X170862393Y-36749867D01*
X170862389Y-36749865D01*
X170652167Y-36662789D01*
X170652165Y-36662788D01*
X170647594Y-36660895D01*
X170567391Y-36641640D01*
X170421524Y-36606620D01*
X170421518Y-36606619D01*
X170416711Y-36605465D01*
X170180000Y-36586835D01*
X169943289Y-36605465D01*
X169938482Y-36606619D01*
X169938476Y-36606620D01*
X169792609Y-36641640D01*
X169712406Y-36660895D01*
X169707835Y-36662788D01*
X169707833Y-36662789D01*
X169497611Y-36749865D01*
X169497607Y-36749867D01*
X169493037Y-36751760D01*
X169488817Y-36754346D01*
X169294798Y-36873241D01*
X169294792Y-36873245D01*
X169290584Y-36875824D01*
X169110031Y-37030031D01*
X168955824Y-37210584D01*
X168953245Y-37214792D01*
X168953241Y-37214798D01*
X168925412Y-37260211D01*
X168831760Y-37413037D01*
X168829867Y-37417607D01*
X168829865Y-37417611D01*
X168819245Y-37443251D01*
X168740895Y-37632406D01*
X168735215Y-37656067D01*
X168689616Y-37846000D01*
X168685465Y-37863289D01*
X168666835Y-38100000D01*
X167193165Y-38100000D01*
X167174535Y-37863289D01*
X167170385Y-37846000D01*
X167124785Y-37656067D01*
X167119105Y-37632406D01*
X167040755Y-37443251D01*
X167030135Y-37417611D01*
X167030133Y-37417607D01*
X167028240Y-37413037D01*
X166934588Y-37260211D01*
X166906759Y-37214798D01*
X166906755Y-37214792D01*
X166904176Y-37210584D01*
X166749969Y-37030031D01*
X166569416Y-36875824D01*
X166565208Y-36873245D01*
X166565202Y-36873241D01*
X166371183Y-36754346D01*
X166366963Y-36751760D01*
X166362393Y-36749867D01*
X166362389Y-36749865D01*
X166152167Y-36662789D01*
X166152165Y-36662788D01*
X166147594Y-36660895D01*
X166067391Y-36641640D01*
X165921524Y-36606620D01*
X165921518Y-36606619D01*
X165916711Y-36605465D01*
X165680000Y-36586835D01*
X165443289Y-36605465D01*
X165438482Y-36606619D01*
X165438476Y-36606620D01*
X165292609Y-36641640D01*
X165212406Y-36660895D01*
X165207835Y-36662788D01*
X165207833Y-36662789D01*
X164997611Y-36749865D01*
X164997607Y-36749867D01*
X164993037Y-36751760D01*
X164988817Y-36754346D01*
X164794798Y-36873241D01*
X164794792Y-36873245D01*
X164790584Y-36875824D01*
X164610031Y-37030031D01*
X164455824Y-37210584D01*
X164453245Y-37214792D01*
X164453241Y-37214798D01*
X164425412Y-37260211D01*
X164331760Y-37413037D01*
X164329867Y-37417607D01*
X164329865Y-37417611D01*
X164319245Y-37443251D01*
X164240895Y-37632406D01*
X164235215Y-37656067D01*
X164189616Y-37846000D01*
X164185465Y-37863289D01*
X164166835Y-38100000D01*
X129508000Y-38100000D01*
X129508000Y-37827885D01*
X135752000Y-37827885D01*
X135756475Y-37843124D01*
X135757865Y-37844329D01*
X135765548Y-37846000D01*
X136887885Y-37846000D01*
X136903124Y-37841525D01*
X136904329Y-37840135D01*
X136906000Y-37832452D01*
X136906000Y-37827885D01*
X137414000Y-37827885D01*
X137418475Y-37843124D01*
X137419865Y-37844329D01*
X137427548Y-37846000D01*
X138549884Y-37846000D01*
X138565123Y-37841525D01*
X138566328Y-37840135D01*
X138567999Y-37832452D01*
X138567999Y-37827885D01*
X150992000Y-37827885D01*
X150996475Y-37843124D01*
X150997865Y-37844329D01*
X151005548Y-37846000D01*
X152127885Y-37846000D01*
X152143124Y-37841525D01*
X152144329Y-37840135D01*
X152146000Y-37832452D01*
X152146000Y-37827885D01*
X152654000Y-37827885D01*
X152658475Y-37843124D01*
X152659865Y-37844329D01*
X152667548Y-37846000D01*
X153789884Y-37846000D01*
X153805123Y-37841525D01*
X153806328Y-37840135D01*
X153807999Y-37832452D01*
X153807999Y-37155331D01*
X153807629Y-37148510D01*
X153802105Y-37097648D01*
X153798479Y-37082396D01*
X153753324Y-36961946D01*
X153744786Y-36946351D01*
X153668285Y-36844276D01*
X153655724Y-36831715D01*
X153553649Y-36755214D01*
X153538054Y-36746676D01*
X153417606Y-36701522D01*
X153402351Y-36697895D01*
X153351486Y-36692369D01*
X153344672Y-36692000D01*
X152672115Y-36692000D01*
X152656876Y-36696475D01*
X152655671Y-36697865D01*
X152654000Y-36705548D01*
X152654000Y-37827885D01*
X152146000Y-37827885D01*
X152146000Y-36710116D01*
X152141525Y-36694877D01*
X152140135Y-36693672D01*
X152132452Y-36692001D01*
X151455331Y-36692001D01*
X151448510Y-36692371D01*
X151397648Y-36697895D01*
X151382396Y-36701521D01*
X151261946Y-36746676D01*
X151246351Y-36755214D01*
X151144276Y-36831715D01*
X151131715Y-36844276D01*
X151055214Y-36946351D01*
X151046676Y-36961946D01*
X151001522Y-37082394D01*
X150997895Y-37097649D01*
X150992369Y-37148514D01*
X150992000Y-37155328D01*
X150992000Y-37827885D01*
X138567999Y-37827885D01*
X138567999Y-37155331D01*
X138567629Y-37148510D01*
X138562105Y-37097648D01*
X138558479Y-37082396D01*
X138513324Y-36961946D01*
X138504786Y-36946351D01*
X138428285Y-36844276D01*
X138415724Y-36831715D01*
X138313649Y-36755214D01*
X138298054Y-36746676D01*
X138177606Y-36701522D01*
X138162351Y-36697895D01*
X138111486Y-36692369D01*
X138104672Y-36692000D01*
X137432115Y-36692000D01*
X137416876Y-36696475D01*
X137415671Y-36697865D01*
X137414000Y-36705548D01*
X137414000Y-37827885D01*
X136906000Y-37827885D01*
X136906000Y-36710116D01*
X136901525Y-36694877D01*
X136900135Y-36693672D01*
X136892452Y-36692001D01*
X136215331Y-36692001D01*
X136208510Y-36692371D01*
X136157648Y-36697895D01*
X136142396Y-36701521D01*
X136021946Y-36746676D01*
X136006351Y-36755214D01*
X135904276Y-36831715D01*
X135891715Y-36844276D01*
X135815214Y-36946351D01*
X135806676Y-36961946D01*
X135761522Y-37082394D01*
X135757895Y-37097649D01*
X135752369Y-37148514D01*
X135752000Y-37155328D01*
X135752000Y-37827885D01*
X129508000Y-37827885D01*
X129508000Y-35634000D01*
X129528002Y-35565879D01*
X129581658Y-35519386D01*
X129634000Y-35508000D01*
X189366000Y-35508000D01*
X189434121Y-35528002D01*
G37*
G04 #@! TD.AperFunction*
G04 #@! TD*
M02*
