G04 #@! TF.GenerationSoftware,KiCad,Pcbnew,6.0.1-79c1e3a40b~116~ubuntu20.04.1*
G04 #@! TF.CreationDate,2022-01-30T08:46:23-05:00*
G04 #@! TF.ProjectId,opamptest,6f70616d-7074-4657-9374-2e6b69636164,rev?*
G04 #@! TF.SameCoordinates,Original*
G04 #@! TF.FileFunction,Legend,Top*
G04 #@! TF.FilePolarity,Positive*
%FSLAX46Y46*%
G04 Gerber Fmt 4.6, Leading zero omitted, Abs format (unit mm)*
G04 Created by KiCad (PCBNEW 6.0.1-79c1e3a40b~116~ubuntu20.04.1) date 2022-01-30 08:46:23*
%MOMM*%
%LPD*%
G01*
G04 APERTURE LIST*
%ADD10C,0.150000*%
%ADD11C,0.200000*%
%ADD12C,0.300000*%
%ADD13C,0.120000*%
G04 APERTURE END LIST*
D10*
X144780000Y-77470000D02*
X144780000Y-71120000D01*
X147320000Y-90170000D02*
X146939000Y-90551000D01*
X144780000Y-80010000D02*
X144780000Y-86360000D01*
X157480000Y-40640000D02*
X157861000Y-41021000D01*
X157480000Y-39370000D02*
X157861000Y-39751000D01*
X161290000Y-90170000D02*
X157480000Y-90170000D01*
X146050000Y-39370000D02*
X147320000Y-39370000D01*
X160020000Y-40640000D02*
X157480000Y-40640000D01*
X143510000Y-39370000D02*
X142240000Y-39370000D01*
X147320000Y-39370000D02*
X146939000Y-38989000D01*
X142240000Y-39370000D02*
X142621000Y-38989000D01*
X144780000Y-86360000D02*
X146050000Y-90170000D01*
X147320000Y-39370000D02*
X146939000Y-39751000D01*
X143510000Y-90170000D02*
X142240000Y-90170000D01*
X165100000Y-92710000D02*
X165100000Y-87630000D01*
X187960000Y-92710000D02*
X165100000Y-92710000D01*
X157480000Y-40640000D02*
X157861000Y-40259000D01*
X142240000Y-39370000D02*
X142621000Y-39751000D01*
X162560000Y-62230000D02*
X162560000Y-46990000D01*
X157480000Y-39370000D02*
X161290000Y-39370000D01*
X144780000Y-49530000D02*
X144780000Y-43180000D01*
X147320000Y-90170000D02*
X146939000Y-89789000D01*
X142240000Y-90170000D02*
X142621000Y-89789000D01*
X144780000Y-43180000D02*
X146050000Y-39370000D01*
X162560000Y-46990000D02*
X160020000Y-40640000D01*
X142240000Y-90170000D02*
X142621000Y-90551000D01*
X157480000Y-90170000D02*
X157861000Y-89789000D01*
X157480000Y-90170000D02*
X157861000Y-90551000D01*
X165100000Y-87630000D02*
X187960000Y-87630000D01*
X144780000Y-86360000D02*
X143510000Y-90170000D01*
X146050000Y-90170000D02*
X147320000Y-90170000D01*
X168910000Y-83820000D02*
X161290000Y-90170000D01*
X144780000Y-52070000D02*
X144780000Y-58420000D01*
X157480000Y-39370000D02*
X157861000Y-38989000D01*
X187960000Y-87630000D02*
X187960000Y-92710000D01*
X144780000Y-43180000D02*
X143510000Y-39370000D01*
X168910000Y-71120000D02*
X162560000Y-62230000D01*
X161290000Y-39370000D02*
X163830000Y-45720000D01*
X177300000Y-65531904D02*
X177252380Y-65627142D01*
X177252380Y-65770000D01*
X177300000Y-65912857D01*
X177395238Y-66008095D01*
X177490476Y-66055714D01*
X177680952Y-66103333D01*
X177823809Y-66103333D01*
X178014285Y-66055714D01*
X178109523Y-66008095D01*
X178204761Y-65912857D01*
X178252380Y-65770000D01*
X178252380Y-65674761D01*
X178204761Y-65531904D01*
X178157142Y-65484285D01*
X177823809Y-65484285D01*
X177823809Y-65674761D01*
X178252380Y-65055714D02*
X177252380Y-65055714D01*
X178252380Y-64484285D01*
X177252380Y-64484285D01*
X178252380Y-64008095D02*
X177252380Y-64008095D01*
X177252380Y-63770000D01*
X177300000Y-63627142D01*
X177395238Y-63531904D01*
X177490476Y-63484285D01*
X177680952Y-63436666D01*
X177823809Y-63436666D01*
X178014285Y-63484285D01*
X178109523Y-63531904D01*
X178204761Y-63627142D01*
X178252380Y-63770000D01*
X178252380Y-64008095D01*
D11*
X156015714Y-61906428D02*
X155872857Y-61835000D01*
X155730000Y-61692142D01*
X155515714Y-61477857D01*
X155372857Y-61406428D01*
X155230000Y-61406428D01*
X155301428Y-61763571D02*
X155158571Y-61692142D01*
X155015714Y-61549285D01*
X154944285Y-61263571D01*
X154944285Y-60763571D01*
X155015714Y-60477857D01*
X155158571Y-60335000D01*
X155301428Y-60263571D01*
X155587142Y-60263571D01*
X155730000Y-60335000D01*
X155872857Y-60477857D01*
X155944285Y-60763571D01*
X155944285Y-61263571D01*
X155872857Y-61549285D01*
X155730000Y-61692142D01*
X155587142Y-61763571D01*
X155301428Y-61763571D01*
X157230000Y-60763571D02*
X157230000Y-61763571D01*
X156587142Y-60763571D02*
X156587142Y-61549285D01*
X156658571Y-61692142D01*
X156801428Y-61763571D01*
X157015714Y-61763571D01*
X157158571Y-61692142D01*
X157230000Y-61620714D01*
X158587142Y-61763571D02*
X158587142Y-60977857D01*
X158515714Y-60835000D01*
X158372857Y-60763571D01*
X158087142Y-60763571D01*
X157944285Y-60835000D01*
X158587142Y-61692142D02*
X158444285Y-61763571D01*
X158087142Y-61763571D01*
X157944285Y-61692142D01*
X157872857Y-61549285D01*
X157872857Y-61406428D01*
X157944285Y-61263571D01*
X158087142Y-61192142D01*
X158444285Y-61192142D01*
X158587142Y-61120714D01*
X159944285Y-61763571D02*
X159944285Y-60263571D01*
X159944285Y-61692142D02*
X159801428Y-61763571D01*
X159515714Y-61763571D01*
X159372857Y-61692142D01*
X159301428Y-61620714D01*
X159230000Y-61477857D01*
X159230000Y-61049285D01*
X159301428Y-60906428D01*
X159372857Y-60835000D01*
X159515714Y-60763571D01*
X159801428Y-60763571D01*
X159944285Y-60835000D01*
X156694285Y-64178571D02*
X156551428Y-64107142D01*
X156480000Y-64035714D01*
X156408571Y-63892857D01*
X156408571Y-63464285D01*
X156480000Y-63321428D01*
X156551428Y-63250000D01*
X156694285Y-63178571D01*
X156908571Y-63178571D01*
X157051428Y-63250000D01*
X157122857Y-63321428D01*
X157194285Y-63464285D01*
X157194285Y-63892857D01*
X157122857Y-64035714D01*
X157051428Y-64107142D01*
X156908571Y-64178571D01*
X156694285Y-64178571D01*
X157837142Y-63178571D02*
X157837142Y-64678571D01*
X157837142Y-63250000D02*
X157980000Y-63178571D01*
X158265714Y-63178571D01*
X158408571Y-63250000D01*
X158480000Y-63321428D01*
X158551428Y-63464285D01*
X158551428Y-63892857D01*
X158480000Y-64035714D01*
X158408571Y-64107142D01*
X158265714Y-64178571D01*
X157980000Y-64178571D01*
X157837142Y-64107142D01*
X156122857Y-66593571D02*
X156122857Y-65807857D01*
X156051428Y-65665000D01*
X155908571Y-65593571D01*
X155622857Y-65593571D01*
X155480000Y-65665000D01*
X156122857Y-66522142D02*
X155980000Y-66593571D01*
X155622857Y-66593571D01*
X155480000Y-66522142D01*
X155408571Y-66379285D01*
X155408571Y-66236428D01*
X155480000Y-66093571D01*
X155622857Y-66022142D01*
X155980000Y-66022142D01*
X156122857Y-65950714D01*
X156837142Y-66593571D02*
X156837142Y-65593571D01*
X156837142Y-65736428D02*
X156908571Y-65665000D01*
X157051428Y-65593571D01*
X157265714Y-65593571D01*
X157408571Y-65665000D01*
X157480000Y-65807857D01*
X157480000Y-66593571D01*
X157480000Y-65807857D02*
X157551428Y-65665000D01*
X157694285Y-65593571D01*
X157908571Y-65593571D01*
X158051428Y-65665000D01*
X158122857Y-65807857D01*
X158122857Y-66593571D01*
X158837142Y-65593571D02*
X158837142Y-67093571D01*
X158837142Y-65665000D02*
X158980000Y-65593571D01*
X159265714Y-65593571D01*
X159408571Y-65665000D01*
X159480000Y-65736428D01*
X159551428Y-65879285D01*
X159551428Y-66307857D01*
X159480000Y-66450714D01*
X159408571Y-66522142D01*
X159265714Y-66593571D01*
X158980000Y-66593571D01*
X158837142Y-66522142D01*
D10*
X177871428Y-71992857D02*
X177871428Y-71230952D01*
X178252380Y-71611904D02*
X177490476Y-71611904D01*
X178252380Y-70230952D02*
X178252380Y-70802380D01*
X178252380Y-70516666D02*
X177252380Y-70516666D01*
X177395238Y-70611904D01*
X177490476Y-70707142D01*
X177538095Y-70802380D01*
X177347619Y-69850000D02*
X177300000Y-69802380D01*
X177252380Y-69707142D01*
X177252380Y-69469047D01*
X177300000Y-69373809D01*
X177347619Y-69326190D01*
X177442857Y-69278571D01*
X177538095Y-69278571D01*
X177680952Y-69326190D01*
X178252380Y-69897619D01*
X178252380Y-69278571D01*
X177252380Y-68230952D02*
X178252380Y-67897619D01*
X177252380Y-67564285D01*
X168402380Y-58927380D02*
X168402380Y-59736904D01*
X168450000Y-59832142D01*
X168497619Y-59879761D01*
X168592857Y-59927380D01*
X168783333Y-59927380D01*
X168878571Y-59879761D01*
X168926190Y-59832142D01*
X168973809Y-59736904D01*
X168973809Y-58927380D01*
X169402380Y-59879761D02*
X169497619Y-59927380D01*
X169688095Y-59927380D01*
X169783333Y-59879761D01*
X169830952Y-59784523D01*
X169830952Y-59736904D01*
X169783333Y-59641666D01*
X169688095Y-59594047D01*
X169545238Y-59594047D01*
X169450000Y-59546428D01*
X169402380Y-59451190D01*
X169402380Y-59403571D01*
X169450000Y-59308333D01*
X169545238Y-59260714D01*
X169688095Y-59260714D01*
X169783333Y-59308333D01*
X170640476Y-59879761D02*
X170545238Y-59927380D01*
X170354761Y-59927380D01*
X170259523Y-59879761D01*
X170211904Y-59784523D01*
X170211904Y-59403571D01*
X170259523Y-59308333D01*
X170354761Y-59260714D01*
X170545238Y-59260714D01*
X170640476Y-59308333D01*
X170688095Y-59403571D01*
X170688095Y-59498809D01*
X170211904Y-59594047D01*
X172021428Y-59927380D02*
X171926190Y-59879761D01*
X171878571Y-59832142D01*
X171830952Y-59736904D01*
X171830952Y-59451190D01*
X171878571Y-59355952D01*
X171926190Y-59308333D01*
X172021428Y-59260714D01*
X172164285Y-59260714D01*
X172259523Y-59308333D01*
X172307142Y-59355952D01*
X172354761Y-59451190D01*
X172354761Y-59736904D01*
X172307142Y-59832142D01*
X172259523Y-59879761D01*
X172164285Y-59927380D01*
X172021428Y-59927380D01*
X172783333Y-59260714D02*
X172783333Y-59927380D01*
X172783333Y-59355952D02*
X172830952Y-59308333D01*
X172926190Y-59260714D01*
X173069047Y-59260714D01*
X173164285Y-59308333D01*
X173211904Y-59403571D01*
X173211904Y-59927380D01*
X173830952Y-59927380D02*
X173735714Y-59879761D01*
X173688095Y-59784523D01*
X173688095Y-58927380D01*
X174116666Y-59260714D02*
X174354761Y-59927380D01*
X174592857Y-59260714D02*
X174354761Y-59927380D01*
X174259523Y-60165476D01*
X174211904Y-60213095D01*
X174116666Y-60260714D01*
X167711904Y-61537380D02*
X167616666Y-61489761D01*
X167569047Y-61442142D01*
X167521428Y-61346904D01*
X167521428Y-61061190D01*
X167569047Y-60965952D01*
X167616666Y-60918333D01*
X167711904Y-60870714D01*
X167854761Y-60870714D01*
X167950000Y-60918333D01*
X167997619Y-60965952D01*
X168045238Y-61061190D01*
X168045238Y-61346904D01*
X167997619Y-61442142D01*
X167950000Y-61489761D01*
X167854761Y-61537380D01*
X167711904Y-61537380D01*
X168473809Y-60870714D02*
X168473809Y-61537380D01*
X168473809Y-60965952D02*
X168521428Y-60918333D01*
X168616666Y-60870714D01*
X168759523Y-60870714D01*
X168854761Y-60918333D01*
X168902380Y-61013571D01*
X168902380Y-61537380D01*
X169759523Y-61489761D02*
X169664285Y-61537380D01*
X169473809Y-61537380D01*
X169378571Y-61489761D01*
X169330952Y-61394523D01*
X169330952Y-61013571D01*
X169378571Y-60918333D01*
X169473809Y-60870714D01*
X169664285Y-60870714D01*
X169759523Y-60918333D01*
X169807142Y-61013571D01*
X169807142Y-61108809D01*
X169330952Y-61204047D01*
X170950000Y-61489761D02*
X171045238Y-61537380D01*
X171235714Y-61537380D01*
X171330952Y-61489761D01*
X171378571Y-61394523D01*
X171378571Y-61346904D01*
X171330952Y-61251666D01*
X171235714Y-61204047D01*
X171092857Y-61204047D01*
X170997619Y-61156428D01*
X170950000Y-61061190D01*
X170950000Y-61013571D01*
X170997619Y-60918333D01*
X171092857Y-60870714D01*
X171235714Y-60870714D01*
X171330952Y-60918333D01*
X171950000Y-61537380D02*
X171854761Y-61489761D01*
X171807142Y-61442142D01*
X171759523Y-61346904D01*
X171759523Y-61061190D01*
X171807142Y-60965952D01*
X171854761Y-60918333D01*
X171950000Y-60870714D01*
X172092857Y-60870714D01*
X172188095Y-60918333D01*
X172235714Y-60965952D01*
X172283333Y-61061190D01*
X172283333Y-61346904D01*
X172235714Y-61442142D01*
X172188095Y-61489761D01*
X172092857Y-61537380D01*
X171950000Y-61537380D01*
X173140476Y-61489761D02*
X173045238Y-61537380D01*
X172854761Y-61537380D01*
X172759523Y-61489761D01*
X172711904Y-61442142D01*
X172664285Y-61346904D01*
X172664285Y-61061190D01*
X172711904Y-60965952D01*
X172759523Y-60918333D01*
X172854761Y-60870714D01*
X173045238Y-60870714D01*
X173140476Y-60918333D01*
X173569047Y-61537380D02*
X173569047Y-60537380D01*
X173664285Y-61156428D02*
X173950000Y-61537380D01*
X173950000Y-60870714D02*
X173569047Y-61251666D01*
X174759523Y-61489761D02*
X174664285Y-61537380D01*
X174473809Y-61537380D01*
X174378571Y-61489761D01*
X174330952Y-61394523D01*
X174330952Y-61013571D01*
X174378571Y-60918333D01*
X174473809Y-60870714D01*
X174664285Y-60870714D01*
X174759523Y-60918333D01*
X174807142Y-61013571D01*
X174807142Y-61108809D01*
X174330952Y-61204047D01*
X175092857Y-60870714D02*
X175473809Y-60870714D01*
X175235714Y-60537380D02*
X175235714Y-61394523D01*
X175283333Y-61489761D01*
X175378571Y-61537380D01*
X175473809Y-61537380D01*
X168545238Y-63147380D02*
X168545238Y-62623571D01*
X168497619Y-62528333D01*
X168402380Y-62480714D01*
X168211904Y-62480714D01*
X168116666Y-62528333D01*
X168545238Y-63099761D02*
X168450000Y-63147380D01*
X168211904Y-63147380D01*
X168116666Y-63099761D01*
X168069047Y-63004523D01*
X168069047Y-62909285D01*
X168116666Y-62814047D01*
X168211904Y-62766428D01*
X168450000Y-62766428D01*
X168545238Y-62718809D01*
X168878571Y-62480714D02*
X169259523Y-62480714D01*
X169021428Y-62147380D02*
X169021428Y-63004523D01*
X169069047Y-63099761D01*
X169164285Y-63147380D01*
X169259523Y-63147380D01*
X170783333Y-63147380D02*
X170783333Y-62623571D01*
X170735714Y-62528333D01*
X170640476Y-62480714D01*
X170450000Y-62480714D01*
X170354761Y-62528333D01*
X170783333Y-63099761D02*
X170688095Y-63147380D01*
X170450000Y-63147380D01*
X170354761Y-63099761D01*
X170307142Y-63004523D01*
X170307142Y-62909285D01*
X170354761Y-62814047D01*
X170450000Y-62766428D01*
X170688095Y-62766428D01*
X170783333Y-62718809D01*
X171878571Y-62480714D02*
X172259523Y-62480714D01*
X172021428Y-62147380D02*
X172021428Y-63004523D01*
X172069047Y-63099761D01*
X172164285Y-63147380D01*
X172259523Y-63147380D01*
X172592857Y-63147380D02*
X172592857Y-62480714D01*
X172592857Y-62147380D02*
X172545238Y-62195000D01*
X172592857Y-62242619D01*
X172640476Y-62195000D01*
X172592857Y-62147380D01*
X172592857Y-62242619D01*
X173069047Y-63147380D02*
X173069047Y-62480714D01*
X173069047Y-62575952D02*
X173116666Y-62528333D01*
X173211904Y-62480714D01*
X173354761Y-62480714D01*
X173450000Y-62528333D01*
X173497619Y-62623571D01*
X173497619Y-63147380D01*
X173497619Y-62623571D02*
X173545238Y-62528333D01*
X173640476Y-62480714D01*
X173783333Y-62480714D01*
X173878571Y-62528333D01*
X173926190Y-62623571D01*
X173926190Y-63147380D01*
X174783333Y-63099761D02*
X174688095Y-63147380D01*
X174497619Y-63147380D01*
X174402380Y-63099761D01*
X174354761Y-63004523D01*
X174354761Y-62623571D01*
X174402380Y-62528333D01*
X174497619Y-62480714D01*
X174688095Y-62480714D01*
X174783333Y-62528333D01*
X174830952Y-62623571D01*
X174830952Y-62718809D01*
X174354761Y-62814047D01*
X170045238Y-66272142D02*
X169997619Y-66319761D01*
X169854761Y-66367380D01*
X169759523Y-66367380D01*
X169616666Y-66319761D01*
X169521428Y-66224523D01*
X169473809Y-66129285D01*
X169426190Y-65938809D01*
X169426190Y-65795952D01*
X169473809Y-65605476D01*
X169521428Y-65510238D01*
X169616666Y-65415000D01*
X169759523Y-65367380D01*
X169854761Y-65367380D01*
X169997619Y-65415000D01*
X170045238Y-65462619D01*
X170473809Y-66367380D02*
X170473809Y-65367380D01*
X170902380Y-66367380D02*
X170902380Y-65843571D01*
X170854761Y-65748333D01*
X170759523Y-65700714D01*
X170616666Y-65700714D01*
X170521428Y-65748333D01*
X170473809Y-65795952D01*
X171759523Y-66319761D02*
X171664285Y-66367380D01*
X171473809Y-66367380D01*
X171378571Y-66319761D01*
X171330952Y-66224523D01*
X171330952Y-65843571D01*
X171378571Y-65748333D01*
X171473809Y-65700714D01*
X171664285Y-65700714D01*
X171759523Y-65748333D01*
X171807142Y-65843571D01*
X171807142Y-65938809D01*
X171330952Y-66034047D01*
X172664285Y-66319761D02*
X172569047Y-66367380D01*
X172378571Y-66367380D01*
X172283333Y-66319761D01*
X172235714Y-66272142D01*
X172188095Y-66176904D01*
X172188095Y-65891190D01*
X172235714Y-65795952D01*
X172283333Y-65748333D01*
X172378571Y-65700714D01*
X172569047Y-65700714D01*
X172664285Y-65748333D01*
X173092857Y-66367380D02*
X173092857Y-65367380D01*
X173188095Y-65986428D02*
X173473809Y-66367380D01*
X173473809Y-65700714D02*
X173092857Y-66081666D01*
X167545238Y-67977380D02*
X167450000Y-67929761D01*
X167402380Y-67882142D01*
X167354761Y-67786904D01*
X167354761Y-67501190D01*
X167402380Y-67405952D01*
X167450000Y-67358333D01*
X167545238Y-67310714D01*
X167688095Y-67310714D01*
X167783333Y-67358333D01*
X167830952Y-67405952D01*
X167878571Y-67501190D01*
X167878571Y-67786904D01*
X167830952Y-67882142D01*
X167783333Y-67929761D01*
X167688095Y-67977380D01*
X167545238Y-67977380D01*
X168307142Y-67977380D02*
X168307142Y-67310714D01*
X168307142Y-67501190D02*
X168354761Y-67405952D01*
X168402380Y-67358333D01*
X168497619Y-67310714D01*
X168592857Y-67310714D01*
X168926190Y-67977380D02*
X168926190Y-67310714D01*
X168926190Y-66977380D02*
X168878571Y-67025000D01*
X168926190Y-67072619D01*
X168973809Y-67025000D01*
X168926190Y-66977380D01*
X168926190Y-67072619D01*
X169783333Y-67929761D02*
X169688095Y-67977380D01*
X169497619Y-67977380D01*
X169402380Y-67929761D01*
X169354761Y-67834523D01*
X169354761Y-67453571D01*
X169402380Y-67358333D01*
X169497619Y-67310714D01*
X169688095Y-67310714D01*
X169783333Y-67358333D01*
X169830952Y-67453571D01*
X169830952Y-67548809D01*
X169354761Y-67644047D01*
X170259523Y-67310714D02*
X170259523Y-67977380D01*
X170259523Y-67405952D02*
X170307142Y-67358333D01*
X170402380Y-67310714D01*
X170545238Y-67310714D01*
X170640476Y-67358333D01*
X170688095Y-67453571D01*
X170688095Y-67977380D01*
X171021428Y-67310714D02*
X171402380Y-67310714D01*
X171164285Y-66977380D02*
X171164285Y-67834523D01*
X171211904Y-67929761D01*
X171307142Y-67977380D01*
X171402380Y-67977380D01*
X172164285Y-67977380D02*
X172164285Y-67453571D01*
X172116666Y-67358333D01*
X172021428Y-67310714D01*
X171830952Y-67310714D01*
X171735714Y-67358333D01*
X172164285Y-67929761D02*
X172069047Y-67977380D01*
X171830952Y-67977380D01*
X171735714Y-67929761D01*
X171688095Y-67834523D01*
X171688095Y-67739285D01*
X171735714Y-67644047D01*
X171830952Y-67596428D01*
X172069047Y-67596428D01*
X172164285Y-67548809D01*
X172497619Y-67310714D02*
X172878571Y-67310714D01*
X172640476Y-66977380D02*
X172640476Y-67834523D01*
X172688095Y-67929761D01*
X172783333Y-67977380D01*
X172878571Y-67977380D01*
X173211904Y-67977380D02*
X173211904Y-67310714D01*
X173211904Y-66977380D02*
X173164285Y-67025000D01*
X173211904Y-67072619D01*
X173259523Y-67025000D01*
X173211904Y-66977380D01*
X173211904Y-67072619D01*
X173830952Y-67977380D02*
X173735714Y-67929761D01*
X173688095Y-67882142D01*
X173640476Y-67786904D01*
X173640476Y-67501190D01*
X173688095Y-67405952D01*
X173735714Y-67358333D01*
X173830952Y-67310714D01*
X173973809Y-67310714D01*
X174069047Y-67358333D01*
X174116666Y-67405952D01*
X174164285Y-67501190D01*
X174164285Y-67786904D01*
X174116666Y-67882142D01*
X174069047Y-67929761D01*
X173973809Y-67977380D01*
X173830952Y-67977380D01*
X174592857Y-67310714D02*
X174592857Y-67977380D01*
X174592857Y-67405952D02*
X174640476Y-67358333D01*
X174735714Y-67310714D01*
X174878571Y-67310714D01*
X174973809Y-67358333D01*
X175021428Y-67453571D01*
X175021428Y-67977380D01*
X175497619Y-67882142D02*
X175545238Y-67929761D01*
X175497619Y-67977380D01*
X175450000Y-67929761D01*
X175497619Y-67882142D01*
X175497619Y-67977380D01*
X175497619Y-67596428D02*
X175450000Y-67025000D01*
X175497619Y-66977380D01*
X175545238Y-67025000D01*
X175497619Y-67596428D01*
X175497619Y-66977380D01*
D11*
X178197142Y-76941071D02*
X178197142Y-75441071D01*
X178554285Y-75441071D01*
X178768571Y-75512500D01*
X178911428Y-75655357D01*
X178982857Y-75798214D01*
X179054285Y-76083928D01*
X179054285Y-76298214D01*
X178982857Y-76583928D01*
X178911428Y-76726785D01*
X178768571Y-76869642D01*
X178554285Y-76941071D01*
X178197142Y-76941071D01*
X180340000Y-75941071D02*
X180340000Y-76941071D01*
X179697142Y-75941071D02*
X179697142Y-76726785D01*
X179768571Y-76869642D01*
X179911428Y-76941071D01*
X180125714Y-76941071D01*
X180268571Y-76869642D01*
X180340000Y-76798214D01*
X181697142Y-76941071D02*
X181697142Y-76155357D01*
X181625714Y-76012500D01*
X181482857Y-75941071D01*
X181197142Y-75941071D01*
X181054285Y-76012500D01*
X181697142Y-76869642D02*
X181554285Y-76941071D01*
X181197142Y-76941071D01*
X181054285Y-76869642D01*
X180982857Y-76726785D01*
X180982857Y-76583928D01*
X181054285Y-76441071D01*
X181197142Y-76369642D01*
X181554285Y-76369642D01*
X181697142Y-76298214D01*
X182625714Y-76941071D02*
X182482857Y-76869642D01*
X182411428Y-76726785D01*
X182411428Y-75441071D01*
X176625714Y-79356071D02*
X176482857Y-79284642D01*
X176411428Y-79213214D01*
X176340000Y-79070357D01*
X176340000Y-78641785D01*
X176411428Y-78498928D01*
X176482857Y-78427500D01*
X176625714Y-78356071D01*
X176840000Y-78356071D01*
X176982857Y-78427500D01*
X177054285Y-78498928D01*
X177125714Y-78641785D01*
X177125714Y-79070357D01*
X177054285Y-79213214D01*
X176982857Y-79284642D01*
X176840000Y-79356071D01*
X176625714Y-79356071D01*
X177768571Y-78356071D02*
X177768571Y-79856071D01*
X177768571Y-78427500D02*
X177911428Y-78356071D01*
X178197142Y-78356071D01*
X178340000Y-78427500D01*
X178411428Y-78498928D01*
X178482857Y-78641785D01*
X178482857Y-79070357D01*
X178411428Y-79213214D01*
X178340000Y-79284642D01*
X178197142Y-79356071D01*
X177911428Y-79356071D01*
X177768571Y-79284642D01*
X180911428Y-79356071D02*
X180911428Y-78570357D01*
X180840000Y-78427500D01*
X180697142Y-78356071D01*
X180411428Y-78356071D01*
X180268571Y-78427500D01*
X180911428Y-79284642D02*
X180768571Y-79356071D01*
X180411428Y-79356071D01*
X180268571Y-79284642D01*
X180197142Y-79141785D01*
X180197142Y-78998928D01*
X180268571Y-78856071D01*
X180411428Y-78784642D01*
X180768571Y-78784642D01*
X180911428Y-78713214D01*
X181625714Y-79356071D02*
X181625714Y-78356071D01*
X181625714Y-78498928D02*
X181697142Y-78427500D01*
X181840000Y-78356071D01*
X182054285Y-78356071D01*
X182197142Y-78427500D01*
X182268571Y-78570357D01*
X182268571Y-79356071D01*
X182268571Y-78570357D02*
X182340000Y-78427500D01*
X182482857Y-78356071D01*
X182697142Y-78356071D01*
X182840000Y-78427500D01*
X182911428Y-78570357D01*
X182911428Y-79356071D01*
X183625714Y-78356071D02*
X183625714Y-79856071D01*
X183625714Y-78427500D02*
X183768571Y-78356071D01*
X184054285Y-78356071D01*
X184197142Y-78427500D01*
X184268571Y-78498928D01*
X184340000Y-78641785D01*
X184340000Y-79070357D01*
X184268571Y-79213214D01*
X184197142Y-79284642D01*
X184054285Y-79356071D01*
X183768571Y-79356071D01*
X183625714Y-79284642D01*
D12*
X166339523Y-89074761D02*
X166720476Y-89074761D01*
X166910952Y-89170000D01*
X167101428Y-89360476D01*
X167196666Y-89741428D01*
X167196666Y-90408095D01*
X167101428Y-90789047D01*
X166910952Y-90979523D01*
X166720476Y-91074761D01*
X166339523Y-91074761D01*
X166149047Y-90979523D01*
X165958571Y-90789047D01*
X165863333Y-90408095D01*
X165863333Y-89741428D01*
X165958571Y-89360476D01*
X166149047Y-89170000D01*
X166339523Y-89074761D01*
X168053809Y-89741428D02*
X168053809Y-91741428D01*
X168053809Y-89836666D02*
X168244285Y-89741428D01*
X168625238Y-89741428D01*
X168815714Y-89836666D01*
X168910952Y-89931904D01*
X169006190Y-90122380D01*
X169006190Y-90693809D01*
X168910952Y-90884285D01*
X168815714Y-90979523D01*
X168625238Y-91074761D01*
X168244285Y-91074761D01*
X168053809Y-90979523D01*
X171291904Y-90503333D02*
X172244285Y-90503333D01*
X171101428Y-91074761D02*
X171768095Y-89074761D01*
X172434761Y-91074761D01*
X173101428Y-91074761D02*
X173101428Y-89741428D01*
X173101428Y-89931904D02*
X173196666Y-89836666D01*
X173387142Y-89741428D01*
X173672857Y-89741428D01*
X173863333Y-89836666D01*
X173958571Y-90027142D01*
X173958571Y-91074761D01*
X173958571Y-90027142D02*
X174053809Y-89836666D01*
X174244285Y-89741428D01*
X174530000Y-89741428D01*
X174720476Y-89836666D01*
X174815714Y-90027142D01*
X174815714Y-91074761D01*
X175768095Y-89741428D02*
X175768095Y-91741428D01*
X175768095Y-89836666D02*
X175958571Y-89741428D01*
X176339523Y-89741428D01*
X176530000Y-89836666D01*
X176625238Y-89931904D01*
X176720476Y-90122380D01*
X176720476Y-90693809D01*
X176625238Y-90884285D01*
X176530000Y-90979523D01*
X176339523Y-91074761D01*
X175958571Y-91074761D01*
X175768095Y-90979523D01*
X178815714Y-89074761D02*
X179958571Y-89074761D01*
X179387142Y-91074761D02*
X179387142Y-89074761D01*
X181387142Y-90979523D02*
X181196666Y-91074761D01*
X180815714Y-91074761D01*
X180625238Y-90979523D01*
X180530000Y-90789047D01*
X180530000Y-90027142D01*
X180625238Y-89836666D01*
X180815714Y-89741428D01*
X181196666Y-89741428D01*
X181387142Y-89836666D01*
X181482380Y-90027142D01*
X181482380Y-90217619D01*
X180530000Y-90408095D01*
X182244285Y-90979523D02*
X182434761Y-91074761D01*
X182815714Y-91074761D01*
X183006190Y-90979523D01*
X183101428Y-90789047D01*
X183101428Y-90693809D01*
X183006190Y-90503333D01*
X182815714Y-90408095D01*
X182530000Y-90408095D01*
X182339523Y-90312857D01*
X182244285Y-90122380D01*
X182244285Y-90027142D01*
X182339523Y-89836666D01*
X182530000Y-89741428D01*
X182815714Y-89741428D01*
X183006190Y-89836666D01*
X183672857Y-89741428D02*
X184434761Y-89741428D01*
X183958571Y-89074761D02*
X183958571Y-90789047D01*
X184053809Y-90979523D01*
X184244285Y-91074761D01*
X184434761Y-91074761D01*
X185863333Y-90979523D02*
X185672857Y-91074761D01*
X185291904Y-91074761D01*
X185101428Y-90979523D01*
X185006190Y-90789047D01*
X185006190Y-90027142D01*
X185101428Y-89836666D01*
X185291904Y-89741428D01*
X185672857Y-89741428D01*
X185863333Y-89836666D01*
X185958571Y-90027142D01*
X185958571Y-90217619D01*
X185006190Y-90408095D01*
X186815714Y-91074761D02*
X186815714Y-89741428D01*
X186815714Y-90122380D02*
X186910952Y-89931904D01*
X187006190Y-89836666D01*
X187196666Y-89741428D01*
X187387142Y-89741428D01*
D11*
X177161428Y-52739642D02*
X177375714Y-52811071D01*
X177732857Y-52811071D01*
X177875714Y-52739642D01*
X177947142Y-52668214D01*
X178018571Y-52525357D01*
X178018571Y-52382500D01*
X177947142Y-52239642D01*
X177875714Y-52168214D01*
X177732857Y-52096785D01*
X177447142Y-52025357D01*
X177304285Y-51953928D01*
X177232857Y-51882500D01*
X177161428Y-51739642D01*
X177161428Y-51596785D01*
X177232857Y-51453928D01*
X177304285Y-51382500D01*
X177447142Y-51311071D01*
X177804285Y-51311071D01*
X178018571Y-51382500D01*
X178661428Y-52811071D02*
X178661428Y-51811071D01*
X178661428Y-51311071D02*
X178590000Y-51382500D01*
X178661428Y-51453928D01*
X178732857Y-51382500D01*
X178661428Y-51311071D01*
X178661428Y-51453928D01*
X179375714Y-51811071D02*
X179375714Y-52811071D01*
X179375714Y-51953928D02*
X179447142Y-51882500D01*
X179590000Y-51811071D01*
X179804285Y-51811071D01*
X179947142Y-51882500D01*
X180018571Y-52025357D01*
X180018571Y-52811071D01*
X181375714Y-51811071D02*
X181375714Y-53025357D01*
X181304285Y-53168214D01*
X181232857Y-53239642D01*
X181090000Y-53311071D01*
X180875714Y-53311071D01*
X180732857Y-53239642D01*
X181375714Y-52739642D02*
X181232857Y-52811071D01*
X180947142Y-52811071D01*
X180804285Y-52739642D01*
X180732857Y-52668214D01*
X180661428Y-52525357D01*
X180661428Y-52096785D01*
X180732857Y-51953928D01*
X180804285Y-51882500D01*
X180947142Y-51811071D01*
X181232857Y-51811071D01*
X181375714Y-51882500D01*
X182304285Y-52811071D02*
X182161428Y-52739642D01*
X182090000Y-52596785D01*
X182090000Y-51311071D01*
X183447142Y-52739642D02*
X183304285Y-52811071D01*
X183018571Y-52811071D01*
X182875714Y-52739642D01*
X182804285Y-52596785D01*
X182804285Y-52025357D01*
X182875714Y-51882500D01*
X183018571Y-51811071D01*
X183304285Y-51811071D01*
X183447142Y-51882500D01*
X183518571Y-52025357D01*
X183518571Y-52168214D01*
X182804285Y-52311071D01*
X176625714Y-55226071D02*
X176482857Y-55154642D01*
X176411428Y-55083214D01*
X176340000Y-54940357D01*
X176340000Y-54511785D01*
X176411428Y-54368928D01*
X176482857Y-54297500D01*
X176625714Y-54226071D01*
X176840000Y-54226071D01*
X176982857Y-54297500D01*
X177054285Y-54368928D01*
X177125714Y-54511785D01*
X177125714Y-54940357D01*
X177054285Y-55083214D01*
X176982857Y-55154642D01*
X176840000Y-55226071D01*
X176625714Y-55226071D01*
X177768571Y-54226071D02*
X177768571Y-55726071D01*
X177768571Y-54297500D02*
X177911428Y-54226071D01*
X178197142Y-54226071D01*
X178340000Y-54297500D01*
X178411428Y-54368928D01*
X178482857Y-54511785D01*
X178482857Y-54940357D01*
X178411428Y-55083214D01*
X178340000Y-55154642D01*
X178197142Y-55226071D01*
X177911428Y-55226071D01*
X177768571Y-55154642D01*
X180911428Y-55226071D02*
X180911428Y-54440357D01*
X180840000Y-54297500D01*
X180697142Y-54226071D01*
X180411428Y-54226071D01*
X180268571Y-54297500D01*
X180911428Y-55154642D02*
X180768571Y-55226071D01*
X180411428Y-55226071D01*
X180268571Y-55154642D01*
X180197142Y-55011785D01*
X180197142Y-54868928D01*
X180268571Y-54726071D01*
X180411428Y-54654642D01*
X180768571Y-54654642D01*
X180911428Y-54583214D01*
X181625714Y-55226071D02*
X181625714Y-54226071D01*
X181625714Y-54368928D02*
X181697142Y-54297500D01*
X181840000Y-54226071D01*
X182054285Y-54226071D01*
X182197142Y-54297500D01*
X182268571Y-54440357D01*
X182268571Y-55226071D01*
X182268571Y-54440357D02*
X182340000Y-54297500D01*
X182482857Y-54226071D01*
X182697142Y-54226071D01*
X182840000Y-54297500D01*
X182911428Y-54440357D01*
X182911428Y-55226071D01*
X183625714Y-54226071D02*
X183625714Y-55726071D01*
X183625714Y-54297500D02*
X183768571Y-54226071D01*
X184054285Y-54226071D01*
X184197142Y-54297500D01*
X184268571Y-54368928D01*
X184340000Y-54511785D01*
X184340000Y-54940357D01*
X184268571Y-55083214D01*
X184197142Y-55154642D01*
X184054285Y-55226071D01*
X183768571Y-55226071D01*
X183625714Y-55154642D01*
D10*
X177871428Y-61832857D02*
X177871428Y-61070952D01*
X178252380Y-60070952D02*
X178252380Y-60642380D01*
X178252380Y-60356666D02*
X177252380Y-60356666D01*
X177395238Y-60451904D01*
X177490476Y-60547142D01*
X177538095Y-60642380D01*
X177347619Y-59690000D02*
X177300000Y-59642380D01*
X177252380Y-59547142D01*
X177252380Y-59309047D01*
X177300000Y-59213809D01*
X177347619Y-59166190D01*
X177442857Y-59118571D01*
X177538095Y-59118571D01*
X177680952Y-59166190D01*
X178252380Y-59737619D01*
X178252380Y-59118571D01*
X177252380Y-58070952D02*
X178252380Y-57737619D01*
X177252380Y-57404285D01*
G04 #@! TO.C,R8*
X139912285Y-50925000D02*
X139555142Y-51175000D01*
X139912285Y-51353571D02*
X139162285Y-51353571D01*
X139162285Y-51067857D01*
X139198000Y-50996428D01*
X139233714Y-50960714D01*
X139305142Y-50925000D01*
X139412285Y-50925000D01*
X139483714Y-50960714D01*
X139519428Y-50996428D01*
X139555142Y-51067857D01*
X139555142Y-51353571D01*
X139483714Y-50496428D02*
X139448000Y-50567857D01*
X139412285Y-50603571D01*
X139340857Y-50639285D01*
X139305142Y-50639285D01*
X139233714Y-50603571D01*
X139198000Y-50567857D01*
X139162285Y-50496428D01*
X139162285Y-50353571D01*
X139198000Y-50282142D01*
X139233714Y-50246428D01*
X139305142Y-50210714D01*
X139340857Y-50210714D01*
X139412285Y-50246428D01*
X139448000Y-50282142D01*
X139483714Y-50353571D01*
X139483714Y-50496428D01*
X139519428Y-50567857D01*
X139555142Y-50603571D01*
X139626571Y-50639285D01*
X139769428Y-50639285D01*
X139840857Y-50603571D01*
X139876571Y-50567857D01*
X139912285Y-50496428D01*
X139912285Y-50353571D01*
X139876571Y-50282142D01*
X139840857Y-50246428D01*
X139769428Y-50210714D01*
X139626571Y-50210714D01*
X139555142Y-50246428D01*
X139519428Y-50282142D01*
X139483714Y-50353571D01*
X136749285Y-51746428D02*
X136749285Y-51889285D01*
X136785000Y-51960714D01*
X136820714Y-51996428D01*
X136927857Y-52067857D01*
X137070714Y-52103571D01*
X137356428Y-52103571D01*
X137427857Y-52067857D01*
X137463571Y-52032142D01*
X137499285Y-51960714D01*
X137499285Y-51817857D01*
X137463571Y-51746428D01*
X137427857Y-51710714D01*
X137356428Y-51675000D01*
X137177857Y-51675000D01*
X137106428Y-51710714D01*
X137070714Y-51746428D01*
X137035000Y-51817857D01*
X137035000Y-51960714D01*
X137070714Y-52032142D01*
X137106428Y-52067857D01*
X137177857Y-52103571D01*
X136820714Y-51389285D02*
X136785000Y-51353571D01*
X136749285Y-51282142D01*
X136749285Y-51103571D01*
X136785000Y-51032142D01*
X136820714Y-50996428D01*
X136892142Y-50960714D01*
X136963571Y-50960714D01*
X137070714Y-50996428D01*
X137499285Y-51425000D01*
X137499285Y-50960714D01*
X136749285Y-50496428D02*
X136749285Y-50425000D01*
X136785000Y-50353571D01*
X136820714Y-50317857D01*
X136892142Y-50282142D01*
X137035000Y-50246428D01*
X137213571Y-50246428D01*
X137356428Y-50282142D01*
X137427857Y-50317857D01*
X137463571Y-50353571D01*
X137499285Y-50425000D01*
X137499285Y-50496428D01*
X137463571Y-50567857D01*
X137427857Y-50603571D01*
X137356428Y-50639285D01*
X137213571Y-50675000D01*
X137035000Y-50675000D01*
X136892142Y-50639285D01*
X136820714Y-50603571D01*
X136785000Y-50567857D01*
X136749285Y-50496428D01*
X137499285Y-49496428D02*
X137142142Y-49746428D01*
X137499285Y-49925000D02*
X136749285Y-49925000D01*
X136749285Y-49639285D01*
X136785000Y-49567857D01*
X136820714Y-49532142D01*
X136892142Y-49496428D01*
X136999285Y-49496428D01*
X137070714Y-49532142D01*
X137106428Y-49567857D01*
X137142142Y-49639285D01*
X137142142Y-49925000D01*
G04 #@! TO.C,R5*
X155152285Y-50925000D02*
X154795142Y-51175000D01*
X155152285Y-51353571D02*
X154402285Y-51353571D01*
X154402285Y-51067857D01*
X154438000Y-50996428D01*
X154473714Y-50960714D01*
X154545142Y-50925000D01*
X154652285Y-50925000D01*
X154723714Y-50960714D01*
X154759428Y-50996428D01*
X154795142Y-51067857D01*
X154795142Y-51353571D01*
X154402285Y-50246428D02*
X154402285Y-50603571D01*
X154759428Y-50639285D01*
X154723714Y-50603571D01*
X154688000Y-50532142D01*
X154688000Y-50353571D01*
X154723714Y-50282142D01*
X154759428Y-50246428D01*
X154830857Y-50210714D01*
X155009428Y-50210714D01*
X155080857Y-50246428D01*
X155116571Y-50282142D01*
X155152285Y-50353571D01*
X155152285Y-50532142D01*
X155116571Y-50603571D01*
X155080857Y-50639285D01*
X151989285Y-51746428D02*
X151989285Y-51889285D01*
X152025000Y-51960714D01*
X152060714Y-51996428D01*
X152167857Y-52067857D01*
X152310714Y-52103571D01*
X152596428Y-52103571D01*
X152667857Y-52067857D01*
X152703571Y-52032142D01*
X152739285Y-51960714D01*
X152739285Y-51817857D01*
X152703571Y-51746428D01*
X152667857Y-51710714D01*
X152596428Y-51675000D01*
X152417857Y-51675000D01*
X152346428Y-51710714D01*
X152310714Y-51746428D01*
X152275000Y-51817857D01*
X152275000Y-51960714D01*
X152310714Y-52032142D01*
X152346428Y-52067857D01*
X152417857Y-52103571D01*
X152060714Y-51389285D02*
X152025000Y-51353571D01*
X151989285Y-51282142D01*
X151989285Y-51103571D01*
X152025000Y-51032142D01*
X152060714Y-50996428D01*
X152132142Y-50960714D01*
X152203571Y-50960714D01*
X152310714Y-50996428D01*
X152739285Y-51425000D01*
X152739285Y-50960714D01*
X151989285Y-50496428D02*
X151989285Y-50425000D01*
X152025000Y-50353571D01*
X152060714Y-50317857D01*
X152132142Y-50282142D01*
X152275000Y-50246428D01*
X152453571Y-50246428D01*
X152596428Y-50282142D01*
X152667857Y-50317857D01*
X152703571Y-50353571D01*
X152739285Y-50425000D01*
X152739285Y-50496428D01*
X152703571Y-50567857D01*
X152667857Y-50603571D01*
X152596428Y-50639285D01*
X152453571Y-50675000D01*
X152275000Y-50675000D01*
X152132142Y-50639285D01*
X152060714Y-50603571D01*
X152025000Y-50567857D01*
X151989285Y-50496428D01*
X152739285Y-49496428D02*
X152382142Y-49746428D01*
X152739285Y-49925000D02*
X151989285Y-49925000D01*
X151989285Y-49639285D01*
X152025000Y-49567857D01*
X152060714Y-49532142D01*
X152132142Y-49496428D01*
X152239285Y-49496428D01*
X152310714Y-49532142D01*
X152346428Y-49567857D01*
X152382142Y-49639285D01*
X152382142Y-49925000D01*
G04 #@! TO.C,U2*
X154324285Y-65341428D02*
X154931428Y-65341428D01*
X155002857Y-65305714D01*
X155038571Y-65270000D01*
X155074285Y-65198571D01*
X155074285Y-65055714D01*
X155038571Y-64984285D01*
X155002857Y-64948571D01*
X154931428Y-64912857D01*
X154324285Y-64912857D01*
X154395714Y-64591428D02*
X154360000Y-64555714D01*
X154324285Y-64484285D01*
X154324285Y-64305714D01*
X154360000Y-64234285D01*
X154395714Y-64198571D01*
X154467142Y-64162857D01*
X154538571Y-64162857D01*
X154645714Y-64198571D01*
X155074285Y-64627142D01*
X155074285Y-64162857D01*
X143195714Y-64359285D02*
X143624285Y-64359285D01*
X143410000Y-65109285D02*
X143410000Y-64359285D01*
X144231428Y-65109285D02*
X143874285Y-65109285D01*
X143874285Y-64359285D01*
X144624285Y-64359285D02*
X144695714Y-64359285D01*
X144767142Y-64395000D01*
X144802857Y-64430714D01*
X144838571Y-64502142D01*
X144874285Y-64645000D01*
X144874285Y-64823571D01*
X144838571Y-64966428D01*
X144802857Y-65037857D01*
X144767142Y-65073571D01*
X144695714Y-65109285D01*
X144624285Y-65109285D01*
X144552857Y-65073571D01*
X144517142Y-65037857D01*
X144481428Y-64966428D01*
X144445714Y-64823571D01*
X144445714Y-64645000D01*
X144481428Y-64502142D01*
X144517142Y-64430714D01*
X144552857Y-64395000D01*
X144624285Y-64359285D01*
X145124285Y-64359285D02*
X145624285Y-64359285D01*
X145302857Y-65109285D01*
X146231428Y-64609285D02*
X146231428Y-65109285D01*
X146052857Y-64323571D02*
X145874285Y-64859285D01*
X146338571Y-64859285D01*
G04 #@! TO.C,R10*
X134832285Y-79222142D02*
X134475142Y-79472142D01*
X134832285Y-79650714D02*
X134082285Y-79650714D01*
X134082285Y-79365000D01*
X134118000Y-79293571D01*
X134153714Y-79257857D01*
X134225142Y-79222142D01*
X134332285Y-79222142D01*
X134403714Y-79257857D01*
X134439428Y-79293571D01*
X134475142Y-79365000D01*
X134475142Y-79650714D01*
X134832285Y-78507857D02*
X134832285Y-78936428D01*
X134832285Y-78722142D02*
X134082285Y-78722142D01*
X134189428Y-78793571D01*
X134260857Y-78865000D01*
X134296571Y-78936428D01*
X134082285Y-78043571D02*
X134082285Y-77972142D01*
X134118000Y-77900714D01*
X134153714Y-77865000D01*
X134225142Y-77829285D01*
X134368000Y-77793571D01*
X134546571Y-77793571D01*
X134689428Y-77829285D01*
X134760857Y-77865000D01*
X134796571Y-77900714D01*
X134832285Y-77972142D01*
X134832285Y-78043571D01*
X134796571Y-78115000D01*
X134760857Y-78150714D01*
X134689428Y-78186428D01*
X134546571Y-78222142D01*
X134368000Y-78222142D01*
X134225142Y-78186428D01*
X134153714Y-78150714D01*
X134118000Y-78115000D01*
X134082285Y-78043571D01*
X132419285Y-79186428D02*
X132419285Y-79615000D01*
X132419285Y-79400714D02*
X131669285Y-79400714D01*
X131776428Y-79472142D01*
X131847857Y-79543571D01*
X131883571Y-79615000D01*
X131669285Y-78507857D02*
X131669285Y-78865000D01*
X132026428Y-78900714D01*
X131990714Y-78865000D01*
X131955000Y-78793571D01*
X131955000Y-78615000D01*
X131990714Y-78543571D01*
X132026428Y-78507857D01*
X132097857Y-78472142D01*
X132276428Y-78472142D01*
X132347857Y-78507857D01*
X132383571Y-78543571D01*
X132419285Y-78615000D01*
X132419285Y-78793571D01*
X132383571Y-78865000D01*
X132347857Y-78900714D01*
X132419285Y-78150714D02*
X131669285Y-78150714D01*
X132133571Y-78079285D02*
X132419285Y-77865000D01*
X131919285Y-77865000D02*
X132205000Y-78150714D01*
G04 #@! TO.C,R12*
X150029285Y-79222142D02*
X149672142Y-79472142D01*
X150029285Y-79650714D02*
X149279285Y-79650714D01*
X149279285Y-79365000D01*
X149315000Y-79293571D01*
X149350714Y-79257857D01*
X149422142Y-79222142D01*
X149529285Y-79222142D01*
X149600714Y-79257857D01*
X149636428Y-79293571D01*
X149672142Y-79365000D01*
X149672142Y-79650714D01*
X150029285Y-78507857D02*
X150029285Y-78936428D01*
X150029285Y-78722142D02*
X149279285Y-78722142D01*
X149386428Y-78793571D01*
X149457857Y-78865000D01*
X149493571Y-78936428D01*
X149350714Y-78222142D02*
X149315000Y-78186428D01*
X149279285Y-78115000D01*
X149279285Y-77936428D01*
X149315000Y-77865000D01*
X149350714Y-77829285D01*
X149422142Y-77793571D01*
X149493571Y-77793571D01*
X149600714Y-77829285D01*
X150029285Y-78257857D01*
X150029285Y-77793571D01*
X146980714Y-79793571D02*
X146945000Y-79757857D01*
X146909285Y-79686428D01*
X146909285Y-79507857D01*
X146945000Y-79436428D01*
X146980714Y-79400714D01*
X147052142Y-79365000D01*
X147123571Y-79365000D01*
X147230714Y-79400714D01*
X147659285Y-79829285D01*
X147659285Y-79365000D01*
X147587857Y-79043571D02*
X147623571Y-79007857D01*
X147659285Y-79043571D01*
X147623571Y-79079285D01*
X147587857Y-79043571D01*
X147659285Y-79043571D01*
X146980714Y-78722142D02*
X146945000Y-78686428D01*
X146909285Y-78615000D01*
X146909285Y-78436428D01*
X146945000Y-78365000D01*
X146980714Y-78329285D01*
X147052142Y-78293571D01*
X147123571Y-78293571D01*
X147230714Y-78329285D01*
X147659285Y-78757857D01*
X147659285Y-78293571D01*
X147659285Y-77972142D02*
X146909285Y-77972142D01*
X147373571Y-77900714D02*
X147659285Y-77686428D01*
X147159285Y-77686428D02*
X147445000Y-77972142D01*
G04 #@! TO.C,U1*
X174639285Y-52641428D02*
X175246428Y-52641428D01*
X175317857Y-52605714D01*
X175353571Y-52570000D01*
X175389285Y-52498571D01*
X175389285Y-52355714D01*
X175353571Y-52284285D01*
X175317857Y-52248571D01*
X175246428Y-52212857D01*
X174639285Y-52212857D01*
X175389285Y-51462857D02*
X175389285Y-51891428D01*
X175389285Y-51677142D02*
X174639285Y-51677142D01*
X174746428Y-51748571D01*
X174817857Y-51820000D01*
X174853571Y-51891428D01*
X167320714Y-51659285D02*
X167749285Y-51659285D01*
X167535000Y-52409285D02*
X167535000Y-51659285D01*
X168356428Y-52409285D02*
X167999285Y-52409285D01*
X167999285Y-51659285D01*
X168749285Y-51659285D02*
X168820714Y-51659285D01*
X168892142Y-51695000D01*
X168927857Y-51730714D01*
X168963571Y-51802142D01*
X168999285Y-51945000D01*
X168999285Y-52123571D01*
X168963571Y-52266428D01*
X168927857Y-52337857D01*
X168892142Y-52373571D01*
X168820714Y-52409285D01*
X168749285Y-52409285D01*
X168677857Y-52373571D01*
X168642142Y-52337857D01*
X168606428Y-52266428D01*
X168570714Y-52123571D01*
X168570714Y-51945000D01*
X168606428Y-51802142D01*
X168642142Y-51730714D01*
X168677857Y-51695000D01*
X168749285Y-51659285D01*
X169249285Y-51659285D02*
X169749285Y-51659285D01*
X169427857Y-52409285D01*
X170427857Y-52409285D02*
X169999285Y-52409285D01*
X170213571Y-52409285D02*
X170213571Y-51659285D01*
X170142142Y-51766428D01*
X170070714Y-51837857D01*
X169999285Y-51873571D01*
G04 #@! TO.C,R2*
X189442285Y-43305000D02*
X189085142Y-43555000D01*
X189442285Y-43733571D02*
X188692285Y-43733571D01*
X188692285Y-43447857D01*
X188728000Y-43376428D01*
X188763714Y-43340714D01*
X188835142Y-43305000D01*
X188942285Y-43305000D01*
X189013714Y-43340714D01*
X189049428Y-43376428D01*
X189085142Y-43447857D01*
X189085142Y-43733571D01*
X188763714Y-43019285D02*
X188728000Y-42983571D01*
X188692285Y-42912142D01*
X188692285Y-42733571D01*
X188728000Y-42662142D01*
X188763714Y-42626428D01*
X188835142Y-42590714D01*
X188906571Y-42590714D01*
X189013714Y-42626428D01*
X189442285Y-43055000D01*
X189442285Y-42590714D01*
X187029285Y-43626428D02*
X187029285Y-44055000D01*
X187029285Y-43840714D02*
X186279285Y-43840714D01*
X186386428Y-43912142D01*
X186457857Y-43983571D01*
X186493571Y-44055000D01*
X186279285Y-43376428D02*
X186279285Y-42912142D01*
X186565000Y-43162142D01*
X186565000Y-43055000D01*
X186600714Y-42983571D01*
X186636428Y-42947857D01*
X186707857Y-42912142D01*
X186886428Y-42912142D01*
X186957857Y-42947857D01*
X186993571Y-42983571D01*
X187029285Y-43055000D01*
X187029285Y-43269285D01*
X186993571Y-43340714D01*
X186957857Y-43376428D01*
X187029285Y-42590714D02*
X186279285Y-42590714D01*
X186743571Y-42519285D02*
X187029285Y-42305000D01*
X186529285Y-42305000D02*
X186815000Y-42590714D01*
G04 #@! TO.C,R13*
X160232285Y-79222142D02*
X159875142Y-79472142D01*
X160232285Y-79650714D02*
X159482285Y-79650714D01*
X159482285Y-79365000D01*
X159518000Y-79293571D01*
X159553714Y-79257857D01*
X159625142Y-79222142D01*
X159732285Y-79222142D01*
X159803714Y-79257857D01*
X159839428Y-79293571D01*
X159875142Y-79365000D01*
X159875142Y-79650714D01*
X160232285Y-78507857D02*
X160232285Y-78936428D01*
X160232285Y-78722142D02*
X159482285Y-78722142D01*
X159589428Y-78793571D01*
X159660857Y-78865000D01*
X159696571Y-78936428D01*
X159482285Y-78257857D02*
X159482285Y-77793571D01*
X159768000Y-78043571D01*
X159768000Y-77936428D01*
X159803714Y-77865000D01*
X159839428Y-77829285D01*
X159910857Y-77793571D01*
X160089428Y-77793571D01*
X160160857Y-77829285D01*
X160196571Y-77865000D01*
X160232285Y-77936428D01*
X160232285Y-78150714D01*
X160196571Y-78222142D01*
X160160857Y-78257857D01*
X157819285Y-79186428D02*
X157819285Y-79615000D01*
X157819285Y-79400714D02*
X157069285Y-79400714D01*
X157176428Y-79472142D01*
X157247857Y-79543571D01*
X157283571Y-79615000D01*
X157069285Y-78507857D02*
X157069285Y-78865000D01*
X157426428Y-78900714D01*
X157390714Y-78865000D01*
X157355000Y-78793571D01*
X157355000Y-78615000D01*
X157390714Y-78543571D01*
X157426428Y-78507857D01*
X157497857Y-78472142D01*
X157676428Y-78472142D01*
X157747857Y-78507857D01*
X157783571Y-78543571D01*
X157819285Y-78615000D01*
X157819285Y-78793571D01*
X157783571Y-78865000D01*
X157747857Y-78900714D01*
X157819285Y-78150714D02*
X157069285Y-78150714D01*
X157533571Y-78079285D02*
X157819285Y-77865000D01*
X157319285Y-77865000D02*
X157605000Y-78150714D01*
G04 #@! TO.C,R11*
X139869285Y-79222142D02*
X139512142Y-79472142D01*
X139869285Y-79650714D02*
X139119285Y-79650714D01*
X139119285Y-79365000D01*
X139155000Y-79293571D01*
X139190714Y-79257857D01*
X139262142Y-79222142D01*
X139369285Y-79222142D01*
X139440714Y-79257857D01*
X139476428Y-79293571D01*
X139512142Y-79365000D01*
X139512142Y-79650714D01*
X139869285Y-78507857D02*
X139869285Y-78936428D01*
X139869285Y-78722142D02*
X139119285Y-78722142D01*
X139226428Y-78793571D01*
X139297857Y-78865000D01*
X139333571Y-78936428D01*
X139869285Y-77793571D02*
X139869285Y-78222142D01*
X139869285Y-78007857D02*
X139119285Y-78007857D01*
X139226428Y-78079285D01*
X139297857Y-78150714D01*
X139333571Y-78222142D01*
X136749285Y-79686428D02*
X136749285Y-79829285D01*
X136785000Y-79900714D01*
X136820714Y-79936428D01*
X136927857Y-80007857D01*
X137070714Y-80043571D01*
X137356428Y-80043571D01*
X137427857Y-80007857D01*
X137463571Y-79972142D01*
X137499285Y-79900714D01*
X137499285Y-79757857D01*
X137463571Y-79686428D01*
X137427857Y-79650714D01*
X137356428Y-79615000D01*
X137177857Y-79615000D01*
X137106428Y-79650714D01*
X137070714Y-79686428D01*
X137035000Y-79757857D01*
X137035000Y-79900714D01*
X137070714Y-79972142D01*
X137106428Y-80007857D01*
X137177857Y-80043571D01*
X136820714Y-79329285D02*
X136785000Y-79293571D01*
X136749285Y-79222142D01*
X136749285Y-79043571D01*
X136785000Y-78972142D01*
X136820714Y-78936428D01*
X136892142Y-78900714D01*
X136963571Y-78900714D01*
X137070714Y-78936428D01*
X137499285Y-79365000D01*
X137499285Y-78900714D01*
X136749285Y-78436428D02*
X136749285Y-78365000D01*
X136785000Y-78293571D01*
X136820714Y-78257857D01*
X136892142Y-78222142D01*
X137035000Y-78186428D01*
X137213571Y-78186428D01*
X137356428Y-78222142D01*
X137427857Y-78257857D01*
X137463571Y-78293571D01*
X137499285Y-78365000D01*
X137499285Y-78436428D01*
X137463571Y-78507857D01*
X137427857Y-78543571D01*
X137356428Y-78579285D01*
X137213571Y-78615000D01*
X137035000Y-78615000D01*
X136892142Y-78579285D01*
X136820714Y-78543571D01*
X136785000Y-78507857D01*
X136749285Y-78436428D01*
X137499285Y-77436428D02*
X137142142Y-77686428D01*
X137499285Y-77865000D02*
X136749285Y-77865000D01*
X136749285Y-77579285D01*
X136785000Y-77507857D01*
X136820714Y-77472142D01*
X136892142Y-77436428D01*
X136999285Y-77436428D01*
X137070714Y-77472142D01*
X137106428Y-77507857D01*
X137142142Y-77579285D01*
X137142142Y-77865000D01*
G04 #@! TO.C,D3*
X140914380Y-90908095D02*
X139914380Y-90908095D01*
X139914380Y-90670000D01*
X139962000Y-90527142D01*
X140057238Y-90431904D01*
X140152476Y-90384285D01*
X140342952Y-90336666D01*
X140485809Y-90336666D01*
X140676285Y-90384285D01*
X140771523Y-90431904D01*
X140866761Y-90527142D01*
X140914380Y-90670000D01*
X140914380Y-90908095D01*
X139914380Y-90003333D02*
X139914380Y-89384285D01*
X140295333Y-89717619D01*
X140295333Y-89574761D01*
X140342952Y-89479523D01*
X140390571Y-89431904D01*
X140485809Y-89384285D01*
X140723904Y-89384285D01*
X140819142Y-89431904D01*
X140866761Y-89479523D01*
X140914380Y-89574761D01*
X140914380Y-89860476D01*
X140866761Y-89955714D01*
X140819142Y-90003333D01*
G04 #@! TO.C,R6*
X144992285Y-50925000D02*
X144635142Y-51175000D01*
X144992285Y-51353571D02*
X144242285Y-51353571D01*
X144242285Y-51067857D01*
X144278000Y-50996428D01*
X144313714Y-50960714D01*
X144385142Y-50925000D01*
X144492285Y-50925000D01*
X144563714Y-50960714D01*
X144599428Y-50996428D01*
X144635142Y-51067857D01*
X144635142Y-51353571D01*
X144242285Y-50282142D02*
X144242285Y-50425000D01*
X144278000Y-50496428D01*
X144313714Y-50532142D01*
X144420857Y-50603571D01*
X144563714Y-50639285D01*
X144849428Y-50639285D01*
X144920857Y-50603571D01*
X144956571Y-50567857D01*
X144992285Y-50496428D01*
X144992285Y-50353571D01*
X144956571Y-50282142D01*
X144920857Y-50246428D01*
X144849428Y-50210714D01*
X144670857Y-50210714D01*
X144599428Y-50246428D01*
X144563714Y-50282142D01*
X144528000Y-50353571D01*
X144528000Y-50496428D01*
X144563714Y-50567857D01*
X144599428Y-50603571D01*
X144670857Y-50639285D01*
X141900714Y-51853571D02*
X141865000Y-51817857D01*
X141829285Y-51746428D01*
X141829285Y-51567857D01*
X141865000Y-51496428D01*
X141900714Y-51460714D01*
X141972142Y-51425000D01*
X142043571Y-51425000D01*
X142150714Y-51460714D01*
X142579285Y-51889285D01*
X142579285Y-51425000D01*
X142507857Y-51103571D02*
X142543571Y-51067857D01*
X142579285Y-51103571D01*
X142543571Y-51139285D01*
X142507857Y-51103571D01*
X142579285Y-51103571D01*
X141900714Y-50782142D02*
X141865000Y-50746428D01*
X141829285Y-50675000D01*
X141829285Y-50496428D01*
X141865000Y-50425000D01*
X141900714Y-50389285D01*
X141972142Y-50353571D01*
X142043571Y-50353571D01*
X142150714Y-50389285D01*
X142579285Y-50817857D01*
X142579285Y-50353571D01*
X142579285Y-50032142D02*
X141829285Y-50032142D01*
X142293571Y-49960714D02*
X142579285Y-49746428D01*
X142079285Y-49746428D02*
X142365000Y-50032142D01*
G04 #@! TO.C,R1*
X184405285Y-43305000D02*
X184048142Y-43555000D01*
X184405285Y-43733571D02*
X183655285Y-43733571D01*
X183655285Y-43447857D01*
X183691000Y-43376428D01*
X183726714Y-43340714D01*
X183798142Y-43305000D01*
X183905285Y-43305000D01*
X183976714Y-43340714D01*
X184012428Y-43376428D01*
X184048142Y-43447857D01*
X184048142Y-43733571D01*
X184405285Y-42590714D02*
X184405285Y-43019285D01*
X184405285Y-42805000D02*
X183655285Y-42805000D01*
X183762428Y-42876428D01*
X183833857Y-42947857D01*
X183869571Y-43019285D01*
X181949285Y-43626428D02*
X181949285Y-44055000D01*
X181949285Y-43840714D02*
X181199285Y-43840714D01*
X181306428Y-43912142D01*
X181377857Y-43983571D01*
X181413571Y-44055000D01*
X181270714Y-43340714D02*
X181235000Y-43305000D01*
X181199285Y-43233571D01*
X181199285Y-43055000D01*
X181235000Y-42983571D01*
X181270714Y-42947857D01*
X181342142Y-42912142D01*
X181413571Y-42912142D01*
X181520714Y-42947857D01*
X181949285Y-43376428D01*
X181949285Y-42912142D01*
X181949285Y-42590714D02*
X181199285Y-42590714D01*
X181663571Y-42519285D02*
X181949285Y-42305000D01*
X181449285Y-42305000D02*
X181735000Y-42590714D01*
G04 #@! TO.C,U3*
X174639285Y-78041428D02*
X175246428Y-78041428D01*
X175317857Y-78005714D01*
X175353571Y-77970000D01*
X175389285Y-77898571D01*
X175389285Y-77755714D01*
X175353571Y-77684285D01*
X175317857Y-77648571D01*
X175246428Y-77612857D01*
X174639285Y-77612857D01*
X174639285Y-77327142D02*
X174639285Y-76862857D01*
X174925000Y-77112857D01*
X174925000Y-77005714D01*
X174960714Y-76934285D01*
X174996428Y-76898571D01*
X175067857Y-76862857D01*
X175246428Y-76862857D01*
X175317857Y-76898571D01*
X175353571Y-76934285D01*
X175389285Y-77005714D01*
X175389285Y-77220000D01*
X175353571Y-77291428D01*
X175317857Y-77327142D01*
X167320714Y-77059285D02*
X167749285Y-77059285D01*
X167535000Y-77809285D02*
X167535000Y-77059285D01*
X168356428Y-77809285D02*
X167999285Y-77809285D01*
X167999285Y-77059285D01*
X168749285Y-77059285D02*
X168820714Y-77059285D01*
X168892142Y-77095000D01*
X168927857Y-77130714D01*
X168963571Y-77202142D01*
X168999285Y-77345000D01*
X168999285Y-77523571D01*
X168963571Y-77666428D01*
X168927857Y-77737857D01*
X168892142Y-77773571D01*
X168820714Y-77809285D01*
X168749285Y-77809285D01*
X168677857Y-77773571D01*
X168642142Y-77737857D01*
X168606428Y-77666428D01*
X168570714Y-77523571D01*
X168570714Y-77345000D01*
X168606428Y-77202142D01*
X168642142Y-77130714D01*
X168677857Y-77095000D01*
X168749285Y-77059285D01*
X169249285Y-77059285D02*
X169749285Y-77059285D01*
X169427857Y-77809285D01*
X169999285Y-77130714D02*
X170035000Y-77095000D01*
X170106428Y-77059285D01*
X170285000Y-77059285D01*
X170356428Y-77095000D01*
X170392142Y-77130714D01*
X170427857Y-77202142D01*
X170427857Y-77273571D01*
X170392142Y-77380714D01*
X169963571Y-77809285D01*
X170427857Y-77809285D01*
G04 #@! TO.C,R14*
X155109285Y-79222142D02*
X154752142Y-79472142D01*
X155109285Y-79650714D02*
X154359285Y-79650714D01*
X154359285Y-79365000D01*
X154395000Y-79293571D01*
X154430714Y-79257857D01*
X154502142Y-79222142D01*
X154609285Y-79222142D01*
X154680714Y-79257857D01*
X154716428Y-79293571D01*
X154752142Y-79365000D01*
X154752142Y-79650714D01*
X155109285Y-78507857D02*
X155109285Y-78936428D01*
X155109285Y-78722142D02*
X154359285Y-78722142D01*
X154466428Y-78793571D01*
X154537857Y-78865000D01*
X154573571Y-78936428D01*
X154609285Y-77865000D02*
X155109285Y-77865000D01*
X154323571Y-78043571D02*
X154859285Y-78222142D01*
X154859285Y-77757857D01*
X151989285Y-79686428D02*
X151989285Y-79829285D01*
X152025000Y-79900714D01*
X152060714Y-79936428D01*
X152167857Y-80007857D01*
X152310714Y-80043571D01*
X152596428Y-80043571D01*
X152667857Y-80007857D01*
X152703571Y-79972142D01*
X152739285Y-79900714D01*
X152739285Y-79757857D01*
X152703571Y-79686428D01*
X152667857Y-79650714D01*
X152596428Y-79615000D01*
X152417857Y-79615000D01*
X152346428Y-79650714D01*
X152310714Y-79686428D01*
X152275000Y-79757857D01*
X152275000Y-79900714D01*
X152310714Y-79972142D01*
X152346428Y-80007857D01*
X152417857Y-80043571D01*
X152060714Y-79329285D02*
X152025000Y-79293571D01*
X151989285Y-79222142D01*
X151989285Y-79043571D01*
X152025000Y-78972142D01*
X152060714Y-78936428D01*
X152132142Y-78900714D01*
X152203571Y-78900714D01*
X152310714Y-78936428D01*
X152739285Y-79365000D01*
X152739285Y-78900714D01*
X151989285Y-78436428D02*
X151989285Y-78365000D01*
X152025000Y-78293571D01*
X152060714Y-78257857D01*
X152132142Y-78222142D01*
X152275000Y-78186428D01*
X152453571Y-78186428D01*
X152596428Y-78222142D01*
X152667857Y-78257857D01*
X152703571Y-78293571D01*
X152739285Y-78365000D01*
X152739285Y-78436428D01*
X152703571Y-78507857D01*
X152667857Y-78543571D01*
X152596428Y-78579285D01*
X152453571Y-78615000D01*
X152275000Y-78615000D01*
X152132142Y-78579285D01*
X152060714Y-78543571D01*
X152025000Y-78507857D01*
X151989285Y-78436428D01*
X152739285Y-77436428D02*
X152382142Y-77686428D01*
X152739285Y-77865000D02*
X151989285Y-77865000D01*
X151989285Y-77579285D01*
X152025000Y-77507857D01*
X152060714Y-77472142D01*
X152132142Y-77436428D01*
X152239285Y-77436428D01*
X152310714Y-77472142D01*
X152346428Y-77507857D01*
X152382142Y-77579285D01*
X152382142Y-77865000D01*
G04 #@! TO.C,R3*
X150072285Y-50925000D02*
X149715142Y-51175000D01*
X150072285Y-51353571D02*
X149322285Y-51353571D01*
X149322285Y-51067857D01*
X149358000Y-50996428D01*
X149393714Y-50960714D01*
X149465142Y-50925000D01*
X149572285Y-50925000D01*
X149643714Y-50960714D01*
X149679428Y-50996428D01*
X149715142Y-51067857D01*
X149715142Y-51353571D01*
X149322285Y-50675000D02*
X149322285Y-50210714D01*
X149608000Y-50460714D01*
X149608000Y-50353571D01*
X149643714Y-50282142D01*
X149679428Y-50246428D01*
X149750857Y-50210714D01*
X149929428Y-50210714D01*
X150000857Y-50246428D01*
X150036571Y-50282142D01*
X150072285Y-50353571D01*
X150072285Y-50567857D01*
X150036571Y-50639285D01*
X150000857Y-50675000D01*
X146980714Y-51853571D02*
X146945000Y-51817857D01*
X146909285Y-51746428D01*
X146909285Y-51567857D01*
X146945000Y-51496428D01*
X146980714Y-51460714D01*
X147052142Y-51425000D01*
X147123571Y-51425000D01*
X147230714Y-51460714D01*
X147659285Y-51889285D01*
X147659285Y-51425000D01*
X147587857Y-51103571D02*
X147623571Y-51067857D01*
X147659285Y-51103571D01*
X147623571Y-51139285D01*
X147587857Y-51103571D01*
X147659285Y-51103571D01*
X146980714Y-50782142D02*
X146945000Y-50746428D01*
X146909285Y-50675000D01*
X146909285Y-50496428D01*
X146945000Y-50425000D01*
X146980714Y-50389285D01*
X147052142Y-50353571D01*
X147123571Y-50353571D01*
X147230714Y-50389285D01*
X147659285Y-50817857D01*
X147659285Y-50353571D01*
X147659285Y-50032142D02*
X146909285Y-50032142D01*
X147373571Y-49960714D02*
X147659285Y-49746428D01*
X147159285Y-49746428D02*
X147445000Y-50032142D01*
G04 #@! TO.C,R4*
X160232285Y-50925000D02*
X159875142Y-51175000D01*
X160232285Y-51353571D02*
X159482285Y-51353571D01*
X159482285Y-51067857D01*
X159518000Y-50996428D01*
X159553714Y-50960714D01*
X159625142Y-50925000D01*
X159732285Y-50925000D01*
X159803714Y-50960714D01*
X159839428Y-50996428D01*
X159875142Y-51067857D01*
X159875142Y-51353571D01*
X159732285Y-50282142D02*
X160232285Y-50282142D01*
X159446571Y-50460714D02*
X159982285Y-50639285D01*
X159982285Y-50175000D01*
X157819285Y-51246428D02*
X157819285Y-51675000D01*
X157819285Y-51460714D02*
X157069285Y-51460714D01*
X157176428Y-51532142D01*
X157247857Y-51603571D01*
X157283571Y-51675000D01*
X157069285Y-50567857D02*
X157069285Y-50925000D01*
X157426428Y-50960714D01*
X157390714Y-50925000D01*
X157355000Y-50853571D01*
X157355000Y-50675000D01*
X157390714Y-50603571D01*
X157426428Y-50567857D01*
X157497857Y-50532142D01*
X157676428Y-50532142D01*
X157747857Y-50567857D01*
X157783571Y-50603571D01*
X157819285Y-50675000D01*
X157819285Y-50853571D01*
X157783571Y-50925000D01*
X157747857Y-50960714D01*
X157819285Y-50210714D02*
X157069285Y-50210714D01*
X157533571Y-50139285D02*
X157819285Y-49925000D01*
X157319285Y-49925000D02*
X157605000Y-50210714D01*
G04 #@! TO.C,R15*
X179325285Y-43662142D02*
X178968142Y-43912142D01*
X179325285Y-44090714D02*
X178575285Y-44090714D01*
X178575285Y-43805000D01*
X178611000Y-43733571D01*
X178646714Y-43697857D01*
X178718142Y-43662142D01*
X178825285Y-43662142D01*
X178896714Y-43697857D01*
X178932428Y-43733571D01*
X178968142Y-43805000D01*
X178968142Y-44090714D01*
X179325285Y-42947857D02*
X179325285Y-43376428D01*
X179325285Y-43162142D02*
X178575285Y-43162142D01*
X178682428Y-43233571D01*
X178753857Y-43305000D01*
X178789571Y-43376428D01*
X178575285Y-42269285D02*
X178575285Y-42626428D01*
X178932428Y-42662142D01*
X178896714Y-42626428D01*
X178861000Y-42555000D01*
X178861000Y-42376428D01*
X178896714Y-42305000D01*
X178932428Y-42269285D01*
X179003857Y-42233571D01*
X179182428Y-42233571D01*
X179253857Y-42269285D01*
X179289571Y-42305000D01*
X179325285Y-42376428D01*
X179325285Y-42555000D01*
X179289571Y-42626428D01*
X179253857Y-42662142D01*
X176869285Y-43983571D02*
X176869285Y-44412142D01*
X176869285Y-44197857D02*
X176119285Y-44197857D01*
X176226428Y-44269285D01*
X176297857Y-44340714D01*
X176333571Y-44412142D01*
X176119285Y-43519285D02*
X176119285Y-43447857D01*
X176155000Y-43376428D01*
X176190714Y-43340714D01*
X176262142Y-43305000D01*
X176405000Y-43269285D01*
X176583571Y-43269285D01*
X176726428Y-43305000D01*
X176797857Y-43340714D01*
X176833571Y-43376428D01*
X176869285Y-43447857D01*
X176869285Y-43519285D01*
X176833571Y-43590714D01*
X176797857Y-43626428D01*
X176726428Y-43662142D01*
X176583571Y-43697857D01*
X176405000Y-43697857D01*
X176262142Y-43662142D01*
X176190714Y-43626428D01*
X176155000Y-43590714D01*
X176119285Y-43519285D01*
X176119285Y-42805000D02*
X176119285Y-42733571D01*
X176155000Y-42662142D01*
X176190714Y-42626428D01*
X176262142Y-42590714D01*
X176405000Y-42555000D01*
X176583571Y-42555000D01*
X176726428Y-42590714D01*
X176797857Y-42626428D01*
X176833571Y-42662142D01*
X176869285Y-42733571D01*
X176869285Y-42805000D01*
X176833571Y-42876428D01*
X176797857Y-42912142D01*
X176726428Y-42947857D01*
X176583571Y-42983571D01*
X176405000Y-42983571D01*
X176262142Y-42947857D01*
X176190714Y-42912142D01*
X176155000Y-42876428D01*
X176119285Y-42805000D01*
X176869285Y-42233571D02*
X176119285Y-42233571D01*
X176583571Y-42162142D02*
X176869285Y-41947857D01*
X176369285Y-41947857D02*
X176655000Y-42233571D01*
G04 #@! TO.C,R9*
X144949285Y-78865000D02*
X144592142Y-79115000D01*
X144949285Y-79293571D02*
X144199285Y-79293571D01*
X144199285Y-79007857D01*
X144235000Y-78936428D01*
X144270714Y-78900714D01*
X144342142Y-78865000D01*
X144449285Y-78865000D01*
X144520714Y-78900714D01*
X144556428Y-78936428D01*
X144592142Y-79007857D01*
X144592142Y-79293571D01*
X144949285Y-78507857D02*
X144949285Y-78365000D01*
X144913571Y-78293571D01*
X144877857Y-78257857D01*
X144770714Y-78186428D01*
X144627857Y-78150714D01*
X144342142Y-78150714D01*
X144270714Y-78186428D01*
X144235000Y-78222142D01*
X144199285Y-78293571D01*
X144199285Y-78436428D01*
X144235000Y-78507857D01*
X144270714Y-78543571D01*
X144342142Y-78579285D01*
X144520714Y-78579285D01*
X144592142Y-78543571D01*
X144627857Y-78507857D01*
X144663571Y-78436428D01*
X144663571Y-78293571D01*
X144627857Y-78222142D01*
X144592142Y-78186428D01*
X144520714Y-78150714D01*
X141900714Y-79793571D02*
X141865000Y-79757857D01*
X141829285Y-79686428D01*
X141829285Y-79507857D01*
X141865000Y-79436428D01*
X141900714Y-79400714D01*
X141972142Y-79365000D01*
X142043571Y-79365000D01*
X142150714Y-79400714D01*
X142579285Y-79829285D01*
X142579285Y-79365000D01*
X142507857Y-79043571D02*
X142543571Y-79007857D01*
X142579285Y-79043571D01*
X142543571Y-79079285D01*
X142507857Y-79043571D01*
X142579285Y-79043571D01*
X141900714Y-78722142D02*
X141865000Y-78686428D01*
X141829285Y-78615000D01*
X141829285Y-78436428D01*
X141865000Y-78365000D01*
X141900714Y-78329285D01*
X141972142Y-78293571D01*
X142043571Y-78293571D01*
X142150714Y-78329285D01*
X142579285Y-78757857D01*
X142579285Y-78293571D01*
X142579285Y-77972142D02*
X141829285Y-77972142D01*
X142293571Y-77900714D02*
X142579285Y-77686428D01*
X142079285Y-77686428D02*
X142365000Y-77972142D01*
G04 #@! TO.C,D1*
X155812380Y-40108095D02*
X154812380Y-40108095D01*
X154812380Y-39870000D01*
X154860000Y-39727142D01*
X154955238Y-39631904D01*
X155050476Y-39584285D01*
X155240952Y-39536666D01*
X155383809Y-39536666D01*
X155574285Y-39584285D01*
X155669523Y-39631904D01*
X155764761Y-39727142D01*
X155812380Y-39870000D01*
X155812380Y-40108095D01*
X155812380Y-38584285D02*
X155812380Y-39155714D01*
X155812380Y-38870000D02*
X154812380Y-38870000D01*
X154955238Y-38965238D01*
X155050476Y-39060476D01*
X155098095Y-39155714D01*
G04 #@! TO.C,R7*
X134789285Y-50925000D02*
X134432142Y-51175000D01*
X134789285Y-51353571D02*
X134039285Y-51353571D01*
X134039285Y-51067857D01*
X134075000Y-50996428D01*
X134110714Y-50960714D01*
X134182142Y-50925000D01*
X134289285Y-50925000D01*
X134360714Y-50960714D01*
X134396428Y-50996428D01*
X134432142Y-51067857D01*
X134432142Y-51353571D01*
X134039285Y-50675000D02*
X134039285Y-50175000D01*
X134789285Y-50496428D01*
X132419285Y-51246428D02*
X132419285Y-51675000D01*
X132419285Y-51460714D02*
X131669285Y-51460714D01*
X131776428Y-51532142D01*
X131847857Y-51603571D01*
X131883571Y-51675000D01*
X131669285Y-50567857D02*
X131669285Y-50925000D01*
X132026428Y-50960714D01*
X131990714Y-50925000D01*
X131955000Y-50853571D01*
X131955000Y-50675000D01*
X131990714Y-50603571D01*
X132026428Y-50567857D01*
X132097857Y-50532142D01*
X132276428Y-50532142D01*
X132347857Y-50567857D01*
X132383571Y-50603571D01*
X132419285Y-50675000D01*
X132419285Y-50853571D01*
X132383571Y-50925000D01*
X132347857Y-50960714D01*
X132419285Y-50210714D02*
X131669285Y-50210714D01*
X132133571Y-50139285D02*
X132419285Y-49925000D01*
X131919285Y-49925000D02*
X132205000Y-50210714D01*
G04 #@! TO.C,J1*
X188184285Y-64893000D02*
X188720000Y-64893000D01*
X188827142Y-64928714D01*
X188898571Y-65000142D01*
X188934285Y-65107285D01*
X188934285Y-65178714D01*
X188934285Y-64143000D02*
X188934285Y-64571571D01*
X188934285Y-64357285D02*
X188184285Y-64357285D01*
X188291428Y-64428714D01*
X188362857Y-64500142D01*
X188398571Y-64571571D01*
G04 #@! TO.C,D4*
X156154380Y-90908095D02*
X155154380Y-90908095D01*
X155154380Y-90670000D01*
X155202000Y-90527142D01*
X155297238Y-90431904D01*
X155392476Y-90384285D01*
X155582952Y-90336666D01*
X155725809Y-90336666D01*
X155916285Y-90384285D01*
X156011523Y-90431904D01*
X156106761Y-90527142D01*
X156154380Y-90670000D01*
X156154380Y-90908095D01*
X155487714Y-89479523D02*
X156154380Y-89479523D01*
X155106761Y-89717619D02*
X155821047Y-89955714D01*
X155821047Y-89336666D01*
G04 #@! TO.C,SW1*
X172942761Y-42735333D02*
X172990380Y-42592476D01*
X172990380Y-42354380D01*
X172942761Y-42259142D01*
X172895142Y-42211523D01*
X172799904Y-42163904D01*
X172704666Y-42163904D01*
X172609428Y-42211523D01*
X172561809Y-42259142D01*
X172514190Y-42354380D01*
X172466571Y-42544857D01*
X172418952Y-42640095D01*
X172371333Y-42687714D01*
X172276095Y-42735333D01*
X172180857Y-42735333D01*
X172085619Y-42687714D01*
X172038000Y-42640095D01*
X171990380Y-42544857D01*
X171990380Y-42306761D01*
X172038000Y-42163904D01*
X171990380Y-41830571D02*
X172990380Y-41592476D01*
X172276095Y-41402000D01*
X172990380Y-41211523D01*
X171990380Y-40973428D01*
X172990380Y-40068666D02*
X172990380Y-40640095D01*
X172990380Y-40354380D02*
X171990380Y-40354380D01*
X172133238Y-40449619D01*
X172228476Y-40544857D01*
X172276095Y-40640095D01*
G04 #@! TO.C,D2*
X140572380Y-40108095D02*
X139572380Y-40108095D01*
X139572380Y-39870000D01*
X139620000Y-39727142D01*
X139715238Y-39631904D01*
X139810476Y-39584285D01*
X140000952Y-39536666D01*
X140143809Y-39536666D01*
X140334285Y-39584285D01*
X140429523Y-39631904D01*
X140524761Y-39727142D01*
X140572380Y-39870000D01*
X140572380Y-40108095D01*
X139667619Y-39155714D02*
X139620000Y-39108095D01*
X139572380Y-39012857D01*
X139572380Y-38774761D01*
X139620000Y-38679523D01*
X139667619Y-38631904D01*
X139762857Y-38584285D01*
X139858095Y-38584285D01*
X140000952Y-38631904D01*
X140572380Y-39203333D01*
X140572380Y-38584285D01*
D13*
G04 #@! TO.C,R8*
X138530000Y-54070000D02*
X138530000Y-47530000D01*
X138530000Y-47530000D02*
X135790000Y-47530000D01*
X135790000Y-47530000D02*
X135790000Y-54070000D01*
X135790000Y-54070000D02*
X138530000Y-54070000D01*
X137160000Y-54840000D02*
X137160000Y-54070000D01*
X137160000Y-46760000D02*
X137160000Y-47530000D01*
G04 #@! TO.C,R5*
X152400000Y-54840000D02*
X152400000Y-54070000D01*
X151030000Y-47530000D02*
X151030000Y-54070000D01*
X153770000Y-47530000D02*
X151030000Y-47530000D01*
X152400000Y-46760000D02*
X152400000Y-47530000D01*
X153770000Y-54070000D02*
X153770000Y-47530000D01*
X151030000Y-54070000D02*
X153770000Y-54070000D01*
G04 #@! TO.C,U2*
X135775000Y-59520000D02*
X135775000Y-70020000D01*
X153795000Y-70020000D02*
X153795000Y-59520000D01*
X135835000Y-62520000D02*
X135835000Y-67020000D01*
X153735000Y-63770000D02*
X153735000Y-62520000D01*
X135775000Y-70020000D02*
X153795000Y-70020000D01*
X153735000Y-62520000D02*
X135835000Y-62520000D01*
X153795000Y-59520000D02*
X135775000Y-59520000D01*
X153735000Y-67020000D02*
X153735000Y-65770000D01*
X135835000Y-67020000D02*
X153735000Y-67020000D01*
X153735000Y-63770000D02*
G75*
G03*
X153735000Y-65770000I0J-1000000D01*
G01*
G04 #@! TO.C,R10*
X133450000Y-75470000D02*
X130710000Y-75470000D01*
X130710000Y-75470000D02*
X130710000Y-82010000D01*
X132080000Y-82780000D02*
X132080000Y-82010000D01*
X132080000Y-74700000D02*
X132080000Y-75470000D01*
X130710000Y-82010000D02*
X133450000Y-82010000D01*
X133450000Y-82010000D02*
X133450000Y-75470000D01*
G04 #@! TO.C,R12*
X148690000Y-75470000D02*
X145950000Y-75470000D01*
X148690000Y-82010000D02*
X148690000Y-75470000D01*
X147320000Y-82780000D02*
X147320000Y-82010000D01*
X147320000Y-74700000D02*
X147320000Y-75470000D01*
X145950000Y-75470000D02*
X145950000Y-82010000D01*
X145950000Y-82010000D02*
X148690000Y-82010000D01*
G04 #@! TO.C,U1*
X163710000Y-57320000D02*
X174110000Y-57320000D01*
X174050000Y-54320000D02*
X174050000Y-53070000D01*
X174110000Y-57320000D02*
X174110000Y-46820000D01*
X174110000Y-46820000D02*
X163710000Y-46820000D01*
X163710000Y-46820000D02*
X163710000Y-57320000D01*
X163770000Y-49820000D02*
X163770000Y-54320000D01*
X174050000Y-49820000D02*
X163770000Y-49820000D01*
X174050000Y-51070000D02*
X174050000Y-49820000D01*
X163770000Y-54320000D02*
X174050000Y-54320000D01*
X174050000Y-51070000D02*
G75*
G03*
X174050000Y-53070000I0J-1000000D01*
G01*
G04 #@! TO.C,R2*
X186690000Y-39140000D02*
X186690000Y-39910000D01*
X188060000Y-39910000D02*
X185320000Y-39910000D01*
X186690000Y-47220000D02*
X186690000Y-46450000D01*
X185320000Y-46450000D02*
X188060000Y-46450000D01*
X188060000Y-46450000D02*
X188060000Y-39910000D01*
X185320000Y-39910000D02*
X185320000Y-46450000D01*
G04 #@! TO.C,R13*
X157480000Y-82780000D02*
X157480000Y-82010000D01*
X156110000Y-82010000D02*
X158850000Y-82010000D01*
X158850000Y-75470000D02*
X156110000Y-75470000D01*
X157480000Y-74700000D02*
X157480000Y-75470000D01*
X156110000Y-75470000D02*
X156110000Y-82010000D01*
X158850000Y-82010000D02*
X158850000Y-75470000D01*
G04 #@! TO.C,R11*
X138530000Y-82010000D02*
X138530000Y-75470000D01*
X135790000Y-75470000D02*
X135790000Y-82010000D01*
X137160000Y-74700000D02*
X137160000Y-75470000D01*
X135790000Y-82010000D02*
X138530000Y-82010000D01*
X138530000Y-75470000D02*
X135790000Y-75470000D01*
X137160000Y-82780000D02*
X137160000Y-82010000D01*
G04 #@! TO.C,D3*
X138240000Y-91730000D02*
X138396000Y-91730000D01*
X135924000Y-91730000D02*
X136080000Y-91730000D01*
X136080163Y-89128870D02*
G75*
G03*
X136080000Y-91210961I1079837J-1041130D01*
G01*
X138395516Y-91730000D02*
G75*
G03*
X138238608Y-88497665I-1235517J1560000D01*
G01*
X136081392Y-88497665D02*
G75*
G03*
X135924484Y-91730000I1078609J-1672335D01*
G01*
X138240000Y-91210961D02*
G75*
G03*
X138239837Y-89128870I-1080000J1040961D01*
G01*
G04 #@! TO.C,R6*
X143610000Y-47530000D02*
X140870000Y-47530000D01*
X140870000Y-47530000D02*
X140870000Y-54070000D01*
X140870000Y-54070000D02*
X143610000Y-54070000D01*
X142240000Y-46760000D02*
X142240000Y-47530000D01*
X143610000Y-54070000D02*
X143610000Y-47530000D01*
X142240000Y-54840000D02*
X142240000Y-54070000D01*
G04 #@! TO.C,R1*
X180240000Y-39910000D02*
X180240000Y-46450000D01*
X181610000Y-39140000D02*
X181610000Y-39910000D01*
X181610000Y-47220000D02*
X181610000Y-46450000D01*
X182980000Y-46450000D02*
X182980000Y-39910000D01*
X180240000Y-46450000D02*
X182980000Y-46450000D01*
X182980000Y-39910000D02*
X180240000Y-39910000D01*
G04 #@! TO.C,U3*
X174050000Y-76470000D02*
X174050000Y-75220000D01*
X163770000Y-75220000D02*
X163770000Y-79720000D01*
X163710000Y-72220000D02*
X163710000Y-82720000D01*
X174110000Y-72220000D02*
X163710000Y-72220000D01*
X174110000Y-82720000D02*
X174110000Y-72220000D01*
X163770000Y-79720000D02*
X174050000Y-79720000D01*
X174050000Y-79720000D02*
X174050000Y-78470000D01*
X163710000Y-82720000D02*
X174110000Y-82720000D01*
X174050000Y-75220000D02*
X163770000Y-75220000D01*
X174050000Y-76470000D02*
G75*
G03*
X174050000Y-78470000I0J-1000000D01*
G01*
G04 #@! TO.C,R14*
X153770000Y-82010000D02*
X153770000Y-75470000D01*
X152400000Y-74700000D02*
X152400000Y-75470000D01*
X153770000Y-75470000D02*
X151030000Y-75470000D01*
X151030000Y-75470000D02*
X151030000Y-82010000D01*
X152400000Y-82780000D02*
X152400000Y-82010000D01*
X151030000Y-82010000D02*
X153770000Y-82010000D01*
G04 #@! TO.C,R3*
X147320000Y-54840000D02*
X147320000Y-54070000D01*
X148690000Y-47530000D02*
X145950000Y-47530000D01*
X148690000Y-54070000D02*
X148690000Y-47530000D01*
X145950000Y-54070000D02*
X148690000Y-54070000D01*
X147320000Y-46760000D02*
X147320000Y-47530000D01*
X145950000Y-47530000D02*
X145950000Y-54070000D01*
G04 #@! TO.C,R4*
X157480000Y-54840000D02*
X157480000Y-54070000D01*
X156110000Y-47530000D02*
X156110000Y-54070000D01*
X158850000Y-54070000D02*
X158850000Y-47530000D01*
X158850000Y-47530000D02*
X156110000Y-47530000D01*
X157480000Y-46760000D02*
X157480000Y-47530000D01*
X156110000Y-54070000D02*
X158850000Y-54070000D01*
G04 #@! TO.C,R15*
X177900000Y-39910000D02*
X175160000Y-39910000D01*
X175160000Y-46450000D02*
X177900000Y-46450000D01*
X176530000Y-39140000D02*
X176530000Y-39910000D01*
X177900000Y-46450000D02*
X177900000Y-39910000D01*
X175160000Y-39910000D02*
X175160000Y-46450000D01*
X176530000Y-47220000D02*
X176530000Y-46450000D01*
G04 #@! TO.C,R9*
X143610000Y-75470000D02*
X140870000Y-75470000D01*
X140870000Y-82010000D02*
X143610000Y-82010000D01*
X142240000Y-82780000D02*
X142240000Y-82010000D01*
X143610000Y-82010000D02*
X143610000Y-75470000D01*
X142240000Y-74700000D02*
X142240000Y-75470000D01*
X140870000Y-75470000D02*
X140870000Y-82010000D01*
G04 #@! TO.C,D1*
X151320000Y-37810000D02*
X151164000Y-37810000D01*
X153636000Y-37810000D02*
X153480000Y-37810000D01*
X153479837Y-40411130D02*
G75*
G03*
X153480000Y-38329039I-1079837J1041130D01*
G01*
X151320000Y-38329039D02*
G75*
G03*
X151320163Y-40411130I1080000J-1040961D01*
G01*
X153478608Y-41042335D02*
G75*
G03*
X153635516Y-37810000I-1078609J1672335D01*
G01*
X151164484Y-37810000D02*
G75*
G03*
X151321392Y-41042335I1235517J-1560000D01*
G01*
G04 #@! TO.C,R7*
X133450000Y-54070000D02*
X133450000Y-47530000D01*
X130710000Y-54070000D02*
X133450000Y-54070000D01*
X132080000Y-54840000D02*
X132080000Y-54070000D01*
X132080000Y-46760000D02*
X132080000Y-47530000D01*
X130710000Y-47530000D02*
X130710000Y-54070000D01*
X133450000Y-47530000D02*
X130710000Y-47530000D01*
G04 #@! TO.C,J1*
X187550000Y-56590000D02*
X187550000Y-72790000D01*
X186680000Y-59090000D02*
X186680000Y-60290000D01*
X186680000Y-70490000D02*
X187480000Y-70490000D01*
X179080000Y-72790000D02*
X187550000Y-72790000D01*
X186680000Y-63890000D02*
X187480000Y-63890000D01*
X186680000Y-68890000D02*
X187480000Y-68890000D01*
X179080000Y-56590000D02*
X179080000Y-72790000D01*
X187550000Y-56590000D02*
X179080000Y-56590000D01*
X186680000Y-65490000D02*
X187480000Y-65490000D01*
X186680000Y-60490000D02*
X187480000Y-60490000D01*
X186680000Y-56590000D02*
X186680000Y-72790000D01*
X187480000Y-58890000D02*
X186680000Y-58890000D01*
G04 #@! TO.C,D4*
X151164000Y-91730000D02*
X151320000Y-91730000D01*
X153480000Y-91730000D02*
X153636000Y-91730000D01*
X151320163Y-89128870D02*
G75*
G03*
X151320000Y-91210961I1079837J-1041130D01*
G01*
X151321392Y-88497665D02*
G75*
G03*
X151164484Y-91730000I1078609J-1672335D01*
G01*
X153635516Y-91730000D02*
G75*
G03*
X153478608Y-88497665I-1235517J1560000D01*
G01*
X153480000Y-91210961D02*
G75*
G03*
X153479837Y-89128870I-1080000J1040961D01*
G01*
G04 #@! TO.C,SW1*
X168680000Y-37850000D02*
X167180000Y-37850000D01*
X171180000Y-43600000D02*
X171180000Y-39100000D01*
X167180000Y-44850000D02*
X168680000Y-44850000D01*
X164680000Y-39100000D02*
X164680000Y-43600000D01*
G04 #@! TO.C,D2*
X138396000Y-37810000D02*
X138240000Y-37810000D01*
X136080000Y-37810000D02*
X135924000Y-37810000D01*
X136080000Y-38329039D02*
G75*
G03*
X136080163Y-40411130I1080000J-1040961D01*
G01*
X135924484Y-37810000D02*
G75*
G03*
X136081392Y-41042335I1235517J-1560000D01*
G01*
X138239837Y-40411130D02*
G75*
G03*
X138240000Y-38329039I-1079837J1041130D01*
G01*
X138238608Y-41042335D02*
G75*
G03*
X138395516Y-37810000I-1078609J1672335D01*
G01*
G04 #@! TD*
M02*
