M48
; DRILL file {KiCad 6.0.1-79c1e3a40b~116~ubuntu20.04.1} date Sun Jan 30 08:46:23 2022
; FORMAT={-:-/ absolute / metric / decimal}
; #@! TF.CreationDate,2022-01-30T08:46:23-05:00
; #@! TF.GenerationSoftware,Kicad,Pcbnew,6.0.1-79c1e3a40b~116~ubuntu20.04.1
; #@! TF.FileFunction,MixedPlating,1,2
FMAT,2
METRIC
; #@! TA.AperFunction,Plated,PTH,ComponentDrill
T1C0.800
; #@! TA.AperFunction,Plated,PTH,ComponentDrill
T2C0.900
; #@! TA.AperFunction,Plated,PTH,ComponentDrill
T3C1.100
; #@! TA.AperFunction,Plated,PTH,ComponentDrill
T4C1.700
%
G90
G05
T1
X132.08Y-45.72
X132.08Y-55.88
X132.08Y-73.66
X132.08Y-83.82
X137.16Y-45.72
X137.16Y-55.88
X137.16Y-73.66
X137.16Y-83.82
X137.165Y-60.96
X137.165Y-68.58
X139.705Y-60.96
X139.705Y-68.58
X142.24Y-45.72
X142.24Y-55.88
X142.24Y-73.66
X142.24Y-83.82
X142.245Y-60.96
X142.245Y-68.58
X144.785Y-60.96
X144.785Y-68.58
X147.32Y-45.72
X147.32Y-55.88
X147.32Y-73.66
X147.32Y-83.82
X147.325Y-60.96
X147.325Y-68.58
X149.865Y-60.96
X149.865Y-68.58
X152.4Y-45.72
X152.4Y-55.88
X152.4Y-73.66
X152.4Y-83.82
X152.405Y-60.96
X152.405Y-68.58
X157.48Y-45.72
X157.48Y-55.88
X157.48Y-73.66
X157.48Y-83.82
X165.1Y-48.26
X165.1Y-55.88
X165.1Y-73.66
X165.1Y-81.28
X167.64Y-48.26
X167.64Y-55.88
X167.64Y-73.66
X167.64Y-81.28
X170.18Y-48.26
X170.18Y-55.88
X170.18Y-73.66
X170.18Y-81.28
X172.72Y-48.26
X172.72Y-55.88
X172.72Y-73.66
X172.72Y-81.28
X176.53Y-38.1
X176.53Y-48.26
X181.61Y-38.1
X181.61Y-48.26
X186.69Y-38.1
X186.69Y-48.26
T2
X137.16Y-38.1
X137.16Y-40.64
X137.16Y-88.9
X137.16Y-91.44
X152.4Y-38.1
X152.4Y-40.64
X152.4Y-88.9
X152.4Y-91.44
T3
X165.68Y-38.1
X165.68Y-44.6
X170.18Y-38.1
X170.18Y-44.6
T4
X182.88Y-59.69
X182.88Y-64.69
X182.88Y-69.69
T0
M30
